<svg width="40" height="40" viewBox="0 0 40 40" fill="none" xmlns="http://www.w3.org/2000/svg">
<path d="M20 37.438C17.6872 37.4577 15.3935 37.0172 13.2525 36.1421C11.1115 35.2669 9.166 33.9747 7.52918 32.3405C5.89237 30.7064 4.59696 28.7629 3.71837 26.6234C2.83978 24.4838 2.39555 22.1908 2.41155 19.878C2.42755 17.5651 2.90345 15.2785 3.81156 13.1513C4.71967 11.0241 6.04184 9.09875 7.70111 7.48738C9.36037 5.87601 11.3236 4.6108 13.4765 3.76537C15.6294 2.91995 17.9289 2.51122 20.2413 2.56296C24.8362 2.63966 29.215 4.52698 32.426 7.81463C35.6369 11.1023 37.4203 15.5245 37.3886 20.1199C37.3568 24.7153 35.5123 29.1124 32.2562 32.3554C29.0001 35.5983 24.5955 37.4248 20 37.438ZM17.2238 21.0255C17.3488 21.1505 17.3488 21.1505 17.465 21.1505C20 23.198 22.5338 25.1242 24.9475 27.1805C25.4406 27.6199 25.9649 28.0231 26.5163 28.3867C26.6899 28.5072 26.8915 28.5813 27.1019 28.6018C27.3123 28.6223 27.5244 28.5886 27.718 28.5039C27.9117 28.4191 28.0804 28.2862 28.2081 28.1178C28.3358 27.9494 28.4182 27.751 28.4475 27.5417C28.4655 27.2544 28.423 26.9665 28.3225 26.6967L23.625 15.4742C22.9013 13.7842 22.1763 11.9742 21.4525 10.2855C21.4006 10.1147 21.3073 9.95934 21.1811 9.83311C21.0549 9.70689 20.8995 9.61368 20.7288 9.56171C20.005 9.32046 19.5225 9.68671 19.16 10.4067C16.6263 16.3205 14.2125 22.3542 11.6775 28.268C11.6775 28.393 11.5525 28.5092 11.5525 28.6305H13.9663C14.2075 28.6305 14.2075 28.5055 14.3288 28.3892C14.8113 27.303 15.1738 26.0967 15.6563 25.0142C16.1054 23.6569 16.6286 22.3253 17.2238 21.0255Z" fill="white"/>
<path d="M20.3625 13.1817C21.8113 16.923 23.38 20.543 24.8275 24.1642C24.465 23.923 24.1038 23.5605 23.7413 23.3192C21.9313 21.8705 20.1163 20.543 18.3113 19.0955C18.1863 18.9705 18.07 18.9705 18.1863 18.733C18.7938 16.923 19.5175 15.113 20.3625 13.1817Z" fill="white"/>
</svg>
