<svg width="40" height="40" viewBox="0 0 40 40" fill="none" xmlns="http://www.w3.org/2000/svg">
<path d="M20.4107 13.498C19.4108 17.4267 19.4748 17.2167 18.5679 20.8101C18.5481 21.1411 18.2615 21.4022 17.9125 21.4022C17.8744 21.4022 17.8363 21.3992 17.7997 21.3934H17.8043H16.7754C16.7449 21.3992 16.7083 21.4022 16.6733 21.4022C16.3638 21.4022 16.1093 21.182 16.0697 20.8976V20.8947C15.1902 18.2026 14.0119 14.4634 13.2193 11.9624C12.9267 11.0392 13.1187 11.0611 13.8839 11.0801C14.1491 11.0874 14.4052 11.0801 14.6689 11.0801C14.6872 11.0786 14.7085 11.0772 14.7314 11.0772C15.0301 11.0772 15.2771 11.2886 15.3182 11.5628V11.5657C15.5758 12.448 15.7465 13.1247 17.2174 18.6824C17.2449 18.7917 17.2814 18.8953 17.318 18.9959H17.3958C17.4308 18.8588 17.4735 18.7305 17.5101 18.592C18.0669 16.3432 18.6218 14.0925 19.1746 11.8399C19.3468 11.1399 19.6532 11.0742 20.394 11.0742H20.9366C21.4243 11.0815 21.5798 11.1763 21.7018 11.6415C22.1301 13.2413 23.3815 18.5978 23.6086 19.187C23.9744 17.9357 23.4806 19.7265 25.645 11.7378C25.7944 11.1851 25.9376 11.0757 26.5245 11.0757H27.4253C27.8109 11.083 27.9253 11.1982 27.8323 11.5613C27.66 12.2117 27.625 12.238 24.8829 20.6438C24.6603 21.3205 24.5826 21.3817 23.8403 21.3817H23.0827C22.5614 21.3817 22.4258 21.2928 22.2977 20.8072C21.9898 19.7003 20.6333 14.2665 20.4107 13.5009V13.498ZM10.7104 21.0974C10.8141 21.3001 11.0274 21.4372 11.2744 21.4372C11.4481 21.4372 11.6036 21.3701 11.7179 21.2607L12.1676 20.9734C12.6553 20.6657 12.6889 20.5432 12.4252 20.0503C12.1417 19.534 11.974 18.923 11.974 18.274C11.974 18.2522 11.974 18.2303 11.974 18.2084V18.2113C11.974 17.9984 12.0167 14.4051 11.91 13.6467C11.8155 12.378 10.8964 11.3367 9.66782 11.0057L9.64648 11.0013C9.10842 10.8584 8.4911 10.7767 7.85244 10.7767C7.66038 10.7767 7.46833 10.784 7.28085 10.7986L7.30523 10.7972C6.18339 10.8395 5.1408 11.1238 4.21863 11.5949L4.25674 11.5774C4.11803 11.6488 4.01438 11.767 3.96561 11.9084L3.96408 11.9128C3.92445 12.0849 3.90159 12.2832 3.90159 12.4859C3.90159 12.5749 3.90616 12.6638 3.91378 12.7513L3.91226 12.7397C3.95494 13.1436 4.09822 13.218 4.49757 13.0897C4.86339 12.973 5.21244 12.8242 5.57674 12.7207C6.1026 12.534 6.70925 12.4261 7.34334 12.4261C7.83567 12.4261 8.31124 12.4917 8.76241 12.6128L8.72583 12.604C9.20902 12.7426 9.58551 13.0911 9.74403 13.5359L9.74708 13.5461C9.86445 13.9224 9.93304 14.354 9.93304 14.8017C9.93304 14.9388 9.92694 15.0759 9.91475 15.2101L9.91627 15.1926C9.91627 15.5688 9.90865 15.5688 9.52301 15.5003C8.86759 15.3442 8.11613 15.2538 7.34182 15.2538C7.05678 15.2538 6.77327 15.2655 6.49433 15.2903L6.53092 15.2874C5.42431 15.3647 4.45794 15.8795 3.80708 16.648L3.80099 16.6553C3.40468 17.1803 3.1669 17.838 3.1669 18.5482C3.1669 18.8355 3.20501 19.1126 3.27817 19.378L3.2736 19.3547C3.43212 20.3492 4.16986 21.1455 5.1408 21.4284L5.15909 21.4328C5.58588 21.5786 6.07821 21.6632 6.59189 21.6632C7.60856 21.6632 8.54597 21.3322 9.2898 20.7765L9.28066 20.7838C9.55198 20.5928 9.79586 20.3609 10.0733 20.1334C10.2958 20.4747 10.4879 20.7955 10.7089 21.0901L10.7104 21.0974ZM9.61295 16.8872H9.62057C9.78976 16.8872 9.92694 17.0184 9.92694 17.1803C9.92694 17.2007 9.92542 17.2197 9.92084 17.2401V17.2386C9.9056 17.4982 9.92846 17.7578 9.8995 18.0174C9.82329 18.7801 9.32486 19.4159 8.63438 19.7149L8.62066 19.7207C8.17253 19.9453 7.64362 20.078 7.08117 20.078C6.96685 20.078 6.85406 20.0722 6.74279 20.062L6.7565 20.0634C5.95018 20.0182 5.31457 19.3824 5.31457 18.6036C5.31457 18.484 5.32981 18.3674 5.35877 18.2551L5.35724 18.2653C5.39687 17.4661 6.0584 16.8259 6.88759 16.7763H6.89216C7.21225 16.7267 7.58112 16.699 7.95609 16.699C8.5475 16.699 9.12366 16.769 9.67239 16.9003L9.62362 16.8901L9.61295 16.8872ZM34.5283 21.3365C35.7858 20.9326 36.6744 19.8155 36.6744 18.5001C36.6744 18.2945 36.6531 18.0932 36.612 17.8992L36.615 17.9182C36.4519 16.9659 35.7553 16.2017 34.8332 15.9072L34.8149 15.9013C33.4248 15.4842 32.2861 15.0628 31.1826 14.5815L31.3792 14.6588C31.0606 14.5057 30.8442 14.1995 30.8366 13.8436C30.8274 13.7897 30.8229 13.727 30.8229 13.6642C30.8229 13.0532 31.3076 12.5515 31.9295 12.4903H31.934C32.2557 12.4174 32.6245 12.3765 33.0041 12.3765C33.3348 12.3765 33.6595 12.4086 33.972 12.4684L33.9415 12.464C34.4628 12.5603 34.9627 12.7513 35.4703 12.8942C35.67 12.9555 35.8925 13.0372 36.0282 12.7849C36.0983 12.6434 36.1394 12.4772 36.1394 12.3036C36.1394 11.869 35.8864 11.4913 35.513 11.2988L35.5069 11.2959C34.7539 10.9517 33.8698 10.752 32.937 10.752C32.1048 10.752 31.3121 10.9124 30.5896 11.2011L30.6293 11.1865C29.5242 11.6065 28.7575 12.6215 28.7575 13.8072C28.7575 14.9432 29.4617 15.9232 30.4753 16.3665L30.4936 16.3738C31.0439 16.6276 31.6429 16.7778 32.2221 16.982C32.8013 17.1861 33.379 17.3786 33.9445 17.6032C34.3347 17.8103 34.5954 18.2026 34.5954 18.6532C34.5954 19.0703 34.3728 19.4363 34.0345 19.6507L34.0299 19.6536C32.0514 20.7036 29.3962 19.4888 29.0867 19.394C28.852 19.3197 28.7087 19.4086 28.6371 19.6478C28.5792 19.7776 28.5456 19.9292 28.5456 20.0882C28.5456 20.6263 28.9343 21.0784 29.4587 21.198L29.4663 21.1995C30.2757 21.5101 31.2131 21.6895 32.1947 21.6895C33.0269 21.6895 33.8287 21.5597 34.5771 21.3205L34.5237 21.3351L34.5283 21.3365ZM22.8922 32.4563C26.6998 32.0655 30.1568 30.9222 33.2007 29.1838L33.0848 29.2451C33.6564 28.9242 34.1914 28.5451 34.7341 28.1717C35.2554 27.8217 34.9627 26.9147 33.9262 27.3376C30.3534 28.8382 26.2044 29.7978 21.8466 29.9932L21.7688 29.9961C21.3116 30.018 20.7765 30.0297 20.2385 30.0297C18.4825 30.0297 16.7571 29.9013 15.0728 29.6534L15.2603 29.6767C10.5092 29.022 6.23064 27.5505 2.4124 25.4082L2.57854 25.4942C2.44441 25.4082 2.29046 25.3382 2.12584 25.2915L2.11364 25.2886C1.76307 25.2142 1.56339 25.6095 1.9414 25.9507C6.61932 30.0895 12.8992 32.627 19.7995 32.627H19.8208H19.8193C20.8482 32.5715 21.877 32.5657 22.8907 32.4563H22.8922ZM35.3712 26.1563C36.429 26.2117 36.7568 26.5603 36.4931 27.5359C36.2217 28.548 35.8285 29.5324 35.5008 30.5299C35.4368 30.7282 35.2005 30.9601 35.4429 31.1322C35.7081 31.3101 35.9077 31.0636 36.0861 30.9076C36.7796 30.2761 37.3253 29.5047 37.6774 28.6399L37.6926 28.5976C38.0859 27.7751 38.3145 26.8126 38.3145 25.799C38.3145 25.7757 38.3145 25.7538 38.3145 25.7305V25.7334C38.2993 25.3105 38.1865 25.1311 37.7567 25.0159C37.4152 24.9153 37.0144 24.838 36.6028 24.8001L36.5784 24.7986C36.2995 24.7651 35.9779 24.7461 35.6502 24.7461C34.3759 24.7461 33.1717 25.0334 32.1032 25.5424L32.149 25.522C31.9127 25.6445 31.7084 25.7786 31.521 25.9303L31.5271 25.9259C31.4493 25.9872 31.2984 26.2876 31.6993 26.343C31.7359 26.3459 31.7801 26.3474 31.8228 26.3474C31.9279 26.3474 32.0316 26.3386 32.1307 26.3211L32.12 26.3226C32.9217 26.2132 33.8485 26.1505 34.789 26.1505C34.9932 26.1505 35.1959 26.1534 35.3987 26.1592H35.3697L35.3712 26.1563Z" fill="white"/>
</svg>
