<svg width="40" height="40" viewBox="0 0 40 40" fill="none" xmlns="http://www.w3.org/2000/svg">
<path d="M18.6937 31.9072L26.9458 30.4721L27.0222 30.4551L22.7778 25.4878C21.3544 23.8312 19.9388 22.1682 18.531 20.4987C18.531 20.4745 22.9158 8.59814 22.9405 8.55692C25.3665 12.6419 27.7771 16.7356 30.1722 20.8381L37.4433 33.2381L37.5 33.3327L10.5155 33.3303L18.6937 31.9072ZM2.5 30.3945C2.5 30.3872 4.49894 26.9715 6.94401 22.8042L11.3905 15.2236L16.5715 10.9472C19.4208 8.59814 21.7599 6.66602 21.7673 6.66602C21.7489 6.73774 21.7216 6.80695 21.6859 6.87208L16.0563 18.7412L10.5352 30.3969L6.51761 30.4018C4.30669 30.4042 2.5 30.4018 2.5 30.3945Z" fill="white"/>
</svg>
