<svg width="40" height="40" viewBox="0 0 40 40" fill="none" xmlns="http://www.w3.org/2000/svg">
<g clip-path="url(#clip0_0_43)">
<path d="M27.4791 28.016C27.7256 27.1942 27.6435 26.3724 27.2326 25.8792C26.8216 25.386 26.2463 25.0574 25.5066 24.9752L11.2063 24.8107C11.1241 24.8107 11.0419 24.7285 10.9598 24.7285C10.8776 24.6464 10.8776 24.5642 10.9598 24.482C11.0419 24.3177 11.1241 24.2354 11.2884 24.2354L25.671 24.0711C27.397 23.9889 29.2051 22.5917 29.8624 20.9481L30.6844 18.8113C30.6844 18.7289 30.7666 18.6469 30.6844 18.5647C29.7803 14.3732 25.9998 11.25 21.5617 11.25C17.4524 11.25 13.9184 13.88 12.6856 17.5784C11.8638 17.0031 10.8776 16.6743 9.72694 16.7566C7.75446 16.9209 6.19297 18.5646 5.94631 20.5371C5.86415 21.0302 5.94631 21.5234 6.02864 22.0164C2.82333 22.0986 0.193359 24.7285 0.193359 28.016C0.193359 28.3447 0.193359 28.5913 0.275527 28.92C0.275527 29.0845 0.439862 29.1667 0.522184 29.1667H26.9038C27.0681 29.1667 27.2326 29.0845 27.2326 28.92L27.4791 28.016Z" fill="white"/>
<path d="M31.9993 18.8112H31.5884C31.5062 18.8112 31.424 18.8933 31.3419 18.9755L30.7665 20.948C30.52 21.7698 30.6022 22.5918 31.0132 23.0848C31.424 23.578 31.9993 23.9066 32.739 23.989L35.78 24.1533C35.8621 24.1533 35.9443 24.2355 36.0265 24.2355C36.1086 24.3176 36.1086 24.3998 36.0265 24.482C35.9443 24.6465 35.8621 24.7286 35.6977 24.7286L32.5747 24.893C30.8487 24.9751 29.0407 26.3723 28.3832 28.0159L28.2187 28.7558C28.1365 28.8379 28.2187 29.0023 28.3832 29.0023H39.2318C39.3961 29.0023 39.4783 28.9201 39.4783 28.7558C39.6426 28.0983 39.8069 27.3586 39.8069 26.6188C39.8069 22.3452 36.273 18.8112 31.9993 18.8112Z" fill="white"/>
</g>
<defs>
<clipPath id="clip0_0_43">
<rect width="40" height="40" fill="white"/>
</clipPath>
</defs>
</svg>
