<svg width="40" height="40" viewBox="0 0 40 40" fill="none" xmlns="http://www.w3.org/2000/svg">
<path d="M30.4349 11.8415L30.7943 11.2976L31.422 11.6785L31.6999 11.8774C32.3707 12.3949 33.7819 13.7174 34.0862 15.912C34.6204 15.8161 35.1595 15.7682 35.6986 15.7682C36.9779 15.7682 37.838 16.0653 38.3268 16.3121L38.5783 16.4486L38.7413 16.5565L39.1989 16.9302L39.0407 17.4094C38.795 18.0663 38.411 18.6627 37.9147 19.1583C37.2199 19.8747 35.998 20.7204 34.0598 20.8306L33.6333 20.8426H33.2788C32.3923 23.1833 31.2016 25.8211 29.2011 28.1882C28.0141 29.5948 26.6061 30.7989 25.0323 31.7532C23.1456 32.8726 21.0795 33.6572 18.9253 34.0724C17.3824 34.3719 15.8155 34.5204 14.2463 34.5156C10.7723 34.5156 7.70564 33.8256 5.82012 32.6181C4.13585 31.5424 2.8421 29.7862 1.97241 27.4024C1.21131 25.2241 0.83751 22.9294 0.867929 20.6222C0.863987 20.3264 0.966255 20.039 1.15616 19.8121C1.34607 19.5853 1.61103 19.4341 1.90293 19.3859L2.06585 19.374H27.3179L27.5383 19.3572L27.8953 19.3189C28.5087 19.2374 29.443 19.0553 30.0995 18.672C29.3137 17.371 29.0908 15.8497 29.4574 14.2301C29.6109 13.5545 29.8526 12.9021 30.1762 12.2895L30.4349 11.8415ZM7.78949 14.8315L7.88532 14.8482C7.9291 14.8646 7.96851 14.8908 8.0005 14.9249C8.03249 14.959 8.05621 15 8.0698 15.0447L8.08418 15.1405V18.291L8.0698 18.3893C8.05596 18.4342 8.03188 18.4754 7.99946 18.5095C7.96703 18.5436 7.92715 18.5697 7.88293 18.5857L7.78949 18.6001H4.40657C4.34352 18.5993 4.28238 18.5784 4.23198 18.5405C4.18159 18.5026 4.14456 18.4496 4.12626 18.3893L4.10949 18.2934V15.1381L4.12626 15.0423C4.13978 14.9969 4.16371 14.9553 4.19616 14.9207C4.2286 14.8862 4.26866 14.8597 4.31314 14.8434L4.40657 14.8291L7.78949 14.8315ZM12.4542 14.8315L12.5476 14.8482C12.5918 14.8643 12.6317 14.8904 12.6641 14.9245C12.6966 14.9586 12.7206 14.9997 12.7345 15.0447L12.7489 15.1405V18.291L12.7321 18.3893C12.7183 18.4342 12.6942 18.4754 12.6617 18.5095C12.6293 18.5436 12.5894 18.5697 12.5452 18.5857L12.4518 18.6001H9.06887C9.00591 18.5989 8.94494 18.5779 8.89461 18.54C8.84429 18.5022 8.80718 18.4494 8.78855 18.3893L8.77178 18.2958V15.1405C8.77127 15.0764 8.79056 15.0137 8.827 14.961C8.86345 14.9082 8.91528 14.868 8.97543 14.8458L9.06887 14.8291L12.4542 14.8315ZM17.1883 14.8315L17.2818 14.8482C17.3256 14.8646 17.365 14.8908 17.397 14.9249C17.429 14.959 17.4527 15 17.4663 15.0447L17.483 15.1405V18.291L17.4663 18.3893C17.4524 18.4342 17.4283 18.4754 17.3959 18.5095C17.3635 18.5436 17.3236 18.5697 17.2794 18.5857L17.1859 18.6001H13.803C13.74 18.5993 13.6788 18.5784 13.6284 18.5405C13.578 18.5026 13.541 18.4496 13.5227 18.3893L13.5083 18.2934V15.1381L13.5227 15.0423C13.5362 14.9969 13.5602 14.9553 13.5926 14.9207C13.6251 14.8862 13.6651 14.8597 13.7096 14.8434L13.803 14.8291L17.1883 14.8315ZM21.865 14.8315L21.9584 14.8482C22.0027 14.8643 22.0426 14.8904 22.075 14.9245C22.1074 14.9586 22.1315 14.9997 22.1453 15.0447L22.1621 15.1405V18.291C22.1626 18.3551 22.1433 18.4179 22.1069 18.4706C22.0704 18.5233 22.0186 18.5635 21.9584 18.5857L21.8626 18.6001H18.4821C18.419 18.5993 18.3579 18.5784 18.3075 18.5405C18.2571 18.5026 18.2201 18.4496 18.2018 18.3893L18.1874 18.2934V15.1381L18.2018 15.0423C18.2153 14.9969 18.2392 14.9553 18.2717 14.9207C18.3041 14.8862 18.3442 14.8597 18.3887 14.8434L18.4845 14.8291H21.8674L21.865 14.8315ZM26.5848 14.8315L26.6782 14.8482C26.7225 14.8643 26.7623 14.8904 26.7948 14.9245C26.8272 14.9586 26.8513 14.9997 26.8651 15.0447L26.8795 15.1405V18.291C26.88 18.3551 26.8607 18.4179 26.8243 18.4706C26.7878 18.5233 26.736 18.5635 26.6758 18.5857L26.5824 18.6001H23.1995C23.1364 18.5993 23.0753 18.5784 23.0249 18.5405C22.9745 18.5026 22.9375 18.4496 22.9192 18.3893L22.9048 18.2934V15.1381L22.9192 15.0423C22.9327 14.9969 22.9566 14.9553 22.9891 14.9207C23.0215 14.8862 23.0616 14.8597 23.1061 14.8434L23.2019 14.8291H26.5824L26.5848 14.8315ZM12.4494 10.2985L12.5452 10.3153C12.5887 10.3314 12.628 10.3573 12.66 10.391C12.6919 10.4246 12.7158 10.4651 12.7297 10.5094L12.7465 10.6076V13.7581C12.747 13.8222 12.7277 13.8849 12.6912 13.9377C12.6548 13.9904 12.603 14.0306 12.5428 14.0528L12.4494 14.0696H9.06887C9.0053 14.0681 8.94388 14.0463 8.89348 14.0076C8.84309 13.9688 8.80634 13.915 8.78855 13.854L8.77178 13.7581V10.6076C8.77176 10.5439 8.79128 10.4817 8.82769 10.4295C8.86411 10.3772 8.91567 10.3374 8.97543 10.3153L9.06887 10.2985H12.4494ZM17.1836 10.2985L17.2794 10.3153C17.3229 10.3314 17.3621 10.3573 17.3941 10.391C17.4261 10.4246 17.45 10.4651 17.4639 10.5094L17.4806 10.6076V13.7581C17.4811 13.8222 17.4619 13.8849 17.4254 13.9377C17.389 13.9904 17.3371 14.0306 17.277 14.0528L17.1836 14.0696H13.803C13.7395 14.0681 13.678 14.0463 13.6276 14.0076C13.5773 13.9688 13.5405 13.915 13.5227 13.854L13.5083 13.7581V10.6076L13.5227 10.5118C13.5366 10.4668 13.5606 10.4257 13.5931 10.3916C13.6255 10.3575 13.6654 10.3314 13.7096 10.3153L13.803 10.2985H17.1836ZM21.8626 10.2985C21.992 10.2985 22.1022 10.3872 22.1429 10.5094L22.1597 10.6076V13.7581C22.1602 13.8222 22.1409 13.8849 22.1045 13.9377C22.068 13.9904 22.0162 14.0306 21.9561 14.0528L21.8602 14.0696H18.4821C18.4185 14.0681 18.3571 14.0463 18.3067 14.0076C18.2563 13.9688 18.2196 13.915 18.2018 13.854L18.1874 13.7581V10.6076L18.2018 10.5118C18.2156 10.4668 18.2397 10.4257 18.2721 10.3916C18.3046 10.3575 18.3444 10.3314 18.3887 10.3153L18.4845 10.2985H21.8674H21.8626ZM21.8626 5.76562C21.992 5.76562 22.1022 5.85427 22.1429 5.97646L22.1597 6.07229V9.22521C22.1602 9.28931 22.1409 9.35202 22.1045 9.40476C22.068 9.4575 22.0162 9.49771 21.9561 9.5199L21.8602 9.53427H18.4821C18.419 9.53343 18.3579 9.51254 18.3075 9.47464C18.2571 9.43673 18.2201 9.38378 18.2018 9.32344L18.1874 9.2276V6.07229L18.2018 5.97646C18.2156 5.93149 18.2397 5.89035 18.2721 5.85626C18.3046 5.82217 18.3444 5.79607 18.3887 5.78L18.4821 5.76562H21.865H21.8626Z" fill="white"/>
</svg>
