<svg width="40" height="40" viewBox="0 0 40 40" fill="none" xmlns="http://www.w3.org/2000/svg">
<path d="M21.3825 5.19977L7.04422 19.518C6.77725 19.7845 6.77725 20.2161 7.04422 20.482L10.8582 24.2907C11.1252 24.5573 11.5574 24.5573 11.8237 24.2907L29.9759 6.16386C30.4061 5.73432 30.1016 5 29.4932 5H21.8652C21.6843 5 21.5109 5.07159 21.3825 5.19977ZM29.9759 19.8002L18.1687 31.5909L13.872 27.3002C13.605 27.0336 13.605 26.602 13.872 26.3361L21.3825 18.8361C21.5109 18.708 21.6843 18.6364 21.8652 18.6364H29.4932C30.1016 18.6364 30.4061 19.3707 29.9759 19.8002ZM29.9759 33.8361L24.9965 28.8636L18.1687 31.5909L21.3825 34.8002C21.5109 34.9284 21.6843 35 21.8652 35H29.4932C30.1016 35 30.4061 34.2657 29.9759 33.8361Z" fill="white"/>
</svg>
