<svg width="40" height="40" viewBox="0 0 40 40" fill="none" xmlns="http://www.w3.org/2000/svg">
<path d="M20 12.084C11.5894 12.084 5 15.6533 5 20.209C5 24.7646 11.5894 28.334 20 28.334C28.4106 28.334 35 24.7646 35 20.209C35 15.6533 28.4106 12.084 20 12.084ZM18.4424 14.584H20.0806L19.5605 17.084H21.0229C21.9507 17.084 22.5732 17.2134 22.9272 17.5381C23.2739 17.8579 23.3789 18.3828 23.2397 19.0981L22.5903 22.084H20.9253L21.5234 19.3228C21.5967 18.9443 21.5674 18.6807 21.4404 18.5415C21.3135 18.4023 21.0352 18.334 20.6177 18.334H19.3066L18.5156 22.084H16.875L18.4424 14.584ZM11.25 17.084H14.5825C16.1719 17.084 17.1338 18.1484 16.7578 19.7378C16.3208 21.5835 15.1489 22.084 12.9956 22.084H11.9653L11.6382 23.959H9.98291L11.25 17.084ZM24.375 17.084H27.7075C29.2969 17.084 30.2588 18.1484 29.8828 19.7378C29.4458 21.5835 28.2739 22.084 26.1206 22.084H25.0903L24.7632 23.959H23.1079L24.375 17.084ZM12.6685 18.334L12.1973 20.834H13.2666C14.1919 20.834 15.0513 20.729 15.1953 19.3496C15.249 18.8149 15.0269 18.334 13.9575 18.334H12.6685ZM25.7935 18.334L25.3223 20.834H26.3916C27.3169 20.834 28.1763 20.729 28.3203 19.3496C28.374 18.8149 28.1519 18.334 27.0825 18.334H25.7935Z" fill="white"/>
</svg>
