<svg width="40" height="40" viewBox="0 0 40 40" fill="none" xmlns="http://www.w3.org/2000/svg">
<path d="M21.7299 0.839745C22.1178 0.829167 22.4992 0.834601 22.8675 0.844423L22.9007 0.845358C23.469 0.870286 24.018 0.92326 24.5458 0.987556H26.4009V1.32294C28.3422 1.78675 30.2175 2.61988 31.8423 3.97232L32.0429 4.14305L32.0467 4.14679C34.6976 6.46712 36.3457 9.97965 36.6802 14.6718V14.6732C37.0217 19.5109 36.2045 23.1197 35.2325 25.5701C34.9837 26.2004 34.7442 26.7151 34.5168 27.1417L34.8288 27.3883L34.8316 27.3901C35.3738 27.8248 35.9417 28.2947 36.4024 28.7129L36.4033 28.7139C36.6186 28.9096 36.8642 29.1381 37.0834 29.3865C37.1631 29.4768 37.2477 29.5781 37.3355 29.6966L37.4244 29.8215L37.444 29.8505L37.4632 29.8805C37.4697 29.8903 37.4882 29.9181 37.5081 29.9497C37.552 30.0192 37.6147 30.1247 37.6765 30.2598C37.8084 30.5482 37.8808 30.851 37.9062 31.1677L37.908 31.1892L37.9094 31.2108C37.9502 31.92 37.8015 32.6249 37.6966 33.1407L37.6929 33.1594C37.5642 33.7614 37.3973 34.4262 37.2289 35.0459C37.0621 35.6706 36.8927 36.2562 36.7653 36.684C36.7015 36.8984 36.648 37.0747 36.61 37.1981C36.5911 37.2597 36.5761 37.3086 36.5656 37.3421C36.5604 37.3588 36.5563 37.3719 36.5534 37.381C36.552 37.3854 36.5505 37.3887 36.5497 37.3912C36.5493 37.3925 36.5488 37.3945 36.5488 37.3945V37.3959L35.9973 39.1673H4.19911L2.08301 33.8976L2.1789 32.9574L2.17983 32.9457L2.18124 32.9335C2.22002 32.5956 2.31789 32.1997 2.56526 31.8221C2.68682 31.6366 2.81061 31.5088 2.88333 31.4381C2.8866 31.4349 2.88967 31.4316 2.89268 31.4287C2.98829 31.3282 3.07843 31.2471 3.16538 31.1766C3.17541 31.1683 3.18581 31.1605 3.19579 31.1523C3.20243 31.147 3.20882 31.1415 3.21543 31.1364C3.34227 31.0336 3.46423 30.9442 3.57654 30.8646L3.58776 30.8567L3.59852 30.8492C3.85835 30.6706 4.18429 30.459 4.55741 30.2233L4.5677 30.2168L4.57752 30.2107C5.33197 29.7472 6.31729 29.1671 7.30357 28.5946L7.30451 28.5937C8.13545 28.112 8.9078 27.6713 9.54504 27.3097C9.33235 26.7662 9.1635 26.2599 9.03285 25.8203L9.02537 25.8096C8.20252 25.4998 7.34391 24.9463 6.52991 24.0751C5.2231 22.6783 4.63995 20.7762 4.65236 19.0378V19.0355C4.6629 17.7714 5.07333 16.5109 5.88255 15.4993C5.45451 13.0712 5.67903 11.1193 6.51308 9.70001C6.91535 9.01387 7.40185 8.5325 7.84149 8.19944C8.46231 6.53866 9.64776 5.40931 10.6344 4.7081C11.4683 4.11549 12.2574 3.75807 12.6907 3.58501C13.6234 2.91685 16.772 0.947326 21.7299 0.839745ZM4.18181 31.9386L4.18414 31.9367C4.18537 31.9358 4.18705 31.9348 4.18882 31.9334C4.18628 31.9353 4.18392 31.937 4.18181 31.9386Z" fill="white"/>
<path d="M21.7368 2.50524C16.7019 2.61577 13.8235 4.90816 13.662 5.03792C13.5338 5.08117 10.2088 6.23458 9.53435 9.24304C9.42986 9.28629 9.40136 9.28149 9.24936 9.3728C8.94537 9.57465 8.56538 9.90625 8.25664 10.4397C7.66765 11.4537 7.42066 13.1934 8.06189 15.8991C7.16891 16.596 6.68443 17.6869 6.67493 18.8403C6.66543 20.1812 7.11667 21.5845 8.02389 22.5649C8.83612 23.4443 9.6246 23.824 10.2326 23.9538C10.4701 24.0066 10.4796 23.9586 10.6553 23.9538C10.7646 24.5305 11.1778 26.1981 12.066 27.9282C11.5531 28.2213 10.0853 29.0528 8.35638 30.0668C7.38266 30.6387 6.42318 31.2106 5.69645 31.6623C5.33546 31.893 5.03622 32.0901 4.80822 32.2486C4.69423 32.3303 4.60398 32.3976 4.51848 32.4697C4.47573 32.5034 4.43773 32.537 4.39024 32.5899C4.34274 32.6475 4.24774 32.6812 4.21449 32.9743L4.16699 33.4453L5.61095 37.0833H34.4332L34.5662 36.6508C34.5662 36.6508 34.8987 35.5839 35.2169 34.3776C35.3784 33.7769 35.5352 33.1425 35.6539 32.5803C35.7679 32.0132 35.8534 31.5566 35.8297 31.1385C35.8107 30.8982 35.7347 30.8117 35.6777 30.7204C35.6159 30.6291 35.5542 30.5522 35.4829 30.4705C35.3404 30.3071 35.1647 30.1389 34.9557 29.9466C34.5425 29.567 34.0152 29.1248 33.488 28.6971C32.6378 28.0099 32.0963 27.6062 31.797 27.3755C32.0535 27.0535 32.6045 26.472 33.3075 24.6698C34.1672 22.4784 34.9319 19.1479 34.6137 14.5871C34.3097 10.2715 32.8373 7.26784 30.6666 5.3455C28.9091 3.79801 26.7337 2.98102 24.4252 2.66383V2.65422C24.4062 2.65422 24.392 2.65903 24.373 2.65422C23.8457 2.58694 23.3137 2.53407 22.7723 2.51005C22.416 2.50043 22.074 2.49563 21.7368 2.50524ZM23.062 3.88452C23.4515 3.86049 23.8552 3.86529 24.2732 3.88452C26.3917 4.17767 28.3344 4.91778 29.8686 6.27783C30.7093 7.02274 31.436 7.96469 32.0155 9.1277C31.5643 8.94989 31.113 8.8826 30.7141 8.90183C29.6833 8.9595 28.9281 9.4545 28.9281 9.4545L29.5788 10.4974C29.5788 10.4974 30.1061 10.1658 30.7758 10.1321C31.4313 10.0985 32.177 10.2715 32.8943 11.5162C33.1365 12.4534 33.3122 13.4818 33.3977 14.64C33.3597 14.5727 33.3312 14.5151 33.2837 14.4382C33.146 14.1786 32.9655 13.8567 32.7898 13.5443C32.4288 12.9195 32.0773 12.3188 32.0773 12.3188L31.0323 12.9435C31.0323 12.9435 31.379 13.5395 31.7305 14.1594C31.911 14.467 32.0868 14.7842 32.2198 15.0293C32.2625 15.1014 32.2863 15.1494 32.3148 15.2071C32.2625 15.2359 32.2388 15.2552 32.1248 15.2792C31.7543 15.3609 31.1368 15.3513 30.5431 15.1735L30.2058 16.3605C30.9848 16.5864 31.7495 16.62 32.3765 16.4807C32.6948 16.4134 32.9797 16.3124 33.2315 16.0962C33.3122 16.0289 33.3835 15.928 33.45 15.8223C33.564 19.6045 32.899 22.3726 32.1818 24.2181C31.3885 26.2461 30.5668 27.1304 30.5668 27.1304L30.1108 27.635V27.6398C29.4458 28.2982 27.9354 29.4613 25.3799 29.6487C21.827 29.913 19.3951 27.6639 18.2219 26.3999C17.1009 25.1985 16.9442 24.2805 16.9442 24.2805L15.7472 24.516C15.7472 24.516 16.0274 25.8376 17.3384 27.2458C17.8609 27.808 18.6636 28.5818 19.7038 29.2786C19.6278 29.2834 19.5471 29.2738 19.4663 29.2882C18.9914 29.3699 18.5211 29.591 18.1934 29.9995C16.4692 29.8986 15.258 29.394 14.4885 28.8894C13.662 28.3415 13.3485 27.8705 13.339 27.8561C12.5268 26.5201 12.047 24.6458 11.8523 23.7615C12.18 23.5933 12.5885 23.2905 13.0113 22.7667L12.066 21.9882C11.7335 22.3967 11.4581 22.5841 11.2823 22.6754C11.2728 22.6802 11.2823 22.6754 11.2728 22.6802L10.9688 22.7763C10.9688 22.7763 10.8501 22.8292 10.4891 22.7523C10.1281 22.6754 9.5771 22.4447 8.91212 21.7238C8.27089 21.0318 7.8814 19.888 7.8909 18.8547C7.9004 17.8167 8.27089 16.9805 8.96437 16.6248L8.98337 16.6104C9.8051 16.149 10.3513 16.0866 10.7218 16.1635C11.0923 16.2404 11.3488 16.4566 11.5673 16.769C12.009 17.3986 12.1373 18.3453 12.1373 18.3453L12.2228 19.1095L14.688 18.2492L14.6262 17.7542C14.6262 17.7542 14.5122 16.9036 14.1512 15.8607C13.928 15.2311 14.0277 14.4141 14.2652 13.5683C14.498 12.7225 14.8447 11.8863 14.9872 11.1221C15.1392 10.3147 14.9445 9.73804 14.726 9.34396C15.163 8.45008 17.4904 4.20651 23.062 3.88452ZM17.7421 4.36991C15.6854 5.69632 14.4552 7.41201 13.8615 8.40202L13.6952 8.42124C12.5695 8.52697 11.5958 8.70959 10.8643 8.86818C11.7098 7.04677 14.1132 6.1721 14.1132 6.1721L14.2225 6.13366L14.308 6.06157C14.308 6.06157 15.5049 5.06195 17.7421 4.36991ZM20.5541 9.18057C19.2811 9.24785 18.4119 9.88703 17.9464 10.6031C17.3194 11.5595 17.2862 12.5975 17.2862 12.5975L18.4974 12.6648C18.4974 12.6648 18.5496 11.9055 18.9581 11.2807C19.3666 10.656 19.9936 10.1129 21.6798 10.5118L21.96 9.31513C21.447 9.19498 20.9768 9.15654 20.5541 9.18057ZM13.4958 9.6996C13.7427 9.97834 13.9375 10.1225 13.795 10.8914C13.6952 11.4297 13.3485 12.2948 13.0873 13.2415C12.8308 14.1835 12.6455 15.2455 13.0018 16.2692C13.2298 16.9228 13.2488 17.1679 13.2963 17.437L13.0873 17.5091C13.0113 17.0862 13.0255 16.7161 12.5648 16.0577C12.218 15.5675 11.6908 15.1062 10.9593 14.9572C10.4178 14.8467 9.80035 14.9188 9.10686 15.1927C8.62713 12.9243 8.93587 11.6988 9.30636 11.0645C9.50585 10.7136 9.73385 10.5214 9.90009 10.4157C10.0663 10.3099 10.1328 10.2955 10.1328 10.2955H10.1423C10.1423 10.2955 11.8048 9.90144 13.4958 9.6996ZM23.2235 12.511L22.1025 12.9868C22.1025 12.9868 22.929 14.9668 23.4752 15.9424C23.4372 15.9664 23.4325 15.9808 23.3042 16.0097C22.8958 16.101 22.1168 16.0577 21.2333 15.6685L20.7441 16.7978C21.827 17.2736 22.8103 17.3793 23.5607 17.2111C23.936 17.1294 24.278 16.9901 24.525 16.6729C24.7767 16.3557 24.8005 15.8174 24.5867 15.4618C24.2067 14.8226 23.2235 12.511 23.2235 12.511ZM27.9306 13.2463L26.7147 13.2607C26.7147 13.2607 26.7479 16.1875 29.0658 18.3117H29.0611C30.0348 19.2056 30.4433 19.7871 30.5098 19.9937C30.5431 20.0995 30.5336 20.0898 30.5146 20.1283C30.5003 20.1667 30.4291 20.2629 30.2866 20.3974C30.1061 20.5608 29.3936 20.9213 28.6241 21.1567C27.8546 21.3922 26.9902 21.546 26.4439 21.5316C26.2397 21.522 26.2112 21.4835 26.1779 21.4499C26.1399 21.4115 26.1019 21.3298 26.0829 21.2C26.0449 20.9453 26.1162 20.6185 26.1162 20.6185L24.9335 20.3157C24.9335 20.3157 24.7957 20.8107 24.8812 21.3826C24.924 21.671 25.0285 22.0026 25.2849 22.2861C25.5462 22.5697 25.9594 22.7475 26.4107 22.7619C27.1896 22.7811 28.1159 22.5985 28.9756 22.3342C29.8353 22.0699 30.5953 21.7719 31.0988 21.3105C31.2983 21.1279 31.4978 20.9213 31.626 20.6281C31.7543 20.3349 31.7733 19.9553 31.6688 19.6141C31.4503 18.9412 30.8993 18.3405 29.8781 17.3986C27.9686 15.6492 27.9306 13.2463 27.9306 13.2463ZM9.89534 17.2928C9.50585 17.3169 9.09736 17.4947 8.72687 17.8023L9.41086 18.6337C9.24461 19.1383 9.07836 19.8784 9.21611 20.6425L10.4131 20.4214C10.3466 20.0562 10.4463 19.5612 10.5556 19.1479C10.7076 19.4603 10.8263 19.7679 10.8263 19.7679L11.9995 19.4555C11.9995 19.4555 11.8238 18.7058 11.3488 18.0714C11.1066 17.7542 10.7693 17.4274 10.2753 17.3217C10.1518 17.2928 10.0236 17.2832 9.89534 17.2928ZM31.2935 22.0314C30.3673 23.0935 28.6716 23.2377 28.6716 23.2377L28.7429 24.468C28.7429 24.468 30.8613 24.3959 32.2055 22.8388L31.2935 22.0314ZM23.1333 22.4687L22.3638 23.4203C24.943 25.5397 28.0589 24.6314 28.0589 24.6314L27.7216 23.4539C27.7216 23.4539 25.2089 24.17 23.1333 22.4687ZM22.796 24.4391L21.6228 24.7756C21.8603 25.631 22.4493 26.2413 23.119 26.621C23.784 27.0007 24.5392 27.1785 25.2517 27.2746C26.6767 27.462 27.9686 27.2842 27.9686 27.2842L27.8119 26.0635C27.8119 26.0635 26.6387 26.2173 25.4132 26.0539C24.7957 25.977 24.1782 25.8136 23.708 25.5493C23.2425 25.2802 22.9338 24.9534 22.796 24.4391ZM31.0845 28.3751C31.3885 28.6106 31.9063 28.9951 32.728 29.6583C33.2457 30.0764 33.7635 30.5089 34.1387 30.855C34.3287 31.0328 34.4855 31.1866 34.5757 31.2923C34.59 31.3067 34.59 31.3067 34.5995 31.3163C34.5947 31.4749 34.5615 31.845 34.4617 32.3255C34.3525 32.8542 34.1957 33.4741 34.0437 34.0605C33.7872 35.0072 33.621 35.5551 33.5307 35.853H32.101L32.0583 35.5022C32.006 35.0312 31.7543 34.7429 31.4978 34.5458C31.5453 34.4545 31.607 34.368 31.6355 34.2767C31.7638 33.8971 31.8018 33.4982 31.8018 33.1089C31.8113 32.3255 31.6735 31.5374 31.6213 31.1049C31.5405 30.3984 31.2745 29.7929 30.8281 29.3796C30.6713 29.2402 30.4956 29.1345 30.3056 29.048C30.6286 28.8029 30.8946 28.5674 31.0845 28.3751ZM12.5648 29.0528C12.75 29.4853 13.073 30.1437 13.9042 31.2346C15.0727 32.7725 17.0012 33.3107 17.9084 33.4838C17.9606 34.0556 18.0271 34.6035 18.1744 35.0985C18.2504 35.3628 18.3596 35.6175 18.5069 35.853H6.42793L5.42096 33.3155C5.45421 33.2915 5.46371 33.2819 5.50171 33.2579C5.6917 33.1233 5.98619 32.9311 6.34244 32.7148C7.04542 32.2727 7.99539 31.7008 8.96437 31.1337C10.6363 30.1533 11.9615 29.3988 12.5648 29.0528ZM29.3603 30.1293C29.6501 30.0716 29.8353 30.1341 30.0111 30.2975C30.1868 30.4561 30.3578 30.7636 30.4148 31.249C30.4718 31.7488 30.5906 32.4745 30.5858 33.1041C30.5858 33.4165 30.5478 33.7 30.4908 33.8778C30.4291 34.0605 30.3673 34.1181 30.3008 34.1518C29.8163 34.4017 28.9281 34.3488 28.1729 34.1614C27.8261 34.0749 27.5269 33.9691 27.2894 33.8826C27.3606 33.6904 27.4081 33.4838 27.4081 33.2675C27.4081 32.7196 27.1564 32.2342 26.7717 31.8978C27.1801 31.571 27.6266 31.2106 28.0921 30.879C28.3866 30.6723 28.6669 30.4801 28.8996 30.3455C29.1371 30.211 29.3413 30.1341 29.3603 30.1293ZM14.802 30.3744C15.5952 30.754 16.5452 31.0808 17.7564 31.2058C17.7421 31.4076 17.7421 31.6191 17.7659 31.845C17.7801 31.9507 17.7849 32.0516 17.7944 32.1621C16.9537 31.9363 15.6094 31.4653 14.8637 30.4849C14.8115 30.4176 14.8495 30.4416 14.802 30.3744ZM20.1551 30.4897C20.6966 30.5282 21.3758 30.7204 21.922 30.9943L24.1782 32.1862C23.9502 32.4889 23.8077 32.8638 23.8077 33.2675C23.8077 33.5943 23.9027 33.8971 24.0547 34.1662C23.2568 34.6275 21.713 35.4301 20.4401 35.5262C20.0221 35.5551 19.8226 35.4782 19.6848 35.3725C19.5518 35.2667 19.4331 35.0793 19.3381 34.7477C19.1434 34.0845 19.1196 32.9551 18.9771 31.7008C18.9154 31.201 19.0056 30.9415 19.1101 30.7925C19.2194 30.6435 19.3808 30.5474 19.6611 30.5041C19.8036 30.4801 19.9698 30.4753 20.1551 30.4897ZM26.2492 30.7588C26.0592 30.9078 25.8217 31.0808 25.6697 31.201C25.7267 31.1577 25.5129 31.249 25.2992 31.2442C25.1235 31.2442 25.0285 31.2298 24.981 31.2202L24.335 30.879C24.7007 30.903 25.076 30.903 25.4654 30.8742C25.7457 30.855 25.9879 30.8021 26.2492 30.7588ZM25.6079 32.6812C25.9357 32.6812 26.1922 32.9359 26.1922 33.2675C26.1922 33.5991 25.9357 33.8538 25.6079 33.8538C25.2802 33.8538 25.0237 33.5991 25.0237 33.2675C25.0237 32.9359 25.2802 32.6812 25.6079 32.6812ZM26.6197 34.9159C26.8097 35.0024 27.1611 35.1658 27.8214 35.334V35.853H25.7219L25.3229 35.0553C25.4179 35.0697 25.5129 35.0841 25.6079 35.0841C25.6459 35.0841 25.6792 35.0745 25.7172 35.0745C25.9119 35.137 26.0972 35.1802 26.2444 35.137C26.4724 35.0649 26.4867 35.012 26.6197 34.9159ZM30.5478 35.3725V35.3917C30.5478 35.3917 30.8376 35.5166 30.8518 35.6416L30.8756 35.853H29.0373V35.5455C29.5361 35.5839 30.0538 35.5503 30.5478 35.3725ZM24.1877 35.5166L24.3587 35.853H23.5417C23.7745 35.7377 23.9977 35.6224 24.1877 35.5166Z" fill="black"/>
</svg>
