<svg width="40" height="40" viewBox="0 0 40 40" fill="none" xmlns="http://www.w3.org/2000/svg">
<path d="M30.6007 26.8335L27.474 32.4715C27.3507 32.6948 27.1153 32.8335 26.8607 32.8335H12.2346C11.9792 32.8335 11.7445 32.6948 11.6205 32.4715L5.1765 20.8448C4.94117 20.4194 4.94117 19.9028 5.1765 19.4781L11.6205 7.862C11.7445 7.63867 11.9799 7.5 12.2346 7.5H26.8607C27.116 7.5 27.3507 7.63867 27.4747 7.862L30.6007 13.5" stroke="white" stroke-width="2" stroke-miterlimit="10" stroke-linecap="round" stroke-linejoin="round"/>
<path d="M13.6476 13.5H9.00293" stroke="white" stroke-width="2" stroke-miterlimit="10" stroke-linecap="round" stroke-linejoin="round"/>
<path d="M21.002 13.5H18.2627" stroke="white" stroke-width="2" stroke-miterlimit="10" stroke-linecap="round" stroke-linejoin="round"/>
<path d="M25.723 26.8334H34.2977C34.685 26.8334 34.9997 26.5021 34.9997 26.0928V14.2407C34.9997 13.8313 34.685 13.5 34.297 13.5H25.6963" stroke="white" stroke-width="2" stroke-miterlimit="10" stroke-linecap="round" stroke-linejoin="round"/>
<path d="M18.333 26.834H20.9997" stroke="white" stroke-width="2" stroke-miterlimit="10" stroke-linecap="round" stroke-linejoin="round"/>
<path d="M9.00684 26.834H13.5322" stroke="white" stroke-width="2" stroke-miterlimit="10" stroke-linecap="round" stroke-linejoin="round"/>
<path d="M14.831 11.5137H16.9383L18.343 13.621L14.5456 20.1837L18.3217 26.7244L16.9163 28.8318H14.8096L9.66895 20.1837L14.831 11.5137Z" stroke="white" stroke-width="2" stroke-miterlimit="10" stroke-linecap="round" stroke-linejoin="round"/>
<path d="M24.514 11.5137H22.4066L21.002 13.621L24.7993 20.1837L21.024 26.7244L22.4286 28.8318H24.5353L29.676 20.1837L24.514 11.5137Z" stroke="white" stroke-width="2" stroke-miterlimit="10" stroke-linecap="round" stroke-linejoin="round"/>
<path d="M8.72168 13.0464L11.9364 7.70898H27.0038L30.1938 13.255L25.6965 13.3044L24.6231 11.5743L22.0958 11.8077L20.7831 13.219C20.7831 13.219 18.2204 13.121 18.2624 13.1457C18.3044 13.1704 16.5377 11.1823 16.5744 11.1823C16.6111 11.1823 14.6724 11.3543 14.6724 11.3543L13.4457 13.5004L8.72168 13.0464Z" fill="white"/>
<path d="M8.8623 27.0467H13.7477L14.5683 28.9793L16.685 29.0893L18.2624 27.0467H21.1204L22.4824 29.0893H24.4151L25.7231 26.834H30.3485L27.1204 32.7807H12.2343L8.8623 27.0467Z" fill="white"/>
</svg>
