<svg width="40" height="40" viewBox="0 0 40 40" fill="none" xmlns="http://www.w3.org/2000/svg">
<path fill-rule="evenodd" clip-rule="evenodd" d="M19.9998 7.04997C20.1069 7.05019 20.2128 7.07284 20.3107 7.1163C20.4085 7.15974 20.4963 7.22301 20.5682 7.30225C20.6402 7.38151 20.6951 7.47494 20.729 7.5765C20.7628 7.67812 20.7749 7.78604 20.7648 7.89267V8.10995C20.7446 8.35339 20.7104 8.59557 20.6622 8.83505C20.5883 9.29186 20.559 9.7548 20.5748 10.2173C20.6049 10.3726 20.6949 10.5103 20.825 10.6002V10.6177L20.8425 10.9399C23.2599 11.16 25.5172 12.245 27.1922 13.9974L27.4823 13.7923C27.6389 13.8195 27.8001 13.8025 27.9474 13.7427C28.3199 13.4677 28.6648 13.1525 28.9773 12.8101C29.1348 12.6226 29.3022 12.4449 29.4822 12.2774L29.61 12.1773L29.6523 12.1423C29.7288 12.0665 29.8206 12.0079 29.9213 11.9698C30.022 11.9317 30.1295 11.9152 30.237 11.9214C30.3446 11.9276 30.4498 11.9565 30.5455 12.006C30.641 12.0555 30.7253 12.1246 30.7924 12.2087C30.8596 12.2928 30.9082 12.3901 30.9353 12.4943C30.9624 12.5985 30.9676 12.7075 30.9499 12.8137C30.9322 12.9199 30.8921 13.0214 30.8327 13.1112C30.7733 13.2009 30.6957 13.2772 30.6049 13.335L30.5446 13.385C30.5072 13.415 30.4697 13.4476 30.4372 13.4701C30.233 13.6055 30.021 13.729 29.8025 13.8399C29.3983 14.0691 29.0171 14.337 28.6648 14.6399C28.5622 14.7589 28.5103 14.9132 28.5199 15.07L28.395 15.1799L28.2497 15.3125C29.6047 17.3275 30.1748 19.7699 29.8423 22.1749L30.1499 22.2648C30.2274 22.4023 30.3424 22.5173 30.4824 22.5948C30.9299 22.7148 31.3899 22.7898 31.8524 22.8198C32.0974 22.8248 32.3424 22.8451 32.5848 22.8801L32.7297 22.9126L32.8074 22.9325C32.9129 22.9467 33.0144 22.9827 33.1053 23.0379C33.1961 23.0932 33.2745 23.1666 33.3356 23.2536C33.3967 23.3407 33.4391 23.4398 33.4601 23.5441C33.481 23.6484 33.4799 23.7559 33.4572 23.8599C33.4338 23.9644 33.3885 24.0628 33.3246 24.1488C33.2607 24.2347 33.1795 24.3062 33.0861 24.3587C32.9928 24.4113 32.8896 24.4439 32.783 24.4539C32.6764 24.464 32.5688 24.4514 32.4672 24.4173H32.4575L32.4498 24.4149L32.4424 24.41C32.4175 24.4048 32.3922 24.3997 32.3671 24.3949L32.2422 24.3701C32.009 24.295 31.7804 24.2062 31.5574 24.1048C31.127 23.9312 30.6806 23.8 30.2248 23.7126C30.0669 23.708 29.9133 23.7654 29.7972 23.8725C29.6883 23.8518 29.579 23.8327 29.4696 23.8151C28.7284 26.1373 27.1586 28.1055 25.0596 29.3449C25.0971 29.4499 25.1399 29.5525 25.1874 29.6525C25.1098 29.7891 25.0893 29.9508 25.13 30.1025C25.315 30.5275 25.5425 30.9327 25.8075 31.3127C25.9574 31.5076 26.0923 31.7127 26.2172 31.9226L26.2872 32.065L26.3173 32.1277C26.4007 32.266 26.4381 32.427 26.4244 32.5879C26.4106 32.7488 26.3462 32.9012 26.2404 33.0233C26.1347 33.1454 25.9933 33.2312 25.836 33.2678C25.6787 33.3045 25.5136 33.2904 25.3648 33.2275C25.2657 33.1866 25.1764 33.1252 25.1023 33.0477C25.0283 32.9702 24.9711 32.8783 24.9347 32.7775L24.9099 32.7275C24.8856 32.6797 24.8622 32.6314 24.8399 32.5826C24.7523 32.3538 24.6779 32.1198 24.6173 31.8823C24.4845 31.4397 24.3086 31.0111 24.0924 30.6026C23.9984 30.4756 23.8582 30.3902 23.7022 30.365L23.6273 30.2323L23.5398 30.0724C21.2646 30.9315 18.753 30.9252 16.4821 30.0549L16.3072 30.3674C16.1837 30.3866 16.0687 30.4422 15.9772 30.5274C15.7163 30.9539 15.5169 31.4152 15.3847 31.8974C15.3251 32.1348 15.2519 32.3688 15.165 32.5977C15.1452 32.6398 15.1241 32.6814 15.1023 32.7226L15.0698 32.7901C15.0338 32.8911 14.9769 32.9859 14.903 33.0636C14.8289 33.1412 14.7393 33.2026 14.6401 33.2434C14.5409 33.2842 14.434 33.3035 14.3268 33.3004C14.2195 33.2972 14.1138 33.2717 14.0171 33.2251C13.8722 33.1558 13.7525 33.0428 13.6749 32.902C13.5974 32.7613 13.5662 32.5998 13.585 32.4402C13.5978 32.3341 13.6324 32.2316 13.6871 32.1399L13.7221 32.065L13.7872 31.9348C13.9122 31.7224 14.0474 31.5198 14.1974 31.3249C14.4674 30.9349 14.6975 30.52 14.8899 30.0851C14.9099 29.9372 14.8855 29.7866 14.8199 29.6525L14.9599 29.3201C12.8687 28.0903 11.2999 26.1374 10.5499 23.8302L10.2146 23.8875C10.0853 23.7959 9.933 23.7421 9.77478 23.7325C9.31907 23.8191 8.87269 23.9496 8.44218 24.1223C8.2172 24.2223 7.98985 24.3102 7.75737 24.3852C7.71599 24.3954 7.67429 24.4043 7.63245 24.4124L7.55717 24.4299H7.54985L7.54497 24.4348H7.53235C7.40559 24.4755 7.27042 24.4827 7.1401 24.4556C7.00977 24.4284 6.88852 24.3681 6.78854 24.2802C6.68862 24.1923 6.61325 24.08 6.56962 23.9543C6.526 23.8285 6.51584 23.6934 6.53992 23.5624C6.5706 23.4049 6.64998 23.2609 6.76697 23.151C6.88405 23.0411 7.03294 22.9707 7.19218 22.95L7.2048 22.9476H7.20968L7.22473 22.9423C7.28471 22.9273 7.35976 22.9076 7.41476 22.8976C7.65721 22.8651 7.90222 22.8452 8.14718 22.8402C8.61211 22.8077 9.07222 22.7326 9.51966 22.6152C9.65228 22.5302 9.76424 22.4162 9.84721 22.2823L10.1674 22.1899C9.82045 19.7823 10.377 17.3316 11.7299 15.3101L11.485 15.0924C11.4756 14.9341 11.4218 14.7817 11.33 14.6525C10.9776 14.3503 10.5965 14.0832 10.1923 13.855C9.97376 13.744 9.76182 13.6205 9.5575 13.4851L9.43746 13.3899L9.39962 13.3573L9.38985 13.35C9.21564 13.2259 9.09792 13.0377 9.0623 12.8267C9.02668 12.6158 9.07604 12.3994 9.19983 12.2249C9.27337 12.1357 9.36695 12.0651 9.47286 12.0186C9.57882 11.9722 9.69425 11.9512 9.80978 11.9576C10.0041 11.9658 10.1908 12.0357 10.3424 12.1574L10.3973 12.2001C10.4373 12.2326 10.4825 12.265 10.5125 12.2925C10.6925 12.46 10.86 12.6402 11.0175 12.8251C11.3299 13.1676 11.6749 13.4799 12.0473 13.7549C12.1873 13.8299 12.3498 13.845 12.5022 13.8001L12.7773 13.995C14.4512 12.2196 16.7248 11.1292 19.1571 10.9351L19.1775 10.6124C19.2959 10.5071 19.3818 10.3698 19.4248 10.2173C19.4416 9.75488 19.413 9.29193 19.3398 8.83505C19.291 8.59559 19.256 8.35342 19.2348 8.10995V7.89267C19.224 7.78589 19.2355 7.67764 19.269 7.57569C19.3025 7.4738 19.3572 7.38004 19.4293 7.30063C19.5015 7.22117 19.5899 7.15787 19.6881 7.11467C19.7863 7.07151 19.8925 7.04942 19.9998 7.04997ZM19.9978 24.4373C19.8761 24.4375 19.7567 24.4708 19.6523 24.5333C19.548 24.5958 19.4601 24.6854 19.4025 24.7925L17.4599 28.2927C18.8523 28.7626 20.3447 28.8373 21.7771 28.5124C22.0397 28.4527 22.2993 28.3803 22.5547 28.2951L20.6073 24.79H20.5922C20.5341 24.6831 20.4483 24.5937 20.3436 24.5317C20.239 24.4696 20.1194 24.437 19.9978 24.4373ZM23.4849 22.8149C23.3441 22.7878 23.198 22.8079 23.0699 22.8723C22.9147 22.9482 22.7942 23.0808 22.7338 23.2426C22.6733 23.4045 22.6773 23.5836 22.7448 23.7427L22.7399 23.75L24.2849 27.4752C25.7622 26.5352 26.8836 25.129 27.4721 23.4798L23.4898 22.8076L23.4849 22.8149ZM16.5074 22.8324L16.4996 22.8251L12.5523 23.4924C13.1466 25.1283 14.2644 26.5224 15.7322 27.4577L17.2597 23.7724L17.25 23.7573C17.2986 23.6454 17.3158 23.5223 17.2996 23.4013C17.2834 23.2803 17.2344 23.1661 17.158 23.0709C17.0816 22.9757 16.9805 22.9029 16.8658 22.8609C16.7512 22.819 16.6272 22.8091 16.5074 22.8324ZM18.6171 20.4924L18.8922 21.6825L19.9998 22.2152L21.1049 21.685L21.38 20.4948L20.6146 19.5427H19.385L18.6171 20.4924ZM13.24 16.6573C12.3243 18.1433 11.9307 19.8927 12.1222 21.6276L15.9723 20.52L15.9747 20.5074C16.092 20.4753 16.1986 20.412 16.2828 20.3243C16.3668 20.2366 16.4257 20.1278 16.4528 20.0094C16.48 19.8909 16.4745 19.7669 16.437 19.6513C16.3995 19.5357 16.3311 19.4326 16.2396 19.3526L16.2425 19.3351L13.24 16.6573ZM27.8872 21.615H27.8925L27.8872 21.6134V21.615ZM23.7498 19.325L23.7547 19.3274C23.6621 19.4074 23.5931 19.5114 23.5549 19.6277C23.527 19.7143 23.5169 19.8057 23.5252 19.8962C23.5335 19.9868 23.5601 20.075 23.6033 20.155C23.6465 20.2351 23.7055 20.3055 23.7767 20.3621C23.8478 20.4188 23.9295 20.4608 24.0171 20.485L24.0224 20.5001L27.8872 21.6134C28.0543 19.8814 27.652 18.1419 26.7373 16.6573L23.7498 19.325ZM19.0424 12.9598C18.7674 12.9923 18.4948 13.0402 18.2273 13.1002C16.7948 13.4227 15.4797 14.1374 14.4322 15.1624L17.7224 17.4874L17.7273 17.485C17.8264 17.5564 17.9432 17.5995 18.065 17.6099C18.1556 17.6184 18.247 17.6085 18.3335 17.5806C18.4201 17.5526 18.5002 17.5074 18.5687 17.4475C18.6373 17.3876 18.693 17.3144 18.7323 17.2323C18.7716 17.1502 18.7937 17.0607 18.7974 16.9698L18.8173 16.96L19.0424 12.9598ZM21.1847 16.9552H21.19C21.1937 17.0463 21.2157 17.1358 21.2551 17.218C21.2945 17.3003 21.3507 17.3738 21.4195 17.4337C21.4883 17.4935 21.5686 17.5386 21.6555 17.5663C21.7424 17.5941 21.8341 17.6037 21.9248 17.5948C22.0465 17.5845 22.1631 17.5413 22.2622 17.4699L22.2723 17.4752L25.5422 15.1648C24.2971 13.9483 22.6872 13.1736 20.9597 12.9598L21.1847 16.9552Z" fill="white"/>
<path fill-rule="evenodd" clip-rule="evenodd" d="M20.0055 1.25001C20.457 1.24903 20.9026 1.3557 21.3047 1.56088L33.9317 7.74822C34.342 7.94971 34.7012 8.24188 34.9823 8.6023C35.2634 8.96279 35.4594 9.38244 35.5548 9.82952L38.6753 23.7769C38.8735 24.7009 38.6751 25.6519 38.102 26.3965L29.3752 37.5875C28.7994 38.308 27.9287 38.7499 27.0315 38.75H12.9665C12.0692 38.75 11.1984 38.3402 10.6252 37.5956V37.5928L1.90898 26.4233C1.3358 25.6787 1.11111 24.7278 1.33606 23.8037L4.45659 9.85352C4.55195 9.40683 4.74728 8.98753 5.02788 8.62712C5.30851 8.26673 5.66716 7.97418 6.07687 7.77222L18.7067 1.55803C19.1083 1.3519 19.5556 1.25002 20.0055 1.25001ZM20.0051 2.50001C19.5852 2.50003 19.1674 2.59526 18.7925 2.78769L7.00541 8.58765C6.62299 8.77614 6.28795 9.04879 6.026 9.38518C5.76406 9.7216 5.58157 10.1132 5.49256 10.5302L2.58037 23.5502C2.37045 24.4126 2.58017 25.2999 3.11503 25.9949L11.2502 36.4201V36.4225C11.7852 37.1175 12.5978 37.5 13.4353 37.5H26.5627C27.4001 37.4999 28.2127 37.0876 28.7502 36.4152L36.8951 25.9701C37.4301 25.2751 37.6152 24.3874 37.4302 23.525L34.5176 10.5074C34.4285 10.0902 34.2457 9.69841 33.9834 9.36199C33.721 9.02563 33.3856 8.7529 33.0027 8.56487L21.2177 2.79013C20.8423 2.59863 20.4265 2.4991 20.0051 2.50001Z" fill="white"/>
</svg>
