<svg width="40" height="40" viewBox="0 0 40 40" fill="none" xmlns="http://www.w3.org/2000/svg">
<path fill-rule="evenodd" clip-rule="evenodd" d="M5.41675 7.57651C5.41675 6.38824 6.38897 5.41602 7.57724 5.41602H32.4229C33.6112 5.41602 34.5834 6.38824 34.5834 7.57651V32.4222C34.5834 33.6105 33.6112 34.5827 32.4229 34.5827H7.57724C6.38897 34.5827 5.41675 33.6105 5.41675 32.4222V7.57651ZM9.73774 10.2771C9.73774 9.95305 9.95378 9.737 10.2779 9.737H13.5186C13.8427 9.737 14.0587 9.95305 14.0587 10.2771V13.5179C14.0587 13.8419 13.8427 14.058 13.5186 14.058H10.2779C9.95378 14.058 9.73774 13.8419 9.73774 13.5179V10.2771ZM15.6791 9.737C15.355 9.737 15.139 9.95305 15.139 10.2771V13.5179C15.139 13.8419 15.355 14.058 15.6791 14.058H18.9198C19.2439 14.058 19.46 13.8419 19.46 13.5179V10.2771C19.46 9.95305 19.2439 9.737 18.9198 9.737H15.6791ZM20.5402 10.2771C20.5402 9.95305 20.7563 9.737 21.0803 9.737H24.3211C24.6451 9.737 24.8612 9.95305 24.8612 10.2771V13.5179C24.8612 13.8419 24.6451 14.058 24.3211 14.058H21.0803C20.7563 14.058 20.5402 13.8419 20.5402 13.5179V10.2771ZM10.2779 15.1382C9.95378 15.1382 9.73774 15.3543 9.73774 15.6784V18.9191C9.73774 19.2432 9.95378 19.4592 10.2779 19.4592H13.5186C13.8427 19.4592 14.0587 19.2432 14.0587 18.9191V15.6784C14.0587 15.3543 13.8427 15.1382 13.5186 15.1382H10.2779ZM15.139 15.6784C15.139 15.3543 15.355 15.1382 15.6791 15.1382H18.9198C19.2439 15.1382 19.46 15.3543 19.46 15.6784V18.9191C19.46 19.2432 19.2439 19.4592 18.9198 19.4592H15.6791C15.355 19.4592 15.139 19.2432 15.139 18.9191V15.6784ZM26.4816 15.1382C26.1575 15.1382 25.9414 15.3543 25.9414 15.6784V18.9191C25.9414 19.2432 26.1575 19.4592 26.4816 19.4592H29.7223C30.0464 19.4592 30.2624 19.2432 30.2624 18.9191V15.6784C30.2624 15.3543 30.0464 15.1382 29.7223 15.1382H26.4816ZM9.73774 21.0796C9.73774 20.7555 9.95378 20.5395 10.2779 20.5395H13.5186C13.8427 20.5395 14.0587 20.7555 14.0587 21.0796V24.3203C14.0587 24.6444 13.8427 24.8605 13.5186 24.8605H10.2779C9.95378 24.8605 9.73774 24.6444 9.73774 24.3203V21.0796ZM21.0803 20.5395C20.7563 20.5395 20.5402 20.7555 20.5402 21.0796V24.3203C20.5402 24.6444 20.7563 24.8605 21.0803 24.8605H24.3211C24.6451 24.8605 24.8612 24.6444 24.8612 24.3203V21.0796C24.8612 20.7555 24.6451 20.5395 24.3211 20.5395H21.0803ZM25.9414 21.0796C25.9414 20.7555 26.1575 20.5395 26.4816 20.5395H29.7223C30.0464 20.5395 30.2624 20.7555 30.2624 21.0796V24.3203C30.2624 24.6444 30.0464 24.8605 29.7223 24.8605H26.4816C26.1575 24.8605 25.9414 24.6444 25.9414 24.3203V21.0796ZM15.6791 25.9407C15.355 25.9407 15.139 26.1568 15.139 26.4808V29.7216C15.139 30.0456 15.355 30.2617 15.6791 30.2617H18.9198C19.2439 30.2617 19.46 30.0456 19.46 29.7216V26.4808C19.46 26.1568 19.2439 25.9407 18.9198 25.9407H15.6791ZM20.5402 26.4808C20.5402 26.1568 20.7563 25.9407 21.0803 25.9407H24.3211C24.6451 25.9407 24.8612 26.1568 24.8612 26.4808V29.7216C24.8612 30.0456 24.6451 30.2617 24.3211 30.2617H21.0803C20.7563 30.2617 20.5402 30.0456 20.5402 29.7216V26.4808ZM26.4816 25.9407C26.1575 25.9407 25.9414 26.1568 25.9414 26.4808V29.7216C25.9414 30.0456 26.1575 30.2617 26.4816 30.2617H29.7223C30.0464 30.2617 30.2624 30.0456 30.2624 29.7216V26.4808C30.2624 26.1568 30.0464 25.9407 29.7223 25.9407H26.4816Z" fill="white"/>
</svg>
