<svg width="40" height="40" viewBox="0 0 40 40" fill="none" xmlns="http://www.w3.org/2000/svg">
<g clip-path="url(#clip0_0_137)">
<path fill-rule="evenodd" clip-rule="evenodd" d="M11.495 6.66602C14.6867 6.66602 17.355 8.21935 20.545 12.2927L21.015 11.671C21.3317 11.261 21.6533 10.8643 21.9817 10.4877L22.5033 9.90435C24.3133 7.97935 26.32 6.66602 28.7083 6.66602C30.83 6.66602 32.8233 7.59435 34.5267 9.19268L34.89 9.54768C37.7733 12.4893 39.7517 17.3977 39.9783 22.9243L39.9967 23.5777L40 23.9943C40 26.496 39.5333 28.5927 38.6367 30.161L38.4033 30.5443L38.2233 30.7993C37.7217 31.4993 37.1167 32.0627 36.4133 32.481L35.9717 32.7177L35.8267 32.7843C35.662 32.8577 35.4941 32.9233 35.3233 32.981C34.6085 33.2174 33.8596 33.3345 33.1067 33.3277C32.2333 33.3277 31.4467 33.216 30.71 32.9693C29.6867 32.6293 28.7717 32.036 27.8333 31.1093L27.455 30.7177C26.2 29.3643 24.8983 27.4243 23.3 24.741L20.9167 20.7243L20.01 19.2327L17.0667 24.4493L16.495 25.436C12.6617 31.926 10.3783 33.3327 7.26 33.3327C5.24333 33.3327 3.585 32.6327 2.36667 31.3627L2.08667 31.056C1.28 30.101 0.691667 28.871 0.348333 27.4077L0.236667 26.8743C0.107819 26.1654 0.0320528 25.4479 0.01 24.7277L0 24.1127C0.00333333 22.871 0.1 21.6293 0.29 20.396L0.456667 19.441C0.953333 16.891 1.83667 14.511 3.01667 12.5127L3.365 11.946C5.32667 8.89602 8.01333 6.85768 11.0567 6.67935L11.495 6.66602ZM11.44 11.0243L11.105 11.041C9.72167 11.1793 8.42833 12.1627 7.35167 13.6693L7.12167 14.001L7.105 14.031C5.98833 15.726 5.13 17.9943 4.67833 20.4393L4.67167 20.476C4.44412 21.7153 4.32865 22.9726 4.32667 24.2327L4.33 24.546C4.33667 24.846 4.35833 25.146 4.39667 25.446L4.46833 25.931C4.62167 26.7693 4.89667 27.4443 5.27833 27.9443L5.47333 28.1727C5.97833 28.711 6.63667 28.9927 7.42333 28.9927C9.25667 28.9927 10.4167 27.866 13.5833 22.9243L17.2083 17.2577L17.965 16.0893L17.7333 15.7593C15.1833 12.166 13.4733 11.026 11.44 11.026V11.0243ZM28.4333 10.1043L28.14 10.116C27.0817 10.196 26.1017 10.7143 25.1067 11.671L24.78 12.001C24.0483 12.771 23.3017 13.7743 22.5017 15.0127L22.945 15.676C23.245 16.1327 23.5483 16.6093 23.8617 17.106L24.35 17.8977L26.6767 21.7893L27.835 23.646C28.8067 25.1893 29.5517 26.3127 30.1817 27.116L30.5367 27.5527C31.0067 28.096 31.4183 28.4527 31.8317 28.6743L32.0017 28.7577C32.38 28.9243 32.7633 28.9877 33.1983 28.9877C33.4917 28.991 33.7817 28.9493 34.0617 28.866C34.625 28.6927 35.0783 28.3327 35.4167 27.8043L35.575 27.5327L35.7033 27.2627C36.0267 26.4977 36.1867 25.496 36.1867 24.2877L36.1767 23.5393C36.0433 18.7543 34.6133 14.586 32.51 12.2093L32.2167 11.8943C31.1 10.756 29.81 10.1043 28.4333 10.1043Z" fill="white"/>
</g>
<defs>
<clipPath id="clip0_0_137">
<rect width="40" height="40" fill="white"/>
</clipPath>
</defs>
</svg>
