<svg width="40" height="40" viewBox="0 0 40 40" fill="none" xmlns="http://www.w3.org/2000/svg">
<g clip-path="url(#clip0_0_209)">
<path d="M40.9733 39.7021C38.4353 35.1607 35.4959 35.0257 32.4233 36.2281C29.3507 37.4305 26.0099 39.1675 20.5343 39.4339C4.90309 40.3699 -1.47971 30.4537 -5.08691 25.5109C9.07369 34.1941 17.1953 29.2801 20.9357 28.0777C11.0501 22.0657 -0.705713 4.29788 -0.705713 4.29788C-0.705713 4.29788 13.0553 15.1195 17.3303 18.0589C14.9237 15.6541 8.00449 6.27428 5.59969 1.99928C8.93869 5.87288 23.7401 17.7925 27.7487 20.4637C29.5073 10.1551 27.3401 5.93588 23.5997 -1.54492C41.5925 11.1667 37.3661 27.2767 37.3661 27.2767C41.6411 31.6867 41.5079 35.5603 40.9733 39.7021Z" fill="white"/>
</g>
<defs>
<clipPath id="clip0_0_209">
<rect width="40" height="40" fill="white"/>
</clipPath>
</defs>
</svg>
