<svg width="40" height="40" viewBox="0 0 40 40" fill="none" xmlns="http://www.w3.org/2000/svg">
<path d="M36.0656 16.7693C36.4849 15.5066 36.6299 14.1689 36.4909 12.8457C36.352 11.5225 35.9323 10.2442 35.2598 9.09613C34.2629 7.36086 32.7407 5.987 30.9126 5.17263C29.0845 4.35826 27.0451 4.14545 25.0883 4.56488C23.9765 3.32826 22.559 2.40593 20.978 1.89053C19.3971 1.37512 17.7083 1.28479 16.0813 1.6286C14.4544 1.97241 12.9466 2.73826 11.7093 3.84923C10.472 4.9602 9.54882 6.37718 9.03247 7.95785C7.72883 8.22518 6.49725 8.76767 5.42006 9.54909C4.34286 10.3305 3.44486 11.3328 2.78607 12.4891C1.77831 14.2215 1.3476 16.2295 1.55621 18.2228C1.76482 20.216 2.60193 22.0913 3.94654 23.5775C3.5257 24.8396 3.37923 26.177 3.51692 27.5003C3.65462 28.8235 4.07331 30.1021 4.74497 31.2505C5.74316 32.9864 7.26672 34.3606 9.09608 35.175C10.9254 35.9893 12.9661 36.2019 14.924 35.7819C15.8073 36.7765 16.8925 37.5713 18.1073 38.1131C19.3221 38.6549 20.6386 38.9313 21.9687 38.9238C23.9744 38.9256 25.9288 38.2901 27.5498 37.1089C29.1707 35.9277 30.3745 34.262 30.9872 32.3522C32.2907 32.0844 33.522 31.5417 34.5992 30.7603C35.6763 29.9789 36.5744 28.9768 37.2336 27.8208C38.2294 26.091 38.6527 24.0905 38.4429 22.1056C38.2332 20.1206 37.401 18.2527 36.0656 16.7693ZM21.9687 36.4694C20.3261 36.472 18.735 35.8963 17.4743 34.8432L17.6961 34.7175L25.1622 30.4079C25.348 30.2989 25.5023 30.1434 25.6098 29.9568C25.7174 29.7701 25.7746 29.5587 25.7758 29.3433V18.8169L28.932 20.6429C28.9476 20.6508 28.9611 20.6622 28.9714 20.6764C28.9818 20.6905 28.9886 20.7068 28.9914 20.7241V29.4469C28.9874 31.3082 28.2463 33.0921 26.9301 34.4082C25.614 35.7244 23.83 36.4655 21.9687 36.4694ZM6.87388 30.0235C6.05009 28.601 5.7543 26.9336 6.03857 25.3146L6.26044 25.4477L13.7339 29.7574C13.9188 29.8659 14.1293 29.9231 14.3437 29.9231C14.5581 29.9231 14.7686 29.8659 14.9536 29.7574L24.0829 24.4941V28.1385C24.0821 28.1574 24.077 28.1758 24.068 28.1925C24.059 28.2091 24.0464 28.2235 24.0311 28.2346L16.4689 32.596C14.855 33.5257 12.9382 33.777 11.1392 33.2946C9.34024 32.8123 7.80619 31.6358 6.87388 30.0235ZM4.90763 13.7607C5.73713 12.3291 7.04643 11.2371 8.60372 10.6782V19.5488C8.60091 19.7631 8.65567 19.9742 8.76228 20.1602C8.86889 20.3461 9.02344 20.5 9.20982 20.6058L18.2948 25.8469L15.1384 27.6727C15.1213 27.6818 15.1023 27.6865 15.0829 27.6865C15.0636 27.6865 15.0446 27.6818 15.0275 27.6727L7.48013 23.3188C5.86929 22.3851 4.69411 20.851 4.21195 19.0527C3.72979 17.2543 3.97994 15.3381 4.90763 13.7238V13.7607ZM30.8393 19.7854L21.7248 14.4925L24.8739 12.6738C24.891 12.6647 24.91 12.66 24.9293 12.66C24.9487 12.66 24.9677 12.6647 24.9848 12.6738L32.5322 17.0352C33.6861 17.7011 34.6269 18.6815 35.2446 19.8619C35.8623 21.0424 36.1314 22.3742 36.0206 23.7019C35.9098 25.0296 35.4235 26.2984 34.6187 27.3601C33.8138 28.4218 32.7235 29.2327 31.4751 29.698V20.8274C31.4686 20.6134 31.4065 20.4049 31.295 20.2222C31.1835 20.0394 31.0266 19.889 30.8393 19.7854ZM33.9811 15.0618L33.7592 14.9286L26.3006 10.5821C26.1145 10.4729 25.9027 10.4153 25.687 10.4153C25.4713 10.4153 25.2595 10.4729 25.0734 10.5821L15.9517 15.8452V12.201C15.9497 12.1824 15.9528 12.1637 15.9607 12.1468C15.9685 12.1299 15.9807 12.1154 15.9961 12.1049L23.5434 7.75082C24.7001 7.08444 26.0227 6.76119 27.3564 6.81888C28.6901 6.87657 29.9798 7.31281 31.0747 8.07657C32.1696 8.84034 33.0244 9.90007 33.5391 11.1318C34.0538 12.3635 34.2072 13.7164 33.9812 15.0321L33.9811 15.0618ZM14.229 21.5222L11.0728 19.7038C11.057 19.6943 11.0435 19.6814 11.0332 19.6661C11.023 19.6508 11.0162 19.6334 11.0134 19.6152V10.9147C11.0151 9.58 11.3968 8.27334 12.1138 7.14754C12.8308 6.02173 13.8535 5.1233 15.0622 4.55729C16.271 3.99127 17.6159 3.78107 18.9398 3.95126C20.2636 4.12144 21.5116 4.66498 22.5379 5.51832L22.3161 5.6441L14.8501 9.95348C14.6643 10.0625 14.51 10.2179 14.4025 10.4045C14.2949 10.5912 14.2377 10.8026 14.2365 11.018L14.229 21.5222ZM15.944 17.8263L20.0097 15.4829L24.0829 17.8263V22.5128L20.0245 24.8561L15.9515 22.5128L15.944 17.8263Z" fill="white"/>
</svg>
