<svg width="40" height="40" viewBox="0 0 40 40" fill="none" xmlns="http://www.w3.org/2000/svg">
<path d="M31.1314 3.75C31.8871 3.75 32.4999 4.35043 32.5 5.09112V34.9089C32.4999 35.6496 31.8871 36.25 31.1314 36.25H26.8158V13.1904C26.8157 11.8514 25.708 10.7659 24.3419 10.7659H20.9736V5.09112C20.9736 4.35048 21.5862 3.75008 22.3418 3.75H31.1314Z" fill="white"/>
<path fill-rule="evenodd" clip-rule="evenodd" d="M19.0263 36.25H8.86842C8.11266 36.25 7.5 35.6495 7.5 34.9087V21.3413C7.5 20.6005 8.11266 20 8.86842 20H17.6579C18.4136 20 19.0263 20.6005 19.0263 21.3413V36.25Z" fill="white"/>
<path d="M24.3419 11.8493C25.0976 11.8493 25.7104 12.4497 25.7105 13.1904V36.25H20.1317V21.3411C20.1316 20.0021 19.0239 18.9167 17.6578 18.9167H14.184V13.1904C14.1841 12.4497 14.7966 11.8493 15.5523 11.8493H24.3419Z" fill="white"/>
</svg>
