<svg width="40" height="40" viewBox="0 0 40 40" fill="none" xmlns="http://www.w3.org/2000/svg">
<path d="M23.1997 19.9721C23.1997 18.271 21.7672 16.8918 19.9999 16.8918C18.2329 16.8918 16.8001 18.271 16.8001 19.9721C16.8001 21.6734 18.2329 23.0524 19.9999 23.0524C21.7672 23.0524 23.1997 21.6734 23.1997 19.9721Z" fill="white"/>
<path fill-rule="evenodd" clip-rule="evenodd" d="M30.3921 14.2534C31.0678 11.6102 31.9171 6.70849 28.9229 5.04667C25.9426 3.3921 22.0644 6.56257 20.0165 8.46564C17.9746 6.58153 13.9874 3.42461 10.9958 5.09171C8.01667 6.75184 8.93535 11.5722 9.62605 14.2321C6.84707 14.9919 2.08325 16.6284 2.08325 19.9721C2.08325 23.3062 6.84211 25.0867 9.60464 25.8458C8.91139 28.5204 8.0387 33.2719 11.0216 34.9284C14.0245 36.5951 17.9992 33.5134 20.0661 31.5895C22.1271 33.5038 25.9681 36.6057 28.9489 34.9446C31.9391 33.2783 31.1603 28.4423 30.4696 25.7671C33.1475 25.0063 37.9166 23.2646 37.9166 19.9721C37.9166 16.6606 33.1272 15.0107 30.3921 14.2534ZM30.0526 24.3493C29.5991 22.9673 28.9869 21.4976 28.2381 19.9794C28.9529 18.4971 29.5413 17.0463 29.9821 15.6732C31.9872 16.2328 36.3859 17.5118 36.3859 19.9721C36.3859 22.4555 32.1649 23.7465 30.0526 24.3493ZM28.1819 33.6693C25.9578 34.9086 22.6541 31.9422 21.132 30.5325C22.1418 29.4693 23.1509 28.2334 24.1357 26.8609C25.8681 26.7131 27.5046 26.4711 28.9888 26.1409C29.475 28.0332 30.4157 32.4245 28.1819 33.6693ZM11.7865 33.6516C9.56218 32.417 10.5788 28.1769 11.0888 26.2068C12.5565 26.5194 14.1813 26.7443 15.9178 26.8798C16.9091 28.2227 17.9474 29.4571 18.9937 30.5382C17.701 31.742 14.0211 34.892 11.7865 33.6516ZM3.61392 19.9721C3.61392 17.4794 7.98628 16.2097 10.0371 15.6515C10.4856 17.0555 11.0738 18.5235 11.7836 20.008C11.0646 21.5146 10.468 23.0058 10.0154 24.4264C8.05988 23.8875 3.61392 22.4662 3.61392 19.9721ZM11.7627 6.36703C13.996 5.12257 17.4614 8.15333 18.9439 9.51747C17.903 10.5936 16.8742 11.8187 15.8914 13.1539C14.2061 13.3042 12.5929 13.5457 11.1098 13.8692C10.5534 11.7239 9.53171 7.61014 11.7627 6.36703ZM25.2307 14.7555C26.3741 14.8944 27.4695 15.0792 28.498 15.3052C28.1893 16.258 27.8044 17.2542 27.3511 18.2755C26.6941 17.0754 25.9887 15.8993 25.2307 14.7555ZM20.017 10.5705C20.723 11.3068 21.4301 12.129 22.1258 13.0211C20.7148 12.9568 19.3015 12.9565 17.8905 13.0201C18.5868 12.1363 19.3 11.3154 20.017 10.5705ZM12.6618 18.2745C12.2161 17.2567 11.8347 16.2561 11.5232 15.2897C12.5456 15.0695 13.6359 14.8894 14.7718 14.7528C14.0117 15.8941 13.3076 17.0697 12.6618 18.2745ZM14.8044 25.2965C13.631 25.1705 12.5242 24.9996 11.5021 24.7854C11.8185 23.802 12.2083 22.7798 12.6636 21.7401C13.3182 22.9574 14.0331 24.1444 14.8044 25.2965ZM20.0594 29.4777C19.3339 28.7241 18.6102 27.8905 17.9034 26.994C19.3224 27.0476 20.7442 27.0477 22.1631 26.9868C21.4653 27.8997 20.7607 28.7344 20.0594 29.4777ZM27.3657 21.6872C27.8447 22.7382 28.2484 23.7548 28.5691 24.7216C27.5301 24.9499 26.4084 25.1337 25.2264 25.2702C25.9901 24.1047 26.7066 22.9104 27.3657 21.6872ZM23.2814 25.4488C21.1109 25.5981 18.9268 25.5964 16.7556 25.461C15.5218 23.7261 14.4235 21.9016 13.4755 20.0075C14.419 18.1173 15.5093 16.2964 16.7372 14.5643C18.91 14.4062 21.0962 14.4057 23.269 14.5652C24.4864 16.2972 25.575 18.1134 26.5403 19.9865C25.5865 21.8758 24.4904 23.7004 23.2814 25.4488ZM28.1583 6.32322C30.3923 7.5636 29.3979 11.9689 28.9099 13.8845C27.4233 13.5542 25.8089 13.3085 24.1187 13.1558C23.134 11.8061 22.1138 10.5789 21.0897 9.51671C22.5913 8.12319 25.946 5.09497 28.1583 6.32322Z" fill="white"/>
</svg>
