<svg width="40" height="40" viewBox="0 0 40 40" fill="none" xmlns="http://www.w3.org/2000/svg">
<path d="M11.2922 11.1089C5.96943 11.1089 2.08301 14.8923 2.08301 20.021C2.08301 25.1481 5.96943 28.8912 11.2922 28.8912C14.553 28.8912 17.0972 27.3593 19.9146 24.2956C22.1989 27.331 25.942 28.9778 28.7087 28.8912C34.0329 28.8912 37.9163 25.1541 37.9163 20.021C37.9163 14.8878 34.0329 11.1074 28.7072 11.1074C24.4311 11.1074 21.0359 14.7281 20.0907 15.8449C18.956 14.5011 17.5914 13.3589 16.0864 12.4497C14.565 11.5718 12.9748 11.1089 11.2922 11.1089ZM15.5847 13.0544C17.3107 13.9427 18.4992 15.1745 19.5249 16.4944C18.7276 17.435 17.666 18.7086 16.9285 19.585C16.0923 18.6026 14.5694 16.7377 13.0331 16.139L15.5847 13.0544ZM11.319 16.5705C12.839 16.6108 14.0215 17.2543 16.4477 20.1658C14.7187 22.2232 13.16 23.5162 11.319 23.5162C9.06454 23.5162 7.72079 22.0381 7.72079 20.0672C7.72079 18.0964 9.07349 16.5108 11.319 16.5705ZM28.5414 16.5705C30.796 16.5705 32.1367 18.1024 32.1367 20.0672C32.1367 22.0306 30.8497 23.5028 28.5504 23.5162C27.6979 23.461 26.2675 23.4774 23.4113 20.0613L23.5218 19.9269L23.5248 19.9299C25.2 17.9471 26.6557 16.5705 28.5414 16.5705ZM22.9246 20.6585C23.8353 21.6738 25.6046 23.6267 26.9752 24.0029L24.4609 27.0129H24.4579C23.3337 26.459 21.4255 25.3198 20.4028 23.7058L22.9246 20.66V20.6585Z" fill="white"/>
</svg>
