<svg width="40" height="40" viewBox="0 0 40 40" fill="none" xmlns="http://www.w3.org/2000/svg">
<path fill-rule="evenodd" clip-rule="evenodd" d="M18.3772 4.0488C23.0118 1.10773 29.4583 2.47442 32.6965 7.13864C34.2709 9.3073 34.8949 12.0402 34.3899 14.7138C34.1819 15.9616 33.7064 17.1502 32.9934 18.2197C34.0332 20.1507 34.3601 22.3791 33.9739 24.5478C33.5282 27.1323 31.9832 29.4201 29.7551 30.8164L21.5852 36.0146C16.9508 38.9557 10.5339 37.5898 7.26588 32.9258C5.72103 30.757 5.09718 28.0229 5.57252 25.3789C5.78052 24.1313 6.25611 22.9434 6.96901 21.874C5.92921 19.9429 5.60234 17.7146 5.98854 15.5459C6.43417 12.9612 7.97914 10.6736 10.2073 9.27731L18.3772 4.0488ZM29.3391 9.27731C27.7944 7.0493 25.0319 6.00927 22.388 6.69235C21.7938 6.8706 21.2289 7.10872 20.7239 7.43552L12.554 12.6347C11.2172 13.4666 10.2667 14.8625 9.99928 16.4072C9.70219 18.0115 10.0881 19.6459 11.009 20.9531C12.5539 23.1811 15.3172 24.2204 17.9612 23.5371C18.5552 23.3885 19.1194 23.1509 19.6243 22.8242L22.7444 20.834C22.8929 20.7449 23.0711 20.6853 23.2493 20.6259C24.0514 20.4181 24.8833 20.7152 25.3587 21.3984C25.6259 21.7845 25.7445 22.2894 25.6555 22.7646C25.5664 23.2399 25.2989 23.6262 24.8831 23.8935L16.7424 29.0927C16.594 29.1818 16.4157 29.2414 16.2376 29.3008C15.4355 29.5086 14.6035 29.1822 14.1282 28.499C13.8905 28.1425 13.7723 27.6962 13.802 27.2802L13.8313 26.9834L13.5344 26.8945C12.3758 26.538 11.3058 26.003 10.3255 25.29L9.90944 24.9931L9.761 25.4687C9.70161 25.7359 9.64265 25.9739 9.58327 26.2412C9.31599 27.8453 9.67269 29.479 10.6233 30.7861C12.1681 33.0141 14.9305 34.0542 17.5745 33.3711C18.1686 33.1928 18.7335 32.9547 19.2385 32.6279L27.4085 27.4297C28.7453 26.5978 29.6958 25.201 29.9631 23.6562C30.2305 22.052 29.8738 20.4175 28.9231 19.1103C27.3782 16.8825 24.6158 15.8432 21.9719 16.5263C21.3778 16.7046 20.8129 16.9418 20.3079 17.2685L17.1887 19.2597C17.0403 19.3488 16.8619 19.4074 16.6839 19.4668C15.8819 19.6747 15.0499 19.3783 14.5745 18.6953C14.3071 18.3091 14.1875 17.8034 14.2766 17.3281C14.3657 16.8529 14.6333 16.4666 15.0491 16.1992L23.1897 11C23.3382 10.9109 23.5164 10.8514 23.6946 10.792C24.4966 10.584 25.3286 10.8813 25.804 11.5644C26.0416 11.9209 26.1608 12.3673 26.1311 12.7832L26.1008 13.08L26.3987 13.1689C27.5572 13.5254 28.6264 14.0605 29.6067 14.7734L30.0227 15.0703L30.1712 14.5947C30.2602 14.3274 30.3198 14.0895 30.3792 13.8222C30.6464 12.2181 30.2897 10.5844 29.3391 9.27731Z" fill="white"/>
</svg>
