<svg width="40" height="40" viewBox="0 0 40 40" fill="none" xmlns="http://www.w3.org/2000/svg">
<g clip-path="url(#clip0_0_114)">
<path d="M40.9735 39.7021C38.4355 35.1607 35.4961 35.0257 32.4235 36.2281C29.3509 37.4305 26.0101 39.1675 20.5345 39.4339C4.90333 40.3699 -1.47947 30.4537 -5.08667 25.5109C9.07393 34.1941 17.1955 29.2801 20.9359 28.0777C11.0503 22.0657 -0.705469 4.29788 -0.705469 4.29788C-0.705469 4.29788 13.0555 15.1195 17.3305 18.0589C14.9239 15.6541 8.00473 6.27428 5.59993 1.99928C8.93893 5.87288 23.7403 17.7925 27.7489 20.4637C29.5075 10.1551 27.3403 5.93588 23.5999 -1.54492C41.5927 11.1667 37.3663 27.2767 37.3663 27.2767C41.6413 31.6867 41.5081 35.5603 40.9735 39.7021Z" fill="white"/>
</g>
<defs>
<clipPath id="clip0_0_114">
<rect width="40" height="40" fill="white"/>
</clipPath>
</defs>
</svg>
