<svg width="40" height="40" viewBox="0 0 40 40" fill="none" xmlns="http://www.w3.org/2000/svg">
<path d="M31.719 2.86157C29.1437 2.95115 26.8977 4.37089 25.2249 6.33255C23.3707 8.48455 22.1391 11.0374 21.2523 13.644C19.6646 12.3429 18.4397 10.659 15.8913 9.92221C13.9207 9.35566 11.8538 9.58855 9.95037 11.006C9.04791 11.6801 8.42761 12.6967 8.13426 13.6529C7.36841 16.1386 8.93595 18.3511 9.65029 19.146L11.2066 20.8121C11.5269 21.1391 12.2994 21.9922 11.9232 23.2172C11.5157 24.5496 9.91006 25.4095 8.26638 24.9034C7.53188 24.675 6.47491 24.1286 6.71228 23.3605C6.80857 23.0447 7.03475 22.8074 7.15791 22.5364C7.26764 22.3013 7.32138 22.1266 7.35497 22.0236C7.65504 21.0405 7.24525 19.7641 6.195 19.4394C5.21417 19.1393 4.21094 19.3767 3.8213 20.6397C3.38015 22.0751 4.06539 24.6772 7.74238 25.8126C12.0509 27.136 15.6943 24.7892 16.2116 21.7325C16.5385 19.8178 15.6719 18.3914 14.0864 16.5618L12.7966 15.1354C12.0128 14.3516 11.7463 13.0215 12.5547 11.9981C13.2377 11.1337 14.2118 10.7664 15.804 11.1986C18.1307 11.8279 19.1675 13.4447 20.8962 14.7457C20.1819 17.0881 19.7161 19.4394 19.2929 21.5511L19.0331 23.1231C17.7947 29.6105 16.852 33.171 14.3977 35.2178C13.9028 35.5693 13.1974 36.0956 12.1315 36.1337C11.5739 36.1517 11.3925 35.7664 11.3835 35.5985C11.3724 35.2066 11.7015 35.0274 11.921 34.8505C12.2479 34.6714 12.745 34.3735 12.7115 33.4263C12.6756 32.3022 11.7441 31.328 10.4005 31.3751C9.39275 31.4087 7.85881 32.3559 7.91703 34.0914C7.97749 35.8829 9.6458 37.2265 12.1651 37.1391C13.5109 37.0943 16.5183 36.5457 19.481 33.0255C22.9296 28.9879 23.8925 24.3592 24.6203 20.9711L25.4287 16.4991C25.8788 16.5529 26.3602 16.5887 26.8842 16.6021C31.177 16.6939 33.3246 14.4681 33.3581 12.8513C33.3784 11.8727 32.7155 10.9075 31.7861 10.9299C31.121 10.9502 30.2858 11.3912 30.0865 12.3116C29.8916 13.214 31.4525 14.0291 30.2298 14.8196C29.3632 15.3817 27.8068 15.7781 25.6168 15.4556L26.0154 13.2543C26.8282 9.08021 27.8315 3.9454 31.6339 3.82224C31.9115 3.80881 32.926 3.83338 32.9483 4.50524C32.9552 4.72918 32.9013 4.78741 32.6371 5.3002C32.3684 5.69881 32.2698 6.03919 32.281 6.43107C32.3191 7.49699 33.1297 8.19791 34.3009 8.15536C35.8707 8.10385 36.3208 6.57663 36.2962 5.79062C36.2312 3.9454 34.2852 2.77871 31.7145 2.86156L31.719 2.86157Z" fill="white"/>
</svg>
