<svg width="40" height="40" viewBox="0 0 40 40" fill="none" xmlns="http://www.w3.org/2000/svg">
<path d="M9.99984 19.4531C9.31234 19.4531 8.74984 18.8906 8.74984 18.2031V10C8.74984 9.3125 9.31234 8.75 9.99984 8.75C10.6873 8.75 11.2498 9.3125 11.2498 10V18.2031C11.2498 18.8906 10.6873 19.4531 9.99984 19.4531Z" fill="white"/>
<path d="M19.9998 36.25C19.7655 36.25 19.5311 36.1875 19.328 36.0547L5.57797 27.3047C4.99203 26.9375 4.82016 26.1641 5.19516 25.5781C5.57016 24.9922 6.33578 24.8281 6.92172 25.1953L19.9998 33.5156L33.078 25.1953C33.6639 24.8281 34.4295 25 34.8045 25.5781C35.1717 26.1641 34.9998 26.9297 34.4217 27.3047L20.6717 36.0547C20.4686 36.1875 20.2342 36.25 19.9998 36.25Z" fill="white"/>
<path d="M19.9998 30.7812C19.3123 30.7812 18.7498 30.2188 18.7498 29.5312V23.8203C18.7498 23.1328 19.3123 22.5703 19.9998 22.5703C20.6873 22.5703 21.2498 23.1328 21.2498 23.8203V29.5312C21.2498 30.2188 20.6873 30.7812 19.9998 30.7812Z" fill="white"/>
<path d="M9.99984 6.25C10.6902 6.25 11.2498 5.69036 11.2498 5C11.2498 4.30964 10.6902 3.75 9.99984 3.75C9.30949 3.75 8.74984 4.30964 8.74984 5C8.74984 5.69036 9.30949 6.25 9.99984 6.25Z" fill="white"/>
<path d="M9.99984 24.4531C10.6902 24.4531 11.2498 23.8935 11.2498 23.2031C11.2498 22.5128 10.6902 21.9531 9.99984 21.9531C9.30949 21.9531 8.74984 22.5128 8.74984 23.2031C8.74984 23.8935 9.30949 24.4531 9.99984 24.4531Z" fill="white"/>
<path d="M30.0155 24.5312C29.328 24.5312 28.7655 23.9766 28.7655 23.2812L28.7498 15C28.7498 14.3125 29.3045 13.75 29.9998 13.75C30.6873 13.75 31.2498 14.3047 31.2498 15L31.2655 23.2812C31.2655 23.9688 30.7108 24.5312 30.0155 24.5312Z" fill="white"/>
<path d="M29.9998 6.25C30.6902 6.25 31.2498 5.69036 31.2498 5C31.2498 4.30964 30.6902 3.75 29.9998 3.75C29.3095 3.75 28.7498 4.30964 28.7498 5C28.7498 5.69036 29.3095 6.25 29.9998 6.25Z" fill="white"/>
<path d="M29.9998 11.25C30.6902 11.25 31.2498 10.6904 31.2498 10C31.2498 9.30964 30.6902 8.75 29.9998 8.75C29.3095 8.75 28.7498 9.30964 28.7498 10C28.7498 10.6904 29.3095 11.25 29.9998 11.25Z" fill="white"/>
<path d="M24.9998 17.5781C24.3123 17.5781 23.7498 17.0156 23.7498 16.3281V8.28125C23.7498 7.59375 24.3123 7.03125 24.9998 7.03125C25.6873 7.03125 26.2498 7.59375 26.2498 8.28125V16.3281C26.2498 17.0156 25.6873 17.5781 24.9998 17.5781Z" fill="white"/>
<path d="M19.9998 15.0781C20.6902 15.0781 21.2498 14.5185 21.2498 13.8281C21.2498 13.1378 20.6902 12.5781 19.9998 12.5781C19.3095 12.5781 18.7498 13.1378 18.7498 13.8281C18.7498 14.5185 19.3095 15.0781 19.9998 15.0781Z" fill="white"/>
<path d="M19.9998 20.0781C20.6902 20.0781 21.2498 19.5185 21.2498 18.8281C21.2498 18.1378 20.6902 17.5781 19.9998 17.5781C19.3095 17.5781 18.7498 18.1378 18.7498 18.8281C18.7498 19.5185 19.3095 20.0781 19.9998 20.0781Z" fill="white"/>
<path d="M24.9998 22.5781C25.6902 22.5781 26.2498 22.0185 26.2498 21.3281C26.2498 20.6378 25.6902 20.0781 24.9998 20.0781C24.3095 20.0781 23.7498 20.6378 23.7498 21.3281C23.7498 22.0185 24.3095 22.5781 24.9998 22.5781Z" fill="white"/>
<path d="M24.9998 27.5781C25.6902 27.5781 26.2498 27.0185 26.2498 26.3281C26.2498 25.6378 25.6902 25.0781 24.9998 25.0781C24.3095 25.0781 23.7498 25.6378 23.7498 26.3281C23.7498 27.0185 24.3095 27.5781 24.9998 27.5781Z" fill="white"/>
<path d="M14.9998 17.5781C14.3123 17.5781 13.7498 17.0156 13.7498 16.3281V8.28125C13.7498 7.59375 14.3123 7.03125 14.9998 7.03125C15.6873 7.03125 16.2498 7.59375 16.2498 8.28125V16.3281C16.2498 17.0156 15.6873 17.5781 14.9998 17.5781Z" fill="white"/>
<path d="M14.9998 22.5781C15.6902 22.5781 16.2498 22.0185 16.2498 21.3281C16.2498 20.6378 15.6902 20.0781 14.9998 20.0781C14.3095 20.0781 13.7498 20.6378 13.7498 21.3281C13.7498 22.0185 14.3095 22.5781 14.9998 22.5781Z" fill="white"/>
<path d="M14.9998 27.5781C15.6902 27.5781 16.2498 27.0185 16.2498 26.3281C16.2498 25.6378 15.6902 25.0781 14.9998 25.0781C14.3095 25.0781 13.7498 25.6378 13.7498 26.3281C13.7498 27.0185 14.3095 27.5781 14.9998 27.5781Z" fill="white"/>
</svg>
