<svg width="40" height="40" viewBox="0 0 40 40" fill="none" xmlns="http://www.w3.org/2000/svg">
<path fill-rule="evenodd" clip-rule="evenodd" d="M20 5C28.2725 5 35 11.732 35 20C35 28.268 28.2723 35 19.999 35C11.7274 34.9999 5 28.2679 5 20C5 11.732 11.7275 5 20 5ZM19.999 6.50098C12.5516 6.5011 6.49609 12.5571 6.49609 20C6.49609 27.443 12.554 33.501 20 33.501C27.4468 33.501 33.5039 27.443 33.5039 20C33.5039 12.557 27.4465 6.50098 19.999 6.50098ZM23.8994 31.1543C23.9241 31.2119 23.9574 31.2662 23.9873 31.3193C22.7372 31.7565 21.3965 32 20.001 32C18.8235 32 17.6874 31.8302 16.6104 31.5107L20.2109 21.0469L23.8994 31.1543ZM14.7646 30.7998C10.7611 28.8543 8.00098 24.752 8.00098 20C8.00098 18.257 8.37383 16.6094 9.03906 15.1162L14.7646 30.7998ZM30.5322 14.2383C31.4667 15.9528 32 17.9142 32 20C32 24.4265 29.6036 28.297 26.0352 30.376L29.6992 19.7754C30.3839 18.0611 30.6132 16.6936 30.6133 15.4727C30.6133 15.0332 30.5855 14.6208 30.5322 14.2383ZM20.001 8C23.1261 8.00006 25.9706 9.18807 28.1035 11.1484C28.0504 11.1469 28.0024 11.1426 27.9492 11.1426C26.7717 11.1426 25.669 12.1737 25.6689 13.2725C25.6689 14.2587 26.2408 15.0902 26.8506 16.0869C27.3059 16.8834 28.1025 17.913 28.1025 19.3955C28.1025 20.4267 27.7989 21.7165 27.1885 23.2764L25.9893 27.2715L21.5713 14.0635C22.2928 14.0282 22.9453 13.9502 22.9453 13.9502C23.591 13.8722 23.5129 12.9201 22.8672 12.9629C22.8544 12.9639 20.921 13.1123 19.6689 13.1123C18.5012 13.1123 16.5371 12.9652 16.5068 12.9629C15.8619 12.9186 15.7865 13.9079 16.4326 13.9502C16.4326 13.9502 17.0466 14.029 17.6924 14.0635L19.6445 19.5L17.0195 27.376L12.5713 14.042C13.2943 14.0067 13.9424 13.9277 13.9424 13.9277C14.5917 13.8496 14.513 12.8988 13.8682 12.9414C13.8682 12.9414 11.9217 13.0908 10.6699 13.0908C10.442 13.0908 10.3828 13.117 10.2119 13.0615C12.3862 9.9994 15.9593 8 20.001 8Z" fill="white"/>
</svg>
