<svg width="80" height="80" viewBox="0 0 80 80" fill="none" xmlns="http://www.w3.org/2000/svg">
<path d="M1.66699 65H45.0003H1.66699Z" fill="#F8B3A9"/>
<path d="M1.66699 65H45.0003" stroke="#42140D" stroke-width="2" stroke-linecap="round" stroke-linejoin="round"/>
<path d="M45.0003 54.9997V78.333H1.66699V8.33301H41.667" fill="white"/>
<path d="M45.0003 54.9997V78.333H1.66699V8.33301H41.667" stroke="#42140D" stroke-width="2" stroke-linecap="round" stroke-linejoin="round"/>
<path d="M39.4463 28.8067L32.4663 26.9033L23.333 38.3933L33.6497 37.5067" fill="#B3B5EE"/>
<path d="M39.4463 28.8067L32.4663 26.9033L23.333 38.3933L33.6497 37.5067L39.4463 28.8067Z" stroke="#42140D" stroke-width="2" stroke-linecap="round" stroke-linejoin="round"/>
<path d="M47.0637 36.4238L48.967 43.4038L38.3604 51.6538V42.2238" fill="#B3B5EE"/>
<path d="M47.0637 36.4238L48.967 43.4038L38.3604 51.6538V42.2238L47.0637 36.4238Z" stroke="#42140D" stroke-width="2" stroke-linecap="round" stroke-linejoin="round"/>
<path d="M21.667 71.667H25.0003H21.667Z" fill="#F8B3A9"/>
<path d="M21.667 71.667H25.0003" stroke="#42140D" stroke-width="2" stroke-linecap="round" stroke-linejoin="round"/>
<path d="M38.3598 42.223L33.6465 37.5097L52.4998 9.22634L72.5365 3.33301L66.6432 23.3663L38.3598 42.223Z" fill="#F8B3A9" stroke="#42140D" stroke-width="2" stroke-linecap="round" stroke-linejoin="round"/>
<path d="M39.4463 28.8067L32.4663 26.9033L23.333 38.3933L33.6497 37.5067" stroke="#42140D" stroke-width="2" stroke-linecap="round" stroke-linejoin="round"/>
<path d="M47.0637 36.4229L48.967 43.4029L38.3604 51.6529V42.2229" stroke="#42140D" stroke-width="2" stroke-linecap="round" stroke-linejoin="round"/>
<path d="M61.9304 13.9404L56.037 15.1204L54.8604 21.0104L60.7504 19.8338L61.9304 13.9404Z" fill="#B3B5EE" stroke="#42140D" stroke-width="2" stroke-linecap="round" stroke-linejoin="round"/>
<path d="M31.6663 45H24.9997L18.333 58.3333L31.6663 51.6667V45Z" fill="white" stroke="#42140D" stroke-width="2" stroke-linecap="round" stroke-linejoin="round"/>
</svg>
