<svg width="80" height="80" viewBox="0 0 80 80" fill="none" xmlns="http://www.w3.org/2000/svg">
<path d="M17.8337 49.1676L54.2503 12.751L70.0837 28.5843L33.667 65.001L21.0003 68.1676L14.667 61.8343L17.8337 49.1676Z" fill="white"/>
<path d="M60.5833 6.41797L54.25 12.7513L70.0833 28.5846L76.4167 22.2513L60.5833 6.41797Z" fill="#F8D98B"/>
<path d="M14.6663 61.834L3.58301 72.9173H16.2497L20.9997 68.1673" fill="#F8D98B"/>
<path d="M17.8337 49.1676L54.2503 12.751L70.0837 28.5843L33.667 65.001L21.0003 68.1676L14.667 61.8343L17.8337 49.1676Z" fill="white" stroke="#42140D" stroke-width="2" stroke-linecap="round" stroke-linejoin="round"/>
<path d="M34.4583 64.2093L18.625 48.376" stroke="#42140D" stroke-width="2" stroke-linecap="round" stroke-linejoin="round"/>
<path d="M60.5833 38.0843L44.75 22.251" stroke="#42140D" stroke-width="2" stroke-linecap="round" stroke-linejoin="round"/>
<path d="M54.2503 12.751L49.5003 8.00098L33.667 23.8343" stroke="#42140D" stroke-width="2" stroke-linecap="round" stroke-linejoin="round"/>
<path d="M14.6663 61.834L3.58301 72.9173H16.2497L20.9997 68.1673" stroke="#42140D" stroke-width="2" stroke-linecap="round" stroke-linejoin="round"/>
<path d="M60.5833 6.41797L54.25 12.7513L70.0833 28.5846L76.4167 22.2513L60.5833 6.41797Z" stroke="#42140D" stroke-width="2" stroke-linecap="round" stroke-linejoin="round"/>
</svg>
