<svg width="80" height="80" viewBox="0 0 80 80" fill="none" xmlns="http://www.w3.org/2000/svg">
<path fill-rule="evenodd" clip-rule="evenodd" d="M67.7742 3.96094C67.7814 3.96111 67.7886 3.96061 67.7957 3.96094C67.8046 3.96134 67.8133 3.96226 67.8221 3.96289C67.8391 3.96412 67.8561 3.9657 67.8729 3.96777C67.8929 3.97025 67.9127 3.97387 67.9324 3.97754C67.9459 3.98002 67.9593 3.98234 67.9725 3.98535C67.9889 3.9891 68.0051 3.99349 68.0213 3.99805C68.0391 4.00307 68.0567 4.00868 68.0741 4.01465C68.0908 4.0204 68.1074 4.02658 68.1239 4.0332C68.1351 4.03775 68.146 4.04291 68.1571 4.04785C68.1772 4.05681 68.1972 4.06591 68.2166 4.07617C68.2245 4.08033 68.2323 4.0845 68.2401 4.08887C68.3449 4.14777 68.4398 4.22505 68.5184 4.31934L76.2264 13.5693C76.376 13.749 76.4588 13.9761 76.4588 14.21V20.377C76.4585 20.9288 76.0107 21.3767 75.4588 21.377H61.0418V66.627C61.0417 66.892 60.9363 67.1466 60.7489 67.334L51.4989 76.584C51.3114 76.7714 51.0569 76.8769 50.7918 76.877H13.7918C13.5268 76.877 13.2723 76.7713 13.0848 76.584L3.8348 67.334C3.44433 66.9435 3.44445 66.3105 3.8348 65.9199L13.0848 56.6699L13.158 56.6035C13.336 56.4576 13.5597 56.377 13.7918 56.377H18.9578V12.668C18.9579 12.4029 19.0634 12.1484 19.2508 11.9609L26.9588 4.25293C27.1463 4.06547 27.4008 3.96005 27.6659 3.95996H67.7498C67.758 3.95997 67.7661 3.96074 67.7742 3.96094Z" fill="white"/>
<path d="M50.792 75.877H13.792L4.54199 66.627L13.792 57.377H50.792L41.542 66.627L50.792 75.877Z" fill="#F8B3A9"/>
<path d="M19.958 57.3766V12.6683L27.6663 4.95996H67.7497" fill="white"/>
<path d="M19.958 57.3766V12.6683L27.6663 4.95996H67.7497" stroke="#42140D" stroke-width="2" stroke-linecap="round" stroke-linejoin="round"/>
<path d="M29.2085 20.376H47.7085H29.2085Z" fill="white"/>
<path d="M29.2085 20.376H47.7085" stroke="#42140D" stroke-width="2" stroke-linecap="round" stroke-linejoin="round"/>
<path d="M29.2085 29.626H47.7085H29.2085Z" fill="#F8B3A9"/>
<path d="M29.2085 29.626H47.7085" stroke="#42140D" stroke-width="2" stroke-linecap="round" stroke-linejoin="round"/>
<path d="M29.2085 38.876H47.7085H29.2085Z" fill="white"/>
<path d="M29.2085 38.876H47.7085" stroke="#42140D" stroke-width="2" stroke-linecap="round" stroke-linejoin="round"/>
<path d="M29.2085 48.126H41.5418H29.2085Z" fill="white"/>
<path d="M29.2085 48.126H41.5418" stroke="#42140D" stroke-width="2" stroke-linecap="round" stroke-linejoin="round"/>
<path d="M50.7915 75.8766H13.7915L4.5415 66.6266L13.7915 57.3766H50.7915L41.5415 66.6266L50.7915 75.8766ZM50.7915 75.8766L60.0415 66.6266V12.6683L67.7498 4.95996L75.4582 14.21V20.3766H60.0415" stroke="#42140D" stroke-width="2" stroke-linecap="round" stroke-linejoin="round"/>
</svg>
