<svg width="57" height="56" viewBox="0 0 57 56" fill="none" xmlns="http://www.w3.org/2000/svg">
<path d="M54.2 29.5646L48.1546 38.0281H30.0181H22.7637H9.46357L1 27.1464L9.46357 13.8463H19.1365L25.1818 6.5918H37.2726L43.318 18.6826H50.5728L54.2 29.5646Z" fill="white"/>
<path d="M54.724 29.3815H47.2786L43.5559 31.8704H13.7742L8.81032 26.8926H0.124023L8.81032 38.0926H48.5195L54.724 29.3815Z" fill="#F8B3A9"/>
<path d="M20.4238 35.6426L25.3239 30.3926H31.4489L40.0238 40.8926" stroke="#42140D" stroke-width="2" stroke-linecap="round" stroke-linejoin="round"/>
<path d="M40.0242 33.1934V40.8934H32.3242" stroke="#42140D" stroke-width="2" stroke-linecap="round" stroke-linejoin="round"/>
<path d="M35.1242 45.7926L30.0492 50.6926H23.7055L14.8242 40.8926" stroke="#42140D" stroke-width="2" stroke-linecap="round" stroke-linejoin="round"/>
<path d="M14.8242 48.5926V40.8926H22.5242" stroke="#42140D" stroke-width="2" stroke-linecap="round" stroke-linejoin="round"/>
<path d="M42.109 38.0281H48.1546L54.2 29.5646L50.5728 18.6826H43.318L37.2726 6.5918H25.1818L19.1365 13.8463H9.46357L1 27.1464L9.46357 38.0281H13.0908" stroke="#42140D" stroke-width="2" stroke-linecap="round" stroke-linejoin="round"/>
</svg>
