<svg width="56" height="56" viewBox="0 0 56 56" fill="none" xmlns="http://www.w3.org/2000/svg">
<path d="M54.2448 23.012L50.3003 19.0675L44.3835 24.9842V9.20622H35.5084L37.4807 5.26172H17.7581L19.7303 9.20622H10.8552V50.6234H44.3835V32.8732L54.2448 23.012Z" fill="white"/>
<path d="M34.7195 38.7894H38.4668L54.2448 23.0114L52.4697 21.2363L34.7195 38.7894Z" fill="#BBD8FF"/>
<path d="M19.1389 8.2207L20.5195 11.1791H34.3253L35.9031 8.2207H19.1389Z" fill="#A7E9D1"/>
<path d="M35.5083 9.20703H44.3834V17.096" fill="white"/>
<path d="M35.5083 9.20703H44.3834V17.096" stroke="#42140D" stroke-width="2" stroke-linecap="round" stroke-linejoin="round"/>
<path d="M44.3835 38.7908V50.6243H10.8552V9.20703H19.7303" fill="white"/>
<path d="M44.3835 38.7908V50.6243H10.8552V9.20703H19.7303" stroke="#42140D" stroke-width="2" stroke-linecap="round" stroke-linejoin="round"/>
<path d="M16.772 38.7891H28.6054H16.772Z" fill="white"/>
<path d="M16.772 38.7891H28.6054" stroke="#42140D" stroke-width="2" stroke-linecap="round" stroke-linejoin="round"/>
<path d="M16.772 30.9004H28.6054H16.772Z" fill="white"/>
<path d="M16.772 30.9004H28.6054" stroke="#42140D" stroke-width="2" stroke-linecap="round" stroke-linejoin="round"/>
<path d="M16.772 23.0117H36.4944H16.772Z" fill="white"/>
<path d="M16.772 23.0117H36.4944" stroke="#42140D" stroke-width="2" stroke-linecap="round" stroke-linejoin="round"/>
<path d="M34.5222 34.8464V38.7909H38.4667L54.2447 23.0129L50.3002 19.0684L34.5222 34.8464Z" fill="#A7E9D1" stroke="#42140D" stroke-width="2" stroke-linecap="round" stroke-linejoin="round"/>
<path d="M37.4805 5.26172L34.3249 11.1785H20.5192L17.7581 5.26172H37.4805Z" fill="white" stroke="#42140D" stroke-width="2" stroke-linecap="round" stroke-linejoin="round"/>
</svg>
