<svg width="57" height="56" viewBox="0 0 57 56" fill="none" xmlns="http://www.w3.org/2000/svg">
<path d="M54.2 29.5646L48.1546 38.0281H30.0181H22.7637H9.46357L1 27.1464L9.46357 13.8463H19.1365L25.1818 6.5918H37.2726L43.318 18.6826H50.5728L54.2 29.5646Z" fill="white"/>
<path d="M14.3001 38.0285H9.46357L1 27.1465H8.25449L13.091 33.1921H17.9274L14.3001 38.0285Z" fill="#F8B3A9"/>
<path d="M40.9004 33.1928H43.3186L48.1549 29.5656L50.573 18.6836L54.2003 29.5656L48.1549 38.0291H40.9004V33.1928Z" fill="#F8B3A9"/>
<path d="M42.109 38.0281H48.1546L54.2 29.5646L50.5728 18.6826H43.318L37.2726 6.5918H25.1818L19.1365 13.8463H9.46357L1 27.1464L9.46357 38.0281H13.0908" stroke="#42140D" stroke-width="2" stroke-linecap="round" stroke-linejoin="round"/>
<path d="M34.8545 18.6836H43.3183" stroke="#42140D" stroke-width="2" stroke-linecap="round" stroke-linejoin="round"/>
<path d="M35.3072 37.3703L37.5905 34.9298L36.1803 32.5798L32.9123 33.4566L30.7923 32.2555L29.8269 28.877H27.0868L26.1214 32.2555L24.0015 33.4566L20.7326 32.5798L19.3232 34.9298L21.6066 37.3703V40.4777L19.3232 42.9182L20.7326 45.2682L24.0015 44.3914L26.1214 45.5925L27.0868 48.971H29.8269L30.7923 45.5925L32.9123 44.3914L36.1803 45.2682L37.5905 42.9182L35.3072 40.4777V37.3703Z" fill="white"/>
<path d="M35.305 37.3706L37.5884 34.9301L36.1791 32.5801L34.2272 33.1043L31.5811 36.6499L30.7902 37.7417L31.5811 40.8917L28.4741 42.9185L26.1193 41.2417L22.5508 44.7799L23.9993 44.3917L26.1193 45.5928L27.0847 48.9713H29.8248L30.7902 45.5928L32.9102 44.3917L36.1791 45.2685L37.5884 42.9185L35.305 40.478V37.3706Z" fill="#F8B3A9"/>
<path d="M35.3072 37.3703L37.5905 34.9298L36.1803 32.5798L32.9123 33.4566L30.7923 32.2555L29.8269 28.877H27.0868L26.1214 32.2555L24.0015 33.4566L20.7326 32.5798L19.3232 34.9298L21.6066 37.3703V40.4777L19.3232 42.9182L20.7326 45.2682L24.0015 44.3914L26.1214 45.5925L27.0868 48.971H29.8269L30.7923 45.5925L32.9123 44.3914L36.1803 45.2682L37.5905 42.9182L35.3072 40.4777V37.3703Z" stroke="#42140D" stroke-width="2" stroke-linecap="round" stroke-linejoin="round"/>
<path d="M31.6242 40.8921L28.4742 42.9922L25.3242 40.8921V38.0922L28.4742 35.9922L31.6242 38.0922V40.8921Z" stroke="#42140D" stroke-width="2" stroke-linecap="round" stroke-linejoin="round"/>
</svg>
