<svg width="56" height="56" viewBox="0 0 56 56" fill="none" xmlns="http://www.w3.org/2000/svg">
<g clip-path="url(#clip0_0_1099)">
<path d="M53.1891 29.0713V23.4261L46.4149 21.168L39.6406 23.4261V29.0713H53.1891Z" fill="white"/>
<path d="M50.9308 16.6533L46.4146 18.9114L41.8984 16.6533V11.0081L46.4146 8.75L50.9308 11.0081V16.6533Z" fill="white"/>
<path d="M35.1247 22.2978V16.6526L28.3504 14.3945L21.5762 16.6526V22.2978H35.1247Z" fill="white"/>
<path d="M32.8663 9.87789L28.3502 12.136L23.834 9.87789V4.23269L28.3502 1.97461L32.8663 4.23269V9.87789Z" fill="white"/>
<path d="M23.8338 40.363V29.0725L27.2209 26.8145L30.6081 29.0725V41.492L35.1242 39.2339L38.5114 41.492L41.8985 39.2339L46.4147 42.621V53.9115H20.4467L17.0596 48.2662L20.4467 40.363H23.8338Z" fill="white"/>
<path d="M17.0602 29.0713V23.4261L10.286 21.168L3.51172 23.4261V29.0713H17.0602Z" fill="white"/>
<path d="M14.8019 16.6533L10.2857 18.9114L5.76953 16.6533V11.0081L10.2857 8.75L14.8019 11.0081V16.6533Z" fill="white"/>
<path d="M46.415 29.0713H53.1893V23.4261L46.415 21.168V29.0713Z" fill="#F8B3A9"/>
<path d="M46.415 8.75L50.9312 11.0081V16.6533L46.415 18.9114V8.75Z" fill="#F8B3A9"/>
<path d="M28.3506 22.2978H35.1248V16.6526L28.3506 14.3945V22.2978Z" fill="#F8B3A9"/>
<path d="M28.3506 1.97461L32.8668 4.23269V9.87789L28.3506 12.136V1.97461Z" fill="#F8B3A9"/>
<path d="M10.2852 29.0713H17.0594V23.4261L10.2852 21.168V29.0713Z" fill="#F8B3A9"/>
<path d="M10.2852 8.75L14.8013 11.0081V16.6533L10.2852 18.9114V8.75Z" fill="#F8B3A9"/>
<path d="M19.3177 8.75H17.0596" stroke="#42140D" stroke-width="2" stroke-linecap="round" stroke-linejoin="round"/>
<path d="M19.3174 4.23331L17.2852 3.33008" stroke="#42140D" stroke-width="2" stroke-linecap="round" stroke-linejoin="round"/>
<path d="M37.3828 8.75H39.6409" stroke="#42140D" stroke-width="2" stroke-linecap="round" stroke-linejoin="round"/>
<path d="M37.3828 4.23331L39.4151 3.33008" stroke="#42140D" stroke-width="2" stroke-linecap="round" stroke-linejoin="round"/>
<path d="M23.8338 47.1372V29.0725L27.2209 26.8145L30.6081 29.0725V41.492L35.1242 39.2339L38.5114 41.492L41.8985 39.2339L46.4147 42.621V53.9115H20.4467L17.0596 48.2662L20.4467 40.363H23.8338" stroke="#42140D" stroke-width="2" stroke-linecap="round" stroke-linejoin="round"/>
<path d="M35.1247 22.2978V16.6526L28.3504 14.3945L21.5762 16.6526V22.2978H35.1247Z" stroke="#42140D" stroke-width="2" stroke-linecap="round" stroke-linejoin="round"/>
<path d="M32.8663 9.87789L28.3502 12.136L23.834 9.87789V4.23269L28.3502 1.97461L32.8663 4.23269V9.87789Z" stroke="#42140D" stroke-width="2" stroke-linecap="round" stroke-linejoin="round"/>
<path d="M53.1891 29.0713V23.4261L46.4149 21.168L39.6406 23.4261V29.0713H53.1891Z" stroke="#42140D" stroke-width="2" stroke-linecap="round" stroke-linejoin="round"/>
<path d="M50.9308 16.6533L46.4146 18.9114L41.8984 16.6533V11.0081L46.4146 8.75L50.9308 11.0081V16.6533Z" stroke="#42140D" stroke-width="2" stroke-linecap="round" stroke-linejoin="round"/>
<path d="M17.0602 29.0713V23.4261L10.286 21.168L3.51172 23.4261V29.0713H17.0602Z" stroke="#42140D" stroke-width="2" stroke-linecap="round" stroke-linejoin="round"/>
<path d="M14.8019 16.6533L10.2857 18.9114L5.76953 16.6533V11.0081L10.2857 8.75L14.8019 11.0081V16.6533Z" stroke="#42140D" stroke-width="2" stroke-linecap="round" stroke-linejoin="round"/>
</g>
<defs>
<clipPath id="clip0_0_1099">
<rect width="55.3" height="55.3" fill="white" transform="translate(0.700195 0.292969)"/>
</clipPath>
</defs>
</svg>
