<svg width="56" height="56" viewBox="0 0 56 56" fill="none" xmlns="http://www.w3.org/2000/svg">
<path d="M44.1 7.32422H2.80005V39.5242H44.1V7.32422Z" fill="white"/>
<path d="M44.4111 12.2246H49V44.4246H7.69995V39.8244" fill="#A7E9D1"/>
<path d="M44.4111 12.2246H49V44.4246H7.69995V39.8244" stroke="#42140D" stroke-width="2" stroke-linecap="round" stroke-linejoin="round"/>
<path d="M44.1 7.32422H2.80005V39.5242H44.1V7.32422Z" fill="white" stroke="#42140D" stroke-width="2" stroke-linecap="round" stroke-linejoin="round"/>
<path d="M2.80005 16.4258H44.1H2.80005Z" fill="#A7E9D1"/>
<path d="M2.80005 16.4258H44.1" stroke="#42140D" stroke-width="2" stroke-linecap="round" stroke-linejoin="round"/>
<path d="M7.69995 12.2246H9.79995H7.69995Z" fill="white"/>
<path d="M7.69995 12.2246H9.79995" stroke="#42140D" stroke-width="2" stroke-linecap="round" stroke-linejoin="round"/>
<path d="M14.7 12.2246H16.8H14.7Z" fill="white"/>
<path d="M14.7 12.2246H16.8" stroke="#42140D" stroke-width="2" stroke-linecap="round" stroke-linejoin="round"/>
<path d="M21.7 12.2246H23.8H21.7Z" fill="white"/>
<path d="M21.7 12.2246H23.8" stroke="#42140D" stroke-width="2" stroke-linecap="round" stroke-linejoin="round"/>
<path d="M49.311 16.4258H53.8999V48.6258H12.5999V44.0258" stroke="#42140D" stroke-width="2" stroke-linecap="round" stroke-linejoin="round"/>
</svg>
