<svg width="56" height="56" viewBox="0 0 56 56" fill="none" xmlns="http://www.w3.org/2000/svg">
<path d="M9.7998 10.0938H34.2998L41.2998 16.7438L46.8998 21.6438V46.4938H9.7998V10.0938Z" fill="white"/>
<path d="M20.3872 46.4473H25.6808" stroke="#42140D" stroke-width="2" stroke-linecap="round" stroke-linejoin="round"/>
<path d="M30.9741 46.4473H36.2676" stroke="#42140D" stroke-width="2" stroke-linecap="round" stroke-linejoin="round"/>
<path d="M10.1992 35.8594V30.5657" stroke="#42140D" stroke-width="2" stroke-linecap="round" stroke-linejoin="round"/>
<path d="M9.7998 25.2734V19.9801" stroke="#42140D" stroke-width="2" stroke-linecap="round" stroke-linejoin="round"/>
<path d="M46.8535 35.8594V30.5657" stroke="#42140D" stroke-width="2" stroke-linecap="round" stroke-linejoin="round"/>
<path d="M46.8535 25.2734V22.6268" stroke="#42140D" stroke-width="2" stroke-linecap="round" stroke-linejoin="round"/>
<path d="M33.6208 9.39258H30.9741" stroke="#42140D" stroke-width="2" stroke-linecap="round" stroke-linejoin="round"/>
<path d="M25.6808 9.39258H20.3872" stroke="#42140D" stroke-width="2" stroke-linecap="round" stroke-linejoin="round"/>
<path d="M15.0932 9.39217H9.7998V14.6855" stroke="#42140D" stroke-width="2" stroke-linecap="round" stroke-linejoin="round"/>
<path d="M41.5601 46.4473H46.8534V41.1539" stroke="#42140D" stroke-width="2" stroke-linecap="round" stroke-linejoin="round"/>
<path d="M10.1992 41.1543V46.4477H15.4926" stroke="#42140D" stroke-width="2" stroke-linecap="round" stroke-linejoin="round"/>
<path d="M53.1999 10.1003C48.6705 8.34483 48.7677 8.33075 46.9 3.79297C46.9001 7.99297 46.9 10.1003 46.9 10.1003C46.9 10.1003 46.8998 11.9305 46.9 16.393C48.4151 12.2261 49.1418 11.5564 53.1999 10.1003Z" fill="#B3B5EE"/>
<path d="M43.4001 24.8036C36.3543 22.0729 36.5056 22.051 33.6002 14.9922C33.6005 21.5255 33.6002 24.8036 33.6002 24.8036C33.6002 24.8036 33.6 27.6505 33.6002 34.5922C35.9571 28.1104 37.0874 27.0687 43.4001 24.8036Z" fill="#B3B5EE"/>
<path d="M53.2001 10.1003C48.6707 8.34483 48.7679 8.33075 46.9002 3.79297C45.385 7.95986 44.6583 8.62934 40.6001 10.0855C45.1297 11.841 45.0324 11.8551 46.9002 16.393C48.4153 12.2261 49.142 11.5564 53.2001 10.1003Z" stroke="#42140D" stroke-width="2" stroke-linecap="round" stroke-linejoin="round"/>
<path d="M43.3998 24.8036C36.3541 22.0729 36.5053 22.051 33.5999 14.9922C31.243 21.474 30.1126 22.5154 23.7998 24.7806C30.8458 27.5114 30.6945 27.5333 33.5999 34.5922C35.9568 28.1104 37.0872 27.0687 43.3998 24.8036Z" stroke="#42140D" stroke-width="2" stroke-linecap="round" stroke-linejoin="round"/>
</svg>
