<svg width="56" height="56" viewBox="0 0 56 56" fill="none" xmlns="http://www.w3.org/2000/svg">
<path d="M37.5442 15.7539H18.4556L8.91113 20.526V49.159L18.4556 53.9311H37.5442L47.0887 49.159V20.526L37.5442 15.7539Z" fill="white"/>
<path d="M47.0887 49.1584V20.5254L37.5442 25.2975H18.4556L8.91113 20.5254V49.1584" stroke="#42140D" stroke-width="2" stroke-linecap="round" stroke-linejoin="round"/>
<path d="M47.0887 30.0703L37.5442 34.8424H18.4556L8.91113 30.0703" stroke="#42140D" stroke-width="2" stroke-linecap="round" stroke-linejoin="round"/>
<path d="M47.0887 39.6133L37.5442 44.3854H18.4556L8.91113 39.6133" stroke="#42140D" stroke-width="2" stroke-linecap="round" stroke-linejoin="round"/>
<path d="M47.0887 49L37.5442 53.7724H18.4556L8.91113 49" stroke="#42140D" stroke-width="2" stroke-linecap="round" stroke-linejoin="round"/>
<path d="M8.91113 20.526L18.4556 15.7539H37.5442L47.0887 20.526" stroke="#42140D" stroke-width="2" stroke-linecap="round" stroke-linejoin="round"/>
<path d="M51.7999 19.3301C45.0058 16.6969 45.1516 16.6758 42.35 9.86914C40.0773 16.1195 38.9872 17.1237 32.8999 19.3079C39.6943 21.9412 39.5484 21.9624 42.35 28.7691C44.6227 22.5188 45.7127 21.5143 51.7999 19.3301Z" fill="#B3B5EE" stroke="#42140D" stroke-width="2" stroke-linecap="round" stroke-linejoin="round"/>
<path d="M37.8 8.82764C33.019 6.97466 33.1216 6.9598 31.1501 2.16992C29.5508 6.56831 28.7837 7.27498 24.5 8.81204C29.2812 10.6651 29.1786 10.68 31.1501 15.4699C32.7494 11.0716 33.5164 10.3647 37.8 8.82764Z" fill="#B3B5EE" stroke="#42140D" stroke-width="2" stroke-linecap="round" stroke-linejoin="round"/>
</svg>
