<svg width="56" height="56" viewBox="0 0 56 56" fill="none" xmlns="http://www.w3.org/2000/svg">
<path fill-rule="evenodd" clip-rule="evenodd" d="M17.1467 45.8672L6.12817 51.377L11.6379 40.3584H17.1467V45.8672ZM31.4436 39.0391L22.678 45.8564V38.0635L31.4436 39.0391ZM46.051 22.4805L22.678 38.0635L18.7834 34.1689L34.3635 10.7959L50.9211 5.92578L46.051 22.4805ZM18.7854 34.166L10.26 34.8984L17.8079 25.4033L18.7854 34.166Z" fill="white"/>
<path d="M42.1558 14.6895L37.2856 15.6646L36.3132 20.532L41.1807 19.5596L42.1558 14.6895Z" fill="#A7E9D1"/>
<path d="M23.5759 26.9752L17.8077 25.4023L10.26 34.8976L18.7856 34.1648" fill="#A7E9D1"/>
<path d="M29.8706 33.2695L31.4435 39.0377L22.6782 45.8554V38.0626" fill="#A7E9D1"/>
<path d="M22.678 38.064L18.783 34.169L34.3631 10.796L50.9212 5.92578L46.051 22.4811L22.678 38.064Z" stroke="#42140D" stroke-width="2" stroke-linecap="round" stroke-linejoin="round"/>
<path d="M23.5761 26.9752L17.8079 25.4023L10.2603 34.8976L18.7858 34.1648" stroke="#42140D" stroke-width="2" stroke-linecap="round" stroke-linejoin="round"/>
<path d="M29.8703 33.2695L31.4432 39.0377L22.678 45.8554V38.0626" stroke="#42140D" stroke-width="2" stroke-linecap="round" stroke-linejoin="round"/>
<path d="M21.8984 29.4941L27.2204 34.8161" stroke="#42140D" stroke-width="2" stroke-linecap="round" stroke-linejoin="round"/>
<path d="M42.156 14.6895L37.2859 15.6646L36.3135 20.532L41.1809 19.5596L42.156 14.6895Z" stroke="#42140D" stroke-width="2" stroke-linecap="round" stroke-linejoin="round"/>
<path d="M17.1467 40.3574H11.6374L6.12817 51.3759L17.1467 45.8667V40.3574Z" stroke="#42140D" stroke-width="2" stroke-linecap="round" stroke-linejoin="round"/>
</svg>
