<svg width="56" height="56" viewBox="0 0 56 56" fill="none" xmlns="http://www.w3.org/2000/svg">
<g clip-path="url(#clip0_0_1239)">
<rect x="4.8999" y="21.0703" width="44.1" height="30.1" fill="white" stroke="#42140D" stroke-width="2" stroke-linecap="round" stroke-linejoin="round"/>
<rect width="44.1" height="7" transform="matrix(1 0 0 -1 4.8999 21.0703)" fill="white" stroke="#42140D" stroke-width="2" stroke-linecap="round" stroke-linejoin="round"/>
<path d="M12.2499 17.5703H8.3999" stroke="#42140D" stroke-width="2" stroke-linecap="round" stroke-linejoin="round"/>
<path d="M16.7999 17.5703H15.3999" stroke="#42140D" stroke-width="2" stroke-linecap="round" stroke-linejoin="round"/>
<path d="M50.5186 17.045C51.6029 14.8784 53.3166 11.6133 54.3259 9.41926L44.5934 5.5957C43.0649 8.0429 41.8421 10.9082 40.5254 13.4708L35.8922 22.4665C34.8985 24.3837 33.3874 26.6944 33.085 28.8009V38.4393C34.4626 37.6809 41.5595 33.3899 42.8804 32.5499C43.6038 31.1751 44.2243 29.8087 44.909 28.4235L50.5186 17.045Z" fill="white" stroke="#42140D" stroke-width="2" stroke-linecap="round" stroke-linejoin="round"/>
<path d="M53.0719 8.46384C53.1365 8.49617 53.1834 8.52307 53.2165 8.5422C53.6884 9.16252 53.6795 10.0168 53.2762 11.1539C53.0749 11.7215 52.7994 12.2894 52.5169 12.8308C52.2524 13.3375 51.9423 13.8912 51.7545 14.3059C51.5157 14.833 50.8917 15.2926 49.802 15.4382C48.7289 15.5814 47.3565 15.3846 45.9695 14.7564C44.5824 14.1282 43.5292 13.2268 42.929 12.3257C42.3196 11.4108 42.2534 10.6386 42.492 10.1114C42.9808 9.03214 43.4354 7.71443 44.1596 6.72959C44.5059 6.25879 44.8407 5.97627 45.159 5.85071C45.4385 5.74048 45.8094 5.70786 46.3607 5.95748C46.5674 6.05104 47.1255 6.24776 47.7575 6.46889C48.4251 6.70248 49.2534 6.9898 50.0764 7.28532C50.9013 7.58152 51.7072 7.88109 52.3294 8.13619C52.6421 8.26441 52.8938 8.37487 53.0719 8.46384Z" fill="#A7E9D1" stroke="#42140D" stroke-width="2"/>
<path d="M50.6626 4.82112C52.0499 5.44933 53.1025 6.35158 53.7027 7.25271C54.3122 8.16779 54.3784 8.93987 54.1397 9.46707C53.9008 9.99411 53.2771 10.4529 52.1876 10.5985C51.1144 10.7418 49.7419 10.5458 48.3547 9.91762C46.9674 9.28941 45.9148 8.38716 45.3146 7.48603C44.7053 6.5712 44.6387 5.79975 44.8772 5.27256C45.116 4.74535 45.7399 4.28584 46.8297 4.14026C47.9029 3.99692 49.2754 4.19291 50.6626 4.82112Z" fill="#A7E9D1" stroke="#42140D" stroke-width="2"/>
<path d="M32.8591 38.8385C33.3 38.5883 35.6167 37.2471 36.0394 36.9699L32.8591 35.6582V38.8385Z" fill="#42140D"/>
<path d="M42.4001 32.4776C38.8631 32.4776 33.6543 30.6646 33.6543 26.9121" stroke="#42140D" stroke-width="2" stroke-linecap="round" stroke-linejoin="round"/>
<path d="M45.1603 15.5586C43.2305 19.0287 41.365 22.7904 39.5144 26.3166C38.8223 27.6345 37.5912 29.7298 37.0425 31.0134" stroke="#42140D" stroke-width="2" stroke-linecap="round" stroke-linejoin="round"/>
<path d="M24.0375 37.0043C24.05 38.4345 22.8319 39.7598 21.2684 40.8494C19.6607 39.4811 18.997 37.4247 19.4556 36.101C20.5433 32.9617 24.0115 34.0279 24.0375 37.0043Z" fill="white"/>
<path d="M16.105 43.3917C18.76 42.5027 24.0635 39.9807 24.0375 37.0043C24.0115 34.0279 20.5433 32.9617 19.4556 36.101C18.368 39.2403 23.5922 46.4999 32.7512 38.9314" stroke="#42140D" stroke-width="2" stroke-linecap="round" stroke-linejoin="round"/>
</g>
<defs>
<clipPath id="clip0_0_1239">
<rect width="56" height="56" fill="white"/>
</clipPath>
</defs>
</svg>
