<svg width="56" height="56" viewBox="0 0 56 56" fill="none" xmlns="http://www.w3.org/2000/svg">
<path d="M44.4814 39.0095H48.0132L53.8996 30.7686L50.3678 20.1731H43.3042L37.4178 8.40039H25.6451L19.7587 15.464H10.3405L2.09961 28.414L10.3405 39.0095H13.8723" fill="white"/>
<path d="M44.4814 39.0095H48.0132L53.8996 30.7686L50.3678 20.1731H43.3042L37.4178 8.40039H25.6451L19.7587 15.464H10.3405L2.09961 28.414L10.3405 39.0095H13.8723" stroke="#42140D" stroke-width="2" stroke-linecap="round" stroke-linejoin="round"/>
<path d="M35.0635 20.1719H43.3044" stroke="#42140D" stroke-width="2" stroke-linecap="round" stroke-linejoin="round"/>
<path d="M37.0996 38.8496H19.5996V54.1621H37.0996V38.8496Z" fill="#F8B3A9"/>
<path d="M37.0996 38.8496H19.5996V54.1621H37.0996V38.8496Z" stroke="#42140D" stroke-width="2" stroke-linecap="round" stroke-linejoin="round"/>
<path d="M21.7002 38.5004V36.0154C21.7002 32.362 24.6775 29.4004 28.3502 29.4004C32.0229 29.4004 35.0002 32.362 35.0002 36.0154V38.5004" stroke="#42140D" stroke-width="2" stroke-linecap="round" stroke-linejoin="round"/>
<path d="M28.6846 47.959V50.525M30.7694 45.7138C30.7694 46.8652 29.8359 47.7987 28.6845 47.7987C27.533 47.7987 26.5996 46.8652 26.5996 45.7138C26.5996 44.5623 27.533 43.6289 28.6845 43.6289C29.8359 43.6289 30.7694 44.5623 30.7694 45.7138Z" stroke="#42140D" stroke-width="2" stroke-linecap="round" stroke-linejoin="round"/>
</svg>
