<svg width="128" height="96" viewBox="0 0 128 96" fill="none" xmlns="http://www.w3.org/2000/svg">
<path d="M53.6348 30.5044H26.3655L12.7305 37.3217V78.2259L26.3655 85.0433H53.6348L67.2698 78.2259V37.3217L53.6348 30.5044Z" fill="white"/>
<path d="M67.2698 78.2261V37.3218L53.6348 44.1391H26.3655L12.7305 37.3218V78.2261" stroke="#42140D" stroke-width="2" stroke-linecap="round" stroke-linejoin="round"/>
<path d="M67.2698 50.9565L53.6348 57.7739H26.3655L12.7305 50.9565" stroke="#42140D" stroke-width="2" stroke-linecap="round" stroke-linejoin="round"/>
<path d="M67.2698 64.5913L53.6348 71.4086H26.3655L12.7305 64.5913" stroke="#42140D" stroke-width="2" stroke-linecap="round" stroke-linejoin="round"/>
<path d="M67.2698 78L53.6348 84.8177H26.3655L12.7305 78" stroke="#42140D" stroke-width="2" stroke-linecap="round" stroke-linejoin="round"/>
<path d="M12.7305 37.3217L26.3655 30.5044H53.6348L67.2698 37.3217" stroke="#42140D" stroke-width="2" stroke-linecap="round" stroke-linejoin="round"/>
<path d="M74 35.6148C64.2941 31.8531 64.5025 31.8229 60.5002 22.0991C57.2534 31.0282 55.6962 32.4628 47 35.5831C56.7063 39.345 56.4978 39.3752 60.5002 49.0991C63.7469 40.1701 65.304 38.7351 74 35.6148Z" fill="#B3B5EE" stroke="#42140D" stroke-width="2" stroke-linecap="round" stroke-linejoin="round"/>
<path d="M54 20.6101C47.1699 17.963 47.3165 17.9418 44.5001 11.0991C42.2154 17.3825 41.1195 18.3921 35 20.5879C41.8303 23.2351 41.6837 23.2563 44.5001 30.0991C46.7849 23.8158 47.8806 22.8059 54 20.6101Z" fill="#B3B5EE" stroke="#42140D" stroke-width="2" stroke-linecap="round" stroke-linejoin="round"/>
</svg>
