<svg width="128" height="96" viewBox="0 0 128 96" fill="none" xmlns="http://www.w3.org/2000/svg">
<g clip-path="url(#clip0_0_85)">
<g clip-path="url(#clip1_0_85)">
<rect x="7" y="30.0991" width="63" height="43" fill="white" stroke="#42140D" stroke-width="2" stroke-linecap="round" stroke-linejoin="round"/>
<rect width="63" height="10" transform="matrix(1 0 0 -1 7 30.0991)" fill="white" stroke="#42140D" stroke-width="2" stroke-linecap="round" stroke-linejoin="round"/>
<path d="M17.5 25.0991H12" stroke="#42140D" stroke-width="2" stroke-linecap="round" stroke-linejoin="round"/>
<path d="M24 25.0991H22" stroke="#42140D" stroke-width="2" stroke-linecap="round" stroke-linejoin="round"/>
<path d="M72.1696 24.3512C73.7187 21.2562 76.1667 16.5916 77.6086 13.4573L63.705 7.99512C61.5215 11.4911 59.7747 15.5844 57.8937 19.2453L51.2748 32.0962C49.8552 34.8351 47.6964 38.1361 47.2644 41.1453V54.9146C49.2325 53.8312 59.3709 47.7011 61.2578 46.5011C62.2913 44.5372 63.1777 42.5852 64.1559 40.6062L72.1696 24.3512Z" fill="white" stroke="#42140D" stroke-width="2" stroke-linecap="round" stroke-linejoin="round"/>
<path d="M76.0077 11.7092C76.1425 11.7765 76.2377 11.8295 76.2983 11.8676C76.3035 11.8709 76.3084 11.8735 76.3127 11.8762C77.1781 12.9466 77.1152 14.3803 76.5127 16.0791C76.215 16.9184 75.8099 17.7498 75.4036 18.5282C75.0155 19.2719 74.5879 20.036 74.3261 20.6142C73.9019 21.5508 72.8441 22.2611 71.203 22.4803C69.5785 22.6972 67.5373 22.3972 65.4943 21.472C63.4513 20.5468 61.8794 19.2106 60.9708 17.8466C60.053 16.4686 59.889 15.205 60.3132 14.2684C60.9873 12.7797 61.6696 10.8148 62.7398 9.35963C63.2589 8.65379 63.7961 8.18081 64.3555 7.96013C64.8761 7.7548 65.5271 7.7231 66.4063 8.12123C66.6791 8.24472 67.4503 8.51694 68.3673 8.83778C69.32 9.17108 70.5052 9.58192 71.6831 10.0049C72.863 10.4285 74.0212 10.8588 74.9193 11.227C75.3699 11.4118 75.7395 11.5752 76.0077 11.7092Z" fill="#A7E9D1" stroke="#42140D" stroke-width="2"/>
<path d="M72.5518 6.49635C74.5949 7.42159 76.1663 8.75858 77.0748 10.1227C77.9926 11.5007 78.157 12.7634 77.7329 13.7C77.3088 14.6366 76.2513 15.346 74.6102 15.5652C72.9857 15.7822 70.9442 15.4831 68.9011 14.5579C66.858 13.6326 65.2866 12.2956 64.378 10.9316C63.4603 9.55357 63.2958 8.29082 63.72 7.35423C64.1441 6.41766 65.2016 5.70823 66.8427 5.48902C68.4672 5.27205 70.5086 5.57111 72.5518 6.49635Z" fill="#A7E9D1" stroke="#42140D" stroke-width="2"/>
<path d="M46.9417 55.4825C47.5714 55.125 50.8811 53.209 51.4849 52.8131L46.9417 50.9392V55.4825Z" fill="#42140D"/>
<path d="M60.5714 46.396C55.5185 46.396 48.0774 43.8061 48.0774 38.4453" stroke="#42140D" stroke-width="2" stroke-linecap="round" stroke-linejoin="round"/>
<path d="M64.5148 22.2261C61.758 27.1833 59.0931 32.5573 56.4493 37.5946C55.4605 39.4774 53.7019 42.4706 52.918 44.3043" stroke="#42140D" stroke-width="2" stroke-linecap="round" stroke-linejoin="round"/>
<path d="M34.3391 52.8628C34.357 54.906 32.6169 56.7993 30.3833 58.3559C28.0866 56.4012 27.1385 53.4635 27.7937 51.5724C29.3474 47.0877 34.302 48.6108 34.3391 52.8628Z" fill="white"/>
<path d="M23.007 61.9877C26.7999 60.7178 34.3763 57.1148 34.3391 52.8628C34.302 48.6108 29.3474 47.0877 27.7937 51.5724C26.2399 56.0571 33.703 66.428 46.7874 55.6158" stroke="#42140D" stroke-width="2" stroke-linecap="round" stroke-linejoin="round"/>
</g>
</g>
<defs>
<clipPath id="clip0_0_85">
<rect width="128" height="96" fill="white"/>
</clipPath>
<clipPath id="clip1_0_85">
<rect width="80" height="80" fill="white"/>
</clipPath>
</defs>
</svg>
