<svg width="864" height="648" viewBox="0 0 864 648" fill="none" xmlns="http://www.w3.org/2000/svg">
<g clip-path="url(#clip0_3605_120455)">
<path d="M638 132C646.837 132 654 139.163 654 148V483C654 491.837 646.837 499 638 499H122C113.163 499 106 491.837 106 483V449H268C276.837 449 284 441.837 284 433V322C284 313.163 276.837 306 268 306H106V148C106 139.163 113.163 132 122 132H638Z" fill="#FBD3CD"/>
<rect x="65" y="300" width="219" height="141" rx="9" fill="white" stroke="#42140D" stroke-width="2"/>
<path d="M169 219H302" stroke="#42140D" stroke-width="2" stroke-linecap="round"/>
<path d="M169 194H302" stroke="#42140D" stroke-width="2" stroke-linecap="round"/>
<path d="M169 244H174" stroke="#42140D" stroke-width="2" stroke-linecap="round"/>
<path d="M184 244H189" stroke="#42140D" stroke-width="2" stroke-linecap="round"/>
<path d="M199 244H204" stroke="#42140D" stroke-width="2" stroke-linecap="round"/>
<path d="M214 244H219" stroke="#42140D" stroke-width="2" stroke-linecap="round"/>
<path d="M659.728 116.639C655.19 116.333 650.637 116.333 646.099 116.639C641.256 93.8239 628.741 73.3661 610.646 58.6876C592.551 44.0091 569.974 36 546.691 36C523.408 36 500.831 44.0091 482.736 58.6876C464.641 73.3661 452.126 93.8239 447.284 116.639C442.845 116.332 438.39 116.332 433.95 116.639C423.174 115.978 412.376 117.533 402.223 121.209C392.069 124.885 382.773 130.605 374.909 138.015C367.045 145.426 360.778 154.371 356.494 164.299C352.21 174.227 350 184.929 350 195.745C350 206.562 352.21 217.263 356.494 227.192C360.778 237.12 367.045 246.065 374.909 253.475C382.773 260.886 392.069 266.606 402.223 270.282C412.376 273.958 423.174 275.513 433.95 274.852H659.728C679.834 273.617 698.713 264.745 712.514 250.046C726.316 235.346 734 215.926 734 195.745C734 175.565 726.316 156.145 712.514 141.445C698.713 126.745 679.834 117.874 659.728 116.639Z" fill="white" stroke="#42140D" stroke-width="2" stroke-linecap="round" stroke-linejoin="round" stroke-dasharray="4 8"/>
<path d="M541.764 138.021C541.909 138.021 542.055 138.025 542.199 138.03C542.252 138.032 542.305 138.034 542.358 138.036C542.451 138.041 542.544 138.046 542.637 138.053C542.643 138.053 542.65 138.054 542.656 138.055C542.742 138.061 542.828 138.068 542.914 138.075C542.951 138.078 542.988 138.081 543.024 138.085C543.05 138.087 543.077 138.09 543.103 138.093L543.305 138.115C543.315 138.116 543.325 138.118 543.335 138.119C543.538 138.143 543.74 138.171 543.94 138.204C543.951 138.206 543.961 138.207 543.972 138.209C544.177 138.243 544.381 138.281 544.584 138.324C544.596 138.327 544.608 138.329 544.62 138.332C545.349 138.488 546.057 138.7 546.739 138.965C547.696 139.335 548.621 139.815 549.494 140.402C549.525 140.423 549.555 140.444 549.586 140.465C549.92 140.693 550.246 140.937 550.563 141.197C550.938 141.504 551.295 141.83 551.636 142.173L573.887 164.424C579.371 169.908 579.371 178.799 573.887 184.283C568.933 189.237 561.201 189.714 555.71 185.72V218.935C555.71 226.69 549.422 232.979 541.666 232.979C533.91 232.978 527.623 226.69 527.623 218.935V185.72C522.132 189.714 514.399 189.236 509.445 184.283C503.962 178.799 503.962 169.908 509.445 164.424L531.736 142.133C531.896 141.973 532.06 141.816 532.228 141.664L532.26 141.635C533.523 140.494 534.943 139.623 536.446 139.022C536.475 139.011 536.503 138.999 536.531 138.988C536.591 138.965 536.652 138.943 536.712 138.92C536.758 138.903 536.803 138.884 536.85 138.867C536.871 138.86 536.892 138.852 536.913 138.845C537.805 138.524 538.739 138.291 539.704 138.156C539.715 138.155 539.726 138.154 539.737 138.152C539.831 138.139 539.925 138.127 540.02 138.116C540.042 138.114 540.064 138.111 540.087 138.108C540.162 138.1 540.238 138.092 540.313 138.085C540.362 138.08 540.41 138.075 540.459 138.071C540.523 138.066 540.588 138.06 540.652 138.056C540.713 138.051 540.773 138.048 540.834 138.045C540.882 138.042 540.93 138.038 540.978 138.036C541.05 138.033 541.123 138.031 541.196 138.028C541.241 138.027 541.286 138.024 541.331 138.023C541.417 138.021 541.502 138.021 541.588 138.021C541.614 138.02 541.64 138.02 541.666 138.02H541.676C541.705 138.02 541.734 138.02 541.764 138.021Z" fill="white"/>
<path d="M541.764 138.021L541.757 139.02L541.757 139.02L541.764 138.021ZM542.199 138.03L542.237 137.031L542.236 137.031L542.199 138.03ZM542.358 138.036L542.309 139.035L542.31 139.035L542.358 138.036ZM542.637 138.053L542.705 137.055L542.705 137.055L542.637 138.053ZM542.656 138.055L542.586 139.052L542.587 139.052L542.656 138.055ZM542.914 138.075L543.002 137.079L543.002 137.079L542.914 138.075ZM543.024 138.085L542.928 139.08L542.929 139.08L543.024 138.085ZM543.103 138.093L543.213 137.099L543.204 137.098L543.103 138.093ZM543.305 138.115L543.421 137.122L543.415 137.121L543.305 138.115ZM543.335 138.119L543.217 139.112L543.217 139.112L543.335 138.119ZM543.94 138.204L544.102 137.217L544.101 137.217L543.94 138.204ZM543.972 138.209L543.808 139.196L543.809 139.196L543.972 138.209ZM544.584 138.324L544.791 137.346L544.791 137.346L544.584 138.324ZM544.62 138.332L544.411 139.31L544.411 139.31L544.62 138.332ZM546.739 138.965L546.378 139.897L546.379 139.898L546.739 138.965ZM549.494 140.402L548.936 141.232L548.936 141.232L549.494 140.402ZM549.586 140.465L550.151 139.64L550.151 139.64L549.586 140.465ZM550.563 141.197L549.929 141.97L549.93 141.971L550.563 141.197ZM551.636 142.173L550.926 142.877L550.929 142.88L551.636 142.173ZM573.887 164.424L574.594 163.717L574.594 163.717L573.887 164.424ZM573.887 184.283L574.594 184.99L574.594 184.99L573.887 184.283ZM555.71 185.72L556.298 184.911C555.994 184.69 555.591 184.658 555.256 184.829C554.921 184.999 554.71 185.344 554.71 185.72H555.71ZM541.666 232.979L541.666 233.979H541.666V232.979ZM527.623 185.72H528.623C528.623 185.344 528.412 184.999 528.077 184.829C527.742 184.658 527.339 184.69 527.035 184.911L527.623 185.72ZM509.445 184.283L508.738 184.99L508.738 184.99L509.445 184.283ZM509.445 164.424L508.738 163.717L508.738 163.717L509.445 164.424ZM531.736 142.133L531.029 141.426L531.029 141.426L531.736 142.133ZM532.228 141.664L532.9 142.404L532.9 142.404L532.228 141.664ZM532.26 141.635L531.589 140.893L531.587 140.895L532.26 141.635ZM536.446 139.022L536.817 139.951L536.818 139.951L536.446 139.022ZM536.531 138.988L536.166 138.057L536.165 138.058L536.531 138.988ZM536.712 138.92L537.064 139.856L537.065 139.856L536.712 138.92ZM536.85 138.867L536.507 137.928L536.507 137.928L536.85 138.867ZM536.913 138.845L537.251 139.786L537.252 139.786L536.913 138.845ZM539.704 138.156L539.843 139.147L539.843 139.147L539.704 138.156ZM539.737 138.152L539.601 137.162L539.601 137.162L539.737 138.152ZM540.02 138.116L540.136 139.109L540.136 139.109L540.02 138.116ZM540.087 138.108L539.976 137.115L539.975 137.115L540.087 138.108ZM540.313 138.085L540.409 139.08L540.409 139.08L540.313 138.085ZM540.459 138.071L540.374 137.075L540.374 137.075L540.459 138.071ZM540.652 138.056L540.724 139.053L540.724 139.053L540.652 138.056ZM540.834 138.045L540.776 137.047L540.775 137.047L540.834 138.045ZM540.978 138.036L541.026 139.035L541.026 139.035L540.978 138.036ZM541.196 138.028L541.163 137.029L541.163 137.029L541.196 138.028ZM541.331 138.023L541.354 139.023L541.355 139.023L541.331 138.023ZM541.588 138.021L541.582 137.021L541.582 137.021L541.588 138.021ZM541.666 138.02V137.02H541.666L541.666 138.02ZM541.676 138.02L541.676 137.02H541.676V138.02ZM541.761 137.02C541.209 137.014 540.756 137.456 540.749 138.008C540.742 138.561 541.185 139.014 541.737 139.02L541.749 138.02L541.761 137.02ZM541.683 139.02C542.235 139.024 542.686 138.58 542.69 138.027C542.695 137.475 542.251 137.024 541.698 137.02L541.69 138.02L541.683 139.02ZM541.674 137.02C541.122 137.02 540.674 137.467 540.674 138.02C540.674 138.572 541.122 139.02 541.674 139.02V138.02V137.02ZM541.668 139.02C542.22 139.02 542.668 138.572 542.668 138.02C542.668 137.467 542.22 137.02 541.668 137.02V138.02V139.02ZM541.644 137.02C541.092 137.025 540.648 137.476 540.653 138.029C540.658 138.581 541.11 139.025 541.662 139.02L541.653 138.02L541.644 137.02ZM541.614 139.02C542.166 139.013 542.608 138.56 542.601 138.008C542.594 137.455 542.14 137.013 541.588 137.02L541.601 138.02L541.614 139.02ZM541.539 137.021C540.987 137.024 540.542 137.474 540.545 138.027C540.548 138.579 540.999 139.024 541.551 139.021L541.545 138.021L541.539 137.021ZM541.392 139.022C541.944 139.012 542.384 138.557 542.374 138.005C542.364 137.452 541.908 137.013 541.356 137.023L541.374 138.023L541.392 139.022ZM541.277 137.025C540.725 137.042 540.292 137.504 540.309 138.056C540.327 138.608 540.788 139.041 541.34 139.024L541.309 138.024L541.277 137.025ZM541.257 139.027C541.809 139.006 542.239 138.541 542.218 137.989C542.197 137.438 541.733 137.007 541.181 137.028L541.219 138.028L541.257 139.027ZM541.128 137.03C540.576 137.047 540.143 137.509 540.16 138.061C540.178 138.613 540.639 139.046 541.191 139.029L541.16 138.029L541.128 137.03ZM541.056 139.034C541.608 139.011 542.036 138.545 542.013 137.993C541.99 137.441 541.524 137.012 540.972 137.035L541.014 138.034L541.056 139.034ZM540.897 137.039C540.346 137.07 539.924 137.542 539.955 138.094C539.986 138.645 540.459 139.067 541.01 139.036L540.954 138.037L540.897 137.039ZM540.921 139.041C541.472 139.007 541.891 138.531 541.856 137.98C541.821 137.429 541.346 137.011 540.795 137.045L540.858 138.043L540.921 139.041ZM540.748 137.048C540.196 137.079 539.774 137.551 539.805 138.102C539.836 138.654 540.308 139.076 540.86 139.045L540.804 138.047L540.748 137.048ZM540.747 139.052C541.298 139.016 541.716 138.54 541.681 137.989C541.645 137.438 541.169 137.02 540.618 137.056L540.683 138.054L540.747 139.052ZM540.545 137.061C539.994 137.103 539.581 137.583 539.623 138.134C539.665 138.684 540.145 139.097 540.696 139.055L540.62 138.058L540.545 137.061ZM540.576 139.065C541.126 139.018 541.534 138.534 541.488 137.984C541.441 137.434 540.957 137.025 540.407 137.072L540.491 138.069L540.576 139.065ZM540.345 137.077C539.795 137.127 539.389 137.613 539.439 138.163C539.488 138.713 539.974 139.119 540.524 139.069L540.435 138.073L540.345 137.077ZM540.434 139.078C540.984 139.025 541.386 138.536 541.333 137.986C541.28 137.436 540.791 137.034 540.241 137.087L540.338 138.083L540.434 139.078ZM540.178 137.093C539.628 137.147 539.227 137.637 539.28 138.186C539.334 138.736 539.824 139.138 540.373 139.084L540.276 138.089L540.178 137.093ZM540.233 139.098C540.782 139.039 541.179 138.545 541.119 137.996C541.059 137.447 540.565 137.05 540.016 137.11L540.125 138.104L540.233 139.098ZM539.962 137.116C539.414 137.179 539.019 137.674 539.082 138.223C539.145 138.772 539.64 139.166 540.189 139.103L540.076 138.11L539.962 137.116ZM540.147 139.108C540.696 139.044 541.088 138.547 541.024 137.998C540.96 137.45 540.463 137.057 539.914 137.122L540.031 138.115L540.147 139.108ZM539.852 137.129C539.304 137.195 538.913 137.694 538.98 138.242C539.046 138.79 539.544 139.181 540.093 139.115L539.972 138.122L539.852 137.129ZM539.918 139.137C540.465 139.063 540.849 138.56 540.775 138.012C540.702 137.465 540.198 137.081 539.651 137.155L539.784 138.146L539.918 139.137ZM539.612 137.16C539.064 137.226 538.673 137.724 538.739 138.273C538.805 138.821 539.303 139.212 539.851 139.146L539.732 138.153L539.612 137.16ZM539.831 139.148C540.379 139.081 540.769 138.583 540.702 138.034C540.635 137.486 540.137 137.096 539.589 137.163L539.71 138.156L539.831 139.148ZM539.058 137.246C538.514 137.341 538.15 137.859 538.245 138.403C538.34 138.947 538.858 139.311 539.402 139.216L539.23 138.231L539.058 137.246ZM537.673 139.642C538.199 139.473 538.488 138.91 538.32 138.384C538.151 137.859 537.588 137.569 537.062 137.738L537.367 138.69L537.673 139.642ZM536.569 137.906C536.049 138.09 535.776 138.661 535.96 139.182C536.144 139.702 536.715 139.975 537.236 139.791L536.903 138.848L536.569 137.906ZM537.196 139.805C537.716 139.62 537.988 139.047 537.802 138.527C537.616 138.007 537.044 137.736 536.524 137.922L536.86 138.863L537.196 139.805ZM536.474 137.94C535.957 138.135 535.696 138.712 535.891 139.228C536.086 139.745 536.663 140.006 537.179 139.811L536.827 138.876L536.474 137.94ZM537.094 139.844C537.61 139.646 537.867 139.067 537.668 138.552C537.47 138.036 536.891 137.78 536.376 137.978L536.735 138.911L537.094 139.844ZM536.331 137.995C535.814 138.188 535.552 138.764 535.745 139.282C535.939 139.799 536.515 140.061 537.032 139.868L536.682 138.931L536.331 137.995ZM536.92 139.91C537.436 139.712 537.693 139.133 537.495 138.618C537.296 138.102 536.718 137.845 536.202 138.043L536.561 138.977L536.92 139.91ZM536.147 138.065C535.634 138.27 535.384 138.851 535.588 139.364C535.793 139.877 536.375 140.127 536.888 139.923L536.517 138.994L536.147 138.065ZM536.835 139.944C537.347 139.737 537.595 139.154 537.388 138.642C537.181 138.13 536.598 137.883 536.086 138.09L536.46 139.017L536.835 139.944ZM535.263 138.447C534.763 138.682 534.548 139.277 534.783 139.777C535.018 140.277 535.614 140.492 536.114 140.257L535.688 139.352L535.263 138.447ZM533.515 141.879C533.946 141.533 534.015 140.904 533.669 140.473C533.323 140.042 532.694 139.973 532.263 140.319L532.889 141.099L533.515 141.879ZM531.582 140.9C531.173 141.271 531.143 141.904 531.514 142.312C531.886 142.721 532.518 142.751 532.927 142.38L532.254 141.64L531.582 140.9ZM532.906 142.399C533.314 142.028 533.344 141.395 532.973 140.987C532.601 140.578 531.969 140.548 531.56 140.919L532.233 141.659L532.906 142.399ZM531.465 141.006C531.06 141.381 531.035 142.013 531.41 142.419C531.784 142.825 532.417 142.85 532.823 142.475L532.144 141.741L531.465 141.006ZM532.518 142.765C532.912 142.378 532.917 141.745 532.529 141.351C532.141 140.958 531.508 140.953 531.115 141.341L531.817 142.053L532.518 142.765ZM529.791 142.664C529.4 143.055 529.4 143.688 529.791 144.078C530.181 144.469 530.815 144.469 531.205 144.078L530.498 143.371L529.791 142.664ZM526.251 149.032C526.642 148.641 526.642 148.008 526.251 147.618C525.861 147.227 525.228 147.227 524.837 147.618L525.544 148.325L526.251 149.032ZM522.36 150.094C521.97 150.485 521.97 151.118 522.36 151.509C522.751 151.899 523.384 151.899 523.775 151.509L523.068 150.802L522.36 150.094ZM518.821 156.462C519.212 156.072 519.212 155.439 518.821 155.048C518.431 154.657 517.797 154.657 517.407 155.048L518.114 155.755L518.821 156.462ZM514.93 157.525C514.54 157.915 514.54 158.548 514.93 158.939C515.321 159.33 515.954 159.33 516.344 158.939L515.637 158.232L514.93 157.525ZM511.391 163.893C511.781 163.502 511.781 162.869 511.391 162.478C511 162.088 510.367 162.088 509.977 162.478L510.684 163.185L511.391 163.893ZM507.44 165.195C507.103 165.633 507.185 166.261 507.623 166.597C508.06 166.934 508.688 166.852 509.025 166.414L508.232 165.805L507.44 165.195ZM506.443 172.65C506.515 172.103 506.129 171.6 505.582 171.529C505.034 171.457 504.532 171.843 504.46 172.391L505.452 172.52L506.443 172.65ZM504.46 176.316C504.532 176.864 505.034 177.25 505.582 177.178C506.129 177.106 506.515 176.604 506.444 176.057L505.452 176.187L504.46 176.316ZM509.025 182.293C508.688 181.855 508.06 181.773 507.623 182.11C507.185 182.446 507.103 183.074 507.44 183.512L508.232 182.902L509.025 182.293ZM510.06 186.167C510.494 186.51 511.123 186.436 511.465 186.003C511.808 185.569 511.734 184.94 511.301 184.598L510.681 185.383L510.06 186.167ZM516.826 187.146C516.284 187.038 515.758 187.39 515.651 187.932C515.543 188.474 515.895 189 516.437 189.107L516.632 188.127L516.826 187.146ZM519.96 189.384C520.512 189.363 520.942 188.898 520.921 188.346C520.899 187.794 520.435 187.364 519.883 187.385L519.921 188.385L519.96 189.384ZM525.742 185.739C525.26 186.009 525.089 186.618 525.358 187.1C525.628 187.582 526.238 187.754 526.719 187.484L526.231 186.612L525.742 185.739ZM526.623 187.565C526.623 188.117 527.071 188.565 527.623 188.565C528.175 188.565 528.623 188.117 528.623 187.565H527.623H526.623ZM528.623 194.946C528.623 194.394 528.175 193.946 527.623 193.946C527.071 193.946 526.623 194.394 526.623 194.946H527.623H528.623ZM526.623 198.637C526.623 199.189 527.071 199.637 527.623 199.637C528.175 199.637 528.623 199.189 528.623 198.637H527.623H526.623ZM528.623 206.018C528.623 205.465 528.175 205.018 527.623 205.018C527.071 205.018 526.623 205.465 526.623 206.018H527.623H528.623ZM526.623 209.708C526.623 210.261 527.071 210.708 527.623 210.708C528.175 210.708 528.623 210.261 528.623 209.708H527.623H526.623ZM528.623 217.089C528.623 216.537 528.175 216.089 527.623 216.089C527.071 216.089 526.623 216.537 526.623 217.089H527.623H528.623ZM526.75 220.898C526.822 221.446 527.323 221.832 527.871 221.76C528.419 221.689 528.805 221.187 528.733 220.639L527.742 220.769L526.75 220.898ZM531.317 226.875C530.981 226.437 530.353 226.354 529.915 226.691C529.477 227.028 529.395 227.655 529.731 228.093L530.524 227.484L531.317 226.875ZM532.507 230.87C532.945 231.206 533.573 231.124 533.91 230.686C534.246 230.248 534.164 229.62 533.726 229.284L533.117 230.077L532.507 230.87ZM539.961 231.868C539.414 231.797 538.912 232.183 538.84 232.73C538.769 233.278 539.155 233.78 539.702 233.851L539.832 232.86L539.961 231.868ZM543.63 233.851C544.177 233.78 544.563 233.278 544.492 232.73C544.42 232.183 543.919 231.797 543.371 231.868L543.5 232.86L543.63 233.851ZM549.606 229.284C549.168 229.62 549.086 230.248 549.423 230.686C549.759 231.124 550.387 231.206 550.825 230.87L550.216 230.077L549.606 229.284ZM553.601 228.093C553.938 227.656 553.856 227.028 553.418 226.691C552.98 226.355 552.352 226.437 552.015 226.875L552.808 227.484L553.601 228.093ZM554.6 220.639C554.528 221.187 554.914 221.689 555.462 221.76C556.01 221.832 556.511 221.446 556.583 220.898L555.591 220.769L554.6 220.639ZM556.71 217.089C556.71 216.537 556.262 216.089 555.71 216.089C555.158 216.089 554.71 216.537 554.71 217.089H555.71H556.71ZM554.71 209.708C554.71 210.261 555.158 210.708 555.71 210.708C556.262 210.708 556.71 210.261 556.71 209.708H555.71H554.71ZM556.71 206.018C556.71 205.465 556.262 205.018 555.71 205.018C555.158 205.018 554.71 205.465 554.71 206.018H555.71H556.71ZM554.71 198.637C554.71 199.189 555.158 199.637 555.71 199.637C556.262 199.637 556.71 199.189 556.71 198.637H555.71H554.71ZM556.71 194.946C556.71 194.394 556.262 193.946 555.71 193.946C555.158 193.946 554.71 194.394 554.71 194.946H555.71H556.71ZM554.71 187.565C554.71 188.117 555.158 188.565 555.71 188.565C556.262 188.565 556.71 188.117 556.71 187.565H555.71H554.71ZM556.613 187.484C557.095 187.754 557.705 187.582 557.975 187.1C558.244 186.618 558.073 186.009 557.591 185.739L557.102 186.612L556.613 187.484ZM563.45 187.386C562.898 187.364 562.433 187.794 562.412 188.346C562.39 188.898 562.821 189.363 563.372 189.384L563.411 188.385L563.45 187.386ZM566.895 189.108C567.437 189 567.789 188.474 567.682 187.932C567.575 187.39 567.048 187.038 566.507 187.146L566.701 188.127L566.895 189.108ZM572.032 184.598C571.598 184.94 571.525 185.569 571.867 186.003C572.209 186.436 572.838 186.51 573.272 186.167L572.652 185.383L572.032 184.598ZM575.892 183.512C576.229 183.074 576.147 182.446 575.709 182.11C575.272 181.773 574.644 181.855 574.307 182.293L575.1 182.902L575.892 183.512ZM576.889 176.057C576.817 176.604 577.203 177.107 577.75 177.178C578.298 177.25 578.8 176.864 578.872 176.316L577.88 176.187L576.889 176.057ZM578.872 172.391C578.8 171.843 578.298 171.457 577.75 171.529C577.203 171.601 576.817 172.103 576.889 172.65L577.88 172.52L578.872 172.391ZM574.307 166.414C574.644 166.852 575.272 166.934 575.709 166.597C576.147 166.261 576.229 165.633 575.892 165.195L575.1 165.805L574.307 166.414ZM573.358 162.481C572.967 162.09 572.334 162.09 571.943 162.481C571.553 162.871 571.553 163.504 571.943 163.895L572.651 163.188L573.358 162.481ZM566.999 158.95C567.389 159.341 568.022 159.341 568.413 158.95C568.804 158.56 568.804 157.926 568.413 157.536L567.706 158.243L566.999 158.95ZM565.941 155.064C565.55 154.673 564.917 154.673 564.526 155.064C564.136 155.454 564.136 156.087 564.526 156.478L565.234 155.771L565.941 155.064ZM559.582 151.533C559.972 151.924 560.605 151.924 560.996 151.533C561.387 151.143 561.387 150.509 560.996 150.119L560.289 150.826L559.582 151.533ZM558.524 147.647C558.133 147.256 557.5 147.256 557.109 147.647C556.719 148.037 556.719 148.67 557.109 149.061L557.817 148.354L558.524 147.647ZM552.165 144.116C552.555 144.507 553.188 144.507 553.579 144.116C553.97 143.726 553.97 143.092 553.579 142.702L552.872 143.409L552.165 144.116ZM552.162 141.286C551.766 140.901 551.133 140.909 550.748 141.305C550.362 141.7 550.371 142.334 550.766 142.719L551.464 142.003L552.162 141.286ZM550.102 142.114C550.523 142.472 551.154 142.42 551.511 141.999C551.869 141.578 551.817 140.947 551.396 140.59L550.749 141.352L550.102 142.114ZM551.028 140.287C550.596 139.943 549.967 140.014 549.623 140.447C549.279 140.879 549.35 141.508 549.782 141.852L550.405 141.069L551.028 140.287ZM549.177 141.398C549.628 141.717 550.252 141.609 550.57 141.157C550.889 140.706 550.781 140.082 550.329 139.764L549.753 140.581L549.177 141.398ZM550.135 139.629C549.68 139.317 549.057 139.434 548.745 139.89C548.433 140.345 548.55 140.968 549.006 141.28L549.571 140.454L550.135 139.629ZM548.949 141.241C549.407 141.55 550.028 141.43 550.338 140.973C550.647 140.516 550.527 139.894 550.07 139.584L549.509 140.413L548.949 141.241ZM549.586 139.271C549.116 138.98 548.5 139.124 548.209 139.593C547.917 140.063 548.062 140.679 548.531 140.97L549.058 140.121L549.586 139.271ZM546.824 140.08C547.332 140.298 547.92 140.064 548.138 139.556C548.357 139.049 548.122 138.461 547.615 138.242L547.22 139.161L546.824 140.08ZM546.73 137.894C546.21 137.709 545.638 137.98 545.452 138.5C545.266 139.02 545.537 139.592 546.057 139.778L546.393 138.836L546.73 137.894ZM544.745 139.386C545.282 139.516 545.822 139.186 545.952 138.649C546.082 138.112 545.752 137.572 545.215 137.442L544.98 138.414L544.745 139.386ZM544.826 137.353C544.286 137.236 543.754 137.579 543.637 138.119C543.52 138.659 543.863 139.191 544.402 139.308L544.614 138.331L544.826 137.353ZM544.38 139.303C544.92 139.419 545.452 139.075 545.568 138.535C545.684 137.995 545.34 137.464 544.8 137.348L544.59 138.326L544.38 139.303ZM544.682 137.323C544.141 137.213 543.613 137.562 543.502 138.104C543.392 138.645 543.742 139.173 544.283 139.283L544.482 138.303L544.682 137.323ZM543.904 139.212C544.448 139.306 544.965 138.941 545.059 138.397C545.154 137.852 544.789 137.335 544.244 137.241L544.074 138.226L543.904 139.212ZM544.123 137.22C543.577 137.134 543.065 137.506 542.979 138.052C542.892 138.597 543.265 139.109 543.81 139.196L543.966 138.208L544.123 137.22ZM543.791 139.193C544.336 139.278 544.848 138.905 544.934 138.36C545.019 137.814 544.646 137.303 544.101 137.217L543.946 138.205L543.791 139.193ZM543.993 137.2C543.447 137.115 542.936 137.489 542.852 138.035C542.767 138.58 543.141 139.092 543.686 139.176L543.84 138.188L543.993 137.2ZM543.312 139.124C543.86 139.193 544.36 138.804 544.428 138.256C544.497 137.708 544.109 137.208 543.561 137.139L543.436 138.131L543.312 139.124ZM543.457 137.127C542.909 137.057 542.408 137.444 542.338 137.992C542.268 138.539 542.655 139.04 543.203 139.11L543.33 138.119L543.457 137.127ZM543.184 139.108C543.732 139.177 544.233 138.789 544.302 138.241C544.371 137.693 543.983 137.193 543.435 137.124L543.31 138.116L543.184 139.108ZM543.381 137.118C542.833 137.057 542.338 137.452 542.277 138.001C542.216 138.55 542.612 139.044 543.161 139.105L543.271 138.111L543.381 137.118ZM543.026 139.09C543.575 139.151 544.069 138.756 544.13 138.207C544.191 137.658 543.796 137.164 543.247 137.103L543.136 138.097L543.026 139.09ZM543.191 137.097C542.641 137.041 542.151 137.441 542.095 137.99C542.039 138.54 542.439 139.03 542.988 139.086L543.09 138.091L543.191 137.097ZM542.94 139.081C543.49 139.135 543.979 138.733 544.033 138.184C544.087 137.634 543.685 137.145 543.135 137.091L543.037 138.086L542.94 139.081ZM543.097 137.087C542.548 137.037 542.061 137.442 542.01 137.992C541.96 138.542 542.365 139.029 542.915 139.079L543.006 138.083L543.097 137.087ZM542.846 139.073C543.396 139.121 543.881 138.713 543.929 138.163C543.976 137.613 543.569 137.128 543.019 137.081L542.932 138.077L542.846 139.073ZM542.956 137.075C542.406 137.028 541.922 137.436 541.875 137.986C541.828 138.536 542.236 139.021 542.786 139.068L542.871 138.071L542.956 137.075ZM542.626 139.055C543.177 139.095 543.656 138.682 543.697 138.131C543.737 137.58 543.323 137.101 542.772 137.06L542.699 138.058L542.626 139.055ZM542.748 137.059C542.198 137.006 541.71 137.41 541.658 137.959C541.605 138.509 542.008 138.997 542.558 139.05L542.653 138.054L542.748 137.059ZM542.546 139.049C543.096 139.101 543.584 138.697 543.636 138.147C543.687 137.597 543.284 137.109 542.734 137.057L542.64 138.053L542.546 139.049ZM542.656 137.052C542.105 137.015 541.629 137.433 541.593 137.984C541.556 138.535 541.973 139.011 542.524 139.047L542.59 138.05L542.656 137.052ZM542.352 139.037C542.904 139.066 543.374 138.643 543.403 138.091C543.433 137.54 543.009 137.069 542.458 137.04L542.405 138.038L542.352 139.037ZM542.374 137.036C541.822 137.013 541.356 137.441 541.333 137.993C541.31 138.545 541.738 139.011 542.29 139.034L542.332 138.035L542.374 137.036ZM542.192 139.031C542.744 139.049 543.206 138.617 543.225 138.065C543.244 137.513 542.812 137.051 542.26 137.032L542.226 138.031L542.192 139.031ZM542.159 137.028C541.607 137.01 541.145 137.443 541.127 137.995C541.109 138.547 541.542 139.009 542.094 139.027L542.127 138.028L542.159 137.028ZM541.824 139.021C542.376 139.028 542.829 138.586 542.836 138.033C542.843 137.481 542.401 137.028 541.848 137.021L541.836 138.021L541.824 139.021ZM541.764 138.021L541.771 137.021C541.768 137.021 541.765 137.02 541.761 137.02L541.749 138.02L541.737 139.02C541.743 139.02 541.75 139.02 541.757 139.02L541.764 138.021ZM541.69 138.02L541.698 137.02C541.691 137.02 541.684 137.02 541.676 137.02L541.676 138.02L541.675 139.02C541.677 139.02 541.68 139.02 541.683 139.02L541.69 138.02ZM541.676 138.02V137.02H541.674V138.02V139.02H541.676V138.02ZM541.668 138.02V137.02H541.666V138.02V139.02H541.668V138.02ZM541.666 138.02L541.666 137.02C541.658 137.02 541.651 137.02 541.644 137.02L541.653 138.02L541.662 139.02C541.664 139.02 541.665 139.02 541.666 139.02L541.666 138.02ZM541.601 138.02L541.588 137.02C541.586 137.02 541.584 137.021 541.582 137.021L541.588 138.021L541.593 139.02C541.601 139.02 541.607 139.02 541.614 139.02L541.601 138.02ZM541.588 138.021L541.582 137.021C541.568 137.021 541.554 137.021 541.539 137.021L541.545 138.021L541.551 139.021C541.565 139.021 541.579 139.021 541.593 139.02L541.588 138.021ZM541.374 138.023L541.356 137.023C541.34 137.023 541.324 137.023 541.307 137.024L541.331 138.023L541.355 139.023C541.367 139.023 541.379 139.023 541.392 139.022L541.374 138.023ZM541.331 138.023L541.308 137.024C541.297 137.024 541.287 137.024 541.277 137.025L541.309 138.024L541.34 139.024C541.345 139.023 541.35 139.023 541.354 139.023L541.331 138.023ZM541.219 138.028L541.181 137.028C541.174 137.028 541.169 137.029 541.163 137.029L541.196 138.028L541.229 139.028C541.239 139.027 541.248 139.027 541.257 139.027L541.219 138.028ZM541.196 138.028L541.163 137.029C541.152 137.029 541.14 137.03 541.128 137.03L541.16 138.029L541.191 139.029C541.204 139.029 541.217 139.028 541.23 139.028L541.196 138.028ZM541.014 138.034L540.972 137.035C540.958 137.036 540.944 137.037 540.929 137.037L540.978 138.036L541.026 139.035C541.036 139.034 541.046 139.034 541.056 139.034L541.014 138.034ZM540.978 138.036L540.929 137.037C540.918 137.038 540.907 137.038 540.897 137.039L540.954 138.037L541.01 139.036C541.016 139.035 541.021 139.035 541.026 139.035L540.978 138.036ZM540.858 138.043L540.795 137.045C540.788 137.046 540.782 137.046 540.776 137.047L540.834 138.045L540.892 139.043C540.902 139.043 540.912 139.042 540.921 139.041L540.858 138.043ZM540.834 138.045L540.775 137.047C540.766 137.047 540.757 137.048 540.748 137.048L540.804 138.047L540.86 139.045C540.87 139.044 540.881 139.044 540.893 139.043L540.834 138.045ZM540.683 138.054L540.618 137.056C540.606 137.056 540.593 137.057 540.581 137.058L540.652 138.056L540.724 139.053C540.731 139.053 540.739 139.052 540.747 139.052L540.683 138.054ZM540.652 138.056L540.581 137.058C540.569 137.059 540.557 137.06 540.545 137.061L540.62 138.058L540.696 139.055C540.705 139.054 540.714 139.054 540.724 139.053L540.652 138.056ZM540.491 138.069L540.407 137.072C540.396 137.073 540.385 137.074 540.374 137.075L540.459 138.071L540.544 139.068C540.555 139.067 540.565 139.066 540.576 139.065L540.491 138.069ZM540.459 138.071L540.374 137.075C540.364 137.076 540.354 137.077 540.345 137.077L540.435 138.073L540.524 139.069C540.531 139.069 540.538 139.068 540.544 139.068L540.459 138.071ZM540.338 138.083L540.241 137.087C540.233 137.088 540.225 137.089 540.218 137.09L540.313 138.085L540.409 139.08C540.418 139.08 540.426 139.079 540.434 139.078L540.338 138.083ZM540.313 138.085L540.218 137.089C540.205 137.091 540.192 137.092 540.178 137.093L540.276 138.089L540.373 139.084C540.385 139.083 540.397 139.082 540.409 139.08L540.313 138.085ZM540.125 138.104L540.016 137.11C540.003 137.112 539.989 137.113 539.976 137.115L540.087 138.108L540.198 139.102C540.21 139.101 540.221 139.1 540.233 139.098L540.125 138.104ZM540.087 138.108L539.975 137.115C539.971 137.115 539.966 137.116 539.962 137.116L540.076 138.11L540.189 139.103C540.192 139.103 540.196 139.102 540.199 139.102L540.087 138.108ZM540.031 138.115L539.914 137.122C539.91 137.122 539.907 137.123 539.903 137.123L540.02 138.116L540.136 139.109C540.14 139.109 540.144 139.108 540.147 139.108L540.031 138.115ZM540.02 138.116L539.903 137.123C539.886 137.125 539.869 137.127 539.852 137.129L539.972 138.122L540.093 139.115C540.107 139.113 540.121 139.111 540.136 139.109L540.02 138.116ZM539.784 138.146L539.651 137.155C539.634 137.157 539.618 137.159 539.601 137.162L539.737 138.152L539.873 139.143C539.888 139.141 539.903 139.139 539.918 139.137L539.784 138.146ZM539.737 138.152L539.601 137.162C539.606 137.161 539.61 137.161 539.612 137.16L539.732 138.153L539.851 139.146C539.858 139.145 539.865 139.144 539.874 139.143L539.737 138.152ZM539.71 138.156L539.589 137.163C539.582 137.164 539.574 137.165 539.565 137.166L539.704 138.156L539.843 139.147C539.838 139.147 539.834 139.148 539.831 139.148L539.71 138.156ZM539.704 138.156L539.566 137.166C539.395 137.19 539.226 137.216 539.058 137.246L539.23 138.231L539.402 139.216C539.548 139.19 539.695 139.167 539.843 139.147L539.704 138.156ZM537.367 138.69L537.062 137.738C536.898 137.791 536.736 137.846 536.575 137.904L536.913 138.845L537.252 139.786C537.391 139.736 537.532 139.688 537.673 139.642L537.367 138.69ZM536.913 138.845L536.575 137.903C536.574 137.904 536.572 137.905 536.569 137.906L536.903 138.848L537.236 139.791C537.24 139.79 537.245 139.788 537.251 139.786L536.913 138.845ZM536.86 138.863L536.524 137.922C536.519 137.923 536.513 137.925 536.507 137.928L536.85 138.867L537.192 139.807C537.193 139.806 537.194 139.806 537.196 139.805L536.86 138.863ZM536.85 138.867L536.507 137.928C536.495 137.932 536.484 137.936 536.474 137.94L536.827 138.876L537.179 139.811C537.184 139.81 537.189 139.808 537.193 139.807L536.85 138.867ZM536.735 138.911L536.376 137.978C536.369 137.98 536.364 137.982 536.359 137.984L536.712 138.92L537.065 139.856C537.075 139.852 537.085 139.848 537.094 139.844L536.735 138.911ZM536.712 138.92L536.36 137.984C536.351 137.987 536.341 137.991 536.331 137.995L536.682 138.931L537.032 139.868C537.042 139.864 537.053 139.86 537.064 139.856L536.712 138.92ZM536.561 138.977L536.202 138.043C536.19 138.048 536.178 138.052 536.166 138.057L536.531 138.988L536.896 139.919C536.904 139.916 536.912 139.913 536.92 139.91L536.561 138.977ZM536.531 138.988L536.165 138.058C536.159 138.06 536.153 138.063 536.147 138.065L536.517 138.994L536.888 139.923C536.891 139.921 536.894 139.92 536.897 139.919L536.531 138.988ZM536.46 139.017L536.086 138.09C536.082 138.091 536.078 138.093 536.074 138.094L536.446 139.022L536.818 139.951C536.824 139.948 536.83 139.946 536.835 139.944L536.46 139.017ZM536.446 139.022L536.075 138.094C535.802 138.203 535.531 138.321 535.263 138.447L535.688 139.352L536.114 140.257C536.346 140.148 536.58 140.046 536.817 139.951L536.446 139.022ZM532.889 141.099L532.263 140.319C532.034 140.502 531.81 140.694 531.589 140.893L532.26 141.635L532.93 142.377C533.121 142.204 533.316 142.038 533.515 141.879L532.889 141.099ZM532.26 141.635L531.587 140.895L531.582 140.9L532.254 141.64L532.927 142.38L532.932 142.375L532.26 141.635ZM532.233 141.659L531.56 140.919L531.555 140.924L532.228 141.664L532.9 142.404L532.906 142.399L532.233 141.659ZM532.228 141.664L531.555 140.924C531.525 140.951 531.495 140.979 531.465 141.006L532.144 141.741L532.823 142.475C532.848 142.451 532.874 142.428 532.9 142.404L532.228 141.664ZM531.817 142.053L531.115 141.341C531.086 141.369 531.058 141.397 531.029 141.426L531.736 142.133L532.443 142.84C532.468 142.815 532.493 142.79 532.518 142.765L531.817 142.053ZM531.736 142.133L531.029 141.426L529.791 142.664L530.498 143.371L531.205 144.078L532.443 142.84L531.736 142.133ZM525.544 148.325L524.837 147.618L522.36 150.094L523.068 150.802L523.775 151.509L526.251 149.032L525.544 148.325ZM518.114 155.755L517.407 155.048L514.93 157.525L515.637 158.232L516.344 158.939L518.821 156.462L518.114 155.755ZM510.684 163.185L509.977 162.478L508.738 163.717L509.445 164.424L510.152 165.131L511.391 163.893L510.684 163.185ZM509.445 164.424L508.738 163.717C508.268 164.187 507.835 164.681 507.44 165.195L508.232 165.805L509.025 166.414C509.368 165.969 509.744 165.54 510.152 165.131L509.445 164.424ZM505.452 172.52L504.46 172.391C504.29 173.693 504.29 175.014 504.46 176.316L505.452 176.187L506.444 176.057C506.296 174.927 506.296 173.78 506.443 172.65L505.452 172.52ZM508.232 182.902L507.44 183.512C507.835 184.026 508.268 184.52 508.738 184.99L509.445 184.283L510.152 183.576C509.744 183.167 509.368 182.738 509.025 182.293L508.232 182.902ZM509.445 184.283L508.738 184.99C509.161 185.413 509.602 185.805 510.06 186.167L510.681 185.383L511.301 184.598C510.903 184.284 510.52 183.943 510.152 183.576L509.445 184.283ZM516.632 188.127L516.437 189.107C517.599 189.338 518.782 189.43 519.96 189.384L519.921 188.385L519.883 187.385C518.86 187.425 517.833 187.345 516.826 187.146L516.632 188.127ZM526.231 186.612L526.719 187.484C527.231 187.198 527.729 186.879 528.211 186.528L527.623 185.72L527.035 184.911C526.617 185.215 526.185 185.491 525.742 185.739L526.231 186.612ZM527.623 185.72H526.623V187.565H527.623H528.623V185.72H527.623ZM527.623 194.946H526.623V198.637H527.623H528.623V194.946H527.623ZM527.623 206.018H526.623V209.708H527.623H528.623V206.018H527.623ZM527.623 217.089H526.623V218.935H527.623H528.623V217.089H527.623ZM527.623 218.935H526.623C526.623 219.6 526.666 220.255 526.75 220.898L527.742 220.769L528.733 220.639C528.661 220.082 528.623 219.513 528.623 218.935H527.623ZM530.524 227.484L529.731 228.093C530.532 229.135 531.466 230.069 532.507 230.87L533.117 230.077L533.726 229.284C532.822 228.589 532.012 227.779 531.317 226.875L530.524 227.484ZM539.832 232.86L539.702 233.851C540.346 233.935 541.001 233.978 541.666 233.979L541.666 232.979L541.666 231.979C541.088 231.978 540.519 231.941 539.961 231.868L539.832 232.86ZM541.666 232.979V233.979C542.331 233.979 542.987 233.935 543.63 233.851L543.5 232.86L543.371 231.868C542.813 231.941 542.244 231.979 541.666 231.979V232.979ZM550.216 230.077L550.825 230.87C551.867 230.069 552.801 229.135 553.601 228.093L552.808 227.484L552.015 226.875C551.321 227.779 550.51 228.589 549.606 229.284L550.216 230.077ZM555.591 220.769L556.583 220.898C556.667 220.255 556.71 219.6 556.71 218.935H555.71H554.71C554.71 219.513 554.672 220.082 554.6 220.639L555.591 220.769ZM555.71 218.935H556.71V217.089H555.71H554.71V218.935H555.71ZM555.71 209.708H556.71V206.018H555.71H554.71V209.708H555.71ZM555.71 198.637H556.71V194.946H555.71H554.71V198.637H555.71ZM555.71 187.565H556.71V185.72H555.71H554.71V187.565H555.71ZM555.71 185.72L555.122 186.528C555.604 186.879 556.102 187.198 556.613 187.484L557.102 186.612L557.591 185.739C557.148 185.491 556.716 185.215 556.298 184.911L555.71 185.72ZM563.411 188.385L563.372 189.384C564.551 189.43 565.734 189.338 566.895 189.108L566.701 188.127L566.507 187.146C565.499 187.345 564.473 187.425 563.45 187.386L563.411 188.385ZM572.652 185.383L573.272 186.167C573.73 185.805 574.171 185.413 574.594 184.99L573.887 184.283L573.18 183.576C572.812 183.943 572.429 184.284 572.032 184.598L572.652 185.383ZM573.887 184.283L574.594 184.99C575.064 184.52 575.497 184.026 575.892 183.512L575.1 182.902L574.307 182.293C573.964 182.738 573.588 183.167 573.18 183.576L573.887 184.283ZM577.88 176.187L578.872 176.316C579.042 175.014 579.042 173.693 578.872 172.391L577.88 172.52L576.889 172.65C577.037 173.78 577.037 174.927 576.889 176.057L577.88 176.187ZM575.1 165.805L575.892 165.195C575.497 164.681 575.064 164.187 574.594 163.717L573.887 164.424L573.18 165.131C573.588 165.54 573.964 165.969 574.307 166.414L575.1 165.805ZM573.887 164.424L574.594 163.717L573.358 162.481L572.651 163.188L571.943 163.895L573.18 165.131L573.887 164.424ZM567.706 158.243L568.413 157.536L565.941 155.064L565.234 155.771L564.526 156.478L566.999 158.95L567.706 158.243ZM560.289 150.826L560.996 150.119L558.524 147.647L557.817 148.354L557.109 149.061L559.582 151.533L560.289 150.826ZM552.872 143.409L553.579 142.702L552.343 141.466L551.636 142.173L550.929 142.88L552.165 144.116L552.872 143.409ZM551.636 142.173L552.346 141.469C552.285 141.407 552.224 141.347 552.162 141.286L551.464 142.003L550.766 142.719C550.82 142.771 550.873 142.824 550.926 142.877L551.636 142.173ZM550.749 141.352L551.396 140.59C551.331 140.534 551.264 140.479 551.197 140.424L550.563 141.197L549.93 141.971C549.987 142.018 550.045 142.066 550.102 142.114L550.749 141.352ZM550.563 141.197L551.198 140.424C551.141 140.378 551.085 140.332 551.028 140.287L550.405 141.069L549.782 141.852C549.832 141.891 549.88 141.93 549.929 141.97L550.563 141.197ZM549.753 140.581L550.329 139.764C550.27 139.722 550.211 139.681 550.151 139.64L549.586 140.465L549.021 141.29C549.073 141.326 549.125 141.362 549.177 141.398L549.753 140.581ZM549.586 140.465L550.151 139.64C550.146 139.636 550.141 139.633 550.135 139.629L549.571 140.454L549.006 141.28C549.011 141.283 549.016 141.287 549.021 141.29L549.586 140.465ZM549.509 140.413L550.07 139.584C550.064 139.581 550.058 139.577 550.052 139.573L549.494 140.402L548.936 141.232C548.94 141.235 548.945 141.238 548.949 141.241L549.509 140.413ZM549.494 140.402L550.052 139.573C549.898 139.469 549.743 139.368 549.586 139.271L549.058 140.121L548.531 140.97C548.667 141.055 548.802 141.142 548.936 141.232L549.494 140.402ZM547.22 139.161L547.615 138.242C547.444 138.169 547.273 138.099 547.1 138.032L546.739 138.965L546.379 139.898C546.528 139.955 546.677 140.016 546.824 140.08L547.22 139.161ZM546.739 138.965L547.101 138.032C546.978 137.985 546.854 137.939 546.73 137.894L546.393 138.836L546.057 139.778C546.165 139.816 546.272 139.856 546.378 139.897L546.739 138.965ZM544.98 138.414L545.215 137.442C545.087 137.411 544.959 137.382 544.829 137.354L544.62 138.332L544.411 139.31C544.523 139.334 544.634 139.359 544.745 139.386L544.98 138.414ZM544.62 138.332L544.83 137.354C544.828 137.354 544.827 137.354 544.826 137.353L544.614 138.331L544.402 139.308C544.405 139.309 544.408 139.309 544.411 139.31L544.62 138.332ZM544.59 138.326L544.8 137.348C544.797 137.347 544.794 137.347 544.791 137.346L544.584 138.324L544.377 139.303C544.378 139.303 544.379 139.303 544.38 139.303L544.59 138.326ZM544.584 138.324L544.791 137.346C544.754 137.338 544.718 137.331 544.682 137.323L544.482 138.303L544.283 139.283C544.314 139.289 544.346 139.296 544.377 139.303L544.584 138.324ZM544.074 138.226L544.244 137.241C544.208 137.235 544.171 137.228 544.135 137.222L543.972 138.209L543.809 139.196C543.84 139.201 543.872 139.206 543.904 139.212L544.074 138.226ZM543.972 138.209L544.135 137.222C544.131 137.222 544.126 137.221 544.123 137.22L543.966 138.208L543.81 139.196C543.81 139.196 543.809 139.196 543.808 139.196L543.972 138.209ZM543.946 138.205L544.101 137.217L544.102 137.217L543.94 138.204L543.779 139.191C543.784 139.192 543.787 139.192 543.791 139.193L543.946 138.205ZM543.94 138.204L544.101 137.217C544.065 137.211 544.029 137.206 543.993 137.2L543.84 138.188L543.686 139.176C543.718 139.181 543.749 139.186 543.78 139.191L543.94 138.204ZM543.436 138.131L543.561 137.139C543.525 137.135 543.489 137.13 543.453 137.126L543.335 138.119L543.217 139.112C543.249 139.116 543.28 139.12 543.312 139.124L543.436 138.131ZM543.335 138.119L543.453 137.126C543.455 137.126 543.456 137.127 543.457 137.127L543.33 138.119L543.203 139.11C543.207 139.111 543.212 139.112 543.217 139.112L543.335 138.119ZM543.31 138.116L543.435 137.124C543.431 137.123 543.426 137.123 543.421 137.122L543.305 138.115L543.189 139.108C543.187 139.108 543.185 139.108 543.184 139.108L543.31 138.116ZM543.305 138.115L543.415 137.121L543.381 137.118L543.271 138.111L543.161 139.105L543.194 139.109L543.305 138.115ZM543.136 138.097L543.247 137.103L543.213 137.099L543.103 138.093L542.992 139.087L543.026 139.09L543.136 138.097ZM543.103 138.093L543.204 137.098C543.199 137.097 543.195 137.097 543.191 137.097L543.09 138.091L542.988 139.086C542.993 139.087 542.997 139.087 543.001 139.088L543.103 138.093ZM543.037 138.086L543.135 137.091C543.13 137.091 543.125 137.09 543.12 137.09L543.024 138.085L542.929 139.08C542.933 139.081 542.936 139.081 542.94 139.081L543.037 138.086ZM543.024 138.085L543.121 137.09C543.113 137.089 543.105 137.088 543.097 137.087L543.006 138.083L542.915 139.079C542.919 139.079 542.924 139.08 542.928 139.08L543.024 138.085ZM542.932 138.077L543.019 137.081C543.013 137.08 543.008 137.08 543.002 137.079L542.914 138.075L542.826 139.071C542.833 139.072 542.84 139.073 542.846 139.073L542.932 138.077ZM542.914 138.075L543.002 137.079C542.987 137.078 542.972 137.076 542.956 137.075L542.871 138.071L542.786 139.068C542.799 139.069 542.813 139.07 542.826 139.071L542.914 138.075ZM542.699 138.058L542.772 137.06C542.757 137.059 542.741 137.058 542.726 137.057L542.656 138.055L542.587 139.052C542.6 139.053 542.613 139.054 542.626 139.055L542.699 138.058ZM542.656 138.055L542.726 137.057C542.735 137.058 542.743 137.058 542.748 137.059L542.653 138.054L542.558 139.05C542.566 139.051 542.575 139.051 542.586 139.052L542.656 138.055ZM542.64 138.053L542.734 137.057C542.726 137.057 542.717 137.056 542.705 137.055L542.637 138.053L542.568 139.05C542.559 139.05 542.552 139.049 542.546 139.049L542.64 138.053ZM542.637 138.053L542.705 137.055C542.689 137.054 542.672 137.053 542.656 137.052L542.59 138.05L542.524 139.047C542.539 139.048 542.554 139.049 542.569 139.05L542.637 138.053ZM542.405 138.038L542.458 137.04C542.441 137.039 542.424 137.038 542.407 137.037L542.358 138.036L542.31 139.035C542.324 139.036 542.338 139.036 542.352 139.037L542.405 138.038ZM542.358 138.036L542.407 137.037C542.396 137.037 542.384 137.036 542.374 137.036L542.332 138.035L542.29 139.034C542.297 139.034 542.303 139.035 542.309 139.035L542.358 138.036ZM542.226 138.031L542.26 137.032C542.252 137.032 542.244 137.031 542.237 137.031L542.199 138.03L542.161 139.03C542.172 139.03 542.182 139.03 542.192 139.031L542.226 138.031ZM542.199 138.03L542.236 137.031C542.211 137.03 542.185 137.029 542.159 137.028L542.127 138.028L542.094 139.027C542.117 139.028 542.139 139.029 542.162 139.03L542.199 138.03ZM541.836 138.021L541.848 137.021C541.822 137.021 541.796 137.021 541.77 137.021L541.764 138.021L541.757 139.02C541.779 139.021 541.802 139.021 541.824 139.021L541.836 138.021Z" fill="#42140D"/>
<mask id="path-13-inside-1_3605_120455" fill="white">
<path d="M48.8876 529.932L50.5786 495.396L61.1816 487.399L82.4463 493.559L82.3949 471.421L107.198 474.907L107.147 452.769L137.366 430.006L134.486 404.454L180.452 369.816L232.742 391.388L239.065 447.598L193.099 482.236L169.338 472.435L82.5512 537.826L48.8876 529.932ZM215.107 426.844L211.527 407.373L193.799 398.556L179.649 409.218L200.966 437.508L215.107 426.844Z"/>
</mask>
<path d="M48.8876 529.932L50.5786 495.396L61.1816 487.399L82.4463 493.559L82.3949 471.421L107.198 474.907L107.147 452.769L137.366 430.006L134.486 404.454L180.452 369.816L232.742 391.388L239.065 447.598L193.099 482.236L169.338 472.435L82.5512 537.826L48.8876 529.932ZM215.107 426.844L211.527 407.373L193.799 398.556L179.649 409.218L200.966 437.508L215.107 426.844Z" fill="#F8B3A9"/>
<path d="M48.8876 529.932L46.89 529.834L46.8085 531.499L48.431 531.879L48.8876 529.932ZM50.5786 495.396L49.3742 493.8L48.6268 494.364L48.581 495.299L50.5786 495.396ZM61.1816 487.399L61.7381 485.478L60.7765 485.199L59.9772 485.802L61.1816 487.399ZM82.4463 493.559L81.8898 495.48L84.4524 496.222L84.4463 493.554L82.4463 493.559ZM82.3949 471.421L82.6732 469.441L80.3895 469.12L80.3949 471.426L82.3949 471.421ZM107.198 474.907L106.92 476.888L109.203 477.209L109.198 474.902L107.198 474.907ZM107.147 452.769L105.943 451.172L105.144 451.774L105.147 452.774L107.147 452.769ZM137.366 430.006L138.569 431.603L139.481 430.916L139.353 429.781L137.366 430.006ZM134.486 404.454L133.282 402.856L132.37 403.543L132.498 404.678L134.486 404.454ZM180.452 369.816L181.215 367.967L180.16 367.532L179.248 368.218L180.452 369.816ZM232.742 391.388L234.729 391.164L234.597 389.99L233.504 389.539L232.742 391.388ZM239.065 447.598L240.269 449.195L241.18 448.509L241.053 447.375L239.065 447.598ZM193.099 482.236L192.336 484.085L193.391 484.52L194.303 483.833L193.099 482.236ZM169.338 472.435L170.101 470.586L169.046 470.151L168.135 470.837L169.338 472.435ZM82.5512 537.826L82.0946 539.773L83.0066 539.987L83.7547 539.423L82.5512 537.826ZM215.107 426.844L216.311 428.441L217.298 427.697L217.074 426.482L215.107 426.844ZM211.527 407.373L213.494 407.011L213.313 406.028L212.418 405.582L211.527 407.373ZM193.799 398.556L194.689 396.766L193.582 396.215L192.595 396.959L193.799 398.556ZM179.649 409.218L178.445 407.621L176.848 408.824L178.051 410.422L179.649 409.218ZM200.966 437.508L199.369 438.712L200.573 440.31L202.17 439.105L200.966 437.508ZM48.8876 529.932L50.8852 530.03L52.5762 495.494L50.5786 495.396L48.581 495.299L46.89 529.834L48.8876 529.932ZM50.5786 495.396L51.783 496.993L62.386 488.995L61.1816 487.399L59.9772 485.802L49.3742 493.8L50.5786 495.396ZM61.1816 487.399L60.6251 489.32L81.8898 495.48L82.4463 493.559L83.0028 491.638L61.7381 485.478L61.1816 487.399ZM82.4463 493.559L84.4463 493.554L84.3949 471.417L82.3949 471.421L80.3949 471.426L80.4463 493.563L82.4463 493.559ZM82.3949 471.421L82.1165 473.402L106.92 476.888L107.198 474.907L107.476 472.927L82.6732 469.441L82.3949 471.421ZM107.198 474.907L109.198 474.902L109.147 452.765L107.147 452.769L105.147 452.774L105.198 474.912L107.198 474.907ZM107.147 452.769L108.35 454.367L138.569 431.603L137.366 430.006L136.162 428.408L105.943 451.172L107.147 452.769ZM137.366 430.006L139.353 429.781L136.473 404.23L134.486 404.454L132.498 404.678L135.378 430.23L137.366 430.006ZM134.486 404.454L135.689 406.051L181.655 371.413L180.452 369.816L179.248 368.218L133.282 402.856L134.486 404.454ZM180.452 369.816L179.689 371.664L231.979 393.237L232.742 391.388L233.504 389.539L181.215 367.967L180.452 369.816ZM232.742 391.388L230.754 391.611L237.078 447.822L239.065 447.598L241.053 447.375L234.729 391.164L232.742 391.388ZM239.065 447.598L237.862 446.001L191.895 480.639L193.099 482.236L194.303 483.833L240.269 449.195L239.065 447.598ZM193.099 482.236L193.862 480.387L170.101 470.586L169.338 472.435L168.576 474.283L192.336 484.085L193.099 482.236ZM169.338 472.435L168.135 470.837L81.3477 536.228L82.5512 537.826L83.7547 539.423L170.542 474.032L169.338 472.435ZM82.5512 537.826L83.0078 535.878L49.3442 527.985L48.8876 529.932L48.431 531.879L82.0946 539.773L82.5512 537.826ZM215.107 426.844L217.074 426.482L213.494 407.011L211.527 407.373L209.56 407.735L213.14 427.206L215.107 426.844ZM211.527 407.373L212.418 405.582L194.689 396.766L193.799 398.556L192.908 400.347L210.637 409.164L211.527 407.373ZM193.799 398.556L192.595 396.959L178.445 407.621L179.649 409.218L180.852 410.815L195.002 400.154L193.799 398.556ZM179.649 409.218L178.051 410.422L199.369 438.712L200.966 437.508L202.563 436.304L181.246 408.015L179.649 409.218ZM200.966 437.508L202.17 439.105L216.311 428.441L215.107 426.844L213.903 425.247L199.762 435.911L200.966 437.508Z" fill="#42140D" mask="url(#path-13-inside-1_3605_120455)"/>
<path d="M60.0998 532.576L160.276 457.088" stroke="#42140D" stroke-width="2"/>
<path d="M493.5 171C493.5 172.093 492.789 173.059 491.746 173.386C490.703 173.712 489.568 173.322 488.945 172.424L482.917 163.722C478.391 157.188 470.948 153.289 463 153.289C462.991 153.289 462.982 153.289 462.973 153.289L258.149 151.083C240.338 150.891 226 136.396 226 118.584V112.001C226 94.0518 240.551 79.5 258.5 79.5H461C478.949 79.5 493.5 94.0507 493.5 112V171Z" fill="#F18878"/>
<circle cx="448" cy="116" r="18" fill="white" stroke="#42140D" stroke-width="2"/>
<path d="M447.9 106C451.214 106 453.9 108.686 453.9 112C453.9 115.314 451.214 118 447.9 118C444.587 118 441.9 115.314 441.9 112C441.9 108.686 444.587 106 447.9 106Z" fill="white" stroke="#42140D" stroke-width="2"/>
<path d="M458.9 130C457.91 127.905 456.352 126.135 454.405 124.896C452.458 123.658 450.203 123 447.9 123C445.598 123 443.343 123.658 441.396 124.896C439.449 126.135 437.89 127.905 436.9 130" stroke="#42140D" stroke-width="2" stroke-linecap="round"/>
<path d="M258.5 80.5H461C478.397 80.5 492.5 94.603 492.5 112V171C492.5 171.615 492.125 172.163 491.562 172.391L491.447 172.432C490.821 172.627 490.141 172.393 489.768 171.854L483.739 163.152C479.027 156.349 471.276 152.289 463 152.289H462.983L258.16 150.083C240.897 149.897 227 135.848 227 118.584V112.001C227 94.604 241.103 80.5 258.5 80.5Z" stroke="#42140D" stroke-width="2"/>
<path d="M566 259.818V314.546H360V259.818H566Z" fill="white" stroke="#42140D" stroke-width="2"/>
<path d="M552 315V335H374V315H552Z" fill="#3B0800" stroke="#42140D" stroke-width="2"/>
<path d="M552 388V408H374V388H552Z" fill="#3B0800" stroke="#42140D" stroke-width="2"/>
<mask id="path-24-inside-2_3605_120455" fill="white">
<path d="M538.637 277.727V296.636V277.727Z"/>
</mask>
<path d="M538.637 277.727V296.636V277.727Z" fill="white"/>
<path d="M538.637 277.727H537.637V296.636H538.637H539.637V277.727H538.637Z" fill="#42140D" mask="url(#path-24-inside-2_3605_120455)"/>
<mask id="path-26-inside-3_3605_120455" fill="white">
<path d="M519.727 277.727V296.636V277.727Z"/>
</mask>
<path d="M519.727 277.727V296.636V277.727Z" fill="white"/>
<path d="M519.727 277.727H518.727V296.636H519.727H520.727V277.727H519.727Z" fill="#42140D" mask="url(#path-26-inside-3_3605_120455)"/>
<mask id="path-28-inside-4_3605_120455" fill="white">
<path d="M500.817 277.727V296.636V277.727Z"/>
</mask>
<path d="M500.817 277.727V296.636V277.727Z" fill="white"/>
<path d="M500.817 277.727H499.817V296.636H500.817H501.817V277.727H500.817Z" fill="#42140D" mask="url(#path-28-inside-4_3605_120455)"/>
<path d="M409.586 287.184L399.182 297.588L388.777 287.184L399.182 276.779L409.586 287.184Z" fill="#FBD3CD" stroke="#42140D" stroke-width="2"/>
<path d="M566 334V388.728H360V334H566Z" fill="white" stroke="#42140D" stroke-width="2"/>
<mask id="path-32-inside-5_3605_120455" fill="white">
<path d="M538.637 351.908V370.817V351.908Z"/>
</mask>
<path d="M538.637 351.908V370.817V351.908Z" fill="white"/>
<path d="M538.637 351.908H537.637V370.817H538.637H539.637V351.908H538.637Z" fill="#42140D" mask="url(#path-32-inside-5_3605_120455)"/>
<mask id="path-34-inside-6_3605_120455" fill="white">
<path d="M519.727 351.908V370.817V351.908Z"/>
</mask>
<path d="M519.727 351.908V370.817V351.908Z" fill="white"/>
<path d="M519.727 351.908H518.727V370.817H519.727H520.727V351.908H519.727Z" fill="#42140D" mask="url(#path-34-inside-6_3605_120455)"/>
<mask id="path-36-inside-7_3605_120455" fill="white">
<path d="M500.817 351.908V370.817V351.908Z"/>
</mask>
<path d="M500.817 351.908V370.817V351.908Z" fill="white"/>
<path d="M500.817 351.908H499.817V370.817H500.817H501.817V351.908H500.817Z" fill="#42140D" mask="url(#path-36-inside-7_3605_120455)"/>
<path d="M409.586 361.365L399.182 371.77L388.777 361.365L399.182 350.961L409.586 361.365Z" fill="#FBD3CD" stroke="#42140D" stroke-width="2"/>
<path d="M566 410V464.728H360V410H566Z" fill="white" stroke="#42140D" stroke-width="2"/>
<mask id="path-40-inside-8_3605_120455" fill="white">
<path d="M538.637 427.908V446.817V427.908Z"/>
</mask>
<path d="M538.637 427.908V446.817V427.908Z" fill="white"/>
<path d="M538.637 427.908H537.637V446.817H538.637H539.637V427.908H538.637Z" fill="#42140D" mask="url(#path-40-inside-8_3605_120455)"/>
<mask id="path-42-inside-9_3605_120455" fill="white">
<path d="M519.727 427.908V446.817V427.908Z"/>
</mask>
<path d="M519.727 427.908V446.817V427.908Z" fill="white"/>
<path d="M519.727 427.908H518.727V446.817H519.727H520.727V427.908H519.727Z" fill="#42140D" mask="url(#path-42-inside-9_3605_120455)"/>
<mask id="path-44-inside-10_3605_120455" fill="white">
<path d="M500.817 427.908V446.817V427.908Z"/>
</mask>
<path d="M500.817 427.908V446.817V427.908Z" fill="white"/>
<path d="M500.817 427.908H499.817V446.817H500.817H501.817V427.908H500.817Z" fill="#42140D" mask="url(#path-44-inside-10_3605_120455)"/>
<path d="M409.586 437.365L399.182 447.77L388.777 437.365L399.182 426.961L409.586 437.365Z" fill="white" stroke="#42140D" stroke-width="2"/>
<path d="M109 234.54C84.1961 224.927 84.7285 224.85 74.5004 200C66.2032 222.819 62.2235 226.485 40 234.459C64.805 244.073 64.2722 244.15 74.5004 269C82.7976 246.181 86.7769 242.514 109 234.54Z" fill="#E76450"/>
<path d="M563 504.52C550.418 499.644 550.688 499.605 545.5 487C541.291 498.575 539.273 500.434 528 504.479C540.582 509.356 540.312 509.395 545.5 522C549.709 510.425 551.727 508.565 563 504.52Z" fill="#E76450"/>
<path d="M383.236 95.5786C388.31 95.5918 393.08 97.514 396.729 101.007L397.079 101.35C400.773 105.06 402.797 109.981 402.786 115.218C402.762 126.02 393.95 134.79 383.146 134.766L262.715 134.514C262.332 134.511 261.959 134.503 261.592 134.481C256.779 134.201 252.302 132.189 248.872 128.743L248.531 128.392C245.053 124.725 243.155 119.949 243.165 114.875C243.189 104.073 252.001 95.3035 262.805 95.3274L383.236 95.5786Z" fill="white" stroke="#42140D" stroke-width="2"/>
<path d="M265.966 121.406C269.261 121.406 271.933 118.629 271.933 115.203C271.933 111.777 269.261 109 265.966 109C262.67 109 259.999 111.777 259.999 115.203C259.999 118.629 262.67 121.406 265.966 121.406Z" fill="#3B0800"/>
<path d="M283.988 121.406C287.284 121.406 289.955 118.629 289.955 115.203C289.955 111.777 287.284 109 283.988 109C280.693 109 278.021 111.777 278.021 115.203C278.021 118.629 280.693 121.406 283.988 121.406Z" fill="#3B0800"/>
<path d="M302.012 121.406C305.307 121.406 307.978 118.629 307.978 115.203C307.978 111.777 305.307 109 302.012 109C298.716 109 296.045 111.777 296.045 115.203C296.045 118.629 298.716 121.406 302.012 121.406Z" fill="#3B0800"/>
<path d="M319.988 121.406C323.284 121.406 325.955 118.629 325.955 115.203C325.955 111.777 323.284 109 319.988 109C316.693 109 314.021 111.777 314.021 115.203C314.021 118.629 316.693 121.406 319.988 121.406Z" fill="#3B0800"/>
<path d="M338.012 121.406C341.307 121.406 343.978 118.629 343.978 115.203C343.978 111.777 341.307 109 338.012 109C334.716 109 332.045 111.777 332.045 115.203C332.045 118.629 334.716 121.406 338.012 121.406Z" fill="#3B0800"/>
<path d="M355.988 121.406C359.284 121.406 361.955 118.629 361.955 115.203C361.955 111.777 359.284 109 355.988 109C352.693 109 350.021 111.777 350.021 115.203C350.021 118.629 352.693 121.406 355.988 121.406Z" fill="#3B0800"/>
<path d="M374.012 121.406C377.307 121.406 379.978 118.629 379.978 115.203C379.978 111.777 377.307 109 374.012 109C370.716 109 368.045 111.777 368.045 115.203C368.045 118.629 370.716 121.406 374.012 121.406Z" fill="#3B0800"/>
<path d="M441.94 451.022C443.33 450.233 450.634 446.005 451.966 445.131L441.94 440.996V451.022Z" fill="#42140D"/>
<path d="M820.609 157.47C830.757 165.439 847.914 187.303 835.354 211.003C818.419 240.336 795.475 216.819 797.27 205.194C799.065 193.569 825.758 198.428 817.079 242.657C810.135 278.041 766.584 248.207 745.676 228.867" stroke="#F18878" stroke-width="3" stroke-linecap="round"/>
<path d="M162.352 101.133C157.781 103.393 148.032 106.42 145.603 100.445C142.567 92.9763 141.497 87.051 135.796 87.0256C130.095 87.0002 118.349 95.3239 114.312 86.0529C110.275 76.7818 110.559 72.0467 102.15 69.6414C94.0917 67.3363 86.6606 71.7213 80.158 74.4992" stroke="#E76450" stroke-width="3" stroke-linecap="round"/>
<path d="M484 394V559.556H254V394H484Z" fill="white" stroke="#42140D" stroke-width="2"/>
<path d="M277 408H461C465.971 408 470 412.029 470 417V507C470 511.971 465.971 516 461 516H277C272.029 516 268 511.971 268 507V417C268 412.185 271.782 408.253 276.537 408.012L277 408Z" fill="#FBD3CD" stroke="#42140D" stroke-width="2"/>
<path d="M342.077 433H360.618L368.1 448.525L368.372 449.091H395.923C397.801 449.091 399.602 449.835 400.929 451.156C402.255 452.478 403 454.27 403 456.137V482.954C403 484.821 402.255 486.613 400.929 487.935C399.602 489.256 397.801 490 395.923 490H342.077C340.199 490 338.398 489.256 337.071 487.935C335.745 486.613 335 484.821 335 482.954V440.046C335 438.179 335.745 436.387 337.071 435.065C338.315 433.826 339.975 433.095 341.726 433.009L342.077 433Z" fill="white" stroke="#42140D" stroke-width="2"/>
<mask id="path-63-inside-11_3605_120455" fill="white">
<path d="M253 530.551H485H253Z"/>
</mask>
<path d="M253 530.551V531.551H485V530.551V529.551H253V530.551Z" fill="#42140D" mask="url(#path-63-inside-11_3605_120455)"/>
<mask id="path-65-inside-12_3605_120455" fill="white">
<path d="M395.077 560.551V579.884L420.855 599.217H317.744L343.522 579.884V560.551"/>
</mask>
<path d="M395.077 560.551V579.884L420.855 599.217H317.744L343.522 579.884V560.551" fill="white"/>
<path d="M395.077 579.884H393.077V580.884L393.877 581.484L395.077 579.884ZM420.855 599.217V601.217H426.855L422.055 597.617L420.855 599.217ZM317.744 599.217L316.544 597.617L311.744 601.217H317.744V599.217ZM343.522 579.884L344.722 581.484L345.522 580.884V579.884H343.522ZM395.077 560.551H393.077V579.884H395.077H397.077V560.551H395.077ZM395.077 579.884L393.877 581.484L419.655 600.817L420.855 599.217L422.055 597.617L396.277 578.284L395.077 579.884ZM420.855 599.217V597.217H317.744V599.217V601.217H420.855V599.217ZM317.744 599.217L318.944 600.817L344.722 581.484L343.522 579.884L342.322 578.284L316.544 597.617L317.744 599.217ZM343.522 579.884H345.522V560.551H343.522H341.522V579.884H343.522Z" fill="#42140D" mask="url(#path-65-inside-12_3605_120455)"/>
<g filter="url(#filter0_d_3605_120455)">
<path d="M276.138 537.224C278.944 535.171 282.852 537.428 282.477 540.884L273.833 620.532C273.454 624.019 269.09 625.365 266.813 622.696L246.384 598.754C245.788 598.056 244.971 597.584 244.068 597.417L213.118 591.696C209.669 591.058 208.653 586.606 211.483 584.534L276.138 537.224Z" fill="#3B0800"/>
<path d="M276.729 538.032C278.833 536.492 281.764 538.184 281.483 540.776L272.839 620.424C272.555 623.039 269.282 624.048 267.574 622.047L247.145 598.105C246.401 597.232 245.378 596.642 244.25 596.433L213.3 590.712C210.713 590.234 209.951 586.895 212.074 585.341L276.729 538.032Z" stroke="white" stroke-width="2" stroke-linejoin="round"/>
</g>
<path d="M750.717 132.075C757.734 131.324 764.041 136.31 764.968 143.266L765.008 143.599L773.925 226.717C774.688 233.845 769.53 240.241 762.401 241.008L679.283 249.925C672.266 250.676 665.959 245.69 665.032 238.734L664.992 238.401L656.075 155.283C655.312 148.155 660.469 141.758 667.598 140.991L750.717 132.075Z" fill="#42140D" stroke="white" stroke-width="4"/>
<path d="M743.067 168.402L746.929 209.22L690.058 214.6L686.196 173.782L743.067 168.402Z" fill="white" stroke="#42140D" stroke-width="2"/>
<mask id="path-71-inside-13_3605_120455" fill="white">
<path d="M747.921 209.088L715.642 181.772L689.059 214.656"/>
</mask>
<path d="M747.921 209.088L715.642 181.772L689.059 214.656" fill="white"/>
<path d="M747.921 209.088L748.015 210.083L689.153 215.652L689.059 214.656L688.964 213.661L747.827 208.092L747.921 209.088ZM715.642 181.772L714.087 180.515L715.373 178.924L716.934 180.245L715.642 181.772ZM747.921 209.088L746.629 210.614L714.35 183.299L715.642 181.772L716.934 180.245L749.213 207.561L747.921 209.088ZM715.642 181.772L717.197 183.029L690.614 215.914L689.059 214.656L687.503 213.399L714.087 180.515L715.642 181.772Z" fill="#42140D" mask="url(#path-71-inside-13_3605_120455)"/>
<mask id="path-73-inside-14_3605_120455" fill="white">
<path d="M744.03 167.961L717.447 200.845L685.168 173.529"/>
</mask>
<path d="M744.03 167.961L717.447 200.845L685.168 173.529" fill="white"/>
<path d="M744.03 167.961L743.936 166.965L685.074 172.534L685.168 173.529L685.262 174.525L744.124 168.956L744.03 167.961ZM717.447 200.845L716.155 202.372L717.716 203.693L719.002 202.102L717.447 200.845ZM744.03 167.961L742.475 166.703L715.891 199.588L717.447 200.845L719.002 202.102L745.585 169.218L744.03 167.961ZM717.447 200.845L718.739 199.318L686.46 172.003L685.168 173.529L683.876 175.056L716.155 202.372L717.447 200.845Z" fill="#42140D" mask="url(#path-73-inside-14_3605_120455)"/>
<path d="M103.188 298.526L102.967 298.251L96.6221 290.384C95.6842 289.205 95.1249 287.769 95.0186 286.267C94.9121 284.762 95.2648 283.26 96.0293 281.96L96.0352 281.949L99.416 276.032C100.157 274.752 101.262 273.721 102.59 273.07C103.918 272.42 105.41 272.178 106.875 272.377L116.841 273.897L117.184 273.95L117.485 273.779L130.005 266.673L130.314 266.497L130.443 266.165L134.081 256.775V256.773C134.622 255.372 135.574 254.166 136.812 253.314C137.972 252.516 139.334 252.063 140.737 252.006L141.019 252H147.949L148.23 252.006C149.634 252.063 150.996 252.516 152.156 253.314C153.394 254.166 154.346 255.372 154.887 256.773V256.775L158.524 266.165L158.651 266.494L158.958 266.67L171.309 273.776L171.611 273.95L171.958 273.897L181.923 272.377L181.924 272.378C183.389 272.179 184.881 272.42 186.209 273.07C187.454 273.68 188.503 274.625 189.239 275.796L189.383 276.032L192.764 281.949L192.77 281.96C193.534 283.26 193.887 284.762 193.78 286.267C193.674 287.771 193.113 289.209 192.173 290.389L192.168 290.395L185.993 298.262L185.78 298.533V313.443L186.001 313.718L192.342 321.58V321.581C193.282 322.761 193.843 324.197 193.949 325.702C194.056 327.207 193.703 328.709 192.938 330.01L192.933 330.021L189.552 335.937C188.811 337.217 187.706 338.248 186.378 338.898C185.053 339.547 183.566 339.789 182.104 339.593L172.127 338.071L171.781 338.019L171.478 338.193L159.127 345.299L158.821 345.476L158.693 345.805L155.056 355.194V355.195C154.515 356.597 153.563 357.803 152.325 358.655C151.087 359.507 149.621 359.965 148.118 359.97H141.019C139.516 359.965 138.049 359.507 136.812 358.655C135.574 357.803 134.622 356.597 134.081 355.195V355.194L130.443 345.805L130.316 345.476L130.01 345.299L117.659 338.193L117.356 338.019L117.01 338.071L107.031 339.593C105.57 339.789 104.083 339.547 102.759 338.898C101.431 338.248 100.326 337.217 99.585 335.937L96.2041 330.021L96.1982 330.01L96.0596 329.764C95.3912 328.522 95.0876 327.113 95.1875 325.702C95.2941 324.198 95.8549 322.761 96.7949 321.581L96.7998 321.575L102.975 313.708L103.188 313.436V298.526Z" fill="white" stroke="#42140D" stroke-width="2"/>
<path d="M144.482 281.607C157.946 281.608 168.859 292.522 168.859 305.985C168.859 319.448 157.945 330.362 144.482 330.362C131.019 330.362 120.105 319.449 120.104 305.985C120.104 292.522 131.019 281.607 144.482 281.607Z" fill="white" stroke="#42140D" stroke-width="2"/>
<path d="M835.627 422.432C839.534 421.904 842.556 422.909 844.552 424.889C846.584 426.904 847.698 430.076 847.452 434.112C847.306 436.502 846.037 438.766 844.248 440.943C842.453 443.129 840.275 445.071 838.403 446.918C817.778 467.266 796.83 487.222 774.05 505.081L773.664 505.383L773.666 505.872C773.684 510.372 773.398 524.192 773.283 529.898C767.154 529.88 760.521 529.532 754.244 529.27L751.438 529.158L708.749 527.604H708.746L655.315 525.809H655.316C646.324 525.487 636.399 525.3 627.439 524.695C627.526 522.911 627.575 519.617 627.608 516.387C627.651 512.276 627.672 508.188 627.709 507.039L628.31 491.724L628.326 491.3L628.033 490.993C620.956 483.596 612.738 476.712 605.154 469.906H605.155C600.68 465.855 594.128 459.82 589.295 453.159C584.422 446.443 581.531 439.411 583.772 433.238C584.261 431.892 585.354 430.723 587.061 429.733C588.77 428.742 591.029 427.971 593.713 427.404C599.079 426.27 605.944 425.992 613.006 426.245C620.056 426.498 627.249 427.279 633.244 428.24C638.767 429.125 643.191 430.15 645.559 431.026C645.561 432.379 645.486 433.755 645.408 435.164C645.319 436.789 645.227 438.46 645.266 440.112C645.344 443.431 645.951 446.781 648.229 449.84C650.618 453.046 653.561 454.454 656.742 455.082C659.828 455.691 663.255 455.576 666.503 455.694L671.795 456.253L671.816 456.255L671.839 456.256L700.567 458.017L716.508 459.58L716.547 459.584L716.587 459.585L754.48 460.311L754.714 460.315L754.924 460.217L835.627 422.432Z" fill="white" stroke="#42140D" stroke-width="2"/>
<path d="M811.835 397.19C813.154 396.935 817.419 396.39 821.831 396.527C824.035 396.596 826.234 396.834 828.103 397.344C829.298 397.67 830.306 398.093 831.09 398.615C816.964 403.678 808.332 408.41 802.06 412.813C798.812 415.093 796.21 417.276 793.824 419.346C791.501 421.361 789.409 423.242 787.102 425.039C786.981 424.866 786.795 424.685 786.505 424.589C786.439 424.567 786.373 424.552 786.31 424.542C786.377 419.491 786.492 410.598 786.653 406.067C787.441 405.676 788.232 405.243 789.002 404.82C789.966 404.291 790.905 403.781 791.837 403.356C798.544 400.304 804.572 398.094 811.769 397.201L811.802 397.197L811.835 397.19Z" fill="white" stroke="#42140D" stroke-width="2"/>
<path d="M828.057 399.687C831.643 399.641 835.265 399.824 838.47 400.474C841.712 401.131 844.426 402.244 846.262 403.98C848.055 405.676 849.098 408.048 848.868 411.463C848.644 414.79 847.204 419.109 844.02 424.679C843.106 424.383 841.886 424.011 841.166 423.899H841.167C840.105 423.734 838.78 423.815 837.281 424.063C835.769 424.314 834.013 424.746 832.063 425.327C828.163 426.489 823.418 428.268 818.161 430.453C807.644 434.826 795.002 440.862 782.831 446.96C770.657 453.06 758.938 459.23 750.265 463.874C745.928 466.196 742.351 468.137 739.858 469.498C738.612 470.178 737.637 470.714 736.973 471.079C736.641 471.262 736.387 471.402 736.216 471.496C736.13 471.543 736.065 471.579 736.021 471.604C736 471.615 735.984 471.625 735.973 471.631C735.967 471.634 735.963 471.636 735.96 471.638C735.959 471.638 735.958 471.639 735.957 471.64C735.956 471.64 735.956 471.64 736.438 472.512L735.956 471.641L735.887 471.679L735.824 471.727L728.182 477.697C728.058 477.059 727.904 476.291 727.729 475.505C727.51 474.525 727.256 473.498 726.993 472.654C726.862 472.234 726.722 471.838 726.574 471.508C726.507 471.358 726.421 471.181 726.312 471.009C726.467 468.072 726.52 464.856 726.6 461.695C726.679 458.54 726.788 455.434 727.051 452.645C730.19 450.118 736.858 445.839 745.448 440.745C754.313 435.488 765.158 429.4 776.119 423.539C787.081 417.678 798.151 412.051 807.469 407.713C816.769 403.383 824.203 400.397 828.057 399.687Z" fill="white" stroke="#42140D" stroke-width="2"/>
<rect x="619" y="519" width="166" height="43" rx="8" fill="#F18878"/>
<path d="M704.468 287.699C724.307 315.739 756.597 329.01 798 326.486V369.263C797.943 394.374 790.343 418.887 776.188 439.616C762.253 460.022 742.6 475.833 719.717 485.064L718.626 485.498L709.346 489.12C706.221 490.293 702.778 490.293 699.653 489.12L690.374 485.498H690.373C667.024 476.332 646.968 460.345 632.812 439.616C618.878 419.21 611.295 395.138 611.008 370.438L611 369.261V326.566C628.649 328.88 646.602 326.494 663.045 319.635C679.417 312.805 693.698 301.787 704.468 287.699Z" fill="#F8B3A9" stroke="#42140D" stroke-width="2"/>
<path d="M704.468 307.692C720.556 330.139 746.636 340.766 780 338.793V373.017C779.954 393.187 773.814 412.878 762.377 429.53C750.94 446.182 734.735 459.025 715.868 466.389L708.357 469.304C705.87 470.232 703.129 470.232 700.642 469.304L693.131 466.389C674.264 459.025 658.06 446.182 646.623 429.53C635.365 413.138 629.239 393.8 629.007 373.959L629 373.014V338.873C643.25 340.692 657.738 338.759 671.013 333.253C684.217 327.776 695.747 318.961 704.468 307.692Z" fill="white" stroke="#42140D" stroke-width="2"/>
<path d="M728.922 377.24H678.48V421.377H728.922V377.24Z" fill="#3B0800" stroke="#42140D" stroke-width="2" stroke-linecap="round" stroke-linejoin="round"/>
<path d="M684.533 376.23V369.067C684.533 358.537 693.115 350 703.701 350C714.287 350 722.869 358.537 722.869 369.067V376.23" stroke="#42140D" stroke-width="2" stroke-linecap="round" stroke-linejoin="round"/>
<path d="M711.019 397.009C711.019 400.328 708.328 403.019 705.009 403.019C701.691 403.019 699 400.328 699 397.009C699 393.691 701.691 391 705.009 391C708.328 391 711.019 393.691 711.019 397.009Z" fill="white"/>
<path d="M705.01 403.481V410.877M711.019 397.009C711.019 400.328 708.328 403.019 705.009 403.019C701.691 403.019 699 400.328 699 397.009C699 393.691 701.691 391 705.009 391C708.328 391 711.019 393.691 711.019 397.009Z" stroke="white" stroke-width="2" stroke-linecap="round" stroke-linejoin="round"/>
</g>
<defs>
<filter id="filter0_d_3605_120455" x="205.843" y="536.441" width="76.6592" height="91.6641" filterUnits="userSpaceOnUse" color-interpolation-filters="sRGB">
<feFlood flood-opacity="0" result="BackgroundImageFix"/>
<feColorMatrix in="SourceAlpha" type="matrix" values="0 0 0 0 0 0 0 0 0 0 0 0 0 0 0 0 0 0 127 0" result="hardAlpha"/>
<feOffset dx="-4" dy="4"/>
<feComposite in2="hardAlpha" operator="out"/>
<feColorMatrix type="matrix" values="0 0 0 0 0.231373 0 0 0 0 0.0313726 0 0 0 0 0 0 0 0 0.2 0"/>
<feBlend mode="normal" in2="BackgroundImageFix" result="effect1_dropShadow_3605_120455"/>
<feBlend mode="normal" in="SourceGraphic" in2="effect1_dropShadow_3605_120455" result="shape"/>
</filter>
<clipPath id="clip0_3605_120455">
<rect width="864" height="648" rx="20" fill="white"/>
</clipPath>
</defs>
</svg>
