<svg width="824" height="590" viewBox="0 0 824 590" fill="none" xmlns="http://www.w3.org/2000/svg">
<path d="M24 1H761C773.703 1 784 11.2975 784 24V505C784 517.703 773.703 528 761 528H24C11.2975 528 1 517.703 1 505V24C1 11.2975 11.2975 1 24 1Z" fill="white" stroke="#42140D" stroke-width="2"/>
<path d="M41 73H744C752.284 73 759 79.7157 759 88V489C759 497.284 752.284 504 744 504H41C32.7157 504 26 497.284 26 489V88L26.0049 87.6133C26.21 79.5077 32.845 73 41 73Z" fill="#D4F4E7" stroke="#42140D" stroke-width="2"/>
<path d="M61 123C61 114.163 68.1634 107 77 107H368C376.837 107 384 114.163 384 123V284C384 292.837 376.837 300 368 300H77C68.1635 300 61 292.837 61 284V123Z" fill="white"/>
<path d="M429.717 147.075C436.734 146.324 443.041 151.31 443.968 158.266L444.008 158.599L452.925 241.717C453.688 248.845 448.53 255.241 441.401 256.008L358.283 264.925C351.266 265.676 344.959 260.69 344.032 253.734L343.992 253.401L335.075 170.283C334.312 163.155 339.469 156.758 346.598 155.991L429.717 147.075Z" fill="#42140D" stroke="white" stroke-width="4"/>
<path fill-rule="evenodd" clip-rule="evenodd" d="M391.768 181.126C396.551 180.571 401.357 181.94 405.131 184.929C408.904 187.918 411.338 192.283 411.893 197.065L413.231 196.909L413.809 196.875C414.385 196.87 414.961 196.956 415.513 197.133C416.065 197.31 416.585 197.575 417.053 197.915L417.502 198.277C418.069 198.791 418.525 199.424 418.833 200.125C419.064 200.65 419.207 201.209 419.264 201.778L419.291 202.349L419.171 224.294C419.164 225.631 418.662 226.918 417.767 227.912C416.874 228.902 415.649 229.528 414.323 229.675L381.002 233.545C379.678 233.706 378.339 233.374 377.243 232.614C376.144 231.852 375.363 230.71 375.051 229.41L369.84 208.091L369.835 208.088C369.656 207.344 369.636 206.57 369.775 205.818C369.915 205.065 370.211 204.349 370.646 203.718L370.648 203.714C371.088 203.079 371.657 202.543 372.319 202.145C372.982 201.747 373.725 201.495 374.493 201.405L375.828 201.25C375.274 196.468 376.643 191.662 379.632 187.888C382.621 184.114 386.986 181.681 391.768 181.126ZM402.329 209.14C401.334 209.256 400.62 210.157 400.735 211.153L401.572 218.366C401.688 219.362 402.589 220.075 403.585 219.96C404.58 219.844 405.294 218.943 405.179 217.947L404.342 210.734C404.226 209.739 403.325 209.025 402.329 209.14ZM387.904 210.814C386.908 210.93 386.194 211.831 386.31 212.827L387.147 220.039C387.262 221.035 388.163 221.749 389.159 221.633C390.155 221.517 390.869 220.616 390.753 219.621L389.916 212.408C389.801 211.413 388.899 210.699 387.904 210.814ZM392.187 184.733C388.361 185.176 384.869 187.123 382.477 190.143C380.086 193.162 378.991 197.006 379.435 200.831L408.286 197.483C407.842 193.658 405.895 190.167 402.876 187.775C399.857 185.384 396.013 184.289 392.187 184.733Z" fill="white"/>
<path d="M267.309 276H181.691C174.132 276 168 269.954 168 262.5C168 255.046 174.132 249 181.691 249H267.309C274.868 249 281 255.046 281 262.5C281 269.954 274.868 276 267.309 276Z" fill="#71D7B4"/>
<path d="M171.5 155H210.5" stroke="#42140D" stroke-width="2" stroke-linecap="round"/>
<path d="M172 181H305" stroke="#42140D" stroke-width="2" stroke-linecap="round"/>
<path d="M223.5 155H303.5" stroke="#42140D" stroke-width="2" stroke-linecap="round"/>
<g filter="url(#filter0_d_3605_120198)">
<path d="M250.431 264.13C250.056 260.674 253.964 258.418 256.769 260.471L298.421 290.949C301.252 293.02 300.236 297.473 296.786 298.11L277.841 301.612C276.938 301.779 276.121 302.251 275.525 302.949L263.019 317.606C260.742 320.274 256.378 318.928 255.999 315.441L250.431 264.13Z" fill="#3B0800"/>
<path d="M251.425 264.023C251.143 261.431 254.075 259.738 256.179 261.278L297.831 291.756C299.954 293.31 299.192 296.648 296.605 297.127L277.659 300.63C276.531 300.838 275.509 301.428 274.765 302.301L262.258 316.957C260.551 318.958 257.278 317.949 256.994 315.333L251.425 264.023Z" stroke="white" stroke-width="2" stroke-linejoin="round"/>
</g>
<path d="M34.7617 39.9866C38.0571 39.9866 40.7285 37.2093 40.7285 33.7833C40.7285 30.3574 38.0571 27.5801 34.7617 27.5801C31.4663 27.5801 28.7949 30.3574 28.7949 33.7833C28.7949 37.2093 31.4663 39.9866 34.7617 39.9866Z" fill="#3B0800"/>
<path d="M52.7847 39.9866C56.08 39.9866 58.7514 37.2093 58.7514 33.7833C58.7514 30.3574 56.08 27.5801 52.7847 27.5801C49.4893 27.5801 46.8179 30.3574 46.8179 33.7833C46.8179 37.2093 49.4893 39.9866 52.7847 39.9866Z" fill="#3B0800"/>
<path d="M70.8074 39.9866C74.1027 39.9866 76.7741 37.2093 76.7741 33.7833C76.7741 30.3574 74.1027 27.5801 70.8074 27.5801C67.512 27.5801 64.8406 30.3574 64.8406 33.7833C64.8406 37.2093 67.512 39.9866 70.8074 39.9866Z" fill="#3B0800"/>
<path d="M305 368C305 359.163 312.163 352 321 352H410C418.837 352 426 359.163 426 368V458C426 466.837 418.837 474 410 474H321C312.163 474 305 466.837 305 458V368Z" fill="white" stroke="#42140D" stroke-width="2" stroke-linecap="round"/>
<path d="M457 368C457 359.163 464.163 352 473 352H562C570.837 352 578 359.163 578 368V458C578 466.837 570.837 474 562 474H473C464.163 474 457 466.837 457 458V368Z" fill="white" stroke="#42140D" stroke-width="2" stroke-linecap="round"/>
<path d="M677.181 105.409C685.852 104.927 694.187 107.842 700.656 113.627C707.13 119.412 710.956 127.366 711.444 136.036C712.447 153.923 698.703 169.291 680.813 170.294L501.484 180.335C500.854 180.368 500.236 180.39 499.623 180.39C491.877 180.39 484.494 177.669 478.578 172.614L478.01 172.117C471.738 166.513 467.951 158.873 467.277 150.519L467.221 149.708C466.219 131.821 479.963 116.452 497.852 115.449L677.181 105.409Z" fill="white" stroke="#42140D" stroke-width="2"/>
<path d="M654.144 122.009C658.046 120.538 662.298 120.68 666.103 122.403C669.906 124.126 672.809 127.227 674.28 131.142V131.143C675.751 135.051 675.61 139.296 673.887 143.1C672.164 146.903 669.062 149.805 665.146 151.276H665.146C664.784 151.413 664.418 151.534 664.05 151.646C660.456 152.709 656.638 152.448 653.188 150.883H653.187C649.502 149.214 646.663 146.251 645.151 142.509L645.01 142.144C643.539 138.235 643.68 133.99 645.403 130.186C647.127 126.382 650.228 123.481 654.144 122.01V122.009Z" fill="white" stroke="#42140D" stroke-width="2"/>
<path d="M687 153.057C687.478 153.333 688.09 153.169 688.366 152.691C688.642 152.213 688.478 151.601 688 151.325L687.5 152.191L687 153.057ZM687.5 152.191L688 151.325L673.87 143.167L673.37 144.033L672.87 144.899L687 153.057L687.5 152.191Z" fill="#42140D"/>
<path d="M41 350C41 341.163 48.1634 334 57 334H262C270.837 334 278 341.163 278 350V477C278 485.837 270.837 493 262 493H57C48.1634 493 41 485.837 41 477V350Z" fill="white" stroke="#42140D" stroke-width="2" stroke-linecap="round" stroke-dasharray="4 6"/>
<rect x="50" y="343" width="219" height="141" rx="9" fill="#A7E9D1" stroke="#42140D" stroke-width="2"/>
<path d="M140 382.902V444.722C140 448.583 144.258 450.918 147.516 448.845L196.094 417.936C199.112 416.013 199.112 411.605 196.094 409.683L147.516 378.773C144.258 376.7 140 379.041 140 382.896V382.902Z" fill="white" stroke="#42140D" stroke-width="2" stroke-linecap="round"/>
<path d="M560.398 49H526.602C521.853 49 518 45.193 518 40.5C518 35.807 521.853 32 526.602 32H560.398C565.147 32 569 35.807 569 40.5C569 45.193 565.147 49 560.398 49Z" fill="#3B0800"/>
<path d="M590 41H622" stroke="#42140D" stroke-width="2" stroke-linecap="round"/>
<path d="M653 41H685" stroke="#42140D" stroke-width="2" stroke-linecap="round"/>
<path d="M713 41H745" stroke="#42140D" stroke-width="2" stroke-linecap="round"/>
<path d="M632 219H800C812.703 219 823 229.297 823 242V566C823 578.703 812.703 589 800 589H632C619.297 589 609 578.703 609 566V242C609 229.297 619.297 219 632 219Z" fill="white" stroke="#42140D" stroke-width="2"/>
<path d="M649.5 457H782.5" stroke="#42140D" stroke-width="2" stroke-linecap="round"/>
<path d="M649.5 432H782.5" stroke="#42140D" stroke-width="2" stroke-linecap="round"/>
<path d="M670 482H762" stroke="#42140D" stroke-width="2" stroke-linecap="round"/>
<path d="M457.612 348.326C461.03 341.496 466.433 331.203 469.615 324.286L438.933 312.232C434.115 319.947 430.26 328.98 426.109 337.059L411.503 365.417C408.37 371.461 403.606 378.745 402.653 385.386V415.771C406.996 413.38 429.369 399.853 433.533 397.205C435.813 392.871 437.769 388.563 439.928 384.196L457.612 348.326Z" fill="white" stroke="#42140D" stroke-width="2" stroke-linecap="round" stroke-linejoin="round"/>
<path d="M464.138 318.242C465.143 318.654 465.99 319.026 466.621 319.342C466.937 319.5 467.185 319.637 467.365 319.75C467.565 319.876 467.613 319.93 467.596 319.911C470.024 322.795 469.721 326.558 468.334 330.469C467.648 332.402 466.722 334.296 465.818 336.029C464.932 337.726 464.029 339.336 463.469 340.572C462.299 343.155 459.497 344.871 455.638 345.386C451.796 345.899 447.064 345.186 442.383 343.066C437.702 340.946 434.044 337.86 431.895 334.634C429.737 331.394 429.178 328.156 430.348 325.573C431.768 322.437 433.368 317.87 435.83 314.523C437.045 312.871 438.396 311.629 439.925 311.026C441.416 310.438 443.192 310.41 445.39 311.406C445.928 311.649 447.556 312.224 449.619 312.946C451.718 313.68 454.34 314.591 456.946 315.526C459.553 316.462 462.13 317.419 464.138 318.242Z" fill="#A7E9D1" stroke="#42140D" stroke-width="2"/>
<path d="M458.953 307.823C463.635 309.943 467.293 313.029 469.441 316.255C471.599 319.495 472.158 322.734 470.988 325.317C469.818 327.9 467.016 329.616 463.157 330.132C459.315 330.645 454.583 329.931 449.902 327.811C445.22 325.691 441.563 322.606 439.414 319.38C437.256 316.139 436.697 312.901 437.867 310.318C439.037 307.735 441.839 306.018 445.698 305.503C449.54 304.99 454.272 305.703 458.953 307.823Z" fill="#A7E9D1" stroke="#42140D" stroke-width="2"/>
<path d="M401.94 417.022C403.33 416.233 410.634 412.005 411.966 411.131L401.94 406.996V417.022Z" fill="#42140D"/>
<path d="M432.018 396.971C420.868 396.971 404.447 391.256 404.447 379.426" stroke="#42140D" stroke-width="2" stroke-linecap="round" stroke-linejoin="round"/>
<path d="M440.72 343.633C434.637 354.572 428.756 366.431 422.922 377.547C420.74 381.702 416.859 388.307 415.129 392.354" stroke="#42140D" stroke-width="2" stroke-linecap="round" stroke-linejoin="round"/>
<path d="M374.13 411.24C374.17 415.749 370.33 419.927 365.401 423.362C360.333 419.048 358.24 412.565 359.686 408.392C363.115 398.496 374.048 401.857 374.13 411.24Z" fill="white"/>
<path d="M349.123 431.376C357.493 428.574 374.212 420.623 374.13 411.24C374.048 401.857 363.115 398.496 359.686 408.392C356.257 418.289 372.726 441.174 401.6 417.315" stroke="#42140D" stroke-width="2" stroke-linecap="round" stroke-linejoin="round"/>
<path d="M771.88 258H660.039C648.972 258 640 266.971 640 278.037V389.865C640 400.931 648.972 409.901 660.039 409.901H771.88C782.948 409.901 791.92 400.931 791.92 389.865V278.037C791.92 266.971 782.948 258 771.88 258Z" fill="#42140D"/>
<path d="M780.923 265.575L669.957 251.615C658.976 250.233 648.955 258.014 647.573 268.993L633.615 379.947C632.233 390.926 640.015 400.946 650.996 402.328L761.963 416.288C772.943 417.67 782.965 409.889 784.346 398.91L798.305 287.956C799.686 276.977 791.904 266.957 780.923 265.575Z" fill="#A7E9D1"/>
<path d="M656.689 364.906L685.688 321.356C688.112 317.713 693.585 318.086 695.493 322.032L711.958 356.09C713.553 359.394 717.829 360.326 720.657 357.99L738.451 343.295C741.173 341.041 745.271 341.816 746.996 344.899L765.319 377.744C767.58 381.796 764.272 386.691 759.67 386.112L660.696 373.66C656.527 373.135 654.362 368.408 656.694 364.912L656.689 364.906Z" fill="white"/>
<path d="M685.467 523.527L688.144 528.933C688.205 529.07 688.301 529.189 688.422 529.277C688.543 529.366 688.686 529.421 688.835 529.438L694.745 530.314C694.917 530.336 695.078 530.406 695.211 530.516C695.343 530.626 695.442 530.772 695.495 530.936C695.548 531.101 695.553 531.276 695.51 531.443C695.467 531.61 695.377 531.762 695.251 531.88L690.99 536.106C690.881 536.208 690.8 536.335 690.753 536.476C690.706 536.617 690.695 536.768 690.721 536.915L691.748 542.859C691.778 543.03 691.759 543.206 691.694 543.366C691.629 543.527 691.52 543.666 691.379 543.768C691.239 543.87 691.073 543.93 690.9 543.942C690.727 543.954 690.554 543.917 690.401 543.836L685.08 541.024C684.943 540.957 684.793 540.922 684.642 540.922C684.49 540.922 684.34 540.957 684.204 541.024L678.883 543.836C678.729 543.917 678.557 543.954 678.384 543.942C678.211 543.93 678.045 543.87 677.904 543.768C677.764 543.666 677.655 543.527 677.59 543.366C677.524 543.206 677.506 543.03 677.535 542.859L678.563 536.847C678.589 536.701 678.578 536.55 678.531 536.409C678.483 536.268 678.402 536.141 678.293 536.039L673.982 531.88C673.855 531.759 673.765 531.603 673.724 531.432C673.683 531.261 673.693 531.082 673.751 530.916C673.81 530.75 673.916 530.605 674.055 530.498C674.195 530.391 674.363 530.327 674.538 530.314L680.449 529.438C680.598 529.421 680.74 529.366 680.861 529.277C680.982 529.189 681.078 529.07 681.139 528.933L683.817 523.527C683.889 523.37 684.006 523.236 684.152 523.143C684.298 523.05 684.468 523 684.642 523C684.815 523 684.985 523.05 685.131 523.143C685.277 523.236 685.394 523.37 685.467 523.527Z" fill="#3B0800"/>
<path d="M656.768 533.527L659.445 538.933C659.506 539.07 659.602 539.189 659.723 539.277C659.844 539.366 659.987 539.421 660.136 539.438L666.046 540.314C666.218 540.336 666.379 540.406 666.512 540.516C666.644 540.626 666.743 540.772 666.796 540.936C666.849 541.101 666.854 541.276 666.811 541.443C666.768 541.61 666.678 541.762 666.552 541.88L662.291 546.106C662.182 546.208 662.101 546.335 662.054 546.476C662.007 546.617 661.996 546.768 662.022 546.915L663.049 552.859C663.079 553.03 663.06 553.206 662.995 553.366C662.93 553.527 662.821 553.666 662.68 553.768C662.54 553.87 662.374 553.93 662.201 553.942C662.028 553.954 661.855 553.917 661.702 553.836L656.381 551.024C656.244 550.957 656.094 550.922 655.943 550.922C655.791 550.922 655.641 550.957 655.505 551.024L650.184 553.836C650.03 553.917 649.858 553.954 649.685 553.942C649.512 553.93 649.346 553.87 649.205 553.768C649.065 553.666 648.956 553.527 648.891 553.366C648.825 553.206 648.807 553.03 648.836 552.859L649.864 546.847C649.89 546.701 649.879 546.55 649.832 546.409C649.785 546.268 649.703 546.141 649.594 546.039L645.283 541.88C645.156 541.759 645.066 541.603 645.025 541.432C644.984 541.261 644.994 541.082 645.052 540.916C645.111 540.75 645.217 540.605 645.356 540.498C645.496 540.391 645.664 540.327 645.839 540.314L651.75 539.438C651.899 539.421 652.041 539.366 652.162 539.277C652.283 539.189 652.379 539.07 652.44 538.933L655.118 533.527C655.19 533.37 655.307 533.236 655.453 533.143C655.599 533.05 655.769 533 655.943 533C656.116 533 656.286 533.05 656.432 533.143C656.578 533.236 656.695 533.37 656.768 533.527Z" fill="#3B0800"/>
<path d="M714.166 533.527L716.843 538.933C716.904 539.07 717 539.189 717.121 539.277C717.242 539.366 717.384 539.421 717.533 539.438L723.444 540.314C723.615 540.336 723.777 540.406 723.909 540.516C724.042 540.626 724.141 540.772 724.194 540.936C724.247 541.101 724.252 541.276 724.209 541.443C724.165 541.61 724.075 541.762 723.949 541.88L719.689 546.106C719.58 546.208 719.499 546.335 719.452 546.476C719.404 546.617 719.393 546.768 719.42 546.915L720.447 552.859C720.476 553.03 720.458 553.206 720.392 553.366C720.327 553.527 720.218 553.666 720.078 553.768C719.938 553.87 719.771 553.93 719.598 553.942C719.426 553.954 719.253 553.917 719.1 553.836L713.778 551.024C713.642 550.957 713.492 550.922 713.34 550.922C713.189 550.922 713.039 550.957 712.903 551.024L707.581 553.836C707.428 553.917 707.255 553.954 707.082 553.942C706.909 553.93 706.743 553.87 706.603 553.768C706.463 553.666 706.354 553.527 706.288 553.366C706.223 553.206 706.204 553.03 706.234 552.859L707.261 546.847C707.287 546.701 707.276 546.55 707.229 546.409C707.182 546.268 707.101 546.141 706.992 546.039L702.681 541.88C702.553 541.759 702.464 541.603 702.423 541.432C702.382 541.261 702.391 541.082 702.45 540.916C702.509 540.75 702.614 540.605 702.754 540.498C702.894 540.391 703.061 540.327 703.237 540.314L709.147 539.438C709.297 539.421 709.439 539.366 709.56 539.277C709.681 539.189 709.777 539.07 709.838 538.933L712.515 533.527C712.588 533.37 712.705 533.236 712.851 533.143C712.997 533.05 713.167 533 713.34 533C713.514 533 713.684 533.05 713.83 533.143C713.976 533.236 714.093 533.37 714.166 533.527Z" fill="#3B0800"/>
<path d="M742.865 523.527L745.542 528.933C745.603 529.07 745.699 529.189 745.82 529.277C745.941 529.366 746.083 529.421 746.232 529.438L752.143 530.314C752.314 530.336 752.476 530.406 752.608 530.516C752.741 530.626 752.84 530.772 752.893 530.936C752.946 531.101 752.951 531.276 752.908 531.443C752.864 531.61 752.774 531.762 752.648 531.88L748.388 536.106C748.279 536.208 748.198 536.335 748.151 536.476C748.103 536.617 748.092 536.768 748.118 536.915L749.146 542.859C749.175 543.03 749.157 543.206 749.091 543.366C749.026 543.527 748.917 543.666 748.777 543.768C748.637 543.87 748.47 543.93 748.297 543.942C748.124 543.954 747.952 543.917 747.799 543.836L742.477 541.024C742.341 540.957 742.191 540.922 742.039 540.922C741.888 540.922 741.738 540.957 741.602 541.024L736.28 543.836C736.127 543.917 735.954 543.954 735.781 543.942C735.608 543.93 735.442 543.87 735.302 543.768C735.162 543.666 735.053 543.527 734.987 543.366C734.922 543.206 734.903 543.03 734.933 542.859L735.96 536.847C735.986 536.701 735.975 536.55 735.928 536.409C735.881 536.268 735.8 536.141 735.691 536.039L731.38 531.88C731.252 531.759 731.163 531.603 731.122 531.432C731.081 531.261 731.09 531.082 731.149 530.916C731.208 530.75 731.313 530.605 731.453 530.498C731.593 530.391 731.76 530.327 731.936 530.314L737.846 529.438C737.996 529.421 738.138 529.366 738.259 529.277C738.38 529.189 738.476 529.07 738.537 528.933L741.214 523.527C741.287 523.37 741.404 523.236 741.55 523.143C741.696 523.05 741.866 523 742.039 523C742.213 523 742.383 523.05 742.529 523.143C742.675 523.236 742.792 523.37 742.865 523.527Z" fill="#3B0800"/>
<path d="M771.563 533.527L774.241 538.933C774.302 539.07 774.398 539.189 774.519 539.277C774.64 539.366 774.782 539.421 774.931 539.438L780.842 540.314C781.013 540.336 781.175 540.406 781.307 540.516C781.44 540.626 781.539 540.772 781.592 540.936C781.645 541.101 781.65 541.276 781.606 541.443C781.563 541.61 781.473 541.762 781.347 541.88L777.087 546.106C776.978 546.208 776.897 546.335 776.849 546.476C776.802 546.617 776.791 546.768 776.817 546.915L777.845 552.859C777.874 553.03 777.856 553.206 777.79 553.366C777.725 553.527 777.616 553.666 777.476 553.768C777.335 553.87 777.169 553.93 776.996 553.942C776.823 553.954 776.651 553.917 776.497 553.836L771.176 551.024C771.04 550.957 770.89 550.922 770.738 550.922C770.587 550.922 770.437 550.957 770.301 551.024L764.979 553.836C764.826 553.917 764.653 553.954 764.48 553.942C764.307 553.93 764.141 553.87 764.001 553.768C763.86 553.666 763.752 553.527 763.686 553.366C763.621 553.206 763.602 553.03 763.632 552.859L764.659 546.847C764.685 546.701 764.674 546.55 764.627 546.409C764.58 546.268 764.499 546.141 764.39 546.039L760.079 541.88C759.951 541.759 759.862 541.603 759.821 541.432C759.78 541.261 759.789 541.082 759.848 540.916C759.907 540.75 760.012 540.605 760.152 540.498C760.292 540.391 760.459 540.327 760.635 540.314L766.545 539.438C766.694 539.421 766.837 539.366 766.958 539.277C767.079 539.189 767.175 539.07 767.236 538.933L769.913 533.527C769.986 533.37 770.103 533.236 770.249 533.143C770.395 533.05 770.565 533 770.738 533C770.912 533 771.082 533.05 771.228 533.143C771.374 533.236 771.491 533.37 771.563 533.527Z" fill="#3B0800"/>
<defs>
<filter id="filter0_d_3605_120198" x="246.406" y="259.689" width="53.657" height="63.3242" filterUnits="userSpaceOnUse" color-interpolation-filters="sRGB">
<feFlood flood-opacity="0" result="BackgroundImageFix"/>
<feColorMatrix in="SourceAlpha" type="matrix" values="0 0 0 0 0 0 0 0 0 0 0 0 0 0 0 0 0 0 127 0" result="hardAlpha"/>
<feOffset dx="-4" dy="4"/>
<feComposite in2="hardAlpha" operator="out"/>
<feColorMatrix type="matrix" values="0 0 0 0 0.231373 0 0 0 0 0.0313726 0 0 0 0 0 0 0 0 0.2 0"/>
<feBlend mode="normal" in2="BackgroundImageFix" result="effect1_dropShadow_3605_120198"/>
<feBlend mode="normal" in="SourceGraphic" in2="effect1_dropShadow_3605_120198" result="shape"/>
</filter>
</defs>
</svg>
