<svg width="1088" height="648" viewBox="0 0 1088 648" fill="none" xmlns="http://www.w3.org/2000/svg">
<g clip-path="url(#clip0_3605_120377)">
<path d="M882.523 190.386L891.323 157.545L872.971 152.627L864.171 185.468" fill="#E5E7FA"/>
<path d="M882.523 190.386L891.323 157.545L872.971 152.627L864.171 185.468L882.523 190.386Z" stroke="#42140D" stroke-width="2" stroke-linecap="round" stroke-linejoin="round"/>
<path d="M864.171 185.468L880.736 123.649L861.417 118.473L844.853 180.292" fill="#B3B5EE"/>
<path d="M864.171 185.468L880.736 123.649L861.417 118.473L844.853 180.292L864.171 185.468Z" stroke="#42140D" stroke-width="2" stroke-linecap="round" stroke-linejoin="round"/>
<path d="M901.842 195.561L914.525 148.231L895.206 143.055L882.524 190.385" fill="white"/>
<path d="M901.842 195.561L914.525 148.231L895.206 143.055L882.524 190.385L901.842 195.561Z" stroke="#42140D" stroke-width="2" stroke-linecap="round" stroke-linejoin="round"/>
<line x1="838.091" y1="178.48" x2="908.604" y2="197.374" stroke="#42140D" stroke-width="2" stroke-linecap="round"/>
<g clip-path="url(#clip1_3605_120377)">
<path d="M590.812 131.064C599.783 131.064 608.582 133.909 616.25 139.312V139.312C625.437 145.781 631.978 154.072 635.411 163.427C636.278 165.788 638.581 167.44 641.188 167.267C643.841 167.09 646.822 166.946 649.851 166.946C659.691 166.946 673.979 168.237 686.553 179.109L686.554 179.11C692.407 184.162 696.892 190.397 699.555 197.097C699.555 197.098 699.556 197.1 699.557 197.102C699.565 197.125 699.578 197.164 699.596 197.217C699.631 197.322 699.683 197.48 699.749 197.685C699.881 198.095 700.066 198.693 700.283 199.441C700.717 200.938 701.275 203.029 701.778 205.42C702.319 207.986 704.509 209.83 707.051 210.083C721.274 211.501 732.589 220.702 736.604 234.36L736.789 235.015C737.708 238.381 738.253 241.898 738.451 245.906C738.57 248.302 740.157 250.373 742.418 251.136C751.873 254.323 758.995 259.467 763.737 266.394V266.395C767.71 272.208 771.737 282.072 769.07 296.743C768.583 299.422 770.012 302.117 772.528 303.191C790.632 310.921 801.24 324.882 802.765 342.895C802.763 342.954 802.763 343.014 802.768 343.074C803.722 354.907 800 366.143 791.947 375.593C790.473 377.321 786.339 381.195 782.454 384.483L781.682 385.133C780.815 385.853 780.592 387.067 781.092 388.042C781.324 388.494 781.546 388.95 781.751 389.397L781.785 389.473L781.827 389.543C786.881 397.991 788.129 407.874 785.298 417.338V417.339C783.023 424.952 778.268 431.839 771.73 437.039C769.76 438.607 768.954 441.271 769.793 443.673C774.914 458.337 772.962 472.964 764.555 483.457V483.458C759.637 489.601 753.382 494.133 746.327 496.731C743.974 497.598 742.326 499.876 742.437 502.464C742.843 511.945 741.894 519.967 739.604 526.914L739.378 527.583C734.345 542.168 723.179 551.598 706.878 554.9L706.098 555.053C704.051 555.435 697.035 556.155 690.578 556.155C688.355 556.155 686.449 557.593 685.684 559.586C680.281 573.657 666.916 579.841 662.141 582.028L662.139 582.029C657.439 584.189 652.212 585.289 646.576 585.289C645.569 585.289 644.552 585.255 643.516 585.187C640.717 585.003 638.163 586.822 637.397 589.508C632.696 605.997 619.682 619.085 603.362 623.443L603.361 623.444C599.665 624.434 595.76 624.936 591.769 624.936C581.211 624.935 570.317 621.333 561.716 615.028L560.891 614.409C557.357 611.695 554.326 608.608 551.846 605.239C550.978 604.061 549.643 603.292 548.255 602.818C546.848 602.338 545.255 602.115 543.693 602.121C542.132 602.128 540.538 602.364 539.133 602.853C537.746 603.334 536.414 604.107 535.546 605.276C531.638 610.539 526.26 615.076 519.429 618.754L518.763 619.107C511.346 622.99 503.753 624.936 496.188 624.936C487.498 624.936 478.969 622.266 471.473 617.188L470.75 616.688C461.563 610.22 455.023 601.928 451.59 592.573C450.75 590.286 448.562 588.664 446.056 588.723L445.812 588.734C443.159 588.911 440.178 589.055 437.149 589.055C427.309 589.055 413.021 587.764 400.447 576.892L400.446 576.891L399.901 576.413C394.314 571.448 390.025 565.394 387.445 558.903C387.445 558.902 387.443 558.9 387.442 558.897C387.434 558.874 387.422 558.836 387.404 558.784C387.369 558.679 387.317 558.521 387.251 558.315C387.12 557.905 386.935 557.307 386.718 556.56C386.284 555.063 385.726 552.971 385.223 550.58C384.682 548.014 382.492 546.171 379.95 545.917C365.501 544.477 354.053 535.005 350.211 520.987H350.212C349.292 517.62 348.747 514.102 348.549 510.094C348.43 507.697 346.843 505.626 344.582 504.864C335.422 501.777 328.452 496.852 323.714 490.249L323.262 489.605C319.289 483.792 315.264 473.928 317.931 459.257C318.418 456.578 316.988 453.884 314.472 452.81C296.599 445.179 286.032 431.474 284.298 413.793L284.222 412.948C283.294 401.47 286.758 390.573 294.31 381.299L295.053 380.407C296.626 378.564 301.225 374.279 305.319 370.867L305.318 370.866C306.185 370.146 306.408 368.933 305.908 367.958C305.676 367.506 305.455 367.05 305.25 366.603L305.216 366.528L305.173 366.458L304.711 365.661C300.196 357.658 299.034 348.447 301.449 339.551L301.702 338.662C303.977 331.049 308.731 324.161 315.27 318.961C317.24 317.393 318.046 314.73 317.207 312.328C312.086 297.664 314.038 283.036 322.445 272.543V272.542C327.363 266.399 333.618 261.867 340.673 259.269C343.026 258.402 344.674 256.124 344.563 253.536C344.144 243.749 345.168 235.518 347.622 228.418L347.623 228.417C352.735 213.601 364.175 204.105 380.899 200.947L380.9 200.948C382.944 200.566 389.963 199.845 396.422 199.845C398.645 199.845 400.551 198.408 401.316 196.415C406.719 182.344 420.084 176.16 424.859 173.973L424.861 173.972C429.561 171.812 434.788 170.712 440.425 170.712C441.432 170.712 442.448 170.746 443.484 170.814C446.283 170.998 448.837 169.179 449.603 166.493C454.304 150.003 467.318 136.915 483.638 132.557H483.639C487.335 131.567 491.24 131.064 495.231 131.064C505.789 131.064 516.683 134.668 525.284 140.973L526.109 141.591C529.643 144.305 532.674 147.392 535.154 150.761C536.022 151.939 537.357 152.709 538.745 153.183C540.152 153.663 541.745 153.885 543.307 153.879C544.868 153.872 546.462 153.637 547.867 153.148C549.254 152.667 550.586 151.894 551.454 150.725C555.488 145.292 561.089 140.632 568.237 136.893H568.238C575.655 133.01 583.247 131.065 590.812 131.064ZM387.435 558.876L387.438 558.887L387.431 558.866C387.432 558.87 387.434 558.873 387.435 558.876Z" fill="white" stroke="#42140D" stroke-width="3"/>
<path d="M590.079 145.464V145V145.464ZM591.06 614C583.258 614 575.188 611.322 568.812 606.644L568.199 606.185C561.356 600.921 557.222 593.795 556.485 586.124H556.484C556.165 581.868 556.038 544.746 556.008 493.143C555.978 441.58 556.044 375.639 556.107 313.823V313.315C556.177 245.211 556.233 186.373 556.106 177.591V177.59C556.017 171.518 557.405 166.294 560.281 161.811C563.071 157.46 567.3 153.747 573.07 150.634L573.634 150.335C579.053 147.498 584.494 146.052 589.824 146.003C589.916 146.03 590.013 146.046 590.115 146.046H590.114C596.353 146.051 602.509 148.065 607.947 151.891H607.946C615.477 157.21 620.616 163.987 622.908 171.518L623.121 172.249L625.129 179.486C625.771 181.801 627.969 183.332 630.362 183.133L637.851 182.509H637.853C640.969 182.244 645.05 181.947 649.122 181.947C657.345 181.947 667.723 182.96 676.774 190.546L677.204 190.912C681.362 194.52 684.553 198.863 686.449 203.494C686.776 204.537 688.015 208.56 688.709 213.015L689.9 220.652C690.279 223.079 692.364 224.872 694.82 224.882L702.557 224.913C712.828 224.957 720.752 230.891 723.348 240.382L723.349 240.383L723.504 240.972C724.256 243.936 724.616 247.205 724.627 251.22V251.221L724.65 258.098C724.658 260.34 726.158 262.303 728.319 262.9L734.951 264.731C742.933 266.936 748.659 270.666 752.108 275.729V275.73L752.369 276.122C755.065 280.28 757.624 287.651 754.696 299.416L752.721 307.357C752.102 309.845 753.464 312.398 755.876 313.268L763.568 316.042C774.265 319.902 787.036 328.072 788.817 345.278L788.894 346.104C789.574 354.513 786.996 362.23 781.175 369.071L781.173 369.073C780.471 369.903 776.735 373.522 772.514 377.041L771.696 377.722L765.854 382.506C763.986 384.036 763.479 386.684 764.649 388.797L768.312 395.41C768.58 395.9 768.834 396.398 769.065 396.893L769.364 397.536L769.384 397.579L769.408 397.62L769.766 398.23L769.77 398.238L770.064 398.746C773.037 404.009 773.684 409.814 771.953 415.616C770.25 421.309 766.185 426.667 760.771 430.283L754.532 434.449C752.536 435.783 751.769 438.347 752.706 440.558L755.633 447.467V447.468C760.407 458.73 759.529 469.864 753.548 477.34V477.341C749.728 482.123 744.789 485.475 739.262 487.094L738.726 487.245L731.477 489.205C729.16 489.832 727.614 492.017 727.796 494.41L728.364 501.897V501.898C729.096 511.485 728.369 519.164 726.215 525.424C724.407 530.662 721.61 534.79 717.783 537.897C713.951 541.009 709.036 543.138 702.93 544.29C701.841 544.495 695.681 545.171 689.847 545.171C688.989 545.171 688.152 545.171 687.33 545.127L687.322 545.126H687.314L680.202 544.854C677.901 544.766 675.838 546.261 675.204 548.475L673.243 555.323C670.642 564.408 662.772 569.111 655.908 572.267H655.907C652.953 573.628 649.571 574.33 645.848 574.33C644.173 574.33 642.422 574.196 640.514 573.925H640.513L632.004 572.718C629.372 572.344 626.908 574.096 626.396 576.704L624.74 585.13C622.09 598.612 612.066 609.527 599.252 612.951C596.653 613.643 593.903 614 591.06 614Z" fill="#E5E7FA" stroke="#42140D" stroke-width="2"/>
<path d="M497.921 614.536V615V614.536ZM496.94 146C504.742 146 512.812 148.678 519.188 153.356L519.801 153.815C526.644 159.079 530.778 166.205 531.515 173.876H531.516C531.835 178.132 531.962 215.254 531.992 266.857C532.022 318.42 531.956 384.361 531.893 446.177V446.685C531.823 514.789 531.767 573.627 531.894 582.409V582.41C531.983 588.482 530.595 593.706 527.719 598.189C524.929 602.54 520.7 606.253 514.93 609.366L514.366 609.665C508.947 612.502 503.506 613.948 498.176 613.997C498.084 613.97 497.987 613.954 497.885 613.954H497.886C491.647 613.949 485.491 611.935 480.053 608.109H480.054C472.523 602.79 467.384 596.013 465.092 588.482L464.879 587.751L462.871 580.514C462.229 578.199 460.031 576.668 457.638 576.867L450.149 577.491H450.147C447.031 577.756 442.95 578.053 438.878 578.053C430.655 578.053 420.277 577.04 411.226 569.454L410.796 569.088C406.638 565.48 403.447 561.137 401.551 556.506C401.224 555.463 399.985 551.44 399.291 546.985L398.1 539.348C397.721 536.921 395.636 535.128 393.18 535.118L385.443 535.087C375.172 535.043 367.248 529.109 364.652 519.618L364.651 519.617L364.496 519.028C363.744 516.064 363.384 512.795 363.373 508.78V508.779L363.35 501.902C363.342 499.66 361.842 497.697 359.681 497.1L353.049 495.269C345.067 493.064 339.341 489.334 335.892 484.271V484.27L335.631 483.878C332.935 479.72 330.376 472.349 333.304 460.584L335.279 452.643C335.898 450.155 334.536 447.602 332.124 446.732L324.432 443.958C313.735 440.098 300.964 431.928 299.183 414.722L299.106 413.896C298.426 405.487 301.004 397.77 306.825 390.929L306.827 390.927C307.529 390.097 311.265 386.478 315.486 382.959L316.304 382.278L322.146 377.494C324.014 375.964 324.521 373.316 323.351 371.203L319.688 364.59C319.42 364.1 319.166 363.602 318.935 363.107L318.636 362.464L318.616 362.421L318.592 362.38L318.234 361.77L318.23 361.762L317.936 361.254C314.963 355.991 314.316 350.186 316.047 344.384C317.75 338.691 321.815 333.333 327.229 329.717L333.468 325.551C335.464 324.217 336.231 321.653 335.294 319.442L332.367 312.533V312.532C327.593 301.27 328.471 290.136 334.452 282.66V282.659C338.272 277.877 343.211 274.525 348.738 272.906L349.274 272.755L356.523 270.795C358.84 270.168 360.386 267.983 360.204 265.59L359.636 258.103V258.102C358.904 248.515 359.631 240.836 361.785 234.576C363.593 229.338 366.39 225.21 370.217 222.103C374.049 218.991 378.964 216.862 385.07 215.71C386.159 215.505 392.319 214.829 398.153 214.829C399.011 214.829 399.848 214.829 400.67 214.873L400.678 214.874H400.686L407.798 215.146C410.099 215.234 412.162 213.739 412.796 211.525L414.757 204.677C417.358 195.592 425.228 190.889 432.092 187.733H432.093C435.047 186.372 438.429 185.67 442.152 185.67C443.827 185.67 445.578 185.804 447.486 186.075H447.487L455.996 187.282C458.628 187.656 461.092 185.904 461.604 183.296L463.26 174.87C465.91 161.388 475.934 150.473 488.748 147.049C491.347 146.357 494.097 146 496.94 146Z" stroke="#42140D" stroke-width="2"/>
<path d="M476.73 333.83C476.73 333.83 512.579 306.65 488.446 280.173C481.349 273.077 474.42 269.447 468 268.014" stroke="#42140D" stroke-width="2" stroke-linecap="round"/>
<path d="M357.5 270.5C357.5 270.5 370.315 265.601 387.992 275.558C388.349 275.759 388.688 276.031 388.957 276.34C404.618 294.303 379.5 314.5 379.5 314.5" stroke="#42140D" stroke-width="2" stroke-linecap="round"/>
<path d="M454.168 535.158C448.899 540.536 439.789 553.747 445.496 563.558M474.112 541.182C476.135 549.788 486.945 567 514 567M390 535.158C419.049 535.158 423.385 496 423.385 496C423.385 496 433.14 535.158 474.112 513.212" stroke="#42140D" stroke-width="2" stroke-linecap="round"/>
<path d="M487.039 500.42C479.621 488.587 487.114 476.754 491.253 471.644C492.521 470.079 492.721 467.779 491.945 465.92C488.968 458.785 485.915 440.382 520.545 421.693" stroke="#42140D" stroke-width="2" stroke-linecap="round"/>
<path d="M395.66 392.873C419.135 413.481 438.225 396.672 445.906 387.626C447.765 385.436 451.484 385.347 453.513 387.381C462.848 396.736 487.848 413.775 519.608 371.551" stroke="#42140D" stroke-width="2" stroke-linecap="round"/>
<path d="M460.575 361.794C449.534 350.753 435.707 351.841 424.596 355.724C420.377 357.199 410.462 349.32 410.183 344.86C409.497 333.883 402.808 321.41 379.392 314.409" stroke="#42140D" stroke-width="2" stroke-linecap="round"/>
<path d="M442.052 464.804C433.531 453.605 432.754 445.076 435.69 438.796C439.536 430.569 449.753 426.199 457.282 424.737M365.434 355.148C352.836 381 349.25 433.922 435.69 438.796" stroke="#42140D" stroke-width="2" stroke-linecap="round"/>
<path d="M363.091 410.445C350.283 422.551 333.756 450.371 370.121 464.804" stroke="#42140D" stroke-width="2" stroke-linecap="round"/>
<path d="M447.676 305.242C457.126 312.584 470.357 332.609 447.676 353.978" stroke="#42140D" stroke-width="2" stroke-linecap="round"/>
<path d="M460.843 305.49C434.62 306.791 389.951 294.833 421.063 236.59" stroke="#42140D" stroke-width="2" stroke-linecap="round"/>
<path d="M515.5 235C510.24 233.758 501.046 236.559 499.961 250.59" stroke="#42140D" stroke-width="2" stroke-linecap="round"/>
<path d="M517.67 312.418C515.572 307.438 508.383 299.326 496.411 306.722" stroke="#42140D" stroke-width="2" stroke-linecap="round"/>
<path d="M476.405 241.979C472.332 224.554 454.928 205.382 420.814 222.031C418.779 223.024 416.264 222.263 415.419 220.163C414.145 216.996 413.406 214.116 413.128 211.5" stroke="#42140D" stroke-width="2" stroke-linecap="round"/>
<path d="M753 434.387C753 434.387 746.829 436.827 738.277 431.971C737.918 431.767 737.587 431.495 737.329 431.173C730.043 422.096 742.18 412 742.18 412" stroke="#42140D" stroke-width="2" stroke-linecap="round"/>
<path d="M609.433 219.82C607.41 211.214 596.599 194.002 569.545 194.002M693.545 225.844C664.496 225.844 660.16 265.002 660.16 265.002" stroke="#42140D" stroke-width="2" stroke-linecap="round"/>
<path d="M709.506 442.002C716.924 453.835 709.431 465.668 705.292 470.778C704.024 472.343 703.824 474.643 704.6 476.502C707.577 483.637 710.63 502.04 676 520.729" stroke="#42140D" stroke-width="2" stroke-linecap="round"/>
<path d="M702.028 388.925C704.093 390.99 706.355 392.198 708.667 392.797C712.992 393.919 728.592 404.233 731.964 407.165C734.289 409.187 737.592 410.997 742.209 412.378" stroke="#42140D" stroke-width="2" stroke-linecap="round"/>
<path d="M720.454 350.553C733.262 338.447 749.789 310.627 713.424 296.194" stroke="#42140D" stroke-width="2" stroke-linecap="round"/>
<path d="M708 417C703.472 413.385 697.133 403.523 708 393" stroke="#42140D" stroke-width="2" stroke-linecap="round"/>
<path d="M578.045 555.998C583.305 557.24 592.499 554.439 593.584 540.408" stroke="#42140D" stroke-width="2" stroke-linecap="round"/>
<path d="M555 469.008H581.276C583.676 469.008 585.619 470.948 585.619 473.345V512.524C585.619 514.921 587.562 516.861 589.962 516.861H627.125" stroke="#42140D" stroke-width="2"/>
<path d="M555 286.518H581.276C583.676 286.518 585.619 284.577 585.619 282.181V243.002C585.619 240.605 587.562 238.665 589.962 238.665H611.807" stroke="#42140D" stroke-width="2"/>
<path d="M555 363.008H581.276C583.676 363.008 585.619 364.948 585.619 367.345V382.196C585.619 384.592 587.562 386.533 589.962 386.533H612.708" stroke="#42140D" stroke-width="2"/>
<path d="M556.613 435.266H649.651" stroke="#42140D" stroke-width="2"/>
<path d="M556.844 319.758H649.651" stroke="#42140D" stroke-width="2"/>
<path d="M630 222C639.389 222 647 229.611 647 239C647 248.389 639.389 256 630 256C620.611 256 613 248.389 613 239C613 229.611 620.611 222 630 222Z" stroke="#42140D" stroke-width="2"/>
<path d="M630 246C633.866 246 637 242.866 637 239C637 235.134 633.866 232 630 232C626.134 232 623 235.134 623 239C623 242.866 626.134 246 630 246Z" fill="#B3B5EE"/>
<path d="M642 524C645.866 524 649 520.866 649 517C649 513.134 645.866 510 642 510C638.134 510 635 513.134 635 517C635 520.866 638.134 524 642 524Z" fill="#B3B5EE"/>
<path d="M635.771 364.008C648.418 364.008 658.669 374.246 658.669 386.872C658.669 399.498 648.418 409.736 635.771 409.736C623.125 409.736 612.875 399.498 612.875 386.872C612.875 374.246 623.125 364.008 635.771 364.008Z" stroke="#42140D" stroke-width="2"/>
<path d="M636 399C629.373 399 624 393.627 624 387C624 380.373 629.373 375 636 375C642.627 375 648 380.373 648 387C648 393.627 642.627 399 636 399Z" fill="#B3B5EE"/>
<path d="M659.562 425.281C664.981 425.281 669.374 429.674 669.374 435.094C669.374 440.513 664.981 444.906 659.562 444.906C654.142 444.906 649.749 440.513 649.749 435.094C649.749 429.674 654.142 425.281 659.562 425.281Z" stroke="#42140D" stroke-width="2"/>
<path d="M659.562 309.945C664.981 309.945 669.374 314.339 669.374 319.758C669.374 325.177 664.981 329.57 659.562 329.57C654.142 329.57 649.749 325.177 649.749 319.758C649.749 314.339 654.142 309.945 659.562 309.945Z" stroke="#42140D" stroke-width="2"/>
<path d="M659.5 325C662.538 325 665 322.538 665 319.5C665 316.462 662.538 314 659.5 314C656.462 314 654 316.462 654 319.5C654 322.538 656.462 325 659.5 325Z" fill="#B3B5EE"/>
<path d="M659.5 441C662.538 441 665 438.538 665 435.5C665 432.462 662.538 430 659.5 430C656.462 430 654 432.462 654 435.5C654 438.538 656.462 441 659.5 441Z" fill="#B3B5EE"/>
<path d="M641.991 501.869C650.147 501.869 656.759 508.481 656.759 516.638C656.759 524.794 650.147 531.405 641.991 531.405C633.835 531.405 627.223 524.794 627.223 516.638C627.223 508.481 633.835 501.869 641.991 501.869Z" stroke="#42140D" stroke-width="2"/>
</g>
<path d="M263.837 193.904L228 211.822L245.918 175.986H263.837V193.904ZM357.847 117.845L281.834 168.521L310.334 171.693L281.826 193.867V168.524L269.16 155.858L319.833 79.8398L373.687 64L357.847 117.845ZM269.167 155.845L241.438 158.228L265.986 127.346L269.167 155.845Z" fill="white"/>
<path d="M345.179 92.5039L329.339 95.6755L326.176 111.506L342.007 108.344L345.179 92.5039Z" fill="#B3B5EE"/>
<path d="M284.747 132.461L265.987 127.346L241.438 158.228L269.167 155.845" fill="#B3B5EE"/>
<path d="M305.219 152.934L310.335 171.694L281.827 193.868V168.523" fill="#B3B5EE"/>
<path d="M281.828 168.527L269.16 155.859L319.833 79.8399L373.687 64L357.847 117.845L281.828 168.527Z" stroke="#42140D" stroke-width="2" stroke-linecap="round" stroke-linejoin="round"/>
<path d="M284.747 132.461L265.987 127.346L241.438 158.228L269.167 155.845" stroke="#42140D" stroke-width="2" stroke-linecap="round" stroke-linejoin="round"/>
<path d="M305.219 152.934L310.335 171.694L281.827 193.868V168.523" stroke="#42140D" stroke-width="2" stroke-linecap="round" stroke-linejoin="round"/>
<path d="M279.292 140.654L296.602 157.963" stroke="#42140D" stroke-width="2" stroke-linecap="round" stroke-linejoin="round"/>
<path d="M345.179 92.5039L329.339 95.6755L326.176 111.506L342.007 108.344L345.179 92.5039Z" stroke="#42140D" stroke-width="2" stroke-linecap="round" stroke-linejoin="round"/>
<path d="M263.837 175.986H245.918L228 211.823L263.837 193.905V175.986Z" stroke="#42140D" stroke-width="2" stroke-linecap="round" stroke-linejoin="round"/>
<path d="M332.012 519.052C340.683 518.569 349.018 521.485 355.486 527.27C361.96 533.054 365.786 541.009 366.274 549.679C367.277 567.566 353.533 582.934 335.644 583.937L156.314 593.978C155.684 594.01 155.066 594.032 154.453 594.032C146.707 594.032 139.325 591.312 133.408 586.257L132.84 585.76C126.568 580.156 122.782 572.516 122.107 564.161L122.052 563.351C121.049 545.464 134.793 530.095 152.683 529.092L332.012 519.052Z" fill="white" stroke="#42140D" stroke-width="2"/>
<path d="M308.974 535.651C312.877 534.181 317.128 534.323 320.933 536.046C324.736 537.769 327.639 540.87 329.11 544.784V544.785C330.581 548.693 330.44 552.938 328.717 556.742C326.994 560.545 323.892 563.448 319.977 564.919H319.976C319.614 565.055 319.249 565.177 318.88 565.289C315.286 566.352 311.468 566.09 308.018 564.525H308.017C304.332 562.856 301.493 559.894 299.981 556.151L299.84 555.786C298.369 551.878 298.51 547.632 300.233 543.828C301.957 540.025 305.059 537.124 308.974 535.652V535.651Z" fill="white" stroke="#42140D" stroke-width="2"/>
<path d="M341.83 566.7C342.308 566.976 342.92 566.812 343.196 566.334C343.472 565.855 343.308 565.244 342.83 564.968L342.33 565.834L341.83 566.7ZM342.33 565.834L342.83 564.968L328.701 556.81L328.2 557.676L327.7 558.542L341.83 566.7L342.33 565.834Z" fill="#42140D"/>
<path d="M162.533 428.905C158.799 420.897 162.264 411.377 170.272 407.642L261.502 365.101C269.51 361.367 279.03 364.832 282.764 372.841L306.854 424.5C310.588 432.509 307.123 442.028 299.115 445.763L207.885 488.304C199.877 492.038 190.357 488.573 186.623 480.565L162.533 428.905Z" fill="white" stroke="#42140D" stroke-width="2" stroke-linecap="round" stroke-dasharray="4 6"/>
<rect x="163.051" y="417.054" width="121.704" height="78.044" rx="9" transform="rotate(-25 163.051 417.054)" fill="#B3B5EE" stroke="#42140D" stroke-width="2"/>
<path d="M217.563 415.793L232.187 447.155C233.1 449.114 235.813 449.291 236.975 447.469L254.307 420.297C255.383 418.608 254.34 416.371 252.355 416.11L220.399 411.921C218.256 411.64 216.65 413.835 217.562 415.791L217.563 415.793Z" fill="white" stroke="#42140D" stroke-width="2" stroke-linecap="round"/>
<rect x="713.996" y="219.064" width="230.883" height="154.936" rx="3" fill="white" stroke="#42140D" stroke-width="2"/>
<rect x="721.536" y="238.33" width="215.804" height="127.845" rx="3" fill="white" stroke="#42140D" stroke-width="2"/>
<path d="M738.127 290.736H759.907" stroke="#42140D" stroke-width="2" stroke-linecap="round"/>
<path d="M744.828 350.42H766.608" stroke="#42140D" stroke-width="2" stroke-linecap="round"/>
<path d="M744.828 278.799H766.608" stroke="#42140D" stroke-width="2" stroke-linecap="round"/>
<path d="M733.938 254.922H755.718" stroke="#42140D" stroke-width="2" stroke-linecap="round"/>
<path d="M744.828 326.547H833.625" stroke="#42140D" stroke-width="2" stroke-linecap="round"/>
<path d="M744.828 314.609H833.625" stroke="#42140D" stroke-width="2" stroke-linecap="round"/>
<path d="M744.828 302.672H833.625" stroke="#42140D" stroke-width="2" stroke-linecap="round"/>
<path d="M744.828 266.859H811.845" stroke="#42140D" stroke-width="2" stroke-linecap="round"/>
<path d="M744.828 338.484H811.845" stroke="#42140D" stroke-width="2" stroke-linecap="round"/>
<path d="M723.308 229.927C724.286 229.927 725.078 229.103 725.078 228.086C725.078 227.07 724.286 226.246 723.308 226.246C722.331 226.246 721.538 227.07 721.538 228.086C721.538 229.103 722.331 229.927 723.308 229.927Z" fill="#3B0800"/>
<path d="M728.656 229.927C729.633 229.927 730.426 229.103 730.426 228.086C730.426 227.07 729.633 226.246 728.656 226.246C727.678 226.246 726.886 227.07 726.886 228.086C726.886 229.103 727.678 229.927 728.656 229.927Z" fill="#3B0800"/>
<path d="M734.003 229.927C734.98 229.927 735.773 229.103 735.773 228.086C735.773 227.07 734.98 226.246 734.003 226.246C733.025 226.246 732.232 227.07 732.232 228.086C732.232 229.103 733.025 229.927 734.003 229.927Z" fill="#3B0800"/>
<path d="M789.312 527.627H736.438L710 540.845V620.157L736.438 633.375H789.312L815.749 620.157V540.845L789.312 527.627Z" fill="white"/>
<path d="M815.749 620.155V540.844L789.312 554.062H736.438L710 540.844V620.155" stroke="#42140D" stroke-width="2" stroke-linecap="round" stroke-linejoin="round"/>
<path d="M815.749 567.281L789.312 580.5H736.438L710 567.281" stroke="#42140D" stroke-width="2" stroke-linecap="round" stroke-linejoin="round"/>
<path d="M815.749 593.715L789.312 606.933H736.438L710 593.715" stroke="#42140D" stroke-width="2" stroke-linecap="round" stroke-linejoin="round"/>
<path d="M815.749 619.717L789.312 632.936H736.438L710 619.717" stroke="#42140D" stroke-width="2" stroke-linecap="round" stroke-linejoin="round"/>
<path d="M710 540.845L736.438 527.627H789.312L815.749 540.845" stroke="#42140D" stroke-width="2" stroke-linecap="round" stroke-linejoin="round"/>
<path d="M828.8 537.532C809.981 530.239 810.385 530.18 802.624 511.326C796.329 528.639 793.31 531.421 776.448 537.471C795.268 544.765 794.864 544.824 802.624 563.678C808.92 546.365 811.939 543.583 828.8 537.532Z" fill="#B3B5EE" stroke="#42140D" stroke-width="2" stroke-linecap="round" stroke-linejoin="round"/>
<path d="M790.02 508.441C776.777 503.309 777.061 503.268 771.6 490C767.17 502.183 765.045 504.141 753.18 508.398C766.423 513.531 766.139 513.572 771.6 526.84C776.03 514.657 778.155 512.699 790.02 508.441Z" fill="#B3B5EE" stroke="#42140D" stroke-width="2" stroke-linecap="round" stroke-linejoin="round"/>
<path d="M182.123 379.859H133.56C128.754 379.859 124.858 383.755 124.858 388.56V437.117C124.858 441.922 128.754 445.818 133.56 445.818H182.123C186.929 445.818 190.825 441.922 190.825 437.117V388.56C190.825 383.755 186.929 379.859 182.123 379.859Z" fill="#42140D"/>
<path d="M186.05 383.148L137.866 377.086C133.098 376.486 128.747 379.865 128.147 384.632L122.086 432.81C121.486 437.578 124.865 441.929 129.633 442.528L177.817 448.59C182.585 449.19 186.936 445.812 187.536 441.044L193.597 392.866C194.197 388.099 190.818 383.748 186.05 383.148Z" fill="#E5E7FA"/>
<path d="M132.105 426.28L144.697 407.37C145.75 405.788 148.126 405.95 148.955 407.663L156.104 422.452C156.796 423.887 158.653 424.291 159.881 423.277L167.607 416.896C168.79 415.917 170.569 416.254 171.318 417.593L179.274 431.854C180.256 433.614 178.82 435.739 176.822 435.488L133.845 430.081C132.035 429.853 131.095 427.801 132.107 426.282L132.105 426.28Z" fill="white"/>
<path d="M192.609 200.47C202.757 208.439 219.914 230.303 207.354 254.003C190.419 283.336 167.475 259.819 169.27 248.194C171.065 236.569 197.758 241.428 189.079 285.657C182.135 321.041 138.584 291.207 117.676 271.867" stroke="#B3B5EE" stroke-width="3" stroke-linecap="round"/>
<path d="M969.352 484.133C964.781 486.393 955.032 489.42 952.603 483.445C949.567 475.976 948.497 470.051 942.796 470.026C937.095 470 925.349 478.324 921.312 469.053C917.275 459.782 917.559 455.047 909.15 452.641C901.092 450.336 893.661 454.721 887.158 457.499" stroke="#8176D9" stroke-width="3" stroke-linecap="round"/>
<g filter="url(#filter0_d_3605_120377)">
<path d="M873.31 349.13C872.935 345.674 876.843 343.418 879.648 345.471L921.3 375.949C924.131 378.02 923.115 382.473 919.665 383.11L900.72 386.612C899.817 386.779 898.999 387.251 898.404 387.949L885.898 402.606C883.621 405.274 879.257 403.928 878.878 400.441L873.31 349.13Z" fill="#3B0800"/>
<path d="M874.304 349.023C874.022 346.431 876.954 344.738 879.058 346.278L920.71 376.756C922.833 378.31 922.071 381.648 919.484 382.127L900.538 385.63C899.41 385.838 898.388 386.428 897.644 387.301L885.137 401.957C883.429 403.958 880.157 402.949 879.873 400.333L874.304 349.023Z" stroke="white" stroke-width="2" stroke-linejoin="round"/>
</g>
<circle cx="887" cy="527" r="37" fill="#42140D" stroke="white" stroke-width="4"/>
<path d="M875.866 536.935L865.133 527.735L875.866 518.535" stroke="white" stroke-width="2" stroke-linecap="round" stroke-linejoin="round"/>
<path d="M898.866 536.935L909.6 527.735L898.866 518.535" stroke="white" stroke-width="2" stroke-linecap="round" stroke-linejoin="round"/>
<path d="M890.432 517L884.409 540" stroke="white" stroke-width="2" stroke-linecap="round"/>
</g>
<defs>
<filter id="filter0_d_3605_120377" x="869.284" y="344.689" width="53.6572" height="63.3242" filterUnits="userSpaceOnUse" color-interpolation-filters="sRGB">
<feFlood flood-opacity="0" result="BackgroundImageFix"/>
<feColorMatrix in="SourceAlpha" type="matrix" values="0 0 0 0 0 0 0 0 0 0 0 0 0 0 0 0 0 0 127 0" result="hardAlpha"/>
<feOffset dx="-4" dy="4"/>
<feComposite in2="hardAlpha" operator="out"/>
<feColorMatrix type="matrix" values="0 0 0 0 0.231373 0 0 0 0 0.0313726 0 0 0 0 0 0 0 0 0.2 0"/>
<feBlend mode="normal" in2="BackgroundImageFix" result="effect1_dropShadow_3605_120377"/>
<feBlend mode="normal" in="SourceGraphic" in2="effect1_dropShadow_3605_120377" result="shape"/>
</filter>
<clipPath id="clip0_3605_120377">
<rect width="864" height="648" fill="white" transform="translate(112)"/>
</clipPath>
<clipPath id="clip1_3605_120377">
<rect width="523" height="498" fill="white" transform="translate(282 129)"/>
</clipPath>
</defs>
</svg>
