<svg width="315" height="236" viewBox="0 0 315 236" fill="none" xmlns="http://www.w3.org/2000/svg">
<path fill-rule="evenodd" clip-rule="evenodd" d="M255.785 197.56C298.752 155.68 243.278 131.783 253.502 96.3913C263.726 60.9997 289.604 7.77506 193.048 17.1522C96.492 26.5294 16.3304 133.065 50.753 183.205C85.1756 233.345 212.818 239.441 255.785 197.56Z" fill="#D0D3F5"/>
<path d="M190.184 55.711C189.103 55.1501 187.923 54.7743 186.755 54.4332C185.13 53.959 183.477 53.5659 181.812 53.2478C181.563 53.2016 181.447 52.9934 181.447 52.7506C181.453 51.1837 181.39 49.6168 181.262 48.0614C181.164 46.8414 181.037 45.6214 180.782 44.4187C180.632 43.7075 180.447 42.4182 179.828 41.9325C178.516 40.9091 175.648 44.2048 174.839 45.0085C173.619 46.2169 172.456 47.4948 171.364 48.8188C171.103 49.1311 170.872 49.2236 170.699 49.1773C170.641 49.1773 170.583 49.1715 170.525 49.1542C168.721 48.5564 166.878 48.0811 165.009 47.7318C163.708 47.489 162.459 47.4601 161.147 47.4138C161.135 47.4138 161.089 47.4196 161.031 47.4312C161.135 47.674 161.228 48.0498 161.303 48.1944C162.696 50.8888 165.067 53.2536 167.195 55.3872C167.547 55.7399 167.068 56.5725 166.784 56.7922C165.582 57.7173 159.025 62.6783 160.464 64.1932C161.17 64.9391 163.165 64.6615 164.026 64.5517C165.558 64.3551 167.068 63.9272 168.53 63.4473C170.352 62.846 172.15 62.1406 173.879 61.3022C174.081 61.2039 174.341 61.1518 174.492 61.3716C175.434 62.7361 176.411 64.0775 177.412 65.4016C178.204 66.4424 179.007 67.4716 179.863 68.4661C180.534 69.2466 181.361 69.8711 182.037 70.617C182.054 70.2932 182.118 69.9 182.107 69.6919C182.066 68.4487 181.898 67.2056 181.713 65.974C181.476 64.3782 181.187 62.7881 180.852 61.2097C180.736 60.6719 181.118 59.8971 181.684 59.7642C182.98 59.4577 184.269 59.0992 185.547 58.7176C186.628 58.3938 187.698 58.0527 188.75 57.6537C189.56 57.3473 190.444 56.6708 191.259 56.4626C190.941 56.3181 190.502 55.8729 190.184 55.711ZM108.455 51.016C108.473 51.016 108.496 51.0218 108.519 51.0276C108.918 50.4378 108.01 51.0912 108.455 51.016Z" fill="#9794E5"/>
<path d="M137.718 51.0912C137.51 50.5535 137.186 50.0447 136.874 49.5648C136.215 48.5472 135.452 47.5989 134.665 46.6738C133.613 45.4284 132.507 44.2285 131.352 43.0774C131.313 43.0386 131.283 42.9911 131.265 42.9386C131.26 42.9328 131.26 42.9213 131.254 42.9097C131.161 42.6611 131.26 42.3142 131.45 42.0193C132.162 40.3541 132.786 38.631 133.272 36.8906C133.549 35.8961 134.237 34.0517 133.885 33.0167C133.671 32.3922 133.347 32.4848 132.711 32.664C129.808 33.4966 127.05 36.0176 124.766 37.9198C124.57 38.0817 124.165 38.2725 123.98 37.9777C123.145 36.6672 122.241 35.4011 121.274 34.1847C120.54 33.2596 119.771 32.3344 118.892 31.5481C118.499 31.2012 117.371 30.1199 116.753 30.3686C116.064 30.6403 116.232 32.6987 116.261 33.3058C116.33 34.9132 116.643 36.5033 117.019 38.0644C117.452 39.8684 117.99 41.6666 118.643 43.407C118.823 43.8811 118.377 44.5576 117.984 44.7773C116.492 45.6157 115.024 46.5003 113.572 47.4081C111.878 48.472 109.964 49.559 108.571 51.0334C108.687 51.0681 108.843 51.1433 108.918 51.1664C109.34 51.2878 109.82 51.2994 110.254 51.3225C111.479 51.3977 112.711 51.3456 113.937 51.282C115.602 51.1895 117.261 51.045 118.915 50.8484C119.129 50.8253 119.383 50.8773 119.424 51.1433C119.62 52.5252 119.869 53.8955 120.152 55.2658C120.546 57.1797 120.892 59.4462 121.91 61.1461C122.297 61.7879 122.448 61.9903 122.922 61.3948C123.697 60.4234 124.165 59.1456 124.616 58.0065C125.264 56.3818 125.825 54.7108 126.304 53.0224C126.403 52.6639 126.831 52.1551 127.247 52.1956C128.744 52.3344 130.254 52.4095 131.763 52.4327C133.017 52.45 134.284 52.4442 135.532 52.2997C136.157 52.2303 137.579 52.1956 138.03 51.6752C137.816 51.9238 137.863 51.4729 137.718 51.0912Z" fill="#9794E5"/>
<path d="M108.132 100.562C107.438 99.1282 107.42 97.4456 107.97 95.9654C108.265 95.1733 108.75 94.5083 109.23 93.8261C109.554 93.3693 110.017 92.768 110.248 92.236C110.572 91.4786 110.589 91.6405 110.04 91.415C109.34 91.1317 107.652 91.9064 106.975 92.1204C106.218 92.3632 105.495 92.5887 104.697 92.5887C102.934 92.5945 101.529 91.733 100.395 90.4436C99.6899 89.6399 98.996 88.7957 98.1461 88.1366C97.2788 87.4601 96.8798 87.2635 96.4866 88.3852C95.8795 90.1198 95.972 92.0568 95.1915 93.7278C94.5208 95.1501 93.4106 96.2314 91.9767 96.8732C90.9995 97.2721 90.0108 97.6827 89.1088 98.2319C88.9874 98.3071 88.4265 98.602 88.2299 98.7928C88.4728 98.7176 89.2938 99.2207 89.2707 99.2091C90.7162 99.9087 92.26 100.047 93.4511 101.221C94.3878 102.135 94.9544 103.361 95.0701 104.667C95.1626 105.644 94.2432 108.738 95.2551 109.258C96.6485 109.975 99.0481 106.5 99.713 105.598C100.563 104.448 101.407 103.465 102.754 102.898C104.275 102.256 105.674 102.459 107.206 102.921C108.039 103.176 108.877 103.413 109.733 103.603C109.814 103.621 110.3 103.713 110.751 103.806C110.363 103.28 109.832 102.765 109.577 102.476C109.028 101.869 108.502 101.32 108.132 100.562ZM185.061 177.723C181.158 177.752 177.377 179.515 173.873 181.059C169.184 183.129 164.483 184.124 159.349 183.401C156.544 183.008 153.902 182.111 151.3 181.024C148.646 179.908 145.969 178.515 143.136 177.914C141.887 177.648 140.528 177.59 139.349 178.157C137.701 178.943 137.157 180.741 136.943 182.435C136.556 185.569 137.018 188.79 137.961 191.785C141.494 202.187 151.884 209.189 162.754 209.431C171.716 209.628 181.326 205.557 187.368 198.931C190.496 195.503 193.104 190.819 193.139 186.066C193.173 181.383 189.739 177.688 185.061 177.723ZM187.686 191.704C186.148 194.884 183.801 197.827 181.002 199.984C169.409 208.928 147.247 207.286 141.095 192.461C139.869 189.379 139.383 184.823 142.049 182.308C145.512 179.047 150.733 182.291 154.752 184.366C158.198 185.8 161.696 186.604 165.599 186.35C168.739 185.939 171.809 184.806 174.763 183.343C175.556 182.95 176.411 182.557 177.307 182.198C177.4 182.146 177.492 182.1 177.579 182.048C177.689 181.984 177.799 181.967 177.897 181.973C181.199 180.77 184.899 180.307 187.565 183.013C189.912 185.396 188.976 189.038 187.686 191.704ZM200.135 142.892C199.892 141.695 198.562 140.845 197.596 140.284C195.59 139.116 193.312 138.394 191.08 137.792C184.442 136.006 177.498 135.295 170.652 134.93C163.014 134.526 155.319 134.635 147.704 135.376C142.136 135.913 136.469 136.711 131.138 138.463C129.641 138.955 124.09 140.556 124.992 143.037C125.032 143.152 125.084 143.256 125.142 143.366C125.553 144.129 126.351 144.713 127.12 145.17C127.345 145.303 127.571 145.43 127.785 145.546C129.658 146.564 131.722 147.24 133.775 147.795C136.469 148.53 139.221 149.079 141.991 149.501C145.246 149.998 148.536 150.316 151.803 150.547C159.244 151.074 166.744 151.068 174.185 150.53C175.347 150.443 176.51 150.351 177.677 150.241C181.8 149.848 185.923 149.258 189.941 148.287C190.675 148.107 191.41 147.917 192.138 147.714C194.133 147.153 196.145 146.494 197.955 145.465C197.984 145.448 198.019 145.43 198.047 145.413C198.701 145.043 199.684 144.482 200.036 143.736C200.117 143.569 200.164 143.395 200.169 143.216C200.175 143.094 200.158 142.99 200.135 142.892ZM193.763 142.245C193.769 142.32 193.757 142.395 193.734 142.476C193.324 145.049 189.247 145.644 187.252 146.049C181.43 147.234 175.405 147.587 169.479 147.801C162.708 148.05 155.914 147.986 149.155 147.547C144.402 147.24 139.528 146.864 134.896 145.673C133.445 145.297 130.005 144.592 130.716 142.389C131.439 140.163 135.058 139.631 136.949 139.238C141.985 138.197 147.177 137.821 152.3 137.561C159.1 137.22 165.928 137.22 172.728 137.561C177.909 137.821 183.165 138.197 188.241 139.29C189.652 139.596 193.15 140.076 193.688 141.874C193.751 141.955 193.775 142.071 193.763 142.245Z" fill="#D0D3F5"/>
<path d="M172.41 23.8232C171.288 23.6151 170.126 23.8637 169.23 24.465C169.074 24.6847 168.872 24.8582 168.675 24.916C168.342 25.237 168.078 25.6225 167.899 26.049C167.72 26.4755 167.63 26.934 167.634 27.3965C167.646 32.4268 175.839 33.5717 176.082 28.1713C175.989 26.0551 174.532 24.2164 172.41 23.8232ZM181.407 6.65645C180.025 6.41939 178.533 7.2173 178.493 8.73219C178.47 9.66887 178.95 10.4205 179.632 10.9178C179.857 10.8773 180.054 10.9987 180.141 11.23C181.684 11.9875 183.772 11.6174 183.887 9.50698C183.812 8.09039 182.823 6.90508 181.407 6.65645ZM158.672 10.9004C157.29 10.6634 155.798 11.4613 155.758 12.9762C155.683 16.0406 160.968 17.145 161.153 13.751C161.077 12.3286 160.089 11.1433 158.672 10.9004ZM156.278 31.6231C153.867 31.1895 151.364 32.7853 151.352 35.3699C151.317 40.6199 159.898 41.7705 160.141 36.1447C160.042 33.9186 158.504 32.0221 156.278 31.6231Z" fill="#D0D3F5"/>
<path d="M224.278 132.05C223.584 131.362 222.827 130.732 222.069 130.108C221.115 129.327 220.138 128.564 219.144 127.829C218.854 127.615 218.918 127.234 219.016 126.933C219.502 125.447 222.214 116.254 219.762 116.063C218.369 115.953 216.403 118.671 215.634 119.561C214.817 120.504 214.04 121.48 213.304 122.487C213.171 122.672 212.714 123.03 212.465 122.822C210.667 121.325 208.661 119.631 206.475 118.763C206.435 118.746 206.128 118.677 205.891 118.619C205.891 118.642 205.891 118.665 205.897 118.677C206.134 119.677 206.244 120.683 206.55 121.683C206.932 122.932 207.383 124.169 207.903 125.366C208.048 125.702 207.811 126.228 207.481 126.546C207.464 126.569 207.441 126.598 207.423 126.615C206.504 127.529 201.821 132.033 203.122 133.022C204.232 133.866 206.741 133.583 208.042 133.559C209.071 133.542 210.476 133.473 211.303 133.392C211.546 133.369 211.737 133.421 211.812 133.687C212.166 134.931 212.579 136.158 213.049 137.364C213.402 138.272 213.778 139.208 214.327 140.018C214.477 140.238 214.697 140.665 214.963 140.77C214.975 140.775 214.975 140.781 214.986 140.781C214.998 140.77 214.998 140.764 215.015 140.758C215.437 140.411 215.617 139.185 215.749 138.682C215.975 137.861 216.148 137.023 216.316 136.19C216.501 135.259 216.669 134.323 216.802 133.38C216.86 132.97 217.305 132.264 217.814 132.322C218.953 132.461 220.098 132.565 221.242 132.64C222.104 132.698 222.965 132.738 223.827 132.733C223.966 132.733 224.365 132.657 224.764 132.594C224.596 132.403 224.446 132.218 224.278 132.05Z" fill="#9794E5"/>
<path d="M215.503 37.4919C213.063 36.5494 209.843 36.2719 208.114 38.6425C207.015 40.1516 207.044 42.4933 208.698 43.5977C209.941 44.4245 211.306 44.413 212.45 43.8637C213.462 43.3838 214.306 42.4875 214.757 41.3832C215.012 40.7529 215.203 40.0765 215.336 39.3942C215.451 38.7986 215.521 38.1915 215.544 37.596V37.515C215.533 37.504 215.519 37.4961 215.503 37.4919ZM193.526 37.2895C192.427 38.7986 192.456 41.1403 194.11 42.2447C196.186 43.6266 198.585 42.6726 199.771 40.7934C199.921 40.5506 200.06 40.2962 200.169 40.0302C200.441 39.3595 200.644 38.6425 200.777 37.9082C200.823 37.648 200.858 37.3878 200.892 37.1276C200.927 36.8038 200.956 36.4743 200.967 36.1505C200.285 35.8845 199.545 35.6706 198.793 35.5492C196.822 35.2427 194.781 35.5665 193.526 37.2895Z" fill="#D0D3F5"/>
<path d="M99.7188 105.604C99.0538 106.5 96.6543 109.981 95.2608 109.264C94.249 108.743 95.1626 105.65 95.0758 104.673C94.9579 103.37 94.3847 102.15 93.4569 101.227C92.2658 100.059 90.722 99.9201 89.2765 99.2147C89.2996 99.2263 88.4786 98.7175 88.2357 98.7984C88.4323 98.6134 88.9932 98.3127 89.1146 98.2376C90.0166 97.6883 91.0053 97.2778 91.9825 96.8788C93.4106 96.237 94.5265 95.15 95.1972 93.7334C95.9836 92.0624 95.8853 90.1254 96.4924 88.3908C96.8856 87.2691 97.2788 87.4657 98.1518 88.1422C99.0018 88.8013 99.6956 89.6455 100.401 90.4492C101.534 91.7386 102.939 92.6001 104.703 92.5943C105.507 92.5886 106.229 92.3688 106.981 92.126C107.657 91.9121 109.346 91.1373 110.045 91.4206C110.595 91.6403 110.583 91.4842 110.254 92.2416C110.022 92.7736 109.56 93.3749 109.236 93.8317C108.756 94.5197 108.27 95.1789 107.975 95.971C107.426 97.4512 107.444 99.1396 108.137 100.568C108.502 101.325 109.034 101.874 109.583 102.499C109.837 102.788 110.363 103.303 110.757 103.829C110.306 103.736 109.826 103.644 109.739 103.626C108.889 103.436 108.051 103.193 107.212 102.944C105.68 102.482 104.281 102.273 102.76 102.921C101.413 103.476 100.569 104.459 99.7188 105.604Z" fill="#9794E5"/>
<path d="M170.722 105.598C170.803 105.737 170.71 105.922 170.722 105.598ZM170.699 101.262C170.704 102.14 170.716 103.019 170.722 103.898C170.728 104.395 170.785 104.933 170.733 105.425C170.728 105.459 170.728 105.488 170.728 105.517C171.04 105.587 171.375 105.76 171.653 105.847C174.457 106.766 177.267 107.68 180.071 108.599C180.597 107.194 181.089 105.737 181.783 104.436C182.199 103.655 182.61 103.644 183.46 103.436C184.442 103.193 185.396 102.852 186.304 102.395C188.525 101.279 190.334 99.5848 191.641 97.4802C195.318 91.0911 193.035 82.8286 186.726 79.0645C181.401 75.8844 174.214 76.6361 169.895 81.1865C165.102 86.2342 165.356 94.2307 169.947 99.3073C170.676 100.123 170.687 100.232 170.699 101.262ZM215.278 162.834C214.295 160.354 212.179 159.596 209.652 160.573C208.166 161.146 206.819 162.082 205.587 163.083C205.876 165.211 206.125 167.344 206.316 169.483C206.327 169.478 206.333 169.466 206.345 169.455C207.848 168.211 209.346 166.968 210.849 165.731C211.826 164.921 211.866 166.546 211.23 167.078C209.727 168.321 208.23 169.564 206.726 170.802C206.622 170.888 206.53 170.941 206.449 170.975C206.703 174.271 206.819 177.572 206.732 180.868C209.317 180.521 211.728 179.457 213.451 177.312C216.469 173.531 217.041 167.292 215.278 162.834ZM110.184 170.998C110.722 173.751 111.919 176.462 114.047 178.347C115.353 179.509 116.886 180.226 118.516 180.614C118.435 177.237 118.574 173.907 118.805 170.761C117.383 169.582 115.96 168.408 114.538 167.228C113.908 166.708 114.931 165.078 115.504 165.557L119.002 168.448C119.175 166.546 119.383 164.638 119.638 162.73C118.215 161.626 116.637 160.695 114.995 160.284C109.248 158.839 109.508 167.518 110.184 170.998ZM204.234 163.401C204.2 163.141 204.165 162.88 204.124 162.626C203.295 156.714 202.094 150.861 200.528 145.101C198.834 147.188 195.451 148.316 193.243 149.021C186.183 151.27 178.603 152.028 171.236 152.444C162.991 152.912 154.682 152.773 146.466 151.906C140.58 151.282 134.463 150.414 128.935 148.194C127.53 147.633 125.559 146.749 124.414 145.436C122.98 150.704 121.858 156.098 121.089 161.533C121.037 161.903 120.985 162.273 120.939 162.643L120.8 163.725C120.407 166.934 120.135 170.16 120.002 173.369C119.904 175.78 119.881 178.313 119.99 180.891C120.002 181.209 120.019 181.522 120.037 181.84C120.054 182.134 120.071 182.429 120.095 182.724C120.783 192.987 123.755 203.591 132.63 209.235C146.784 218.237 166.281 219.174 181.991 214.167C188.831 211.987 195.781 208.373 200.129 202.476C204.171 196.994 205.136 189.559 205.315 182.73L205.333 181.886C205.339 181.585 205.344 181.285 205.344 180.99C205.35 180.516 205.35 180.047 205.35 179.585C205.344 174.473 204.992 169.304 204.333 164.164C204.304 163.91 204.269 163.655 204.234 163.401ZM143.691 160.348C144.24 157.087 146.593 153.612 150.317 154.132C154.445 154.71 157.209 158.937 158.62 162.476C159.129 163.875 159.539 165.523 159.695 167.211C159.748 167.286 159.776 167.396 159.776 167.564C159.742 170.177 160.58 173.756 162.98 175.271C166.79 177.682 167.883 171.762 167.276 169.287C167.258 169.223 167.258 169.154 167.264 169.079C166.085 166.309 165.605 163.21 166.09 160.348C166.64 157.087 168.993 153.612 172.717 154.132C176.845 154.71 179.609 158.937 181.02 162.476C182.517 166.581 183.136 172.889 179.088 175.855C176.035 178.093 172.387 176.121 170.167 173.675C169.658 173.115 169.195 172.507 168.762 171.86C168.426 174.369 167.224 176.856 164.824 177.468C161.852 178.226 160.014 175.526 159.094 172.652C158.608 173.901 157.839 175.011 156.689 175.855C153.636 178.093 149.988 176.121 147.767 173.675C144.639 170.218 142.91 164.973 143.691 160.348ZM194.185 188.304C193.196 193.028 190.681 197.301 187.322 200.735C180.459 207.76 169.837 212.051 159.99 211.068C149.537 210.021 140.031 202.955 136.625 192.935C135.105 188.119 133.711 177.948 140.366 176.156C143.217 175.387 146.31 176.838 148.883 177.908C152.532 179.428 156.059 181.076 160.008 181.637C163.448 182.123 166.987 181.932 170.311 180.886C172.566 180.174 174.682 179.058 176.868 178.168C180.482 176.694 184.83 175.127 188.733 176.399C193.705 178.018 195.156 183.672 194.185 188.304ZM210.34 55.393V69.3854C214.515 65.7775 218.683 62.1637 222.858 58.5558C218.689 57.5034 214.515 56.4453 210.34 55.393ZM99.8344 62.3256L108.403 66.2632C107.964 63.8521 107.53 61.4352 107.091 59.0241C104.674 60.1227 102.257 61.2213 99.8344 62.3256ZM147.663 6.25757C144.524 6.95141 141.384 7.65103 138.244 8.34487L143.783 13.433C145.079 11.0393 146.368 8.64553 147.663 6.25757Z" fill="#FEFCFB"/>
<path d="M122.413 90.6516C126.102 94.5371 129.71 99.1395 130.716 104.528L133.376 104.771C132.902 99.446 130.306 94.5082 127.039 90.322C123.344 85.5865 118.643 81.5102 113.364 78.6308C102.922 72.9355 89.2765 73.5773 80.8405 82.5279C78.9556 84.5284 77.4003 86.8065 76.1282 89.2408C74.9256 91.5362 73.7056 94.1959 73.2257 96.7574C73.1158 97.3529 73.0002 98.278 73.4165 98.7926C74.0236 99.5443 74.7984 99.0875 75.2031 98.3821C75.7813 97.3703 75.9663 96.0693 76.3711 94.9765C77.2615 92.5828 78.4526 90.3046 79.9559 88.2405C86.6457 79.0355 99.0134 77.0465 109.178 81.1922C114.266 83.268 118.655 86.6967 122.413 90.6516Z" fill="#D0D3F5"/>
<path d="M238.273 75.0056C236.532 76.6303 236.92 78.2608 236.989 80.4291C237.041 82.0365 237.007 83.6381 236.868 85.2339C236.874 85.3033 236.874 85.3785 236.862 85.471C236.851 85.5751 236.839 85.6734 236.833 85.7774C236.827 85.8353 236.816 85.8873 236.798 85.9393C236.492 88.7436 235.833 91.4901 234.694 94.0977C234.642 94.2192 234.567 94.3232 234.486 94.4215C234.208 94.9303 233.936 95.4392 233.624 95.9364C233.52 96.1041 233.404 96.2255 233.289 96.3122C232.456 97.4108 231.849 98.0815 230.675 98.891C229.218 99.8971 227.594 100.51 225.899 100.88C225.217 102.777 223.136 106.448 217.163 106.905C217.44 106.963 217.706 107.02 217.932 107.038C218.568 107.09 219.21 107.107 219.851 107.101C222.806 107.073 225.784 106.442 228.484 105.251C239.319 100.475 242.5 86.3961 241.308 75.6878C240.962 73.7509 239.597 73.7682 238.273 75.0056ZM139.927 80.961C138.013 78.654 136.903 76.0695 136.81 72.9356C136.764 72.8315 136.741 72.6812 136.764 72.4788C136.816 71.9932 136.885 71.519 136.966 71.0449C136.943 70.9466 136.943 70.8136 136.99 70.6286C137.042 70.4262 137.094 70.2181 137.157 70.0157C137.157 70.0099 137.163 70.0041 137.163 69.9984C137.88 67.4138 138.973 64.9796 140.366 62.7015C140.395 62.6321 140.43 62.5685 140.47 62.4933C140.522 62.4066 140.58 62.3199 140.632 62.2331C140.684 62.1522 140.736 62.0828 140.794 62.0192C141.118 61.5219 141.447 61.0247 141.794 60.539C142.5 59.5561 143.24 58.5963 144.026 57.6827C144.576 57.0409 145.316 56.4743 145.663 55.6937C146.131 54.6471 146.033 53.1554 145.657 52.0973C145.206 50.8195 144.379 50.3164 143.257 51.2473C141.598 52.6234 140.199 54.6529 139.007 56.4222C136.463 60.1921 134.619 64.4072 133.665 68.8593C132.462 75.0576 133.653 81.2039 137.678 86.1417C139.227 88.044 141.043 89.5646 143.066 90.8772C138.822 86.9512 139.32 82.898 139.927 80.961Z" fill="#D0D3F5"/>
<path d="M120.852 45.396C121.384 46.0782 122.511 44.5287 122.049 43.9389C121.719 43.511 121.517 43.06 121.424 42.5281C121.343 42.0771 120.806 42.2274 120.563 42.4298C120.21 42.7305 120.002 43.2219 120.083 43.6787C120.193 44.3032 120.459 44.8987 120.852 45.396ZM124.258 43.8522C124.657 44.7715 125.888 43.3665 125.599 42.7015C125.35 42.1291 125.108 41.5625 124.859 40.9901C124.46 40.0707 123.228 41.4758 123.518 42.1407C123.766 42.7073 124.009 43.2798 124.258 43.8522ZM129.467 43.0774C129.3 42.1465 127.999 43.5226 128.126 44.228C128.478 46.1534 127.189 47.6509 125.356 48.0557C124.061 48.339 122.066 48.1944 121.187 47.0554C120.661 46.3731 119.528 47.9169 119.99 48.5125C121.523 50.5015 125.084 50.2413 126.975 48.9635C128.901 47.6625 129.883 45.3497 129.467 43.0774ZM216.198 129.184C216.632 128.629 216.938 127.993 217.06 127.299C217.124 126.952 216.985 126.501 216.545 126.6C216.112 126.704 215.776 127.23 215.707 127.64C215.701 127.681 215.609 127.993 215.678 127.796C215.655 127.86 215.638 127.964 215.597 128.016C215.62 127.987 215.632 127.97 215.643 127.958C215.62 127.981 215.58 128.033 215.568 128.062C215.557 128.086 215.539 128.109 215.528 128.132C215.522 128.143 215.51 128.155 215.493 128.178C215.256 128.479 214.984 129.045 215.25 129.41C215.51 129.774 216.008 129.433 216.198 129.184ZM212.816 128.485C213.267 128.537 213.614 127.999 213.758 127.658C213.949 127.212 214.14 126.773 214.331 126.328C214.458 126.033 214.481 125.437 214.053 125.385C213.602 125.333 213.255 125.871 213.111 126.212C212.92 126.657 212.729 127.097 212.538 127.542C212.405 127.843 212.382 128.438 212.816 128.485Z" fill="#3B0800"/>
<path d="M216.63 130.595C215.872 131.578 213.733 131.248 212.837 130.751C211.761 130.156 211.073 128.959 211.299 127.721C211.524 126.478 210.09 127.253 209.946 128.068C209.611 129.913 210.437 131.827 212.218 132.59C213.843 133.284 216.214 133.07 217.347 131.601C217.937 130.82 217.416 129.572 216.63 130.595ZM187.958 90.9639C187.779 89.9868 186.755 89.6109 185.871 89.9232C184.552 90.3915 183.835 92.0105 183.188 93.1148C183.141 93.19 183.101 93.2652 183.055 93.3403C183.049 93.3403 183.043 93.3403 183.037 93.3346C182.367 93.1842 181.783 92.8142 181.332 92.3111C182.529 90.9061 183.587 88.6511 182.06 87.4832C179.927 85.8469 178.851 89.9463 179.048 91.3282C179.094 91.6404 179.169 91.9469 179.268 92.236C179.192 92.2649 179.123 92.2938 179.048 92.3169C178.204 92.5713 177.325 92.5251 176.486 92.288C176.521 91.8428 176.538 91.4034 176.521 90.9582C176.457 89.1831 175.191 85.234 172.722 87.009C170.618 88.5239 171.514 91.1663 173.133 92.6118C173.711 93.1322 174.376 93.5311 175.07 93.8087C174.642 96.3585 173.416 99.0587 172.803 100.973C172.416 102.193 173.723 102.042 174.029 101.088C174.734 98.8737 175.712 96.5147 176.209 94.1382C177.469 94.3695 178.776 94.1845 179.944 93.5022C180.486 94.2253 181.246 94.7545 182.112 95.0113C180.673 97.6768 179.493 100.475 179.198 103.534C179.077 104.789 180.47 104.031 180.551 103.187C180.834 100.279 181.968 97.6768 183.35 95.1732C183.5 95.1675 183.656 95.1617 183.812 95.1385C185.558 94.913 188.345 93.0686 187.958 90.9639ZM173.248 89.9174C172.919 88.9923 173.792 88.2348 174.393 89.1137C174.919 89.8827 175.162 90.7847 175.214 91.7503C174.885 91.5653 174.578 91.3513 174.289 91.1085C174.052 90.9061 173.387 90.3106 173.248 89.9174ZM180.817 89.9636C181.28 90.2007 181.343 90.484 181.008 90.7963C180.933 90.9871 180.823 91.1547 180.684 91.2935C180.609 91.1258 180.551 90.9582 180.499 90.7789C180.401 90.3857 180.048 88.761 180.817 89.9636ZM185.275 93.0801C184.998 93.2073 184.697 93.2999 184.39 93.3577C184.419 93.3114 184.448 93.2652 184.471 93.2189C184.679 92.872 185.558 91.4843 186.021 91.5826L186.09 92.5771C185.853 92.7968 185.581 92.9645 185.275 93.0801ZM173.514 53.2306C173.954 53.1034 174.272 52.6177 174.353 52.1898C174.428 51.8024 174.497 51.4208 174.573 51.0334C174.636 50.7039 174.492 50.2124 174.058 50.3338C173.619 50.461 173.301 50.9467 173.22 51.3746C173.144 51.762 173.075 52.1436 173 52.531C172.936 52.8663 173.081 53.3578 173.514 53.2306ZM177.718 51.2242C177.319 51.4555 177.036 51.9412 177.036 52.4096V53.566C177.036 53.9707 177.394 54.1846 177.747 53.9765C178.146 53.7452 178.429 53.2595 178.429 52.7912V51.6348C178.429 51.23 178.065 51.0161 177.718 51.2242ZM177.429 55.6301C176.417 56.376 175.099 57.0756 173.867 56.4049C172.942 55.9019 172.474 54.838 172.37 53.8377C172.248 52.6987 170.901 53.8666 170.976 54.6125C171.126 56.058 171.751 57.6191 173.191 58.2205C174.833 58.9085 176.515 57.9371 177.81 56.9831C178.487 56.4743 178.447 54.8785 177.429 55.6301ZM97.458 97.0235C97.5332 97.1796 97.6026 97.3068 97.7934 97.3299C97.9726 97.353 98.1866 97.2316 98.3138 97.116C98.4988 96.9483 98.6549 96.7344 98.7358 96.5031C98.7994 96.3181 98.8804 96.0579 98.7937 95.8671C98.6722 95.5953 98.545 95.3293 98.4236 95.0576C98.3485 94.9015 98.2791 94.7743 98.0883 94.7511C97.909 94.728 97.6951 94.8494 97.5679 94.9651C97.3829 95.1328 97.2267 95.3467 97.1458 95.578C97.0822 95.763 97.0012 96.0232 97.088 96.214C97.2094 96.48 97.3308 96.7517 97.458 97.0235ZM100.378 95.9075C100.632 96.266 101.141 95.9307 101.332 95.682C101.482 95.4855 101.615 95.2542 101.656 95.0056C101.685 94.8205 101.69 94.6124 101.581 94.4505L101.078 93.7393C100.823 93.3808 100.314 93.7162 100.124 93.9648C99.9732 94.1614 99.8402 94.3927 99.7997 94.6413C99.7708 94.8263 99.765 95.0345 99.8749 95.1964L100.378 95.9075ZM102.893 97.0813C102.488 98.3071 101.933 99.741 100.522 100.059C99.1059 100.377 97.7413 99.4924 96.8509 98.4863C96.2727 97.8272 95.1626 99.3883 95.654 99.9434C96.9261 101.383 98.8688 102.395 100.777 101.603C102.587 100.851 103.541 98.9547 104.119 97.1969C104.518 95.9769 103.205 96.1273 102.893 97.0813Z" fill="#3B0800"/>
<path d="M192.641 98.0584C195.139 93.7161 195.59 88.4603 193.485 83.8636C191.335 79.1628 186.715 75.8671 181.563 75.3929C170.808 74.4042 162.263 85.4941 165.755 95.6704C166.246 97.0986 166.952 98.4689 167.854 99.6831C168.039 99.9317 168.235 100.175 168.432 100.412C168.496 100.487 169.299 101.123 169.299 101.123C169.369 101.256 169.305 101.655 169.305 101.805C169.317 103.436 169.334 105.072 169.346 106.702C169.346 106.83 169.403 107.101 169.56 107.153L179.811 110.501C180.326 110.669 180.736 110.149 180.91 109.721C181.517 108.229 182.118 106.737 182.725 105.245C186.911 104.297 190.369 101.718 192.641 98.0584ZM170.722 105.598C170.803 105.737 170.71 105.922 170.722 105.598ZM171.653 105.847C171.375 105.754 171.04 105.587 170.728 105.517C170.728 105.488 170.733 105.459 170.733 105.425C170.785 104.933 170.722 104.39 170.722 103.898C170.716 103.019 170.704 102.14 170.699 101.262C170.687 100.238 170.675 100.123 169.935 99.3073C165.344 94.2307 165.09 86.2342 169.883 81.1865C174.208 76.6361 181.39 75.8844 186.715 79.0645C193.023 82.8286 195.313 91.0911 191.629 97.4802C190.323 99.5848 188.513 101.285 186.293 102.395C185.385 102.846 184.431 103.193 183.448 103.436C182.598 103.644 182.187 103.655 181.771 104.436C181.077 105.737 180.586 107.194 180.06 108.599C177.267 107.685 174.457 106.766 171.653 105.847ZM159.013 65.2918C160.175 67.6046 165.211 66.0723 166.952 65.5693C169.184 64.9275 171.381 64.0833 173.486 63.0946C174.711 64.8639 175.989 66.6101 177.331 68.2984C178.244 69.449 179.181 70.617 180.268 71.6173C180.788 72.0972 181.459 72.7795 182.228 72.5482C184.228 71.9411 183.477 67.9631 183.303 66.5754C183.084 64.783 182.789 63.0021 182.436 61.2328C183.864 60.8685 185.287 60.458 186.692 60.0012C188.525 59.3999 191.479 58.6887 192.531 56.8732C194.445 53.5717 185.466 52.0279 182.841 51.5537C182.838 49.7112 182.74 47.8701 182.546 46.0377C182.378 44.4824 182.274 40.9264 180.568 40.0996C178.782 39.2323 176.157 42.0424 175.064 43.0773C173.653 44.4188 172.318 45.8527 171.057 47.3387C168.241 46.3904 159.557 43.4821 159.487 47.7607C159.458 49.6746 161.401 51.6983 162.529 53.0513C163.442 54.1499 164.408 55.2195 165.402 56.2487C164.161 57.2587 162.978 58.3378 161.858 59.4809C160.678 60.7009 158.019 63.3259 159.013 65.2918ZM166.79 56.7922C167.073 56.5725 167.553 55.7457 167.2 55.3872C165.073 53.2537 162.708 50.8888 161.309 48.1944C161.233 48.0441 161.141 47.6682 161.037 47.4312C161.095 47.4196 161.141 47.408 161.153 47.4138C162.465 47.4601 163.708 47.489 165.015 47.7318C166.877 48.073 168.733 48.5587 170.531 49.1542C170.589 49.1716 170.647 49.1773 170.704 49.1773C170.878 49.2236 171.109 49.1369 171.369 48.8189C172.462 47.4948 173.624 46.217 174.844 45.0085C175.654 44.2048 178.527 40.9149 179.834 41.9325C180.459 42.4182 180.638 43.7133 180.788 44.4188C181.043 45.6156 181.17 46.8414 181.268 48.0614C181.39 49.6226 181.459 51.1895 181.453 52.7506C181.453 52.9935 181.569 53.2016 181.817 53.2479C183.483 53.5601 185.136 53.9591 186.761 54.4332C187.923 54.7743 189.108 55.1501 190.19 55.711C190.508 55.8729 190.947 56.3181 191.271 56.4569C190.461 56.665 189.571 57.3415 188.762 57.648C187.709 58.0469 186.634 58.3938 185.558 58.7119C184.281 59.0935 182.991 59.4462 181.696 59.7584C181.129 59.8914 180.748 60.6604 180.863 61.2039C181.199 62.7824 181.488 64.3724 181.725 65.9683C181.91 67.1998 182.078 68.443 182.118 69.6861C182.124 69.8885 182.06 70.2816 182.049 70.6112C181.372 69.8653 180.545 69.2409 179.875 68.4603C179.019 67.4716 178.215 66.4424 177.423 65.3958C176.423 64.0718 175.446 62.7303 174.503 61.3658C174.353 61.1461 174.093 61.2039 173.89 61.2964C172.161 62.1348 170.363 62.8402 168.542 63.4415C167.073 63.9214 165.57 64.3493 164.038 64.5459C163.176 64.6558 161.181 64.9333 160.476 64.1874C159.031 62.6783 165.587 57.7116 166.79 56.7922ZM118.129 52.6408C118.377 54.3002 118.684 55.9538 119.06 57.5901C119.406 59.105 119.84 62.5685 121.419 63.4184C123.974 64.8003 126.42 56.9946 127.282 54.0111C129.086 54.1614 130.901 54.225 132.705 54.1903C134.596 54.1499 137.724 54.2597 138.921 52.45C140.204 50.5072 138.071 47.9862 136.932 46.5234C135.66 44.8871 134.26 43.3375 132.798 41.8631C133.902 39.2439 137.244 30.7617 133.908 30.7674C131.953 30.7732 129.803 32.5483 128.293 33.6006C127.143 34.4101 126.015 35.2543 124.923 36.1389C123.893 34.5547 122.772 33.0109 121.528 31.5943C120.453 30.3569 118.198 27.6163 116.336 28.9808C114.081 30.6402 114.821 34.9074 115.232 37.197C115.631 39.4115 116.232 41.6087 116.99 43.7365C115.348 44.6847 113.723 45.6734 112.139 46.7142C110.612 47.7145 107.172 49.4607 106.946 51.5711C106.663 54.2771 115.533 52.9935 118.129 52.6408ZM117.978 44.7772C118.372 44.5575 118.817 43.881 118.637 43.4069C117.987 41.661 117.444 39.8768 117.013 38.0643C116.637 36.5032 116.325 34.9131 116.255 33.3057C116.232 32.7044 116.059 30.6402 116.747 30.3685C117.371 30.1199 118.499 31.2011 118.886 31.548C119.771 32.3344 120.54 33.2595 121.268 34.1846C122.234 35.3988 123.142 36.6709 123.974 37.9776C124.159 38.2725 124.564 38.0817 124.761 37.9198C127.045 36.0175 129.808 33.4966 132.705 32.6639C133.341 32.4789 133.665 32.3922 133.879 33.0166C134.232 34.0458 133.543 35.8903 133.266 36.8906C132.78 38.6368 132.156 40.354 131.445 42.0192C131.288 42.2563 131.202 42.5338 131.225 42.7593C131.225 42.8114 131.236 42.8634 131.248 42.9039C131.254 42.9154 131.254 42.9212 131.26 42.9328C131.283 42.9848 131.312 43.0311 131.346 43.0715C132.503 44.2164 133.607 45.4248 134.659 46.668C135.44 47.5931 136.209 48.5413 136.868 49.559C137.18 50.0389 137.51 50.5477 137.712 51.0854C137.857 51.467 137.811 51.918 138.03 51.6694C137.574 52.1898 136.157 52.2245 135.532 52.2938C134.284 52.4326 133.017 52.4442 131.763 52.4268C130.259 52.4037 128.75 52.3343 127.247 52.1898C126.825 52.1493 126.403 52.6639 126.304 53.0166C125.825 54.6992 125.264 56.3701 124.616 58.0007C124.165 59.1397 123.691 60.4175 122.922 61.3889C122.448 61.9903 122.292 61.7879 121.91 61.1403C120.887 59.4404 120.546 57.1738 120.152 55.26C119.869 53.8955 119.62 52.5193 119.424 51.1374C119.383 50.8772 119.129 50.8194 118.915 50.8426C117.261 51.0449 115.596 51.1895 113.937 51.2762C112.711 51.3456 111.479 51.3918 110.254 51.3167C109.82 51.2878 109.34 51.2762 108.918 51.1606C108.843 51.1374 108.687 51.0681 108.571 51.0276C109.97 49.5532 111.878 48.4662 113.572 47.4023C115.012 46.5003 116.487 45.6214 117.978 44.7772ZM108.519 51.0218C108.498 51.0161 108.477 51.0123 108.455 51.0102C108.01 51.0912 108.918 50.4378 108.519 51.0218ZM224.446 129.628C223.168 128.489 221.821 127.425 220.444 126.407C221.046 124.482 221.526 122.499 221.821 120.51C222.029 119.087 222.775 114.82 220.693 114.323C218.958 113.912 216.906 116.399 215.911 117.462C214.904 118.542 213.957 119.675 213.072 120.856C212.138 120.092 211.172 119.369 210.176 118.688C209.118 117.965 207.244 116.445 205.828 116.797C202.786 117.555 205.319 123.667 206.331 125.997C205.368 126.982 204.457 128.016 203.601 129.096C202.74 130.189 200.728 132.501 201.491 134.063C202.179 135.473 205.018 135.317 206.279 135.34C207.707 135.363 209.135 135.294 210.557 135.173C211.118 137.179 213.061 144.054 215.304 142.25C216.588 141.215 216.964 138.966 217.316 137.468C217.571 136.387 217.791 135.294 217.97 134.196C219.294 134.34 220.624 134.444 221.959 134.49C223.301 134.537 225.741 134.849 226.556 133.432C227.412 131.912 225.405 130.489 224.446 129.628ZM223.815 132.727C222.954 132.733 222.092 132.692 221.231 132.634C220.086 132.559 218.941 132.455 217.802 132.316C217.299 132.253 216.854 132.958 216.79 133.374C216.651 134.317 216.49 135.254 216.305 136.185C216.137 137.023 215.958 137.856 215.738 138.677C215.599 139.18 215.42 140.4 215.004 140.752C214.992 140.764 214.986 140.77 214.975 140.775C214.969 140.77 214.963 140.764 214.952 140.764C214.686 140.666 214.466 140.232 214.316 140.012C213.766 139.203 213.396 138.266 213.038 137.358C212.567 136.153 212.155 134.926 211.8 133.681C211.725 133.421 211.534 133.363 211.292 133.386C210.465 133.461 209.06 133.536 208.03 133.554C206.73 133.577 204.22 133.86 203.11 133.016C201.809 132.027 206.492 127.523 207.412 126.61C207.435 126.586 207.452 126.563 207.47 126.54C207.793 126.222 208.036 125.696 207.892 125.361C207.371 124.164 206.92 122.926 206.539 121.677C206.232 120.683 206.122 119.677 205.885 118.671C205.885 118.665 205.885 118.642 205.88 118.613C206.117 118.677 206.423 118.746 206.464 118.758C208.655 119.625 210.661 121.325 212.454 122.817C212.702 123.025 213.159 122.666 213.292 122.481C214.026 121.475 214.807 120.498 215.622 119.555C216.391 118.665 218.357 115.948 219.751 116.057C222.196 116.248 219.49 125.447 219.005 126.928C218.906 127.222 218.849 127.61 219.132 127.824C220.126 128.558 221.104 129.316 222.058 130.102C222.815 130.721 223.573 131.351 224.266 132.045C224.434 132.212 224.584 132.397 224.746 132.582C224.353 132.652 223.954 132.721 223.815 132.727ZM112.011 105.332C114.278 103.54 109.895 100.487 109.288 98.9893C108.426 96.8846 109.635 95.3813 110.728 93.6814C111.225 92.9066 112.324 91.3397 111.925 90.3163C111.583 89.4374 110.508 89.6109 109.745 89.7265C107.883 90.0098 106.148 91.1431 104.229 90.6979C102.089 90.2064 101.031 88.1076 99.4759 86.7603C98.626 86.0203 97.5447 85.2744 96.5213 86.1243C93.5956 88.5585 95.8391 93.5368 91.9593 95.283C90.6237 95.8265 85.5529 97.723 87.0967 100.03C87.9119 101.25 89.9935 101.343 91.1846 101.944C92.7977 102.759 93.7633 104.384 93.6997 106.188C93.6361 107.876 92.896 112.155 96.0125 110.808C97.3077 110.247 98.3658 109.119 99.2736 108.067C100.603 106.529 101.477 104.569 103.714 104.257C105.443 104.02 107.195 104.927 108.849 105.315C109.768 105.546 111.161 106.003 112.011 105.332ZM99.7188 105.604C99.0538 106.5 96.6543 109.981 95.2609 109.264C94.249 108.744 95.1626 105.65 95.0758 104.673C94.9579 103.37 94.3847 102.15 93.4569 101.227C92.2658 100.059 90.722 99.9202 89.2765 99.2148C89.2996 99.2263 88.4786 98.7175 88.2357 98.7985C88.4323 98.6134 88.9932 98.3128 89.1146 98.2376C90.0166 97.6883 91.0053 97.2778 91.9825 96.8788C93.4106 96.237 94.5265 95.15 95.1973 93.7334C95.9836 92.0624 95.8853 90.1255 96.4924 88.3909C96.8856 87.2692 97.2788 87.4658 98.1519 88.1422C99.0018 88.8014 99.6957 89.6456 100.401 90.4493C101.534 91.7387 102.939 92.6002 104.703 92.5944C105.507 92.5886 106.229 92.3689 106.981 92.126C107.657 91.9121 109.346 91.1373 110.045 91.4206C110.595 91.6404 110.583 91.4842 110.254 92.2417C110.022 92.7736 109.56 93.375 109.236 93.8317C108.756 94.5198 108.27 95.1789 107.975 95.9711C107.426 97.4513 107.444 99.1396 108.137 100.568C108.502 101.325 109.034 101.874 109.583 102.499C109.837 102.788 110.363 103.303 110.757 103.829C110.306 103.736 109.826 103.644 109.739 103.626C108.889 103.436 108.051 103.193 107.212 102.944C105.68 102.482 104.281 102.273 102.76 102.921C101.413 103.476 100.569 104.459 99.7188 105.604ZM211.502 158.417C209.293 158.764 207.195 160.03 205.367 161.533C205.327 161.267 205.292 161.001 205.252 160.735C204.396 154.988 203.263 149.258 201.783 143.638C201.707 143.343 201.627 143.048 201.546 142.759C201.557 142.655 201.569 142.545 201.569 142.435C201.569 142.354 201.563 142.285 201.551 142.227C201.256 139.099 196.839 137.636 194.393 136.821C188.357 134.803 181.91 133.976 175.59 133.456C167.209 132.766 158.786 132.758 150.404 133.433C144.049 133.941 137.55 134.734 131.474 136.734C128.687 137.648 124.362 139.134 123.581 142.418C123.454 142.956 123.465 143.447 123.575 143.904C123.506 144.054 123.46 144.21 123.448 144.355C121.887 149.674 120.731 155.161 119.915 160.677C116.325 158.232 111.867 156.902 109.704 161.689C107.403 166.777 108.12 174.04 111.566 178.446C113.37 180.753 115.856 182.036 118.574 182.533C119.042 192.201 121.436 201.99 128.49 208.471C134.411 213.912 143.147 216.607 150.918 217.919C159.609 219.394 168.675 219.128 177.261 217.116C184.691 215.375 192.202 212.236 197.787 206.899C203.35 201.585 205.518 194.543 206.322 187.043C206.483 185.557 206.587 184.066 206.657 182.574C209.033 182.192 211.265 181.232 213.069 179.492C215.393 177.249 216.741 174.161 217.278 171.01C217.984 166.945 217.886 157.416 211.502 158.417ZM119.002 168.46L115.504 165.569C114.931 165.095 113.908 166.72 114.538 167.24C115.96 168.42 117.383 169.593 118.805 170.773C118.568 173.918 118.435 177.249 118.516 180.625C116.891 180.232 115.359 179.515 114.047 178.359C111.919 176.474 110.716 173.756 110.184 171.01C109.508 167.529 109.248 158.85 114.989 160.302C116.631 160.718 118.21 161.643 119.632 162.747C119.383 164.644 119.169 166.552 119.002 168.46ZM131.144 138.463C136.475 136.711 142.141 135.913 147.709 135.375C155.324 134.635 163.02 134.525 170.658 134.93C177.504 135.294 184.448 136.006 191.086 137.792C193.318 138.394 195.596 139.116 197.602 140.284C198.562 140.845 199.898 141.695 200.141 142.892C200.164 142.996 200.175 143.1 200.181 143.204C200.175 143.389 200.123 143.563 200.048 143.725C199.695 144.47 198.707 145.037 198.059 145.401C198.03 145.419 197.995 145.436 197.967 145.453C196.157 146.483 194.145 147.142 192.15 147.703C191.421 147.905 190.687 148.096 189.953 148.275C185.934 149.246 181.812 149.836 177.689 150.229C176.527 150.339 175.359 150.438 174.197 150.518C166.755 151.056 159.262 151.062 151.815 150.536C148.548 150.305 145.258 149.987 142.003 149.489C139.233 149.067 136.481 148.518 133.786 147.784C131.734 147.223 129.67 146.552 127.796 145.534C127.582 145.419 127.363 145.292 127.131 145.159C126.362 144.702 125.564 144.118 125.154 143.355C125.096 143.25 125.044 143.141 125.003 143.025C124.096 140.556 129.646 138.954 131.144 138.463ZM205.344 180.99C205.344 181.284 205.339 181.585 205.333 181.886L205.315 182.73C205.136 189.553 204.176 196.988 200.129 202.476C195.781 208.373 188.831 211.987 181.991 214.167C166.281 219.174 146.784 218.237 132.63 209.235C123.755 203.591 120.783 192.987 120.095 182.724C120.077 182.429 120.054 182.134 120.037 181.84C120.019 181.522 120.002 181.204 119.99 180.891C119.881 178.313 119.904 175.774 120.002 173.369C120.135 170.154 120.401 166.934 120.8 163.725C120.846 163.366 120.887 163.002 120.939 162.643C120.985 162.273 121.037 161.903 121.089 161.533C121.852 156.098 122.98 150.703 124.414 145.436C125.559 146.749 127.53 147.633 128.935 148.194C134.463 150.414 140.58 151.282 146.466 151.906C154.682 152.773 162.991 152.912 171.236 152.444C178.603 152.028 186.183 151.27 193.243 149.021C195.457 148.316 198.834 147.194 200.528 145.101C202.078 150.808 203.298 156.694 204.124 162.626C204.159 162.886 204.2 163.141 204.234 163.401C204.269 163.655 204.304 163.91 204.332 164.164C204.986 169.304 205.344 174.473 205.35 179.585C205.35 180.047 205.35 180.515 205.344 180.99ZM213.439 177.312C211.722 179.457 209.311 180.521 206.72 180.868C206.801 177.572 206.692 174.265 206.437 170.975C206.518 170.94 206.611 170.888 206.715 170.802C208.218 169.559 209.716 168.315 211.219 167.078C211.855 166.552 211.814 164.927 210.837 165.731C209.334 166.974 207.836 168.217 206.333 169.455C206.322 169.46 206.316 169.472 206.304 169.483C206.113 167.344 205.865 165.205 205.576 163.083C206.807 162.082 208.154 161.146 209.64 160.573C212.167 159.596 214.289 160.354 215.266 162.834C217.041 167.292 216.469 173.531 213.439 177.312Z" fill="#3B0800"/>
<path d="M188.738 176.399C184.836 175.127 180.493 176.694 176.874 178.168C174.688 179.058 172.566 180.174 170.317 180.885C166.992 181.932 163.454 182.123 160.013 181.637C156.059 181.076 152.532 179.428 148.889 177.908C146.316 176.832 143.223 175.387 140.372 176.156C133.717 177.948 135.11 188.119 136.631 192.935C140.037 202.95 149.542 210.021 159.996 211.068C169.843 212.056 180.47 207.76 187.328 200.735C190.681 197.301 193.196 193.028 194.191 188.304C195.156 183.672 193.705 178.018 188.738 176.399ZM187.374 198.931C181.332 205.557 171.722 209.628 162.76 209.431C151.896 209.188 141.5 202.186 137.967 191.785C137.024 188.789 136.562 185.569 136.949 182.435C137.157 180.741 137.701 178.943 139.354 178.156C140.528 177.596 141.893 177.648 143.142 177.914C145.975 178.521 148.646 179.914 151.306 181.024C153.908 182.117 156.556 183.007 159.354 183.401C164.489 184.123 169.19 183.123 173.879 181.059C177.383 179.515 181.164 177.752 185.067 177.723C189.745 177.688 193.179 181.377 193.144 186.06C193.11 190.819 190.502 195.502 187.374 198.931Z" fill="#3B0800"/>
<path d="M156.695 175.855C157.839 175.017 158.614 173.907 159.1 172.652C160.019 175.526 161.858 178.226 164.83 177.468C167.235 176.855 168.438 174.363 168.767 171.86C169.195 172.502 169.664 173.114 170.172 173.675C172.393 176.121 176.041 178.099 179.094 175.855C183.141 172.889 182.523 166.581 181.025 162.476C179.609 158.943 176.851 154.71 172.722 154.132C168.999 153.612 166.645 157.087 166.096 160.348C165.61 163.21 166.096 166.315 167.27 169.079C167.264 169.154 167.264 169.223 167.281 169.287C167.889 171.762 166.802 177.682 162.985 175.271C160.592 173.756 159.748 170.177 159.782 167.564C159.782 167.396 159.753 167.286 159.701 167.211C159.545 165.523 159.135 163.869 158.626 162.476C157.209 158.943 154.451 154.71 150.323 154.132C146.599 153.612 144.246 157.087 143.697 160.348C142.916 164.973 144.645 170.218 147.773 173.67C149.988 176.121 153.636 178.093 156.695 175.855ZM168.288 157.411C168.299 157.451 168.316 157.497 168.334 157.538C170.699 162.198 175.22 164.927 180.141 166.274C180.223 166.297 180.31 166.293 180.389 166.263C181.112 169.992 181.019 175.063 176.689 175.086C172.67 175.109 169.658 170.611 168.397 167.309C167.495 164.962 166.524 159.966 168.288 157.411ZM145.888 157.411C145.9 157.451 145.917 157.497 145.934 157.538C148.299 162.198 152.821 164.927 157.741 166.274C157.823 166.297 157.91 166.293 157.99 166.263C158.713 169.992 158.62 175.063 154.289 175.086C150.271 175.109 147.258 170.611 145.998 167.309C145.102 164.962 144.125 159.966 145.888 157.411ZM177.903 181.973C177.792 181.965 177.681 181.992 177.585 182.048C177.492 182.1 177.406 182.146 177.313 182.198C176.417 182.551 175.561 182.95 174.769 183.343C171.815 184.806 168.744 185.939 165.605 186.349C161.702 186.604 158.198 185.8 154.758 184.366C150.745 182.291 145.518 179.047 142.055 182.308C139.389 184.823 139.875 189.373 141.101 192.461C147.247 207.292 169.409 208.928 181.008 199.983C183.806 197.827 186.154 194.884 187.692 191.704C188.981 189.038 189.918 185.395 187.576 183.013C184.905 180.302 181.205 180.77 177.903 181.973ZM152.329 187.691C151.996 186.819 151.731 185.922 151.537 185.008C151.994 185.234 152.451 185.447 152.902 185.65C156.423 187.223 159.956 188.182 163.864 188.142V188.269C163.87 190.79 163.87 193.317 163.876 195.838C158.892 195.618 154.191 192.582 152.329 187.691ZM175.532 188.402C174.388 191.143 172.468 193.519 169.71 194.739C168.276 195.375 166.773 195.722 165.281 195.82C165.275 193.265 165.275 190.709 165.269 188.148V188.084C165.31 188.078 165.356 188.078 165.397 188.078C165.842 188.044 166.281 187.992 166.721 187.922C170.282 187.373 173.694 185.789 176.851 184.06C176.666 185.54 176.07 187.107 175.532 188.402ZM134.902 145.679C139.534 146.87 144.408 147.246 149.161 147.552C155.92 147.992 162.714 148.055 169.484 147.807C175.411 147.593 181.436 147.234 187.258 146.055C189.259 145.65 193.329 145.054 193.74 142.481C193.763 142.401 193.775 142.325 193.769 142.25C193.78 142.077 193.751 141.961 193.705 141.892C193.167 140.093 189.669 139.614 188.259 139.307C183.182 138.209 177.92 137.839 172.745 137.578C165.946 137.237 159.117 137.237 152.318 137.578C147.195 137.833 141.997 138.209 136.966 139.255C135.076 139.648 131.456 140.18 130.733 142.406C130.011 144.598 133.445 145.303 134.902 145.679ZM180.667 112.323C176.833 111.016 173.006 109.709 169.172 108.402C168.403 108.142 167.507 109.836 168.207 110.073C172.04 111.38 175.868 112.687 179.701 113.994C180.476 114.26 181.366 112.565 180.667 112.323ZM168.484 111.548C167.709 111.288 166.819 112.987 167.519 113.219C170.982 114.369 174.44 115.526 177.903 116.676C178.678 116.937 179.568 115.237 178.869 115.005C175.411 113.855 171.948 112.698 168.484 111.548ZM156.018 41.6954C159.187 41.3774 161.32 38.5558 161.517 35.5202C161.523 35.4682 161.528 35.4162 161.528 35.3641C161.534 35.2658 161.523 35.1965 161.505 35.1329C161.476 34.8033 161.436 34.4795 161.361 34.1673C163.408 33.3173 165.454 32.4674 167.501 31.6232C168.594 32.9473 170.288 33.7452 172.144 33.5486C175.22 33.2306 177.267 30.4841 177.464 27.5527C177.469 27.5006 177.475 27.4486 177.475 27.3965C177.481 27.2982 177.469 27.2231 177.452 27.1595C177.29 25.2341 176.244 23.5399 174.682 22.6495C174.746 22.5743 174.804 22.4876 174.856 22.3778C176.405 19.2902 177.955 16.1968 179.505 13.1092C180.054 13.3347 180.667 13.4388 181.309 13.3636C183.598 13.115 185.073 11.0682 185.263 8.89992L185.281 8.72646C185.287 8.6166 185.275 8.52987 185.252 8.46627C185.009 6.3038 183.286 4.58655 180.985 4.87565C178.776 5.15318 177.082 7.32143 177.099 9.50703C177.111 10.7097 177.66 11.7967 178.516 12.5137C176.961 15.6128 175.411 18.7062 173.856 21.8053C173.78 21.9615 173.74 22.1002 173.723 22.2332C173.03 22.0143 172.3 21.9415 171.577 22.0193C170.664 22.1176 169.82 22.4471 169.08 22.9386C166.773 20.2095 164.46 17.4804 162.153 14.7513C162.355 14.2425 162.488 13.7048 162.534 13.1555L162.552 12.982C162.558 12.8722 162.546 12.7854 162.523 12.7218C162.28 10.5594 160.557 8.8421 158.256 9.1312C156.047 9.40874 154.353 11.577 154.37 13.7626C154.388 16.0176 156.296 17.8736 158.58 17.625C159.591 17.5151 160.441 17.0525 161.095 16.3876L167.704 24.1933C166.79 25.3035 166.241 26.72 166.246 28.1829C166.252 28.9577 166.42 29.692 166.715 30.3627C164.761 31.1722 162.8 31.9874 160.846 32.7969C159.852 30.8715 157.863 29.5937 155.475 29.8308C152.364 30.143 149.941 33.0745 149.964 36.1563C149.976 39.3884 152.751 42.025 156.018 41.6954ZM178.493 8.73224C178.533 7.22314 180.025 6.41944 181.407 6.6565C182.823 6.90513 183.812 8.08466 183.887 9.50125C183.772 11.6117 181.684 11.9817 180.141 11.2243C180.054 10.993 179.852 10.8716 179.632 10.9121C178.95 10.4206 178.47 9.66893 178.493 8.73224ZM158.672 10.9005C160.089 11.1491 161.077 12.3344 161.153 13.7452C160.968 17.1451 155.683 16.0349 155.758 12.9704C155.798 11.4613 157.29 10.6576 158.672 10.9005ZM168.675 24.9161C168.872 24.8582 169.074 24.6848 169.23 24.4651C170.126 23.8637 171.288 23.6151 172.41 23.8233C174.532 24.2164 175.989 26.0551 176.082 28.1655C175.839 33.5659 167.646 32.4269 167.634 27.3908C167.634 26.3847 168.045 25.5405 168.675 24.9161ZM156.278 31.6232C158.504 32.0221 160.042 33.9186 160.135 36.1447C159.898 41.7706 151.317 40.62 151.346 35.3699C151.364 32.7911 153.867 31.1953 156.278 31.6232ZM195.18 44.5749C197.92 44.8466 200.013 43.1236 201.124 40.753C201.719 39.4867 202.089 38.0759 202.257 36.6593C202.482 35.5549 202.575 34.4101 202.679 33.4272C203.02 30.1719 203.124 26.9108 202.997 23.644C207.478 24.812 212.075 25.1416 216.689 24.6617C216.538 28.3101 216.215 31.947 215.758 35.5665C213.381 34.7917 210.803 34.7512 208.704 36.3471C206.998 37.6422 205.859 39.8163 205.963 41.9845C206.067 44.1759 207.599 45.7197 209.768 45.9394C212.508 46.2112 214.601 44.4881 215.712 42.1175C216.498 40.4407 216.897 38.5095 216.943 36.6535C216.984 36.5148 216.995 36.376 216.978 36.2546V36.2314C217.544 31.9528 217.949 27.6567 218.099 23.3434C218.111 23.0022 217.88 22.823 217.568 22.8634C212.393 23.4706 207.2 22.9849 202.211 21.4758C201.522 21.2676 200.696 22.9733 201.54 23.2393C201.731 26.6507 201.69 30.0678 201.349 33.4676C201.326 33.7163 201.303 33.9822 201.28 34.2482C198.869 33.4387 196.238 33.3636 194.104 34.9883C192.398 36.2835 191.259 38.4575 191.363 40.6258C191.479 42.8113 193.011 44.3551 195.18 44.5749ZM212.45 43.8637C211.306 44.413 209.941 44.4245 208.698 43.5977C207.044 42.4933 207.015 40.1516 208.114 38.6425C209.843 36.2719 213.063 36.5494 215.503 37.4919C215.521 37.4977 215.532 37.5035 215.55 37.5093V37.5902C215.526 38.1857 215.457 38.7929 215.341 39.3884C215.208 40.0765 215.018 40.7472 214.763 41.3774C214.306 42.4933 213.462 43.3838 212.45 43.8637ZM193.526 37.2895C194.781 35.5665 196.827 35.2427 198.788 35.5549C199.545 35.6764 200.285 35.8903 200.962 36.1563C200.95 36.4801 200.927 36.8039 200.886 37.1334C200.858 37.3936 200.823 37.6538 200.771 37.914C200.638 38.6483 200.435 39.3653 200.164 40.036C200.054 40.3077 199.921 40.5621 199.765 40.7992C198.574 42.6784 196.18 43.6324 194.104 42.2505C192.451 41.1404 192.422 38.7986 193.526 37.2895ZM210.12 53.404L209.976 53.3693C209.461 53.2421 208.895 54.1094 208.947 54.6818V71.2183C208.947 71.7849 209.484 71.8081 209.831 71.5016C214.775 67.223 219.718 62.9443 224.662 58.6714C225.021 58.3591 225.535 57.301 224.807 57.116C219.915 55.8729 215.018 54.6413 210.12 53.404C210.126 53.404 210.126 53.404 210.12 53.404ZM210.34 69.3854V55.393C214.515 56.4453 218.683 57.4976 222.858 58.5557C218.689 62.1637 214.515 65.7775 210.34 69.3854ZM97.3193 63.2854C101.205 65.072 105.096 66.8587 108.982 68.6453C109.699 68.9749 110.23 67.7665 110.138 67.2345C109.542 63.9503 108.947 60.6662 108.351 57.3878C108.305 57.1276 108.166 57.0524 108.004 57.0871C107.912 57.0813 107.802 57.1045 107.669 57.1681C104.379 58.6656 101.083 60.1631 97.7934 61.6607C97.3944 61.8283 96.6948 62.9963 97.3193 63.2854ZM107.097 59.0241C107.536 61.4352 107.97 63.852 108.409 66.2631L99.8402 62.3256C102.257 61.2212 104.674 60.1227 107.097 59.0241ZM143.28 15.5261C143.494 15.7227 143.783 15.5839 144.02 15.3122C144.107 15.2312 144.188 15.1214 144.263 14.9826C145.981 11.8025 147.704 8.6166 149.421 5.4365C149.612 5.0838 149.797 4.11821 149.08 4.2801L136.55 7.05546C135.926 7.19423 135.382 8.28125 135.903 8.76115C138.366 11.0104 140.823 13.2711 143.28 15.5261ZM147.663 6.25755C146.374 8.65129 145.079 11.0393 143.789 13.433L138.25 8.34485C141.384 7.64523 144.524 6.95139 147.663 6.25755Z" fill="#3B0800"/>
<path d="M149.93 126.419C148.981 121.666 147.218 117.127 144.078 113.386C141.355 110.316 137.764 108.362 133.821 107.31L128.987 106.546C122.864 106.17 116.845 107.697 111.398 110.501C108.918 111.779 106.53 113.288 104.344 115.023C102.332 116.624 100.291 118.654 99.8113 121.29C98.8804 126.431 103.558 127.703 107.629 127.408C116.608 126.766 127.021 122.146 131.508 113.913L128.502 113.323C127.553 114.485 126.466 115.508 125.293 116.468C121.164 119.729 116.307 121.759 111.184 122.886C108.791 123.412 106.01 123.765 103.627 122.961C102.188 122.476 102.263 121.134 103.2 120.111C103.94 119.301 105.009 118.723 105.888 118.081C106.784 117.428 107.698 116.804 108.646 116.225C110.67 114.988 112.803 113.936 115.012 113.068C119.43 111.328 124.171 110.38 128.924 110.669C131.017 110.235 133.596 111.299 134.827 111.9C138.955 113.444 142.471 116.22 144.668 120.134C146.709 123.777 147.646 127.928 148.103 132.045C148.392 134.699 148.502 137.399 148.351 140.065C148.345 140.192 148.328 140.325 148.316 140.464C148.455 140.307 148.577 140.18 148.658 140.082C149.404 139.238 150.207 138.446 150.994 137.642C150.982 136.41 150.913 135.173 150.849 134.011C150.716 131.467 150.427 128.923 149.93 126.419Z" fill="#D0D3F5"/>
<path d="M222.193 100.579C222.257 100.446 222.355 100.337 222.471 100.244C222.528 100.111 222.586 100.007 222.621 99.955C224.853 96.7807 225.928 92.2649 224.922 88.4835C223.801 84.2684 219.707 81.0767 215.266 81.973C210.976 82.8403 207.339 86.7373 206.073 90.8252C204.743 95.127 205.709 99.9376 208.738 103.256L214.191 99.6081C214.133 99.5734 214.075 99.5329 214.017 99.4982C211.346 97.8619 209.727 95.1964 209.93 92.0336C209.93 92.0105 209.935 91.9932 209.941 91.97C209.941 91.9238 209.941 91.8775 209.947 91.8197C210.288 89.0559 212.491 87.4369 215.278 87.6277C218.822 87.8706 220.921 91.1259 220.846 94.4563C220.846 94.5604 220.823 94.6818 220.788 94.8032C220.759 94.9478 220.713 95.1559 220.707 95.1559C220.69 95.2311 220.678 95.312 220.667 95.3872C220.678 95.5664 220.626 95.7688 220.574 95.896C219.932 97.5208 218.868 98.8737 217.55 100.013L217.666 100.059C213.931 103.112 208.166 105.488 208.166 105.488V105.442C202.13 107.894 195.422 108.726 189.756 112.01C184.466 115.075 180.58 119.868 178.493 125.598C176.515 131.027 176.116 136.942 176.752 142.649C176.903 144.008 176.833 145.026 178.348 145.251C179.135 145.367 180.198 145.332 180.939 145.008C182.569 144.297 181.656 142.482 181.378 141.134C181.129 139.938 181.019 138.694 180.95 137.474C180.673 132.571 181.309 127.026 183.916 122.748C186.541 118.44 191.086 116.029 195.787 114.635C201.522 112.936 207.189 111.455 212.497 108.599C213.451 108.084 214.624 107.015 215.694 106.789C216.799 106.13 220.667 103.713 222.193 100.579ZM150.861 95.0056C150.797 94.8957 150.774 94.7685 150.774 94.624C149.901 92.9992 147.819 88.9056 146.975 85.2398L146.992 85.2456L146.975 85.1935C146.94 85.1354 146.918 85.0702 146.911 85.0027C146.894 84.9507 146.894 84.8986 146.894 84.8408C146.692 83.3202 146.715 81.9325 147.137 80.4465C147.172 80.3193 147.264 80.1574 147.38 80.0129C147.455 79.8741 147.53 79.7295 147.594 79.585C147.663 79.3942 147.773 79.2207 147.86 79.0993C149.548 76.8096 152.428 75.3294 155.272 76.2546C157.388 76.9426 159.366 79.0068 158.955 81.3601C158.533 83.7596 156.267 85.8006 154.058 86.5639C153.023 86.9223 151.45 87.1999 150.034 87.0611L152.138 93.3346C161.164 91.8775 165.599 80.3656 160.251 72.9704C157.701 69.4434 152.861 68.6859 149.161 70.9062C145.506 73.0976 143.436 77.781 143.251 81.9267C143.246 82.0366 143.182 82.2389 143.084 82.4586C143.118 82.5974 143.124 82.742 143.095 82.8865C142.39 86.2805 143.945 90.5245 144.443 91.7561C145.217 92.4499 145.397 93.722 145.813 94.6876C146.466 96.214 147.218 97.6942 148.027 99.1397C149.357 101.528 150.832 103.852 152.456 106.055C154.116 108.304 155.937 110.449 157.342 112.866C159.649 116.827 160.707 121.447 159.453 125.934C158.198 130.391 155.625 134.502 152.485 137.879C152.428 137.937 152.375 137.995 152.318 138.053C152.075 138.307 151.832 138.567 151.583 138.816C151.381 139.024 151.173 139.232 150.965 139.44C150.311 140.105 149.658 140.77 149.045 141.476C148.918 141.62 148.611 141.95 148.247 142.349C148.051 142.568 147.837 142.817 147.623 143.066C147.391 143.343 147.172 143.626 146.981 143.892C146.628 144.401 146.397 144.852 146.501 145.095C146.634 145.413 149.033 145.702 149.467 145.777C150.294 145.928 151.098 146.061 151.844 145.569C152.896 144.875 153.804 143.65 154.636 142.713C155.446 141.799 156.22 140.851 156.949 139.874C160.077 135.682 162.384 130.819 163.234 125.633C164.165 119.972 163.061 114.127 160.349 109.091C157.643 104.112 153.648 99.955 150.861 95.0056Z" fill="#D0D3F5"/>
<path d="M242.667 74.6876C242.667 74.6645 242.667 74.6356 242.661 74.6124C241.875 69.744 236.989 73.9533 235.914 76.3875C235.567 77.1739 235.388 77.9718 235.422 78.8333C235.498 80.6431 235.654 82.4181 235.59 84.2395C235.474 87.4369 234.873 90.5765 233.653 93.5311C233.41 93.9763 233.179 94.4158 232.925 94.8552C232.179 95.8671 231.826 96.4164 230.693 97.2547C228.825 98.6366 226.535 99.238 224.252 99.4866C227.472 93.7624 228.114 85.3959 222.037 81.4294C214.572 76.5552 206.067 85.0721 204.477 92.0741C203.523 96.2949 204.373 100.903 207.131 104.245C201.436 106.373 195.266 107.275 189.941 110.299C185.327 112.918 181.505 116.815 179.03 121.51C176.238 126.818 175.041 132.826 175.076 138.793C175.087 140.25 175.168 141.707 175.324 143.152C175.423 144.095 175.347 145.54 176.024 146.298C177.047 147.448 179.314 147.13 180.603 146.743C182.286 146.234 183.396 144.835 183.332 143.025C183.28 141.661 182.743 140.336 182.552 138.983C182.313 137.223 182.23 135.445 182.303 133.67C182.425 130.495 182.968 127.171 184.373 124.297C185.726 121.539 188.154 119.521 190.849 118.128C193.861 116.567 197.238 115.907 200.476 114.988C203.529 114.121 206.535 112.999 209.432 111.698C210.824 111.074 212.184 110.384 213.509 109.628C214.173 109.247 214.838 108.651 215.636 108.616C216.515 108.582 217.463 108.842 218.354 108.865C221.314 108.952 224.321 108.454 227.096 107.42C239.742 102.713 244.084 87.0206 242.679 74.7917C242.685 74.757 242.673 74.7223 242.667 74.6876ZM219.851 107.113C219.21 107.119 218.574 107.101 217.932 107.049C217.706 107.032 217.44 106.974 217.163 106.916C223.136 106.46 225.217 102.788 225.899 100.892C227.594 100.522 229.218 99.9029 230.675 98.9026C231.849 98.0931 232.456 97.4224 233.289 96.3238C233.404 96.2371 233.52 96.1157 233.624 95.948C233.931 95.445 234.208 94.942 234.486 94.4331C234.567 94.3406 234.636 94.2308 234.694 94.1093C234.752 93.9879 234.804 93.8665 234.844 93.7393C234.844 93.7335 234.844 93.7335 234.85 93.7277C235.891 91.2299 236.504 88.6107 236.798 85.9452C236.816 85.8931 236.827 85.8353 236.833 85.7833C236.845 85.6792 236.856 85.5809 236.862 85.4768C236.874 85.3901 236.868 85.3091 236.868 85.2398C237.012 83.6439 237.047 82.0423 236.989 80.4349C236.92 78.2667 236.533 76.6361 238.273 75.0114C239.597 73.774 240.962 73.7509 241.308 75.6995C242.505 86.4077 239.319 100.487 228.484 105.263C225.784 106.454 222.806 107.078 219.851 107.113ZM180.944 137.469C181.014 138.689 181.124 139.932 181.372 141.129C181.65 142.482 182.563 144.291 180.933 145.003C180.193 145.326 179.129 145.367 178.342 145.245C176.833 145.02 176.897 144.008 176.747 142.643C176.111 136.931 176.51 131.016 178.487 125.592C180.574 119.862 184.46 115.069 189.75 112.005C195.417 108.72 202.13 107.888 208.16 105.436V105.488C208.16 105.488 213.931 103.112 217.66 100.059L217.544 100.013C218.863 98.8795 219.927 97.5207 220.568 95.896C220.615 95.7746 220.667 95.5664 220.661 95.3872C220.672 95.312 220.69 95.2311 220.701 95.1559C220.707 95.1559 220.748 94.9477 220.782 94.8032C220.817 94.6818 220.84 94.5603 220.84 94.4563C220.915 91.1258 218.816 87.8706 215.272 87.6277C212.485 87.4369 210.282 89.0559 209.941 91.8197C209.935 91.8775 209.935 91.9237 209.935 91.97C209.93 91.9931 209.924 92.0105 209.924 92.0336C209.721 95.1964 211.34 97.8619 214.012 99.4982C214.069 99.5329 214.127 99.5675 214.185 99.608L208.733 103.256C205.703 99.9376 204.737 95.127 206.067 90.8252C207.333 86.7373 210.97 82.8402 215.261 81.9729C219.701 81.0767 223.801 84.2684 224.916 88.4835C225.923 92.2649 224.841 96.7806 222.615 99.9549C222.581 100.007 222.523 100.111 222.465 100.244C222.355 100.337 222.257 100.446 222.187 100.579C220.661 103.713 216.793 106.136 215.677 106.783C214.613 107.015 213.433 108.084 212.479 108.593C207.171 111.45 201.505 112.93 195.769 114.63C191.069 116.023 186.524 118.434 183.899 122.742C181.309 127.02 180.667 132.565 180.944 137.469ZM216.203 89.7613C218.354 90.6517 219.441 92.8142 219.447 95.0518C219.383 95.2831 219.25 95.6878 219.227 96.0405C218.724 97.1507 217.92 98.0064 217.007 98.7928C213.78 97.5381 211.138 95.0749 211.311 91.386C211.67 89.1715 214.411 89.0212 216.203 89.7613ZM152.844 94.8668C160.586 92.9992 165.003 84.4129 163.587 76.7749C162.957 73.3693 161.083 69.8654 157.724 68.5124C154.041 67.0265 149.843 68.2291 147.033 70.8888C144.396 73.3867 142.679 76.9542 142.072 80.5737C140.528 79.0357 139.221 77.2548 138.568 75.1502C138.181 73.8955 138.175 72.7795 138.198 71.4844C138.273 70.9524 138.36 70.4321 138.447 69.9001C139.129 67.3676 140.239 65.0028 141.65 62.7825C142.459 61.5046 143.396 60.2846 144.362 59.1225C145.027 58.3188 145.853 57.6191 146.414 56.7461C147.628 54.8669 147.952 50.9814 146.073 49.3682C145.188 48.6108 144.13 48.9114 143.269 49.5532C141.372 50.9756 139.8 53.2364 138.458 55.1618C135.515 59.3884 133.393 64.147 132.312 69.1831C131.289 74.4563 131.745 80.007 134.486 84.7078C135.781 86.9339 137.475 88.9171 139.424 90.5997C140.384 91.4265 141.419 92.1781 142.511 92.82C143.951 93.6699 144.246 95.3987 144.917 96.8674C147.443 102.378 151.057 106.997 154.544 111.895C157.967 116.705 159.713 122.146 157.539 127.853C156.463 130.68 154.775 133.306 152.844 135.618C152.67 135.826 152.497 136.029 152.318 136.225C152.329 133.519 152.127 130.813 151.751 128.136C150.936 122.285 149.12 116.497 145.269 111.912C142.471 108.761 138.863 106.76 134.839 105.627C134.81 94.676 126.362 84.9391 117.776 79.0646C108.189 72.502 95.1626 70.6749 85.0788 77.3068C80.4647 80.3424 76.9608 84.7888 74.5729 89.7324C73.8675 91.1894 69.0915 101.25 73.7518 100.99C75.8507 100.874 76.6024 98.0642 77.1112 96.48C78.0305 93.6005 79.3661 90.8252 81.2569 88.4488C85.4315 83.2045 92.0056 80.6662 98.6202 80.8165C105.697 80.9784 112.26 84.1354 117.591 88.6511C122.425 92.7506 127.605 98.3533 129.172 104.725C123.061 104.442 117.059 105.997 111.601 108.761C106.831 111.178 100.869 114.722 98.892 120.007C98.094 122.14 97.9322 124.945 99.3545 126.864C100.551 128.483 102.627 129.038 104.547 129.171C109.664 129.518 115.145 127.899 119.725 125.748C125.327 123.118 130.387 118.914 133.098 113.282C138.291 114.936 142.367 118.631 144.495 123.678C146.657 128.819 147.212 134.728 146.981 140.255C146.958 140.787 146.859 141.481 146.831 142.187C145.518 143.881 144.269 146.009 145.68 146.83C146.455 147.281 147.9 147.356 148.791 147.523C149.554 147.662 150.352 147.761 151.109 147.518C152.994 146.911 154.625 144.54 155.85 143.106C159.349 139.012 162.164 134.248 163.697 129.067C165.477 123.042 165.339 116.642 163.014 110.779C160.673 104.893 156.157 100.232 152.844 94.8668ZM163.228 125.639C162.378 130.819 160.066 135.682 156.943 139.88C156.215 140.857 155.44 141.805 154.63 142.719C153.798 143.655 152.89 144.881 151.838 145.575C151.098 146.061 150.288 145.933 149.461 145.783C149.028 145.702 146.628 145.419 146.495 145.101C146.391 144.858 146.622 144.407 146.975 143.898C147.16 143.626 147.386 143.349 147.617 143.071C147.825 142.823 148.039 142.574 148.241 142.354C148.606 141.95 148.912 141.626 149.039 141.481C149.652 140.776 150.306 140.111 150.959 139.446C151.167 139.238 151.369 139.03 151.578 138.822C151.826 138.567 152.069 138.313 152.312 138.058C152.37 138.001 152.428 137.943 152.48 137.885C155.619 134.508 158.198 130.397 159.447 125.939C160.707 121.458 159.649 116.838 157.336 112.872C155.926 110.455 154.104 108.304 152.451 106.061C150.826 103.864 149.351 101.533 148.022 99.1455C147.212 97.7 146.46 96.2198 145.807 94.6933C145.391 93.7219 145.212 92.4557 144.437 91.7618C143.94 90.5303 142.384 86.2863 143.09 82.8923C143.118 82.7477 143.107 82.6032 143.078 82.4644C143.176 82.2505 143.24 82.0423 143.246 81.9324C143.437 77.7868 145.501 73.1091 149.155 70.912C152.855 68.6917 157.695 69.4433 160.245 72.9761C165.593 80.3713 161.158 91.8833 152.133 93.3403L150.028 87.0669C151.445 87.2056 153.017 86.9281 154.052 86.5696C156.261 85.8064 158.533 83.7653 158.95 81.3658C159.36 79.0125 157.377 76.9484 155.266 76.2603C152.422 75.3352 149.542 76.8154 147.854 79.105C147.767 79.2265 147.663 79.3999 147.588 79.5907C147.524 79.7353 147.449 79.8798 147.374 80.0186C147.258 80.1632 147.172 80.3251 147.131 80.4523C146.709 81.9382 146.686 83.3317 146.888 84.8466L146.906 85.0085C146.917 85.0894 146.94 85.153 146.969 85.1993L146.987 85.2513L146.969 85.2455C147.813 88.9113 149.895 93.005 150.768 94.6297C150.768 94.7685 150.791 94.9015 150.855 95.0113C153.648 99.9607 157.643 104.118 160.332 109.102C163.055 114.132 164.153 119.978 163.228 125.639ZM148.103 132.045C147.652 127.922 146.715 123.777 144.668 120.134C142.477 116.22 138.961 113.444 134.827 111.901C133.596 111.299 131.017 110.235 128.924 110.669C124.171 110.386 119.435 111.328 115.012 113.069C112.803 113.936 110.67 114.988 108.646 116.225C107.698 116.804 106.784 117.428 105.888 118.082C105.009 118.723 103.94 119.302 103.2 120.111C102.263 121.134 102.188 122.476 103.627 122.962C106.01 123.765 108.785 123.413 111.185 122.886C116.302 121.759 121.158 119.729 125.293 116.468C126.466 115.503 127.553 114.479 128.502 113.323L131.508 113.913C127.021 122.146 116.608 126.766 107.629 127.408C103.552 127.703 98.8804 126.431 99.8113 121.291C100.285 118.654 102.332 116.624 104.344 115.023C106.53 113.288 108.918 111.779 111.398 110.501C116.845 107.697 122.864 106.171 128.987 106.546L133.821 107.31C137.759 108.368 141.349 110.316 144.078 113.387C147.218 117.127 148.981 121.672 149.93 126.419C150.427 128.917 150.716 131.461 150.849 134.011C150.913 135.173 150.982 136.405 150.994 137.642C150.207 138.446 149.404 139.238 148.658 140.082C148.571 140.18 148.455 140.308 148.317 140.464C148.334 140.325 148.345 140.192 148.351 140.065C148.502 137.399 148.392 134.699 148.103 132.045ZM124.917 115.127C121.471 117.85 117.527 119.544 113.312 120.701C111.109 121.308 108.802 121.805 106.501 121.603C105.923 121.551 105.379 121.447 104.813 121.325C104.408 121.238 103.963 121.36 104.107 120.996C104.287 120.533 105.859 119.729 106.27 119.429C112.37 114.959 120.118 112.097 127.738 112.404C126.912 113.415 125.934 114.294 124.917 115.127ZM79.9617 88.2406C78.4584 90.3048 77.2731 92.5887 76.3769 94.9766C75.9663 96.0694 75.7871 97.3646 75.2089 98.3822C74.8041 99.0876 74.0294 99.5444 73.4223 98.7928C73.0059 98.2782 73.1158 97.353 73.2314 96.7575C73.7114 94.1903 74.9314 91.5363 76.134 89.2409C77.4061 86.8125 78.9614 84.5286 80.8463 82.528C89.2823 73.5775 102.928 72.9357 113.37 78.6309C118.649 81.5104 123.344 85.5867 127.045 90.3221C130.311 94.5025 132.907 99.4461 133.382 104.771L130.722 104.529C129.716 99.1397 126.102 94.543 122.419 90.6517C118.666 86.6968 114.272 83.2681 109.195 81.1924C99.0192 77.0467 86.6515 79.0414 79.9617 88.2406ZM137.678 86.1302C133.653 81.1866 132.462 75.0403 133.665 68.8478C134.619 64.3956 136.463 60.1863 139.007 56.4107C140.199 54.6414 141.604 52.6061 143.257 51.2358C144.385 50.3049 145.206 50.8079 145.657 52.0858C146.033 53.1439 146.131 54.6356 145.663 55.6822C145.316 56.4627 144.576 57.0294 144.026 57.6712C143.243 58.5923 142.499 59.5452 141.794 60.5275C141.447 61.0132 141.112 61.5104 140.794 62.0077C140.736 62.0713 140.684 62.1349 140.632 62.2216C140.58 62.3083 140.522 62.3951 140.47 62.4818C140.43 62.5512 140.395 62.6206 140.366 62.69C138.973 64.9681 137.88 67.4023 137.163 69.9868C137.163 69.9926 137.157 69.9984 137.157 70.0042C137.094 70.2066 137.042 70.4147 136.99 70.6171C136.943 70.8021 136.943 70.9351 136.966 71.0334C136.891 71.5075 136.816 71.9816 136.764 72.4673C136.741 72.6755 136.764 72.82 136.81 72.9241C136.897 76.0579 138.013 78.6483 139.927 80.9495C139.326 82.8865 138.822 86.9397 143.066 90.8541C141.043 89.5531 139.233 88.0325 137.678 86.1302ZM148.733 79.8741C150.005 78.2956 151.959 77.3878 154.012 77.8561C155.532 78.2031 157.631 79.6543 157.608 81.4121C157.579 83.2507 155.295 84.6095 153.74 85.0085C152.277 85.3843 148.791 85.7023 148.247 83.8463C148.097 82.8113 148.056 81.7937 148.299 80.776C148.478 80.4869 148.623 80.1458 148.733 79.8741Z" fill="#3B0800"/>
</svg>
