<svg width="220" height="46" viewBox="0 0 220 46" fill="none" xmlns="http://www.w3.org/2000/svg">
<g clip-path="url(#clip0_3411_36847)">
<path d="M45.5869 45.5869H0V0H45.5869V45.5869ZM27.2109 33.5376C26.1065 34.2405 24.8013 35.3445 23.5965 35.9468C23.4961 35.2442 23.3955 34.7422 23.3955 34.0396C22.6927 35.0435 21.9894 35.8464 21.1863 36.7499C19.9816 37.051 18.5762 36.951 17.4719 36.951L17.3709 37.252C18.1741 37.6536 18.9775 37.9553 19.8811 38.1561C19.1783 38.7584 18.2747 39.2603 17.5719 39.7623L17.4719 40.0643C18.8775 39.763 20.7847 39.1597 22.1904 38.2561C22.8932 38.2561 23.5965 38.2565 24.0986 38.1561L24.1986 37.855C24.0982 37.5539 23.797 37.3528 23.6965 36.8509C25.0019 35.8468 25.9064 34.9431 27.0109 33.8386L27.2109 33.5376ZM7.02875 26.7089C6.82793 29.0183 6.72754 30.6251 7.02875 32.4325C6.12505 32.7337 5.32177 32.7343 4.51848 33.0355L4.41846 33.3366C5.62318 34.0393 6.52725 34.6414 7.93284 35.2438C8.63571 36.7499 9.43822 37.8552 10.6431 39.0602L10.7441 38.7581C10.5433 37.8546 10.2417 37.1518 10.3421 36.1479C11.8483 36.6499 13.0536 36.8505 14.7606 36.951L14.8606 36.6499C13.3545 36.0475 11.848 35.6456 10.6431 34.4407C11.0447 33.3364 11.4467 32.5332 12.1493 31.5294L12.2503 31.2273C10.945 31.4282 9.84039 31.9306 8.73593 32.1314C7.8323 30.6254 7.53074 28.5169 7.02875 26.5088V26.7089ZM18.978 14.0575C18.1747 14.1579 16.0659 15.1622 14.7606 16.2667C14.7606 16.2667 13.8568 16.2667 12.2503 16.2667C10.9451 16.3671 8.93705 16.4676 7.93284 16.7688L7.83184 17.0698C9.43828 17.1702 11.5469 17.5718 12.3503 18.375C12.3438 18.3807 9.93712 20.4901 7.63082 25.1027C7.63082 25.1027 11.848 21.1864 13.6555 20.1822C13.6555 20.1822 14.5598 23.3961 15.2626 25.0027L15.3626 24.7006C15.5635 23.6962 15.9656 20.8848 16.7688 19.1781C16.78 19.1708 17.0941 18.9756 18.375 18.877C19.7807 18.6762 21.6889 18.6766 25.3037 19.2791L25.4037 18.978C24.6004 18.476 21.2872 17.0698 17.7729 16.5678H17.8729C18.375 15.162 18.978 14.0575 18.978 14.0575ZM25.7048 5.32157C26.9097 5.82363 31.931 8.5353 32.5335 9.439C30.0232 9.74023 25.1025 11.045 22.3914 12.3503L22.1904 12.6514C25.1023 12.0489 29.2199 11.7481 32.0314 11.5472C31.0273 13.0534 30.3236 13.8567 28.7171 15.5637L28.6171 15.8647C31.6293 14.0574 32.5333 13.8569 35.3448 12.2503C36.4492 13.857 36.6499 17.4718 36.6499 20.2832C37.654 18.4758 38.7581 11.547 38.2561 10.3421C40.0635 9.03677 40.3653 8.03286 40.3653 8.03286C38.6583 8.23368 37.6536 8.23368 36.7499 8.53491C34.6412 7.22961 29.6212 5.4222 25.8058 5.02054L25.7048 5.32157Z" fill="white"/>
<path d="M62.6562 16.668C65.769 16.668 66.8735 17.2704 66.8735 18.9774C66.8735 19.4795 66.7731 19.8811 66.4718 20.1824C65.8694 20.8852 64.7649 21.2869 63.2587 21.1865H63.1583L62.2546 23.3955H63.1583C64.8653 23.3955 66.3714 23.8976 67.0743 24.8013C67.3756 25.2029 67.5764 25.705 67.5764 26.207C67.5764 27.914 66.0702 28.8177 63.0579 28.8177C62.5558 28.8177 61.7525 28.8177 61.2505 28.8177C61.1501 26.5082 61.1501 23.2951 61.1501 22.3914C61.1501 21.2869 61.2505 18.877 61.2505 16.7684C61.5517 16.668 62.1542 16.668 62.6562 16.668ZM57.0332 15.0614C57.1337 16.668 57.2341 20.8852 57.2341 22.3914C57.2341 23.7971 57.2341 28.5164 57.0332 30.5247V30.7255H64.2628C67.8776 30.7255 71.6932 29.621 71.6932 26.4078C71.6932 24.3996 70.187 22.8934 67.476 22.0902C69.4842 21.5881 70.8899 20.1824 70.8899 18.5758C70.8899 15.9651 67.8776 14.961 65.0661 14.8606H56.9328L57.0332 15.0614Z" fill="white"/>
<path d="M88.6627 14.8606H85.0479L85.1483 18.877C85.2487 20.8852 85.2487 22.8935 85.4495 24.8013C85.2487 24.1988 85.0479 23.8976 83.9434 22.291C83.9434 22.1906 80.2282 16.4672 78.9228 14.8606H74.806V15.0614C74.9064 16.668 75.0068 20.8852 75.0068 22.3914C75.0068 23.7971 75.0068 28.5164 74.806 30.5247V30.7255H78.5212V30.5247C78.3204 26.7091 78.3204 22.793 78.3204 18.9774C78.4208 19.4795 78.6216 19.7807 79.2241 20.6844C79.2241 20.7848 85.6503 30.0226 85.9516 30.6251V30.7255H88.9639V30.5247C88.7631 28.5164 88.7631 23.7971 88.7631 22.3914C88.7631 20.8852 88.8635 16.668 88.9639 15.0614V14.961H88.6627V14.8606Z" fill="white"/>
<path d="M98.4025 16.7684C100.511 16.7684 101.917 17.17 102.62 17.9733C102.921 18.375 103.122 18.877 103.122 19.3791C103.122 21.6885 100.511 22.1906 98.4025 22.1906H97.4988C97.4988 22.1906 97.298 22.1906 97.0971 22.1906C97.0971 21.6885 97.0971 20.9856 97.0971 20.1824C97.0971 19.1783 97.0971 17.9733 97.0971 16.8688C97.3984 16.8688 97.9004 16.7684 98.4025 16.7684ZM92.9803 15.0614C93.0807 16.668 93.1811 20.8852 93.1811 22.3914C93.1811 23.7971 93.1811 28.5164 92.9803 30.5247V30.7255H97.3984V30.5247C97.298 29.0185 97.1976 26.3074 97.1976 24.1988C97.3984 24.1988 98.0008 24.1988 98.0008 24.1988H98.6033C104.427 24.1988 107.239 22.6926 107.239 19.4795C107.239 15.7643 103.323 14.961 100.009 14.8606H93.0807V15.0614" fill="white"/>
<path d="M120.995 16.7684C123.104 16.7684 124.509 17.17 125.212 17.9733C125.513 18.375 125.714 18.877 125.714 19.3791C125.714 21.6885 123.104 22.1906 120.995 22.1906H120.091C120.091 22.1906 119.89 22.1906 119.69 22.1906C119.69 21.6885 119.69 20.9856 119.69 20.1824C119.69 19.1783 119.69 17.9733 119.69 16.8688C119.991 16.8688 120.493 16.7684 120.995 16.7684ZM115.573 15.0614C115.673 16.668 115.774 20.8852 115.774 22.3914C115.774 23.7971 115.774 28.5164 115.573 30.5247V30.7255H119.991V30.5247C119.89 29.0185 119.79 26.3074 119.79 24.1988C119.991 24.1988 120.593 24.1988 120.593 24.1988H121.196C127.02 24.1988 129.831 22.6926 129.831 19.4795C129.831 15.7643 125.815 14.961 122.501 14.8606H115.573V15.0614Z" fill="white"/>
<path d="M136.759 19.5799C137.061 20.3832 138.065 22.3914 139.069 24.9017C138.868 24.9017 138.667 24.9017 138.667 24.9017H136.759C136.759 24.9017 134.751 24.9017 134.45 24.9017C135.253 22.8934 136.057 21.0861 136.759 19.5799ZM135.655 14.8606C134.751 17.17 129.429 28.7173 128.626 30.5247L128.526 30.7255H132.241V30.6251C132.542 29.5206 133.044 28.3156 133.546 27.0103C133.747 27.0103 136.659 27.0103 136.659 27.0103H139.27C139.27 27.0103 139.671 27.0103 139.772 27.0103C140.475 28.7173 140.977 30.0226 141.177 30.6251V30.7255H145.495L138.466 14.8606H138.567H135.655Z" fill="white"/>
<path d="M147.403 15.0614C147.503 16.668 147.604 20.8852 147.604 22.3914C147.604 23.7971 147.604 28.5164 147.403 30.5247V30.7255H151.821V30.5247C151.62 28.5164 151.52 23.7971 151.52 22.3914C151.52 21.2869 151.52 18.877 151.62 16.8688C151.921 16.8688 152.424 16.7684 152.825 16.7684C154.833 16.7684 156.34 17.17 157.042 17.9733C157.344 18.375 157.544 18.877 157.544 19.3791C157.544 21.1865 155.838 22.0902 154.231 22.1906C153.729 22.1906 153.327 22.1906 153.327 22.1906L153.026 22.0902L153.227 22.3914C154.833 24.7008 157.143 28.6169 158.147 30.5247V30.6251H162.866L162.766 30.4243C162.565 30.123 159.452 25.6045 158.147 23.6967L158.047 23.5963C160.456 22.8934 161.661 21.4877 161.661 19.4795C161.661 15.8647 157.745 14.961 154.331 14.8606H147.403V15.0614Z" fill="white"/>
<path d="M169.092 14.8606H164.874V14.961C164.975 16.5676 165.075 20.7848 165.075 22.291C165.075 23.6967 165.075 28.416 164.874 30.4243V30.6251H169.292V30.4243C169.092 28.416 169.092 23.6967 169.092 22.291C169.092 20.7848 169.192 16.5676 169.292 14.961V14.8606H169.092Z" fill="white"/>
<path d="M178.832 16.668C181.944 16.668 183.049 17.2704 183.049 18.9774C183.049 19.4795 182.948 19.8811 182.647 20.1824C182.045 20.8852 180.94 21.2869 179.434 21.1865H179.334L178.53 23.3955H179.334C181.041 23.3955 182.446 23.8976 183.25 24.8013C183.651 25.2029 183.752 25.705 183.752 26.207C183.752 27.914 182.245 28.8177 179.133 28.8177C178.631 28.8177 177.827 28.8177 177.325 28.8177C177.225 26.5082 177.225 23.2951 177.225 22.3914C177.225 21.2869 177.225 18.877 177.325 16.7684C177.727 16.668 178.329 16.668 178.832 16.668ZM173.209 15.0614C173.309 16.668 173.409 20.8852 173.409 22.3914C173.409 23.7971 173.409 28.5164 173.209 30.5247V30.7255H180.538C184.153 30.7255 187.969 29.621 187.969 26.4078C187.969 24.3996 186.463 22.8934 183.752 22.0902C185.76 21.5881 187.166 20.1824 187.166 18.5758C187.166 15.9651 184.153 14.961 181.342 14.8606H173.209V15.0614Z" fill="white"/>
<path d="M196.905 19.4795C197.307 20.1824 198.211 22.291 199.215 24.8013C199.014 24.8013 198.914 24.8013 198.914 24.8013H197.006C197.006 24.8013 194.998 24.8013 194.696 24.8013C195.399 22.8935 196.203 21.0861 196.905 19.4795ZM198.713 14.8606H195.801V14.961C194.897 17.3709 189.375 29.5206 188.873 30.5247L188.772 30.7255H192.588V30.6251C192.889 29.5206 193.291 28.3156 193.793 27.0103C193.893 27.0103 196.905 27.0103 196.905 27.0103H199.516H200.018C200.721 28.7173 201.223 30.0226 201.424 30.6251V30.7255H205.742L198.713 14.8606Z" fill="white"/>
<path d="M207.147 18.9776C207.147 21.7891 209.959 22.8936 212.369 23.8978C214.277 24.701 216.285 25.5043 216.285 26.8097C216.285 27.2113 216.184 27.5125 215.984 27.8138C215.481 28.3158 214.578 28.6171 213.072 28.5166C211.565 28.4162 209.959 28.0146 208.051 27.1109L207.348 26.7093V27.3117V30.1232L207.85 30.2236H208.151C209.055 30.4245 210.863 30.8261 212.57 30.8261C217.188 30.8261 220 29.0187 220 25.906C220 22.9941 217.188 21.8895 214.578 20.8854C212.67 20.0821 210.762 19.3793 210.762 18.1743C210.762 17.7727 210.762 16.7686 213.172 16.7686C214.979 16.7686 216.686 17.4715 217.691 17.8731L218.594 18.2748V17.6723V14.7604L217.691 14.5596C216.787 14.3587 215.281 14.0575 213.774 14.0575C209.758 14.2583 207.147 16.1661 207.147 18.9776Z" fill="white"/>
</g>
<defs>
<clipPath id="clip0_3411_36847">
<rect width="219.1" height="45.4" fill="white" transform="scale(1.00411)"/>
</clipPath>
</defs>
</svg>
