<svg width="221" height="40" viewBox="0 0 221 40" fill="none" xmlns="http://www.w3.org/2000/svg">
<g clip-path="url(#clip0_3411_36735)">
<path d="M120.232 37.3088H148.751V33.8241H125.121V22.6737H142.87V19.1478H125.121V8.8748H148.751V5.40283H120.232V37.3088Z" fill="white"/>
<path d="M135.053 0.245117L131.191 4.58424L143.312 0.245117H135.053Z" fill="white"/>
<path d="M196.627 33.8241V5.40283H192.17V37.3088H221V33.8241H196.627Z" fill="white"/>
<path d="M167.231 5.40283L151.013 37.3088H156.495L160.644 29.0506H180.094L184.279 37.3088H189.704L173.473 5.40283H167.231ZM162.696 25.0513L170.339 9.8116L178.07 25.0513H162.696Z" fill="white"/>
<path d="M104.757 23.9672C112.064 22.0168 112.774 16.5781 112.737 14.6338C112.301 8.93393 108.462 5.40283 101.563 5.40283H81.4607V37.3088H86.0434V23.9247H99.1307L108.759 37.3088H114.535C114.535 37.3088 107.606 28.3011 104.757 23.9672ZM100.938 20.1548H86.0434V9.17933H101.457C105.005 9.17933 107.002 10.8366 107.721 12.9417C108.196 14.3848 107.891 16.2791 107.104 17.5688C105.816 19.7011 103.369 20.1548 100.938 20.1548Z" fill="white"/>
<path d="M53.9208 0C40.9846 0 32.1675 9.12399 32.1675 20.1672C32.1675 31.7929 41.9072 40 53.9208 40C65.9263 40 75.6622 31.9101 75.6622 20.1672C75.6622 9.12399 66.736 0 53.9208 0ZM53.7655 36.0395C44.8156 36.0395 37.4414 28.8449 37.4414 20.178C37.4414 11.5229 44.4675 3.98375 54.1125 3.98375C63.5185 3.98375 70.4328 11.5229 70.4328 20.178C70.4328 28.8446 62.7116 36.0395 53.7655 36.0395Z" fill="white"/>
<path d="M20.6257 16.69H23.9324L29.9345 5.40283H25.1046L20.6257 16.69Z" fill="white"/>
<path d="M4.46006 33.8241V5.40283H0V37.3088H28.8292V33.8241H4.46006Z" fill="white"/>
</g>
<defs>
<clipPath id="clip0_3411_36735">
<rect width="221" height="40" fill="white"/>
</clipPath>
</defs>
</svg>
