<svg width="220" height="40" viewBox="0 0 220 40" fill="none" xmlns="http://www.w3.org/2000/svg">
<g clip-path="url(#clip0_3411_36721)">
<path d="M200.162 6.30723H199.946C196.873 6.30723 186.792 7.27758 186.738 19.8921C186.738 33.0458 197.79 33.6927 200 33.6927H200.108C201.509 33.6927 206.307 33.4231 209.757 30.0269C212.183 27.6549 213.369 24.2048 213.369 19.8921C213.315 7.27758 203.234 6.30723 200.162 6.30723ZM204.097 28.3558C203.342 29.0027 202.102 29.7574 200.216 29.7574H199.838C197.951 29.7574 196.712 29.0027 195.957 28.3558C194.07 26.6846 193.1 23.6657 193.1 19.407C193.154 11.0512 197.305 9.81128 199.784 9.81128H200.162C202.641 9.81128 206.792 11.0512 206.846 19.407C206.954 23.6657 205.984 26.6846 204.097 28.3558ZM40.8625 37.7897C38.4366 36.8733 34.8786 34.2318 32.7762 31.752C30.1886 28.787 23.9352 20.4851 23.8813 20.4312L21.0242 16.6576C18.2749 12.8841 15.1482 8.6792 12.0215 6.14551V33.6388H15.7951V19.407L15.849 19.5148C16.8732 20.8086 17.9514 22.2102 19.0296 23.6118C20.8085 25.876 22.5875 28.2479 24.097 29.973C25.1212 31.159 27.8166 34.0161 28.5714 34.663C32.0215 37.9514 37.628 40.0539 43.1805 40.0539C45.6064 40.0539 47.9244 39.6765 50.0808 38.9757V38.814C49.2183 38.9757 48.2479 39.0835 47.2775 39.0835C45.1751 38.9757 42.9649 38.5983 40.8625 37.7897Z" fill="white"/>
<path d="M17.0889 8.30189C19.6765 11.2129 26.1456 19.5148 26.2534 19.6226L29.1105 23.3962C31.8598 27.1698 34.9865 31.3747 38.0593 33.9084V6.30728H34.3396V20.593L34.2318 20.4852C33.2075 19.1914 32.1294 17.7898 31.0512 16.3881C29.2722 14.124 27.4933 11.752 25.9838 10.027C24.9596 8.84097 22.0485 5.98383 21.2938 5.33693C17.8437 2.04852 12.2372 0 6.68464 0C4.25876 0 2.15633 0.377358 0 1.13208V1.2938C0.862534 1.07817 1.83288 1.02426 2.85714 1.02426C4.95957 1.02426 7.00809 1.45553 9.0566 2.26415C11.4825 3.12668 15.0404 5.76819 17.0889 8.30189ZM162.857 20.3235C159.784 17.6819 156.388 17.035 153.801 15.2561C152.022 13.8005 152.075 11.8598 153.046 10.8895C155.256 8.46361 159.677 9.43396 160.809 9.7035C162.156 10.027 162.857 10.4043 164.097 10.9973V7.92453C158.706 6.30728 150.081 4.79784 146.739 10.2965C145.499 12.5606 145.175 16.6577 148.787 19.0836C152.399 21.9407 158.652 23.2884 159.353 25.6604C159.838 26.9542 159.299 28.1941 158.437 29.0566C155.256 32.0755 149.757 30.2426 146.469 28.7332V32.0216C150.081 33.6388 154.609 34.0701 158.652 33.2076C161.402 32.5067 164.528 30.0809 164.96 27.0081C165.445 23.9353 164.852 21.9946 162.857 20.3235ZM182.803 20.3235C179.73 17.6819 176.334 17.035 173.747 15.2561C171.968 13.8005 172.022 11.8598 172.992 10.8895C175.202 8.46361 179.623 9.43396 180.755 9.7035C182.102 10.027 182.803 10.4043 184.043 10.9973V7.92453C178.652 6.30728 170.027 4.79784 166.685 10.2965C165.445 12.5606 165.121 16.6577 168.733 19.0836C172.345 21.9407 178.598 23.2884 179.299 25.6604C179.784 26.9542 179.245 28.1941 178.383 29.0566C175.148 32.0755 169.704 30.2426 166.415 28.7332V32.0216C170.027 33.6388 174.555 34.0701 178.598 33.2076C181.348 32.5067 184.474 30.0809 184.96 27.0081C185.337 23.9353 184.744 21.9946 182.803 20.3235ZM127.116 32.938H144.42V29.8113H133.1V21.186H142.156V18.1671H133.1V10.1887H144.42V7.062H127.116V32.938ZM77.4124 20.3235C74.3396 17.6819 70.9434 17.035 68.3558 15.2561C66.5768 13.8005 66.6307 11.8598 67.6011 10.8895C69.8113 8.46361 74.2318 9.43396 75.3639 9.7035C76.7116 10.027 77.4124 10.4043 78.6523 10.9973V7.92453C73.2615 6.30728 64.6361 4.79784 61.2938 10.2965C60.0539 12.5606 59.7305 16.6577 63.3423 19.0836C66.9542 21.9407 73.2076 23.2884 73.9084 25.6604C74.3935 26.9542 73.8544 28.1941 72.9919 29.0566C69.8113 32.0755 64.3127 30.2426 61.0243 28.7332V32.0216C64.6361 33.6388 69.1644 34.0701 73.2076 33.2076C75.9569 32.5067 79.0836 30.0809 79.5687 27.0081C79.9461 23.9353 79.3531 21.9946 77.4124 20.3235ZM41.7251 32.938H59.0836V29.8113H47.7089V21.186H56.7655V18.1671H47.7089V10.1887H59.0836V7.062H41.7251V32.938ZM93.5849 6.79245H82.2102V33.2615H88.248V31.6442L88.1402 23.558C88.1402 23.558 97.1968 24.1509 99.9461 20.4852C101.941 18.1671 102.102 14.5553 101.24 11.6442C100.108 8.3558 96.9272 6.84636 93.5849 6.79245ZM94.8787 18.7062C93.2615 20.4852 90.5121 20.2156 88.1402 20.0539V10.1887C88.1402 10.1887 92.9919 9.11051 95.0404 11.8059C96.1725 13.2615 96.2264 16.8733 94.8787 18.7062ZM121.294 20.4313C123.234 18.1671 123.396 14.6092 122.588 11.752C121.509 8.57143 118.383 7.062 115.094 7.00809H103.935V32.938H109.865L109.811 23.3962C109.811 23.3962 110.889 23.504 112.668 23.3962L118.383 32.9919H124.906L118.329 22.3181C119.407 21.8868 120.647 21.2938 121.294 20.4313ZM116.496 18.7062C114.879 20.4313 112.183 20.2156 109.919 20.0539V10.3504C109.919 10.3504 114.663 9.27224 116.658 11.9137C117.79 13.3693 117.844 16.9272 116.496 18.7062ZM216.712 27.1698C214.825 27.1698 213.315 28.6253 213.315 30.4582C213.315 32.2911 214.825 33.7466 216.712 33.7466C218.491 33.7466 220 32.345 220 30.4582C220 28.6253 218.491 27.1698 216.712 27.1698ZM216.712 33.3693C215.04 33.3693 213.639 32.1294 213.639 30.4582C213.639 28.841 214.987 27.5472 216.712 27.5472C218.329 27.5472 219.677 28.8949 219.677 30.4582C219.677 32.1294 218.329 33.3693 216.712 33.3693Z" fill="white"/>
<path d="M217.628 30.4583C217.736 30.3505 218.221 30.1887 218.221 29.5418C218.221 28.8949 217.79 28.5176 217.035 28.5176H215.256V32.1833H215.849V30.7278H216.873C217.466 30.7278 217.628 30.9974 217.628 31.6443C217.628 31.9138 217.628 32.0755 217.736 32.2373H218.437C218.275 32.0755 218.275 31.6443 218.275 31.213C218.221 30.62 217.898 30.4583 217.628 30.4583ZM216.981 30.1887H215.903V29.0028H216.981C217.305 29.0028 217.682 29.0567 217.682 29.5957C217.628 29.9731 217.412 30.1887 216.981 30.1887Z" fill="white"/>
</g>
<defs>
<clipPath id="clip0_3411_36721">
<rect width="220" height="40" fill="white"/>
</clipPath>
</defs>
</svg>
