<svg width="174" height="74" viewBox="0 0 174 74" fill="none" xmlns="http://www.w3.org/2000/svg">
<path d="M7.96608 63.1516C5.58025 62.4268 4.53494 61.967 4.53494 60.5995C4.53494 59.376 6.16128 58.9417 7.55413 58.9417C8.77254 58.9417 10.0822 59.3047 10.9719 59.8883C11.1825 60.0254 11.4415 60.0671 11.683 59.9999C11.9246 59.9353 12.1285 59.7672 12.2413 59.5427L12.6465 58.7306C12.8451 58.3299 12.7149 57.8432 12.3406 57.5971C11.0591 56.7581 9.24085 56.2377 7.59573 56.2377C4.13909 56.2377 1.81499 58.0166 1.81499 60.6641C1.81499 64.1035 4.71475 64.9735 7.04154 65.674C9.47836 66.4054 10.5438 66.8761 10.5304 68.3295C10.5304 69.7884 8.81682 70.3074 7.2133 70.3074C5.67687 70.3074 4.00491 69.4886 2.98912 68.5487C2.7865 68.3618 2.52483 68.2542 2.25378 68.2852C1.98138 68.3161 1.7385 68.4734 1.59761 68.7101L1.13064 69.5007C0.922651 69.8489 0.980351 70.294 1.26885 70.579C2.77576 72.0661 5.04485 72.9912 7.19183 72.9912C10.8149 72.9912 13.249 71.1075 13.249 68.3148C13.2772 64.7664 10.3318 63.8709 7.96608 63.1516Z" fill="white"/>
<path d="M23.9289 56.7948C23.7853 56.4815 23.4726 56.2798 23.1278 56.2798H22.1697C21.8235 56.2798 21.5108 56.4815 21.3686 56.7975L14.6137 71.721C14.4902 71.9953 14.513 72.3112 14.6741 72.564C14.8378 72.8182 15.1155 72.9688 15.4148 72.9688H16.3943C16.7405 72.9688 17.0545 72.7657 17.1968 72.4497L18.8808 68.7199H26.4623L28.1665 72.4538C28.3101 72.7671 28.6227 72.9688 28.9662 72.9688H29.9471C30.2477 72.9688 30.5255 72.8155 30.6878 72.5627C30.8502 72.3112 30.8717 71.9939 30.7469 71.7183L23.9289 56.7948ZM20.0603 66.0576L22.642 60.323L25.2533 66.0576H20.0603Z" fill="white"/>
<path d="M35.167 56.2811H34.2733C33.7876 56.2811 33.3931 56.6764 33.3931 57.1632V72.0867C33.3931 72.5748 33.7876 72.9688 34.2733 72.9688H35.167C35.6528 72.9688 36.0473 72.5748 36.0473 72.0867V57.1632C36.0473 56.6764 35.6528 56.2811 35.167 56.2811Z" fill="white"/>
<path d="M53.7476 56.2811H52.874C52.3856 56.2811 51.9924 56.6764 51.9924 57.1632V68.0328L43.6326 56.6401C43.4662 56.4129 43.2032 56.2811 42.9228 56.2811H41.8788C41.3917 56.2811 40.9985 56.6764 40.9985 57.1632V72.0867C40.9985 72.5748 41.3917 72.9688 41.8788 72.9688H42.7725C43.2596 72.9688 43.6541 72.5748 43.6541 72.0867V61.2225L51.9924 72.6111C52.1575 72.8356 52.4218 72.9688 52.7036 72.9688H53.7476C54.2333 72.9688 54.6278 72.5748 54.6278 72.0867V57.1632C54.6278 56.6764 54.2333 56.2811 53.7476 56.2811Z" fill="white"/>
<path d="M69.1094 56.2811H58.1558C57.67 56.2811 57.2769 56.6764 57.2769 57.1632V58.0399C57.2769 58.5252 57.67 58.9206 58.1558 58.9206H62.3062V72.0867C62.3062 72.5748 62.7007 72.9688 63.1864 72.9688H64.0788C64.5672 72.9688 64.9617 72.5748 64.9617 72.0867V58.9206H69.1094C69.5965 58.9206 69.9897 58.5252 69.9897 58.0399V57.1632C69.9897 56.6764 69.5965 56.2811 69.1094 56.2811Z" fill="white"/>
<path d="M75.6602 64.4156H70.9074C70.4216 64.4156 70.0271 64.8096 70.0271 65.2976V66.0237C70.0271 66.5118 70.4216 66.9058 70.9074 66.9058H75.6602C76.146 66.9058 76.5392 66.5118 76.5392 66.0237V65.2976C76.5392 64.8096 76.146 64.4156 75.6602 64.4156Z" fill="white"/>
<path d="M94.1658 63.8806H93.3553C93.3512 63.8806 93.3459 63.8819 93.3405 63.8819H90.697C90.2099 63.8819 89.8154 64.2772 89.8154 64.764V65.6608C89.8154 66.1475 90.2099 66.5428 90.697 66.5428H92.4763V69.271C91.4391 69.9836 90.1925 70.3709 88.9244 70.3709C85.6382 70.3709 82.9652 67.7893 82.9652 64.6147C82.9652 61.4509 85.6382 58.8774 88.9244 58.8774C90.4501 58.8774 91.9517 59.4408 93.0453 60.4237C93.2251 60.585 93.464 60.667 93.7042 60.6469C93.9457 60.628 94.1671 60.5097 94.3187 60.3215L94.8514 59.6599C95.1467 59.2902 95.1024 58.7523 94.7454 58.4404C93.1459 57.0353 91.0768 56.2581 88.9244 56.2581C84.1743 56.2581 80.3083 60.0055 80.3083 64.6147C80.3083 69.2334 84.1541 72.9888 88.8815 72.9888C91.0191 72.9888 93.1526 72.2035 94.7414 70.8334C94.9346 70.6667 95.0474 70.422 95.0474 70.1638V64.7626C95.0474 64.2772 94.6515 63.8806 94.1658 63.8806Z" fill="white"/>
<path d="M106.652 56.2581C101.914 56.2581 98.0586 60.0055 98.0586 64.6134C98.0586 69.2334 101.914 72.9888 106.652 72.9888C111.39 72.9888 115.246 69.2334 115.246 64.6134C115.246 60.0055 111.39 56.2581 106.652 56.2581ZM106.652 70.3494C103.388 70.3494 100.734 67.7758 100.734 64.6134C100.734 61.4617 103.388 58.8989 106.652 58.8989C109.914 58.8989 112.568 61.4617 112.568 64.6134C112.568 67.7758 109.914 70.3494 106.652 70.3494Z" fill="white"/>
<path d="M129.35 64.1523C130.246 63.3792 130.744 62.2403 130.744 60.8554C130.744 58.0331 128.626 56.2798 125.218 56.2798H119.123C118.639 56.2798 118.244 56.6751 118.244 57.1618V72.0867C118.244 72.5734 118.639 72.9688 119.123 72.9688H125.261C129.162 72.9688 131.489 71.1388 131.489 68.0745C131.489 66.34 130.706 64.9604 129.35 64.1523ZM125.197 63.0484H120.899V58.9206H125.197C126.514 58.9206 128.088 59.2742 128.088 60.963C128.088 62.3466 127.115 63.0484 125.197 63.0484ZM120.899 65.6878H125.197C126.555 65.6878 128.833 65.9836 128.833 67.9656C128.833 69.9192 126.856 70.3293 125.197 70.3293H120.899V65.6878Z" fill="white"/>
<path d="M142.297 56.7948C142.154 56.4815 141.841 56.2798 141.496 56.2798H140.538C140.19 56.2798 139.878 56.4815 139.734 56.7975L132.981 71.721C132.857 71.9953 132.88 72.3112 133.044 72.564C133.206 72.8182 133.484 72.9688 133.784 72.9688H134.764C135.11 72.9688 135.424 72.7657 135.566 72.4497L137.25 68.7199H144.829L146.533 72.4538C146.677 72.7671 146.991 72.9688 147.335 72.9688H148.314C148.613 72.9688 148.894 72.8155 149.055 72.5627C149.217 72.3112 149.24 71.9939 149.115 71.7183L142.297 56.7948ZM138.429 66.0576L141.01 60.323L143.622 66.0576H138.429Z" fill="white"/>
<path d="M153.534 56.2811H152.639C152.153 56.2811 151.757 56.6764 151.757 57.1632V72.0867C151.757 72.5748 152.153 72.9688 152.639 72.9688H153.534C154.02 72.9688 154.417 72.5748 154.417 72.0867V57.1632C154.417 56.6764 154.02 56.2811 153.534 56.2811Z" fill="white"/>
<path d="M172.115 56.2811H171.24C170.754 56.2811 170.361 56.6764 170.361 57.1632V68.0328L162 56.6401C161.835 56.4129 161.57 56.2811 161.29 56.2811H160.246C159.759 56.2811 159.364 56.6764 159.364 57.1632V72.0867C159.364 72.5748 159.759 72.9688 160.246 72.9688H161.141C161.627 72.9688 162.02 72.5748 162.02 72.0867V61.2225L170.361 72.6111C170.526 72.8356 170.789 72.9688 171.069 72.9688H172.115C172.6 72.9688 172.994 72.5748 172.994 72.0867V57.1632C172.994 56.6764 172.6 56.2811 172.115 56.2811Z" fill="white"/>
<path d="M97.6896 32.8638V47.5359H94.9938V30.8456L97.6896 32.8638ZM149.951 47.4875H139.346L139.271 47.4136L129.944 38.1696C129.564 37.7931 128.979 37.6775 128.484 37.8845C127.982 38.0943 127.657 38.581 127.657 39.1256V47.5359H124.886V26.7231C124.886 26.3547 124.732 25.9984 124.465 25.7456L116.716 18.4123C116.466 18.1756 116.137 18.0452 115.794 18.0452H111.92C111.179 18.0452 110.577 18.6489 110.577 19.3898V47.5359H107.827V2.34989C107.827 1.8013 107.5 1.31323 106.994 1.10617C106.498 0.901791 105.902 1.02548 105.529 1.406L92.6952 14.4552C92.4456 14.708 92.3087 15.0441 92.3087 15.3991V25.4794L87.054 21.5478C86.5763 21.1915 85.8758 21.2036 85.4116 21.5761L73.4636 31.1737C73.1443 31.4305 72.9618 31.8137 72.9618 32.2238V47.5359H70.2539V39.096C70.2539 36.1325 68.2169 32.9822 64.445 32.9822C60.6717 32.9822 58.6361 36.1473 58.6361 39.1256V47.5359L55.8973 47.5346V41.8094C55.8973 39.4886 54.3032 37.024 51.3484 37.024C48.3936 37.024 46.7995 39.4913 46.7995 41.8147V47.5373L44.0715 47.5386L44.0701 47.2845C44.0661 46.1308 44.0621 44.6531 44.0621 44.0602C44.0621 42.089 42.205 40.3612 40.0875 40.3612C37.97 40.3612 36.1129 42.081 36.1129 44.0427V47.5359L24.1489 47.5346C23.4082 47.5346 22.807 48.1383 22.8057 48.8792C22.8057 49.2395 22.9452 49.577 23.1988 49.8311C23.4525 50.0852 23.7892 50.2251 24.1475 50.2251L37.4548 50.2264C37.8131 50.2264 38.1512 50.0866 38.4035 49.8325C38.6571 49.5783 38.798 49.2409 38.798 48.8819V44.2861C38.798 43.7886 39.3387 43.0504 40.0875 43.0504C40.8255 43.0504 41.3784 43.7254 41.3784 44.3291C41.3784 44.6747 41.3918 48.8899 41.3918 48.8899C41.3958 49.6294 41.997 50.2305 42.7337 50.2305L48.1427 50.2264C48.8821 50.2264 49.4846 49.6227 49.4846 48.8819V41.8147C49.4846 41.0873 49.8737 39.7132 51.3484 39.7132C52.8231 39.7132 53.2136 41.0833 53.2136 41.8094V48.8778C53.2136 49.62 53.8147 50.2237 54.5541 50.2237L59.9766 50.2264C60.3308 50.2264 60.677 50.0826 60.9266 49.8325C61.1762 49.5824 61.3198 49.2355 61.3198 48.8819V39.1256C61.3198 37.9316 61.9733 35.6713 64.445 35.6713C66.7369 35.6713 67.5688 37.7191 67.5688 39.096V48.8819C67.5688 49.6227 68.1713 50.2264 68.9107 50.2264H74.3036C75.0443 50.2264 75.6455 49.6227 75.6455 48.8819V32.8692L75.7421 32.7912L86.2797 24.3258L92.3087 28.8368V48.8819C92.3087 49.6227 92.9112 50.2264 93.6506 50.2264H99.0328C99.7722 50.2264 100.375 49.6227 100.375 48.8819V32.1889C100.375 31.768 100.172 31.3646 99.8352 31.1119L94.9938 27.4882V15.9503L95.0676 15.875L105.142 5.63067V48.8819C105.142 49.6227 105.745 50.2264 106.484 50.2264H111.92C112.659 50.2264 113.262 49.6227 113.262 48.8819V20.7344H115.26L115.334 20.8043L122.201 27.3027V48.8819C122.201 49.6227 122.804 50.2264 123.543 50.2264H128.999C129.74 50.2264 130.342 49.6227 130.342 48.8819V42.3472L137.85 49.7881C138.104 50.0382 138.439 50.1767 138.793 50.1767H149.951C150.692 50.1767 151.294 49.573 151.294 48.8321C151.294 48.0899 150.692 47.4875 149.951 47.4875Z" fill="white"/>
</svg>
