<svg width="173" height="56" viewBox="0 0 173 56" fill="none" xmlns="http://www.w3.org/2000/svg">
<g clip-path="url(#clip0_3411_36885)">
<path d="M82.1358 34.6501L80.2155 44.2751C79.3426 48.2126 76.9859 50.7501 72.2725 50.7501C66.7735 50.7501 65.2897 47.3376 66.5117 42.5251C68.1701 35.7001 73.7564 33.6876 82.1358 34.6501ZM90.7771 20.9126L84.9289 21.2626L83.0959 30.7126C80.8265 30.6251 80.1282 30.5376 77.5097 30.5376C69.3048 30.5376 62.1474 34.0376 60.2271 42.0876C58.4814 49.4376 62.6711 55.1251 71.7488 55.1251C81.0011 55.1251 85.0162 50.3126 86.5001 43.4876L90.7771 20.9126Z" fill="white"/>
<path d="M27.4077 35C18.8537 34.3 11.5217 35 11.3471 37.8875C11.1726 42.2625 25.4874 38.4125 25.2255 46.4625C24.7891 58.3625 4.88799 55.5625 0 54.075L0.872856 50.575C9.33955 51.8875 18.33 52.0625 18.5045 47.3375C18.6791 42.35 4.36428 46.8125 4.71342 38.7625C4.97528 32.725 13.9657 29.4875 28.6297 31.675L27.4077 35Z" fill="white"/>
<path d="M50.5383 43.0498C49.3163 47.9498 45.3885 51.0998 40.7624 51.0998C35.8744 51.0998 33.6922 48.2998 35.0015 43.0498C36.2235 38.1498 40.1514 34.8248 44.8648 34.8248C49.4036 34.8248 51.7603 38.1498 50.5383 43.0498ZM45.5631 30.7998C37.0091 30.7998 30.2008 35.6998 28.5424 43.0498C26.884 50.3998 31.4228 55.3873 39.9768 55.3873C48.5308 55.3873 55.3391 50.4873 56.9975 43.0498C58.6559 35.6998 54.0298 30.7998 45.5631 30.7998Z" fill="white"/>
<path d="M143.934 55.3H136.515C132.063 51.1 123.422 41.3875 117.137 31.0625H122.549C128.572 39.2875 143.934 55.3 143.934 55.3Z" fill="white"/>
<path d="M151.702 7.0875L155.106 0L156.067 7.2625L163.049 4.8125L158.161 11.025L163.399 15.1375L156.416 15.6625L156.067 23.1875L152.139 17.5875L146.378 22.925L148.56 15.4875L141.752 14.525L148.298 10.7625L145.592 4.375L151.702 7.0875Z" fill="white"/>
<path d="M166.105 43.1374C164.883 48.1249 160.867 51.2749 156.154 51.2749C151.179 51.2749 148.997 48.3874 150.306 43.1374C151.528 38.1499 155.543 34.7374 160.256 34.7374C165.057 34.7374 167.414 38.1499 166.105 43.1374ZM161.129 30.7124C152.488 30.7124 145.505 35.6999 143.847 43.2249C142.101 50.6624 146.814 55.7374 155.456 55.7374C164.097 55.7374 171.08 50.7499 172.738 43.2249C174.397 35.6999 169.771 30.7124 161.129 30.7124Z" fill="white"/>
<path d="M111.551 53.2001C125.517 45.4126 137.649 33.4251 146.291 23.1001C140.093 42.5251 125.168 53.0251 111.551 53.2001Z" fill="white"/>
<path d="M105.965 34.3874C108.671 34.3874 110.067 35.3499 110.067 37.1874C110.067 42.0874 100.466 41.8249 96.1888 40.9499C97.7599 37.2749 101.164 34.3874 105.965 34.3874ZM115.915 36.9249C115.915 33.3374 113.035 30.7124 106.576 30.7124C96.1015 30.7124 89.2932 37.5374 89.2932 45.9374C89.2932 51.3624 93.8321 55.9124 102.037 55.9124C107.71 55.9124 111.551 53.1124 111.551 53.1124C104.306 53.8999 95.4032 53.1124 95.4032 45.3249C95.4032 44.9749 95.4032 44.7124 95.4032 44.3624C105.354 46.5499 115.915 44.0999 115.915 36.9249Z" fill="white"/>
</g>
<defs>
<clipPath id="clip0_3411_36885">
<rect width="173" height="56" fill="white"/>
</clipPath>
</defs>
</svg>
