<svg width="196" height="74" viewBox="0 0 196 74" fill="none" xmlns="http://www.w3.org/2000/svg">
<g clip-path="url(#clip0_3411_36971)">
<path fill-rule="evenodd" clip-rule="evenodd" d="M98.5472 16.5694C98.7114 16.323 99.208 16.4872 99.5573 16.4957C100.027 16.5062 99.9151 17.2011 100.565 17.0642C101.214 16.9252 101.222 17.6811 102.148 17.6538C103.078 17.6243 101.963 17.978 101.963 17.978C101.963 17.978 101.388 17.7001 101.018 17.8875C100.82 17.9864 101.089 17.8306 100.759 17.5611C100.25 17.1442 100.319 17.639 99.4647 16.9126C98.8587 16.3988 98.2779 16.9736 98.5472 16.5694Z" fill="white"/>
<path d="M91.5711 17.5274C91.0218 16.6389 91.4322 15.5334 92.0551 14.4575C92.5117 13.6657 93.7344 13.3162 94.7971 13.731C95.9903 12.7898 96.2765 13.8026 97.3329 13.3457C98.7218 12.7435 97.9453 14.9438 99.2879 15.4976C99.8435 14.0153 98.0232 12.9014 99.1637 12.2044C99.9803 11.7054 100.597 11.3959 100.931 10.7305C101.407 9.77876 101.592 9.0839 101.961 8.95967C102.806 8.6691 102.623 7.86475 102.623 7.86475C102.623 7.86475 103.526 8.12795 104.225 7.47099C103.69 7.18042 102.907 6.93406 103.116 6.35712C103.358 5.67911 105.172 7.05829 105.708 5.94442C104.629 5.47487 103.526 4.45153 102.867 4.2157C102.417 4.71052 102.133 4.5126 101.55 4.05146C100.563 3.27028 100.481 4.01146 99.8624 3.47663C99.3721 4.46417 100.115 4.38626 100.34 4.63262C100.974 5.32958 99.6983 4.01146 99.8224 5.78018C99.854 6.23921 99.1764 6.32554 98.6713 5.32958C98.4083 4.80949 96.3123 4.91687 95.9945 4.42205C96.2849 3.84511 98.7534 1.78792 102.539 2.28274C97.0362 0.11816 89.6034 2.48067 89.5277 3.30186C88.7869 3.76721 89.0416 4.29993 88.6712 4.42205C88.0293 4.63683 87.3328 6.59506 87.3328 6.59506C87.3328 6.59506 87.7305 6.86037 86.4868 8.25429C85.462 9.40185 85.1589 11.1411 85.1589 11.1411C85.1589 11.1411 85.8366 12.3813 85.7061 13.8089C85.6114 14.8996 85.5651 14.0911 86.0386 14.8807C86.3143 15.3439 86.6152 16.9568 86.7983 16.3272C87.1476 15.127 86.1606 14.0153 86.3248 12.8214C86.3627 12.9709 86.7036 12.3476 86.6909 12.9119C86.6552 14.3859 88.5049 17.2284 88.5049 17.2284C88.5049 17.2284 87.8147 17.9317 88.5386 17.9317L88.3534 18.3676C88.3534 18.3676 88.89 18.336 89.2352 18.6182C89.5824 18.9024 89.8812 19.252 90.1969 19.252H95.5189C95.5189 19.252 95.8977 17.6369 96.2071 17.3611C96.5164 17.0874 95.5884 17.3611 95.3148 17.0874C95.0391 16.8115 94.8666 17.3274 94.7298 17.6011C94.5909 17.877 94.4204 18.3592 94.008 18.496C93.5955 18.6329 92.6022 18.7024 92.396 18.7024C92.1898 18.7024 91.5711 17.5274 91.5711 17.5274Z" fill="white"/>
<path d="M116.506 34.8189C116.3 34.5451 116.54 34.1303 116.54 34.1303H101.533L103.206 35.5916C103.572 35.739 104.035 36.1075 104.248 36.6697C104.749 37.9984 104.004 36.9224 104.004 38.9311C104.004 40.7778 103.484 40.4788 103.484 40.4788C103.484 40.4788 103.372 42.6623 102.242 44.0036C101.525 44.7258 102.082 45.3238 102.082 45.3238C102.082 45.3238 101.84 45.4607 101.489 47.0441C101.373 47.5558 102.03 48.3475 102.598 48.1496C103.025 48.0001 101.563 47.859 103.149 47.1915C103.76 46.9325 103.261 46.4461 103.261 46.4461C103.261 46.4461 104.286 46.3661 104.864 44.8143C105.887 44.9638 105.508 44.3363 107.613 43.8815C108.168 43.7636 108.286 43.5951 108.217 43.0729C108.147 42.5486 108.903 43.1487 110.988 41.0199C112.63 39.3417 112.038 38.9627 113.175 38.3542C114.376 37.7141 114.486 38.409 114.888 37.8889C115.805 36.6929 115.483 36.7708 115.864 36.0085L116.136 35.5895C116.136 35.5895 116.71 35.0926 116.506 34.8189Z" fill="white"/>
<path d="M106.018 18.797L105.683 18.9971L105.616 18.6644L106.018 18.797Z" fill="white"/>
<path d="M104.818 18.5321C104.282 18.6479 103.716 18.5321 103.217 18.9321L102.882 18.6647H102.682C103.15 18.2815 102.415 17.8814 103.217 17.8646C103.833 17.8814 104.282 18.3131 104.818 18.5321Z" fill="white"/>
<path fill-rule="evenodd" clip-rule="evenodd" d="M72.5808 19.0101C76.0468 8.28403 84.2518 0.000511169 97.9641 0.000511169C110.706 0.000511169 120.069 8.39773 123.465 19.2438C119.921 9.1347 109.852 1.84293 97.9831 1.84293C86.2026 1.84293 76.1962 9.0231 72.5808 19.0101ZM123.408 35.4171C119.959 46.1705 110.258 54.5361 97.9641 54.5361C84.9231 54.5361 76.1604 46.2842 72.6355 35.6508C76.3035 45.5557 86.2636 52.66 97.9831 52.66C109.789 52.66 119.816 45.4441 123.408 35.4171Z" fill="white"/>
<path d="M52.0966 21.6354H47.9151L48.5401 22.3787V27.8744C48.5401 29.1083 47.7236 29.6284 46.501 29.6284C45.2825 29.6284 44.4639 29.1083 44.4639 27.8744V22.3787L45.0889 21.6354H40.9075L41.5325 22.3787V27.9628C41.5325 30.7023 43.0645 31.7593 46.501 31.7593C49.9375 31.7593 51.4695 30.7023 51.4695 27.9628V22.3787L52.0966 21.6354Z" fill="white"/>
<path d="M66.6087 21.6358H63.0817L63.7046 22.3791V27.382L58.6477 21.6358H55.4785L56.1035 22.3791V30.8205L55.4785 31.5659H59.0055L58.3805 30.8205V25.7291L63.7509 31.5659H65.9837V22.3791L66.6087 21.6358Z" fill="white"/>
<path d="M74.7336 31.5659L74.1086 30.8226V22.3812L74.7336 21.6358H70.5227L71.1498 22.3812V30.8226L70.5227 31.5659H74.7336Z" fill="white"/>
<path d="M88.6186 21.6358H85.0769L85.7019 22.3791L83.2018 27.8432L80.7923 22.3791L81.4173 21.6358H77.2527L81.8782 31.5659H83.9468L88.6186 21.6358Z" fill="white"/>
<path d="M100.445 31.5659V28.8707L99.7004 29.4961H94.6267V27.5905H97.8422L98.5703 28.218V24.9858L97.8422 25.6112H94.6267V23.7056H99.7004L100.445 24.331V21.6358H91.1018L91.7247 22.3812V30.8226L91.1018 31.5659H100.445Z" fill="white"/>
<path fill-rule="evenodd" clip-rule="evenodd" d="M111.247 24.8511C111.247 25.5649 110.563 26.146 109.61 26.146H107.722V23.7056H109.968C110.622 23.7056 111.247 24.032 111.247 24.8511ZM114.669 31.5659L111.977 27.6495C113.301 27.1146 114.225 26.0871 114.225 24.6426C114.225 22.9897 113.213 21.6358 110.384 21.6358H104.195L104.82 22.3812V30.8205L104.195 31.5659H108.345L107.722 30.8205V28.0074H108.972L110.875 30.8205L110.252 31.5659H114.669Z" fill="white"/>
<path d="M127.239 28.6621C127.239 27.085 125.972 26.2048 124.143 25.6089C122.952 25.2383 121.271 24.9709 121.271 24.1813C121.271 23.7939 121.731 23.5265 122.535 23.5265C123.609 23.5265 125.362 23.9728 126.731 24.6277V21.3071L125.942 22.0673C125.109 21.724 123.665 21.3661 122.67 21.3661C119.292 21.3661 118.207 22.8548 118.207 24.2108C118.207 26.0574 119.427 26.8618 121.346 27.5313C122.773 28.022 124.099 28.0662 124.099 28.8832C124.099 29.5864 123.28 29.6749 122.861 29.6749C121.807 29.6749 119.932 29.3022 118.265 28.2157V31.8921L119.055 31.0288C119.829 31.3257 121.569 31.8331 122.996 31.8331C125.93 31.8331 127.239 30.5382 127.239 28.6621Z" fill="white"/>
<path fill-rule="evenodd" clip-rule="evenodd" d="M137.304 27.9927H134.017L135.654 24.4363L137.304 27.9927ZM142.079 31.5659L137.197 21.6358H133.851L134.206 22.3812L129.789 31.5659H133.432L132.809 30.8205L133.299 29.7782H138.03L138.51 30.8205L137.883 31.5659H142.079Z" fill="white"/>
<path d="M153.838 31.5659V28.8707L153.093 29.4961H148.316V22.3812L148.941 21.6358H144.789L145.416 22.3812V30.8226L144.789 31.5659H153.838Z" fill="white"/>
<path d="M151.744 23.7834C151.744 22.6906 152.632 21.8041 153.725 21.8041C154.817 21.8041 155.705 22.6906 155.705 23.7834C155.705 24.8762 154.817 25.7627 153.725 25.7627C152.632 25.7627 151.744 24.8762 151.744 23.7834ZM151.932 23.7834C151.932 24.7731 152.731 25.5795 153.725 25.5795C154.716 25.5795 155.52 24.7731 155.52 23.7834C155.52 22.7917 154.716 21.9873 153.725 21.9873C152.731 21.9873 151.932 22.7917 151.932 23.7834Z" fill="white"/>
<path fill-rule="evenodd" clip-rule="evenodd" d="M154.47 23.0083C154.274 22.842 154.038 22.7641 153.784 22.7641C153.201 22.7641 152.767 23.2168 152.767 23.7895C152.767 24.3665 153.192 24.8213 153.779 24.8213C154.042 24.8213 154.293 24.7244 154.495 24.5497V24.2907C154.312 24.5076 154.051 24.6423 153.769 24.6423C153.304 24.6423 152.961 24.238 152.961 23.7895C152.961 23.341 153.308 22.9452 153.773 22.9452C154.053 22.9452 154.284 23.061 154.47 23.2652V23.0083Z" fill="white"/>
<path d="M7.11289 67.5949V71.3534C7.11289 73.198 6.08173 73.9097 3.76688 73.9097C1.45414 73.9097 0.420881 73.198 0.420881 71.3534V67.5949L0 67.0938H2.81569L2.39481 67.5949V71.2924C2.39481 72.1241 2.94617 72.4757 3.76688 72.4757C4.58971 72.4757 5.13896 72.1241 5.13896 71.2924V67.5949L4.71807 67.0938H7.53377L7.11289 67.5949Z" fill="white"/>
<path d="M17.9106 67.5951V73.7793H16.408L12.7926 69.8502V73.2782L13.2135 73.7793H10.8376L11.2585 73.2782V67.5951L10.8376 67.0939H12.9715L16.3785 70.962V67.5951L15.9577 67.0939H18.3314L17.9106 67.5951Z" fill="white"/>
<path d="M21.9868 73.7793L22.4077 73.2782V67.5951L21.9868 67.0939H24.8214L24.4006 67.5951V73.2782L24.8214 73.7793H21.9868Z" fill="white"/>
<path d="M32.0838 73.7793H30.6907L27.5762 67.0939H30.3813L29.9605 67.5951L31.583 71.2736L33.2665 67.5951L32.8456 67.0939H35.2299L32.0838 73.7793Z" fill="white"/>
<path d="M37.9341 73.7793L38.355 73.2782V67.5951L37.9341 67.0939H44.2241V68.909L43.7233 68.4879H40.3078V69.7702H42.4712L42.9615 69.3491V71.5242L42.4712 71.1031H40.3078V72.3854H43.7233L44.2241 71.9643V73.7793H37.9341Z" fill="white"/>
<path d="M51.6674 68.4879H50.1543V70.1303H51.4275C52.0672 70.1303 52.5281 69.7407 52.5281 69.2585C52.5281 68.7069 52.1072 68.4879 51.6674 68.4879ZM51.8567 73.7793L52.2776 73.2782L50.996 71.3831H50.1543V73.2782L50.5752 73.7793H47.7805L48.2014 73.2782V67.5951L47.7805 67.0939H51.9472C53.8517 67.0939 54.5314 68.0057 54.5314 69.1196C54.5314 70.0902 53.9106 70.783 53.0205 71.1431L54.8324 73.7793H51.8567Z" fill="white"/>
<path d="M61.4634 73.9605C60.5016 73.9605 59.3295 73.6194 58.8097 73.4193L58.2773 74.0005V71.5243C59.3989 72.257 60.6616 72.5076 61.3729 72.5076C61.6528 72.5076 62.2041 72.4465 62.2041 71.977C62.2041 71.4253 61.3139 71.3937 60.3522 71.0631C59.0601 70.6125 58.2373 70.0714 58.2373 68.8291C58.2373 67.9173 58.9696 66.9151 61.2424 66.9151C61.9137 66.9151 62.8859 67.1551 63.4478 67.3867L63.9781 66.8751V69.1091C63.0564 68.6691 61.8737 68.3679 61.1519 68.3679C60.6111 68.3679 60.3017 68.549 60.3017 68.808C60.3017 69.3407 61.4339 69.5197 62.2336 69.7703C63.4667 70.1725 64.319 70.762 64.319 71.8254C64.319 73.0888 63.4373 73.9605 61.4634 73.9605Z" fill="white"/>
<path d="M71.0195 68.9785L69.9189 71.3747H72.1327L71.0195 68.9785ZM72.522 73.7793L72.9429 73.2782L72.623 72.577H69.437L69.1066 73.2782L69.5275 73.7793H67.0737L70.0494 67.5951L69.8074 67.0939H72.0612L75.3482 73.7793H72.522Z" fill="white"/>
<path d="M78.2017 73.7793L78.6225 73.2782V67.5951L78.2017 67.0939H80.9963L80.5754 67.5951V72.3854H83.791L84.2918 71.9643V73.7793H78.2017Z" fill="white"/>
<path d="M99.3069 73.7793L99.7277 73.2782V70.0713L97.9537 73.7793H97.0236L95.0181 70.0102V73.2782L95.439 73.7793H93.1262L93.5471 73.2782V67.5951L93.1262 67.0939H95.481L97.6528 71.1831L99.6372 67.0939H102.04L101.62 67.5951V73.2782L102.04 73.7793H99.3069Z" fill="white"/>
<path d="M112.459 67.5949V71.3534C112.459 73.198 111.426 73.9097 109.113 73.9097C106.801 73.9097 105.767 73.198 105.767 71.3534V67.5949L105.346 67.0938H108.162L107.741 67.5949V71.2924C107.741 72.1241 108.293 72.4757 109.113 72.4757C109.934 72.4757 110.485 72.1241 110.485 71.2924V67.5949L110.065 67.0938H112.88L112.459 67.5949Z" fill="white"/>
<path d="M119.311 73.9605C118.35 73.9605 117.177 73.6194 116.658 73.4193L116.125 74.0005V71.5243C117.247 72.257 118.509 72.5076 119.221 72.5076C119.501 72.5076 120.052 72.4465 120.052 71.977C120.052 71.4253 119.162 71.3937 118.2 71.0631C116.908 70.6125 116.085 70.0714 116.085 68.8291C116.085 67.9173 116.818 66.9151 119.092 66.9151C119.762 66.9151 120.734 67.1551 121.294 67.3867L121.826 66.8751V69.1091C120.904 68.6691 119.722 68.3679 119 68.3679C118.459 68.3679 118.15 68.549 118.15 68.808C118.15 69.3407 119.282 69.5197 120.084 69.7703C121.315 70.1725 122.167 70.762 122.167 71.8254C122.167 73.0888 121.285 73.9605 119.311 73.9605Z" fill="white"/>
<path d="M125.721 73.7793L126.142 73.2782V67.5951L125.721 67.0939H128.556L128.135 67.5951V73.2782L128.556 73.7793H125.721Z" fill="white"/>
<path d="M135.728 73.9097C133.695 73.9097 131.862 72.9074 131.862 70.4312C131.862 68.4772 133.264 66.9632 135.808 66.9632C136.58 66.9632 137.411 67.1443 137.881 67.3254L138.342 66.8832V69.1088C137.622 68.6688 136.86 68.4077 135.919 68.4077C134.505 68.4077 133.954 69.3489 133.954 70.4312C133.954 71.644 134.756 72.4673 135.978 72.4673C137.209 72.4673 137.952 71.9851 138.352 71.7346V73.299C137.872 73.5791 136.719 73.9097 135.728 73.9097Z" fill="white"/>
<path d="M151.965 70.4628H154.35V73.139C153.758 73.5096 152.445 73.9097 151.315 73.9097C149.28 73.9097 147.367 72.9074 147.367 70.4333C147.367 67.9276 149.451 66.9653 151.315 66.9653C152.397 66.9653 153.097 67.2369 153.518 67.3864L154.049 66.8853V69.1804C153.327 68.7783 152.466 68.4077 151.414 68.4077C150.191 68.4077 149.461 69.2204 149.461 70.4333C149.461 71.6461 150.191 72.4673 151.414 72.4673C151.725 72.4673 152.075 72.4168 152.397 72.3578V70.9723L151.965 70.4628Z" fill="white"/>
<path d="M161.492 68.4879H159.979V70.1303H161.252C161.892 70.1303 162.353 69.7407 162.353 69.2585C162.353 68.7069 161.932 68.4879 161.492 68.4879ZM161.681 73.7793L162.102 73.2782L160.821 71.3831H159.979V73.2782L160.4 73.7793H157.605L158.026 73.2782V67.5951L157.605 67.0939H161.772C163.676 67.0939 164.356 68.0057 164.356 69.1196C164.356 70.0902 163.735 70.783 162.845 71.1431L164.657 73.7793H161.681Z" fill="white"/>
<path d="M171.639 68.3657C170.387 68.3657 169.878 69.1975 169.878 70.4314C169.878 71.6632 170.387 72.5054 171.639 72.5054C172.892 72.5054 173.392 71.6632 173.392 70.4314C173.392 69.1975 172.892 68.3657 171.639 68.3657ZM171.639 73.9478C169.756 73.9478 167.774 72.9665 167.774 70.4314C167.774 67.8941 169.756 66.9234 171.639 66.9234C173.523 66.9234 175.486 67.8941 175.486 70.4314C175.486 72.9665 173.523 73.9478 171.639 73.9478Z" fill="white"/>
<path d="M185.522 67.5949V71.3534C185.522 73.198 184.491 73.9097 182.176 73.9097C179.864 73.9097 178.83 73.198 178.83 71.3534V67.5949L178.409 67.0938H181.225L180.804 67.5949V71.2924C180.804 72.1241 181.356 72.4757 182.176 72.4757C182.997 72.4757 183.548 72.1241 183.548 71.2924V67.5949L183.127 67.0938H185.943L185.522 67.5949Z" fill="white"/>
<path d="M192.744 68.4879H191.623V70.5114H192.563C193.466 70.5114 193.967 70.2819 193.967 69.4291C193.967 68.6879 193.456 68.4879 192.744 68.4879ZM192.784 71.8358H191.623V73.2782L192.044 73.7793H189.249L189.67 73.2782V67.5951L189.249 67.0939H192.845C194.167 67.0939 196 67.4645 196 69.3091C196 71.4147 194.388 71.8358 192.784 71.8358Z" fill="white"/>
</g>
<defs>
<clipPath id="clip0_3411_36971">
<rect width="196" height="74" fill="white"/>
</clipPath>
</defs>
</svg>
